<svg xmlns="http://www.w3.org/2000/svg" width="32.003" height="36.443" viewBox="0 0 32.003 36.443">
  <defs>
    <style>
      .cls-1 {
        fill: #fc9321;
      }
    </style>
  </defs>
  <g id="ICON_1_Glycerin_Propylene_Glycol_" data-name="ICON_1_Glycerin &amp; Propylene Glycol " transform="translate(-267.779 -462.418)">
    <path id="Path_984" data-name="Path 984" class="cls-1" d="M294.031,527.5a5.313,5.313,0,1,0,3.479,4.986A5.392,5.392,0,0,0,294.031,527.5Zm-.511,8.571a3.824,3.824,0,1,1,2.494-3.585A3.87,3.87,0,0,1,293.519,536.069Z" transform="translate(-11.489 -38.926)"/>
    <path id="Path_985" data-name="Path 985" class="cls-1" d="M296.966,476.606a7.947,7.947,0,0,0-4.986-1.8.816.816,0,0,0-.176.018c0-.125.016-.25.017-.375a12.06,12.06,0,1,0-.158,1.921c.006-.043.009-.087.016-.13a.759.759,0,0,0,.3.062,6.309,6.309,0,1,1,0,12.619.748.748,0,0,0,0,1.5,7.8,7.8,0,0,0,4.986-13.805Zm-13.633,7.766a10.543,10.543,0,1,1,6.993-9.928A10.668,10.668,0,0,1,283.333,484.371Z" transform="translate(0 0)"/>
    <path id="Path_986" data-name="Path 986" class="cls-1" d="M284.593,473.264a4.443,4.443,0,0,0-1.546.242,5.971,5.971,0,0,0-2.948,2.148,8.177,8.177,0,0,0-1.248,2.6.748.748,0,0,0,1.442.4c.061-.2.126-.4.2-.6q.049-.129.1-.257l.018-.043c.03-.064.058-.129.089-.192a6.737,6.737,0,0,1,.534-.929c.044-.063.091-.124.134-.187.023-.027.044-.055.067-.082q.157-.19.331-.364.145-.146.3-.28c.043-.037.089-.072.132-.109l.077-.057a4.943,4.943,0,0,1,.641-.386c.049-.024.1-.048.147-.071l.009,0h-.008l.01,0,.061-.028c.065-.031.018,0-.026.022.075-.023.221-.093.25-.1a4.736,4.736,0,0,1,.522-.145q.11-.024.221-.043l.048-.008a3.018,3.018,0,0,1,.441-.021.748.748,0,1,0,0-1.5Z" transform="translate(-6.639 -6.517)"/>
    <path id="Path_987" data-name="Path 987" class="cls-1" d="M289.478,477.828a.07.07,0,0,0,.037-.007.1.1,0,0,1-.035.006Z" transform="translate(-13.044 -9.26)"/>
  </g>
</svg>
