<svg xmlns="http://www.w3.org/2000/svg" width="74.3" height="60.676" viewBox="0 0 74.3 60.676">
  <defs>
    <style>
      .cls-1 {
        fill: #fc9321;
      }
    </style>
  </defs>
  <g id="Icon_2_PH_Balance" data-name="Icon_2_PH Balance" transform="translate(-333.134 -407.393)">
    <g id="Group_642" data-name="Group 642" transform="translate(333.134 407.393)">
      <g id="Group_638" data-name="Group 638" transform="translate(56.078 11.908)">
        <path id="Path_955" data-name="Path 955" class="cls-1" d="M449.615,441.986a.732.732,0,0,0-.375-.084.982.982,0,0,0-.688.285,1.01,1.01,0,0,0-.285.688v1.3a1,1,0,0,0,.285.688,1.078,1.078,0,0,0,.688.285.982.982,0,0,0,.688-.285,1.013,1.013,0,0,0,.285-.688v-1.3a1,1,0,0,0-.285-.688A.731.731,0,0,0,449.615,441.986Z" transform="translate(-444.619 -435.908)"/>
        <path id="Path_956" data-name="Path 956" class="cls-1" d="M449.615,430.432a.732.732,0,0,0-.375-.084.984.984,0,0,0-.688.285,1.01,1.01,0,0,0-.285.688v1.3a1,1,0,0,0,.285.687.727.727,0,0,0,.313.2.737.737,0,0,0,.375.084.982.982,0,0,0,.688-.285,1.011,1.011,0,0,0,.285-.687v-1.3a1,1,0,0,0-.285-.688A.73.73,0,0,0,449.615,430.432Z" transform="translate(-444.619 -430.348)"/>
        <path id="Path_957" data-name="Path 957" class="cls-1" d="M443.51,437.382h-1.3a1,1,0,0,0-.687.285.727.727,0,0,0-.2.313.741.741,0,0,0-.084.375.982.982,0,0,0,.285.688,1.011,1.011,0,0,0,.687.285h1.3a1,1,0,0,0,.688-.285,1.081,1.081,0,0,0,.285-.688.982.982,0,0,0-.285-.688A1.011,1.011,0,0,0,443.51,437.382Z" transform="translate(-441.234 -433.733)"/>
        <path id="Path_958" data-name="Path 958" class="cls-1" d="M455.752,437.667a1.01,1.01,0,0,0-.688-.285h-1.3a1,1,0,0,0-.687.285.733.733,0,0,0-.2.313.741.741,0,0,0-.084.375.983.983,0,0,0,.285.688,1.011,1.011,0,0,0,.687.285h1.3a1,1,0,0,0,.688-.285,1.08,1.08,0,0,0,.285-.688A.982.982,0,0,0,455.752,437.667Z" transform="translate(-446.794 -433.733)"/>
      </g>
      <g id="Group_639" data-name="Group 639" transform="translate(0 23.563)">
        <path id="Path_959" data-name="Path 959" class="cls-1" d="M341.706,465.3a.984.984,0,0,0-.688.285,1.01,1.01,0,0,0-.285.688v1.407a1,1,0,0,0,.285.688.972.972,0,0,0,1.375,0,1.011,1.011,0,0,0,.285-.688v-1.407a1,1,0,0,0-.285-.688A.987.987,0,0,0,341.706,465.3Z" transform="translate(-336.791 -458.821)"/>
        <path id="Path_960" data-name="Path 960" class="cls-1" d="M341.706,452.815a.984.984,0,0,0-.688.285,1.011,1.011,0,0,0-.285.688V455.2a1,1,0,0,0,.285.687.971.971,0,0,0,1.375,0,1.009,1.009,0,0,0,.285-.687v-1.408a1,1,0,0,0-.285-.688A.988.988,0,0,0,341.706,452.815Z" transform="translate(-336.791 -452.815)"/>
        <path id="Path_961" data-name="Path 961" class="cls-1" d="M335.514,460.413h-1.407a1,1,0,0,0-.688.285.973.973,0,0,0,0,1.376,1.01,1.01,0,0,0,.688.285h1.407a1,1,0,0,0,.688-.285.973.973,0,0,0,0-1.376A1.013,1.013,0,0,0,335.514,460.413Z" transform="translate(-333.134 -456.471)"/>
        <path id="Path_962" data-name="Path 962" class="cls-1" d="M348.684,460.7a1.013,1.013,0,0,0-.688-.285h-1.407a1,1,0,0,0-.688.285.973.973,0,0,0,0,1.376,1.01,1.01,0,0,0,.688.285H348a1,1,0,0,0,.688-.285.973.973,0,0,0,0-1.376Z" transform="translate(-339.141 -456.471)"/>
      </g>
      <g id="Group_640" data-name="Group 640" transform="translate(66.633 42.953)">
        <path id="Path_963" data-name="Path 963" class="cls-1" d="M473.237,500.558l-.878-.895-.125-.127a1,1,0,0,0-1.375,0,.977.977,0,0,0-.285.688l.035.258a.969.969,0,0,0,.25.43l.877.895.125.127a1,1,0,0,0,1.376,0,.981.981,0,0,0,.285-.688l-.035-.259A.975.975,0,0,0,473.237,500.558Z" transform="translate(-465.909 -494.552)"/>
        <path id="Path_964" data-name="Path 964" class="cls-1" d="M464.349,491.5l-.877-.894-.125-.127a.733.733,0,0,0-.313-.2.878.878,0,0,0-.75,0,.731.731,0,0,0-.313.2.979.979,0,0,0-.285.687l.035.259a.972.972,0,0,0,.25.429l.878.894.125.127a1,1,0,0,0,1.375,0,.976.976,0,0,0,.285-.688l-.035-.258A.968.968,0,0,0,464.349,491.5Z" transform="translate(-461.632 -490.193)"/>
        <path id="Path_965" data-name="Path 965" class="cls-1" d="M464.264,499.469a.979.979,0,0,0-.687-.285l-.259.035a.971.971,0,0,0-.429.25l-.894.878-.127.125a1.079,1.079,0,0,0-.285.687,1.078,1.078,0,0,0,.285.688.978.978,0,0,0,.688.285l.258-.035a.969.969,0,0,0,.43-.25l.894-.878.127-.125a.73.73,0,0,0,.2-.313,1,1,0,0,0-.2-1.062Z" transform="translate(-461.582 -494.52)"/>
        <path id="Path_966" data-name="Path 966" class="cls-1" d="M470.926,492.961a.979.979,0,0,0,.688.285l.258-.035a.972.972,0,0,0,.429-.25l.895-.877.127-.124a1,1,0,0,0,0-1.376.979.979,0,0,0-.688-.285l-.258.035a.968.968,0,0,0-.429.25l-.895.877-.127.125a1,1,0,0,0,0,1.376Z" transform="translate(-465.941 -490.243)"/>
      </g>
      <g id="Group_641" data-name="Group 641" transform="translate(12.48)">
        <path id="Path_967" data-name="Path 967" class="cls-1" d="M368.311,417.135,368.18,417a1,1,0,0,0-1.376,0,.979.979,0,0,0-.285.688,1.011,1.011,0,0,0,.285.687l.921.921.131.131a1,1,0,0,0,1.375,0,.979.979,0,0,0,.285-.688,1.017,1.017,0,0,0-.285-.688Z" transform="translate(-361.68 -411.881)"/>
        <path id="Path_968" data-name="Path 968" class="cls-1" d="M358.984,407.809l-.131-.131a1,1,0,0,0-1.375,0,.979.979,0,0,0-.285.688,1.016,1.016,0,0,0,.285.688l.921.92.131.131a1,1,0,0,0,1.376,0,.979.979,0,0,0,.285-.688,1.013,1.013,0,0,0-.285-.688Z" transform="translate(-357.192 -407.393)"/>
        <path id="Path_969" data-name="Path 969" class="cls-1" d="M359.905,417a.978.978,0,0,0-.688-.285,1.013,1.013,0,0,0-.688.285l-.921.921-.131.131a1,1,0,0,0,0,1.376.979.979,0,0,0,.687.285,1.013,1.013,0,0,0,.688-.285l.921-.921.131-.131a1,1,0,0,0,0-1.375Z" transform="translate(-357.192 -411.881)"/>
        <path id="Path_970" data-name="Path 970" class="cls-1" d="M366.8,410.105a.981.981,0,0,0,.688.285,1.014,1.014,0,0,0,.688-.285l.921-.921.131-.131a1.085,1.085,0,0,0,.285-.688.735.735,0,0,0-.084-.375.727.727,0,0,0-.2-.313.976.976,0,0,0-.687-.285,1.012,1.012,0,0,0-.688.285l-.921.921-.131.131a1,1,0,0,0,0,1.376Z" transform="translate(-361.68 -407.393)"/>
      </g>
      <path id="Path_971" data-name="Path 971" class="cls-1" d="M383.867,431.118A131.462,131.462,0,0,0,373.6,415.533a.992.992,0,0,0-1.68,0,137.415,137.415,0,0,0-9.154,13.635,51.671,51.671,0,0,0-4.984,10.44,13.582,13.582,0,0,0-.719,4.57,16.271,16.271,0,0,0,1.912,7.1,15.863,15.863,0,0,0,13.068,8.283c1.251.068,1.247-1.877,0-1.945a13.831,13.831,0,0,1-10.96-6.573,14.078,14.078,0,0,1-2.052-6.4,10.961,10.961,0,0,1,.557-4.284,46.926,46.926,0,0,1,4.592-9.746c1.843-3.175,3.851-6.254,5.943-9.27q1.294-1.864,2.643-3.691a130.5,130.5,0,0,1,9.42,14.456C382.8,433.193,384.477,432.213,383.867,431.118Z" transform="translate(-344.647 -411.087)"/>
      <path id="Path_972" data-name="Path 972" class="cls-1" d="M423.37,461.081a59.863,59.863,0,0,0-3.561-7.21,139.028,139.028,0,0,0-7.982-12.29c-.607-.846-1.219-1.689-1.85-2.517a.992.992,0,0,0-1.68,0c-1.751,2.3-3.406,4.676-5.014,7.075a87.211,87.211,0,0,0-7.949,13.914,21.227,21.227,0,0,0-1.868,6.373,15.382,15.382,0,0,0,2.152,8.854,15.638,15.638,0,0,0,29.011-5.524,17.678,17.678,0,0,0,.214-2.6A16.87,16.87,0,0,0,423.37,461.081Zm-10.161,19.455a13.85,13.85,0,0,1-17.821-13.786,11.585,11.585,0,0,1,.464-2.481,26.818,26.818,0,0,1,1.1-3.1,82.137,82.137,0,0,1,7.442-13.2q1.733-2.623,3.565-5.179c.383-.535.8-1.059,1.2-1.593,1.394,1.884,2.734,3.81,4.04,5.754a89.7,89.7,0,0,1,7.927,13.769,27.381,27.381,0,0,1,1.281,3.492,10.33,10.33,0,0,1,.491,2.94A14.107,14.107,0,0,1,413.209,480.536Z" transform="translate(-362.145 -422.411)"/>
      <path id="Path_973" data-name="Path 973" class="cls-1" d="M415.578,485.676a3.992,3.992,0,0,0-3.472-2.07c-.769-.016-1.541,0-2.31,0a.987.987,0,0,0-.973.973V495.37a.973.973,0,0,0,1.945,0v-3.894c.4,0,.8,0,1.2,0a4.041,4.041,0,0,0,3.308-1.607A3.967,3.967,0,0,0,415.578,485.676Zm-3.519,3.855c-.43.008-.86.007-1.29,0v-3.989c.43,0,.86,0,1.29,0a1.99,1.99,0,1,1,0,3.979Z" transform="translate(-369.559 -444.067)"/>
      <path id="Path_974" data-name="Path 974" class="cls-1" d="M429.969,484.744v4.423h-3.334v-4.423a.973.973,0,0,0-1.945,0v10.791a.973.973,0,0,0,1.945,0v-4.423h3.334v4.423a.973.973,0,0,0,1.945,0V484.744A.973.973,0,0,0,429.969,484.744Z" transform="translate(-377.195 -444.165)"/>
    </g>
  </g>
</svg>
