<svg xmlns="http://www.w3.org/2000/svg" xmlns:xlink="http://www.w3.org/1999/xlink" width="315" height="28" viewBox="0 0 315 28">
    <defs>
        <path id="shc736dw5a" d="M0 0H315V28H0z"/>
        <path id="mirii3zphc" d="M0 0L18.786 0 18.786 24.851 0 24.851z"/>
        <path id="aw0z8yjvye" d="M0 0L21.465 0 21.465 24.851 0 24.851z"/>
        <path id="aulhcbxn5g" d="M0 0L25.642 0 25.642 24.851 0 24.851z"/>
        <path id="rhrzhnmdzi" d="M0 61L312 61 312 0 0 0z"/>
    </defs>
    <g fill="none" fill-rule="evenodd">
        <g>
            <g transform="translate(-458.000000, -19.000000) translate(458.000000, 19.000000)">
                <mask id="j15uqbvqbb" fill="#fff">
                    <use xlink:href="#shc736dw5a"/>
                </mask>
                <g mask="url(#j15uqbvqbb)">
                    <g transform="translate(2.000000, 1.000000)">
                        <path fill="#FEFEFE" d="M9.93 14.602H7.518v4.485h2.414c2.217 0 3.033-.858 3.033-2.338 0-1.457-1.078-2.147-3.033-2.147M8.723 5.767H7.517v4.486h1.206c2.153 0 3.26-.76 3.26-2.344 0-1.615-1.173-2.142-3.26-2.142m2.543 18.691H.079V.394h10.405c4.99 0 8.286 2.406 8.286 6.46 0 2.409-1.534 4.353-3.588 5.142 2.738.396 4.826 2.87 4.826 5.636 0 4.318-3.393 6.826-8.742 6.826M37.327 8.17l-1.794 6.101h3.587l-1.793-6.1zm4.762 16.288l-1.272-4.385h-6.979l-1.27 4.385h-7.605L33.218.394h8.611l8.253 24.064h-7.993zM67.09 24.85c-6.59 0-11.547-3.425-11.547-11.467V.394h7.958v13.817c0 2.598 1.372 4.247 3.59 4.247 2.216 0 3.588-1.65 3.588-4.247V.394h7.96v12.99c0 8.041-4.962 11.467-11.549 11.467"/>
                        <g transform="translate(85.501799, 0.000000)">
                            <mask id="w0bt578prd" fill="#fff">
                                <use xlink:href="#mirii3zphc"/>
                            </mask>
                            <path fill="#FEFEFE" d="M9.457 24.85c-3.879 0-7.237-1.415-9.457-3.362l3.164-5.106c2.216 1.782 4.14 2.608 6.198 2.608 1.142 0 1.956-.5 1.956-1.323 0-1.153-.911-1.58-3.816-2.473C3.164 13.844.978 11.964.978 8.01c0-5.209 4.045-8.01 9.819-8.01 3.099 0 6.131 1.154 7.73 2.439l-3.13 5.241c-1.632-1.185-3.134-1.81-4.893-1.81-1.501 0-2.057.658-2.057 1.348 0 .759.556 1.222 3.688 2.144 4.303 1.25 6.651 2.931 6.651 7.448 0 4.816-3.585 8.042-9.329 8.042" mask="url(#w0bt578prd)"/>
                        </g>
                        <g transform="translate(110.920817, 0.000000)">
                            <mask id="zcp2lq0gbf" fill="#fff">
                                <use xlink:href="#aw0z8yjvye"/>
                            </mask>
                            <path fill="#FEFEFE" d="M12.428 24.85C5.187 24.85 0 19.713 0 12.529 0 5.338 5.384 0 12.558 0c3.816 0 6.361 1.65 8.415 3.43L17.06 8.8c-1.336-1.319-2.61-2.242-4.665-2.242-2.643 0-4.601 2.31-4.601 5.77 0 3.461 1.894 5.962 5.06 5.962 1.759 0 3.391-.788 4.792-2.105l3.82 5.24c-2.287 2.01-4.864 3.426-9.038 3.426" mask="url(#zcp2lq0gbf)"/>
                        </g>
                        <path fill="#FEFEFE" d="M153.896 24.458L153.896 16.052 147.897 16.052 147.897 24.458 139.94 24.458 139.94.394 147.897.394 147.897 9.262 153.896 9.262 153.896.394 161.861.394 161.861 24.458zM206.699 24.458L206.699.394 214.334.394 214.334 18.327 222.13 18.327 222.13 24.458z"/>
                        <g transform="translate(226.516011, 0.000000)">
                            <mask id="182rrzzxjh" fill="#fff">
                                <use xlink:href="#aulhcbxn5g"/>
                            </mask>
                            <path fill="#FEFEFE" d="M12.79 6.394c-2.905 0-4.992 2.537-4.992 5.998 0 3.46 2.153 6.066 5.057 6.066 2.901 0 4.988-2.537 4.988-5.998 0-3.462-2.152-6.066-5.054-6.066m0 18.457C5.317 24.85 0 19.644 0 12.46 0 5.274 5.382 0 12.855 0c7.466 0 12.787 5.21 12.787 12.392 0 7.187-5.386 12.459-12.853 12.459" mask="url(#182rrzzxjh)"/>
                        </g>
                        <path fill="#FEFEFE" d="M276.58 24.458L276.58 12.725 272.893 19.712 269.27 19.712 265.486 12.725 265.486 24.458 257.985 24.458 257.985.394 265.711.394 271.132 9.992 276.151.394 284.535.394 284.535 24.458zM301.924 14.602h-2.416v4.485h2.416c2.218 0 3.033-.858 3.033-2.338 0-1.457-1.078-2.147-3.033-2.147m-1.21-8.835h-1.206v4.486h1.207c2.155 0 3.264-.76 3.264-2.344 0-1.615-1.175-2.142-3.264-2.142m2.544 18.691h-11.192V.394h10.408c4.994 0 8.29 2.406 8.29 6.46 0 2.409-1.535 4.353-3.59 5.142 2.738.396 4.825 2.87 4.825 5.636 0 4.318-3.39 6.826-8.741 6.826"/>
                        <mask id="8cq9kmahzj" fill="#fff">
                            <use xlink:href="#rhrzhnmdzi"/>
                        </mask>
                        <path fill="#FEFEFE" d="M180.428 16.334L188.123 16.334 188.123 8.522 180.428 8.522z" mask="url(#8cq9kmahzj)"/>
                        <path fill="#FEFEFE" fill-opacity=".85" d="M180.429 8.522L188.122 8.522 188.122.394 180.429.394zM180.429 24.46L188.122 24.46 188.122 16.333 180.429 16.333z" mask="url(#8cq9kmahzj)"/>
                        <path fill="#FEFEFE" fill-opacity=".65" d="M172.35 16.333L180.429 16.333 180.429 8.522 172.35 8.522zM188.123 16.333L196.163 16.333 196.163 8.522 188.123 8.522z" mask="url(#8cq9kmahzj)"/>
                    </g>
                </g>
            </g>
        </g>
    </g>
</svg>
