<svg xmlns="http://www.w3.org/2000/svg" width="35.088" height="35.088" viewBox="0 0 35.088 35.088">
  <defs>
    <style>
      .cls-1 {
        fill: #055e8a;
      }

      .cls-1, .cls-2 {
        fill-rule: evenodd;
      }

      .cls-2 {
        fill: #fff;
      }
    </style>
  </defs>
  <g id="INSTAGRAM" transform="translate(-177.457 -7235.055)">
    <path id="Path_592" data-name="Path 592" class="cls-1" d="M923.666,17.544A17.544,17.544,0,1,1,906.122,0a17.544,17.544,0,0,1,17.544,17.544" transform="translate(-711.121 7235.055)"/>
    <path id="Path_593" data-name="Path 593" class="cls-2" d="M1006.088,111.938h10.32a6.071,6.071,0,0,1,6.042,6.042v10.267a6.071,6.071,0,0,1-6.042,6.042h-10.32a6.071,6.071,0,0,1-6.042-6.042V117.98a6.07,6.07,0,0,1,6.042-6.042m11.176,3.9h0a1.283,1.283,0,0,1,0,2.567,1.283,1.283,0,1,1,0-2.567m-6.042,1.176h.053a6.1,6.1,0,1,1,0,12.192h-.053a6.1,6.1,0,0,1,0-12.192m0,2.085h.053a4.037,4.037,0,0,1,0,8.074h-.053a4.037,4.037,0,0,1,0-8.074m-5.08-5.24h10.213a4.176,4.176,0,0,1,4.171,4.171v10.16a4.176,4.176,0,0,1-4.171,4.171h-10.213a4.176,4.176,0,0,1-4.171-4.171v-10.16a4.176,4.176,0,0,1,4.171-4.171" transform="translate(-816.25 7129.485)"/>
  </g>
</svg>
