<svg xmlns="http://www.w3.org/2000/svg" width="35.088" height="35.088" viewBox="0 0 35.088 35.088">
  <defs>
    <style>
      .cls-1 {
        fill: #005e8a;
      }

      .cls-1, .cls-2 {
        fill-rule: evenodd;
      }

      .cls-2 {
        fill: #fff;
      }
    </style>
  </defs>
  <g id="TWITTER" transform="translate(-258.66 -7235.055)">
    <path id="Path_594" data-name="Path 594" class="cls-1" d="M1812.244,17.544A17.544,17.544,0,1,1,1794.7,0a17.544,17.544,0,0,1,17.544,17.544" transform="translate(-1518.496 7235.055)"/>
    <path id="Path_595" data-name="Path 595" class="cls-2" d="M1911.255,163.6a4.57,4.57,0,0,1,7.837-3.976,11.536,11.536,0,0,0,2.708-1.21,4.984,4.984,0,0,1-2.017,2.536,8.588,8.588,0,0,0,2.478-.692,4.817,4.817,0,0,1-2.132,2.132c.749,10.43-10.488,16.77-19.593,11.583,0,0,4.495.23,6.4-1.959,0,0-2.766.231-4.149-3.112a2.78,2.78,0,0,0,2.075-.115,4.5,4.5,0,0,1-3.515-4.38,2.84,2.84,0,0,0,2.19.519,4.421,4.421,0,0,1-1.556-5.993s3.8,4.841,9.278,4.668" transform="translate(-1634.857 7085.88)"/>
  </g>
</svg>
