<svg xmlns="http://www.w3.org/2000/svg" width="97.264" height="90.342" viewBox="0 0 97.264 90.342">
  <defs>
    <style>
      .cls-1 {
        fill: #fc9321;
      }
    </style>
  </defs>
  <path id="Icon_2_Aloe_and_Licorice" data-name="Icon_2_Aloe and Licorice" class="cls-1" d="M440.977,299.154c-1.348-.769-2.657.578-3.76,1.195-3.95,2.207-7.926,4.281-11.668,6.845a78.642,78.642,0,0,0-8.2,6.457c.008-.035.014-.073.021-.108.791-3.97,1.338-7.99,1.857-12,1.072-8.307,1.895-16.648,2.632-24.992.167-1.886.33-3.771.479-5.658a1.6,1.6,0,0,0-2.954-.8c-1.506,3.247-2.983,6.506-4.459,9.768l-1.1-3.3-.136,6.02c-1.005,2.236-1.99,4.483-2.982,6.725l-1-3-.125,5.538c-.448,1.016-.906,2.028-1.351,3.046q-.616,1.41-1.227,2.822c.1-1.454.191-2.909.249-4.36a72.8,72.8,0,0,0-.49-12.739,33.174,33.174,0,0,0-1.219-5.646c-.386-1.2-.864-3.485-2.286-3.882-2.479-.69-2.668,3.432-2.929,4.906-.687,3.881-1.448,7.747-2.512,11.545A55.737,55.737,0,0,1,392,301.511a54.316,54.316,0,0,0-5.787,12.963c-.032.108-.061.218-.092.327-.7-1.694-1.552-3.333-2.348-4.868-2.207-4.256-4.729-8.336-7.122-12.487a144.719,144.719,0,0,0-11.566-17.832,10.547,10.547,0,0,0-2.17-2.293,1.8,1.8,0,0,0-2.869.89,5.357,5.357,0,0,0,.682,3.147c.041.1.355.884.182.43.017.045.036.089.052.134.044.121.087.243.128.364.123.367.228.74.333,1.113,1.576,5.64,2.7,11.423,3.917,17.148.578,2.727,1.13,5.46,1.692,8.19q-2.294-3.081-4.6-6.155l.062-.09-.539-3.749-.515,2.511q-3.377-4.513-6.785-9l.085-.123-.539-3.749-.527,2.57c-.1-.133-.2-.267-.3-.4-2-2.629-3.94-5.356-6.127-7.836-1.134-1.286-2.918.118-2.65,1.542a90.829,90.829,0,0,0,3.806,13.2c2.729,7.756,6.49,15.045,9.382,22.709,2.754,7.3,5.335,14.667,8.573,21.77a67.932,67.932,0,0,0,5.176,9.607c1.864,2.79,4.178,5.783,7.32,7.187a11.841,11.841,0,0,0,9.78-.242,31.959,31.959,0,0,0,15.425-2.962A27.2,27.2,0,0,0,415.4,344.109a61.368,61.368,0,0,0,3.168-6.831c.408-1.008.8-2.022,1.2-3.034q.293-.748.593-1.494.132-.327.266-.652l.084-.2c.039-.09.118-.273.129-.3,2.3-5.275,5.975-9.966,9.407-14.542s7.135-8.965,10.34-13.692C441.361,302.223,442.75,300.164,440.977,299.154Zm-35.319,9.71.008-.047c3.954-9.512,8.169-18.921,12.418-28.3.1-.222.2-.443.3-.665q-.28,3.02-.577,6.038c-.835,8.4-1.684,16.817-3.18,25.119-.293,1.632-.612,3.265-1.046,4.865-.158.583-.347,1.15-.546,1.718l-.006.018c-.044.09-.08.184-.131.271-.14.245-.358.515-.063.161a1.621,1.621,0,0,0-.1.143c-1.452,1.568-2.839,3.2-4.141,4.9a68.386,68.386,0,0,0-7.07,11.774c-.629,1.3-1.319,2.56-2.059,3.794-.052-.172-.11-.343-.156-.517q-.148-.563-.258-1.137a12.092,12.092,0,0,1-.192-1.249c-.706-6.524,1.236-13.1,3.61-19.1q1.414-3.573,2.891-7.121A1.467,1.467,0,0,0,405.658,308.864Zm7.37,8.765c-.068.194-.03.075,0,0ZM365.215,285.4c-.042-.174-.085-.35-.128-.525.8,1.142,1.583,2.311,2.347,3.462,1.857,2.8,3.644,5.639,5.27,8.575,2.395,4.326,5.033,8.513,7.394,12.858a60.4,60.4,0,0,1,3.013,6.156,14.75,14.75,0,0,1,1.315,5.059,1.709,1.709,0,0,0,.067.435,83.557,83.557,0,0,0-1.346,9.034l-6.134-8.285.032-.046-.539-3.749-.5,2.436q-1.054-1.422-2.106-2.845-1.256-1.691-2.515-3.379a1.69,1.69,0,0,0-.019-.518C369.446,304.488,367.53,294.889,365.215,285.4ZM389.1,354.207c-.056.063-.1.129-.162.191a5.977,5.977,0,0,1-1.081.895,8.483,8.483,0,0,1-7.79.477,7.042,7.042,0,0,1-1.126-.627c-2.325-1.6-4.048-4.158-5.509-6.521a77.825,77.825,0,0,1-4.793-9.318c-2.926-6.575-5.295-13.378-7.836-20.105-2.7-7.145-6.193-13.939-8.81-21.117-.9-2.456-1.768-4.955-2.534-7.484l.4.521q4.6,6.03,9.133,12.111,10.776,14.391,21.455,28.853,1.263,1.706,2.524,3.414a1.3,1.3,0,0,0,.378.511q2.859,3.867,5.717,7.735a9.8,9.8,0,0,1,1.813,5.153A7.353,7.353,0,0,1,389.1,354.207Zm-3.049-19.831a81.49,81.49,0,0,1,2.149-14.985,54.864,54.864,0,0,1,4.292-12.412c1.072-2.114,2.433-4.055,3.539-6.15a57.423,57.423,0,0,0,2.927-6.583,82.7,82.7,0,0,0,3.532-12.656c.233-1.147.418-2.315.61-3.481.12.536.233,1.075.328,1.614a59.622,59.622,0,0,1,.708,11.547c-.074,3.97-.382,7.936-.849,11.879-.2,1.683-.371,3.056-.687,4.874v0q-1.158,2.778-2.282,5.568l-1.168-3.5-.15,6.591.643-1.427a65.723,65.723,0,0,0-3.274,10.379l-1.476-2.835.879,6.462a30.447,30.447,0,0,0-.15,5.643,17.344,17.344,0,0,0,1.726,6.976,40.72,40.72,0,0,1-3.35,4.059c-.1.107-.21.205-.312.311a12.108,12.108,0,0,0-1.885-4.112Q388.933,338.255,386.053,334.376Zm44.248-22.6c-3.769,4.92-7.677,9.87-10.736,15.277a46.016,46.016,0,0,0-2.636,5.794c-.807,2.043-1.6,4.118-2.41,5.924-2.025,4.521-4.525,8.686-8.438,11.75a24.723,24.723,0,0,1-13.836,4.752,10.907,10.907,0,0,0,1.74-4.925,42.1,42.1,0,0,0,4.845-5.182c.556-.709,1.087-1.437,1.6-2.174a1.481,1.481,0,0,0,.2-.283c.7-1.021,1.373-2.068,1.995-3.145,1.2-2.09,2.16-4.3,3.289-6.431,6.58-12.4,17.371-21.647,29.574-28.267l.171-.09C433.917,307.142,432.085,309.448,430.3,311.778Z" transform="translate(-344.575 -269.319)"/>
</svg>
