<svg xmlns="http://www.w3.org/2000/svg" xmlns:xlink="http://www.w3.org/1999/xlink" width="307.038" height="174.879" viewBox="0 0 307.038 174.879">
  <defs>
    <style>
      .cls-1 {
        fill: none;
      }

      .cls-2 {
        fill: #54231c;
      }

      .cls-3 {
        fill: #fff;
        font-size: 16px;
        font-family: Archivo;
        font-weight: 500;
        letter-spacing: 0.1em;
      }

      .cls-4 {
        clip-path: url(#clip-path);
      }

      .cls-5 {
        fill: #bc574e;
      }

      .cls-6 {
        fill: #f2dfdd;
      }
    </style>
    <clipPath id="clip-path">
      <rect id="Rectangle_532" data-name="Rectangle 532" class="cls-1" width="128.801" height="148.885"/>
    </clipPath>
  </defs>
  <g id="PW_Red_Dog_Desktop_1" data-name="PW_Red Dog_Desktop_1" transform="translate(-1538.082 -2274.185)">
    <g id="SPEECH_BUBBLE" data-name="SPEECH BUBBLE">
      <g id="Group_407" data-name="Group 407" transform="translate(1538.082 2274.185)">
        <g id="Group_399" data-name="Group 399" transform="translate(0 0)">
          <rect id="Rectangle_123" data-name="Rectangle 123" class="cls-2" width="221.92" height="51.677" rx="25.839"/>
          <path id="Path_19" data-name="Path 19" class="cls-2" d="M14830.844,4137v42.441l41.213,10.08" transform="translate(-14662.789 -4130.651)"/>
        </g>
      </g>
      <text id="A_pup_with_purpose_" data-name="A pup with purpose!" class="cls-3" transform="translate(1649.042 2305.242)"><tspan x="-85.697" y="0">A pup with purpose!</tspan></text>
    </g>
    <g id="Group_525" data-name="Group 525" class="cls-4" transform="translate(1716.318 2300.179)">
      <path id="Path_559" data-name="Path 559" class="cls-2" d="M45.3,87.272h0L34.563,105.551a3.574,3.574,0,0,0-.3,2.825l5.356,18.459a1.03,1.03,0,0,1-.991,1.373H32.455a1.96,1.96,0,0,1-1.744-1.171l-8.3-18.826a2.961,2.961,0,0,1-.194-1.9l2.365-9.752a1.389,1.389,0,0,1,.824-.97Z" transform="translate(5.243 20.673)"/>
      <path id="Path_560" data-name="Path 560" class="cls-2" d="M84.43,71.56l9.258,58.131a1.742,1.742,0,0,1-1.746,2.259h-5.53a2.835,2.835,0,0,1-2.353-1.74L70.807,89.255a.725.725,0,0,1,.412-1.02l13.81-4.49c.959-.312-.75-13.265-.6-12.184" transform="translate(16.758 16.936)"/>
      <path id="Path_561" data-name="Path 561" class="cls-2" d="M77.655,30.531c1.108-11.117,4.11-18.615,6.527-23.052A4.69,4.69,0,0,0,80.923.657C73.673-.693,62.8-.872,60.372,9.305,56.656,24.888,77.655,30.531,77.655,30.531" transform="translate(14.196 0)"/>
      <path id="Path_562" data-name="Path 562" class="cls-5" d="M106.632,44.255c-.14-2.486.91-9.314-7.337-15.9L88.054,19.369a1.093,1.093,0,0,0-.141-.1c-8.577-4.74-14.181-2.064-15.807-1.045a.852.852,0,0,1-.993-.061C69.324,16.74,63.27,11.9,61.146,10.2c-3-2.4-8.09-2.046-10.047,5.434l0-.007s-8.038,16.14,4.835,29.384a.894.894,0,0,0,1.309-.04l1.581-1.816a.879.879,0,0,1,1.509.335l1.65,5.76a.877.877,0,0,0,1.239.549,17.749,17.749,0,0,0,4.777-3.868.9.9,0,0,1,1.294-.032c5.734,5.938,9.014,12.317,5.819,19.264a.909.909,0,0,1-.529.487,8.419,8.419,0,0,1-2.649.381h-47.2l-.212.038s-5.09,2.759-7.472,6.041C14.577,75.783,12.62,81.5,13.4,90.356l.313,1.228c3.225,7.324,9.62,18.355-9.933,25.72a2.755,2.755,0,0,0-1.8,2.388L.009,144.024a2.547,2.547,0,0,0,2.538,2.752H7.533a1.068,1.068,0,0,0,1.071-.827l4.5-19.368a3.628,3.628,0,0,1,1.562-2.225l15.053-9.749.574-.3L45.5,107.95a19.2,19.2,0,0,1,10.808-1.075l23.285,4.186a3.761,3.761,0,0,1,3.071,3.676l-.877,28.982a2.967,2.967,0,0,0,2.967,3.058h5.657a1.569,1.569,0,0,0,1.6-1.37l4.067-29.936c.067-.247.135-.49.2-.735,0,0,6.768-7.215,7.841-14.326,3.244-21.487,1.137-24.614.126-31.277a1.087,1.087,0,0,1-.007-.229c.954-10.693,2.955-14.6,2.387-24.648" transform="translate(0 2.104)"/>
      <path id="Path_563" data-name="Path 563" class="cls-5" d="M17.039,64.814a.442.442,0,0,0,.47.424,26.625,26.625,0,0,0,8.82-1.587s.116-7.2-1.7-7.2c-2.571,0-9.476.072-11.951-.519a19.3,19.3,0,0,1-9.627-5.868c-.954-1.039-1.563-.729-2.026-.485-.4.212-1.085.913-.233,2.369a23.252,23.252,0,0,0,2.071,2.98,21.569,21.569,0,0,0,3.385,3.306l-.794,1.577a.4.4,0,0,0,.135.522,16.643,16.643,0,0,0,11.471,2.537Z" transform="translate(0.092 11.688)"/>
      <path id="Path_564" data-name="Path 564" d="M47.287,28.3A6.343,6.343,0,0,0,58.35,31.284Z" transform="translate(11.201 6.703)"/>
      <path id="Path_565" data-name="Path 565" d="M52.976,11.866c.026-.033.03-.074.054-.11l-1.967-1.572c-2.437-1.947-6.233-2.045-8.63,1.964a6.357,6.357,0,0,0,.8.714,6.859,6.859,0,0,0,9.739-1" transform="translate(10.052 2.103)"/>
      <path id="Path_566" data-name="Path 566" class="cls-2" d="M76.665,22.8c4.7-8.528,13.822-6.554,22.635,1.283,3.894,3.461,5.5,1.908,8.972,3.6,2.555,1.246,3.114,4.992,1.33,7.2-5.695,7.06-12.975,14.144-21.047,9.645,0,0,.069,1.863-.057,3.8-8.834-6.226-2.74-14.41-11.833-25.534" transform="translate(18.16 4.084)"/>
      <path id="Path_567" data-name="Path 567" d="M47.84,25.113A6.191,6.191,0,0,0,47.121,28a6.364,6.364,0,0,0,6.466,6.264,6.3,6.3,0,0,0,4.61-2.152Z" transform="translate(11.162 5.949)"/>
      <path id="Path_568" data-name="Path 568" class="cls-6" d="M64.137,18.313c5.854-.794,11.128,1.54,12.7,7.671s-7.257,12.086-11.77,8.606-2.858-6.9-4.766-9.249-.129-6.49,3.834-7.028" transform="translate(14.102 4.302)"/>
      <path id="Path_569" data-name="Path 569" d="M63.3,23.25a2.393,2.393,0,1,1,.375,3.366A2.394,2.394,0,0,1,63.3,23.25" transform="translate(14.87 5.294)"/>
      <path id="Path_570" data-name="Path 570" class="cls-2" d="M55.748,55.09c-7.191,15.809-27.963,15.258-33.96,0Z" transform="translate(5.161 13.049)"/>
    </g>
  </g>
</svg>
