<svg xmlns="http://www.w3.org/2000/svg" xmlns:xlink="http://www.w3.org/1999/xlink" width="291.536" height="192.752" viewBox="0 0 291.536 192.752">
  <defs>
    <style>
      .cls-1 {
        fill: none;
      }

      .cls-2 {
        fill: #93392a;
      }

      .cls-11, .cls-3 {
        fill: #fff;
      }

      .cls-3 {
        font-size: 16px;
        font-family: RocGrotesk-Medium, Roc Grotesk;
        font-weight: 500;
        letter-spacing: 0.2em;
      }

      .cls-4 {
        clip-path: url(#clip-path);
      }

      .cls-5 {
        clip-path: url(#clip-path-2);
      }

      .cls-6 {
        fill: #956c61;
      }

      .cls-7 {
        fill: #54231c;
      }

      .cls-8 {
        fill: #bc574e;
      }

      .cls-9 {
        opacity: 0.81;
      }

      .cls-10 {
        clip-path: url(#clip-path-3);
      }

      .cls-12 {
        fill: #1a1818;
      }
    </style>
    <clipPath id="clip-path">
      <rect id="Rectangle_381" data-name="Rectangle 381" class="cls-1" width="88.553" height="143.094"/>
    </clipPath>
    <clipPath id="clip-path-2">
      <rect id="Rectangle_380" data-name="Rectangle 380" class="cls-1" width="88.553" height="143.093"/>
    </clipPath>
    <clipPath id="clip-path-3">
      <rect id="Rectangle_379" data-name="Rectangle 379" class="cls-1" width="14.734" height="17.3"/>
    </clipPath>
  </defs>
  <g id="PW_Red_Dog_Desktop_2" data-name="PW_Red Dog_Desktop_2" transform="translate(-195.963 -5735.604)">
    <g id="SPEECH_BUBBLE" data-name="SPEECH BUBBLE">
      <rect id="Rectangle_123" data-name="Rectangle 123" class="cls-2" width="233.5" height="54.044" rx="27.022" transform="translate(253.999 5735.604)"/>
      <path id="Path_19" data-name="Path 19" class="cls-2" d="M14861.984,4137v25.055l-31.141,5.951" transform="translate(-14569.262 1625.627)"/>
      <text id="Don_t_miss_out_" data-name="Don’t miss out!" class="cls-3" transform="translate(372.133 5768.307)"><tspan x="-78.944" y="0">Don’t miss out!</tspan></text>
    </g>
    <g id="Group_420" data-name="Group 420" class="cls-4" transform="translate(195.963 5785.263)">
      <g id="Group_419" data-name="Group 419" transform="translate(0.001 0.001)">
        <g id="Group_418" data-name="Group 418" class="cls-5">
          <path id="Path_261" data-name="Path 261" class="cls-6" d="M23.8,41.369a.376.376,0,0,1,.161-.425l1.07-.662a18.967,18.967,0,0,1-.452-3.655,21.661,21.661,0,0,1,1.013-7.075.7.7,0,0,1,1.37.278l0,.016c-.417,4.355.575,8.835,3,11.874a11.043,11.043,0,0,0,4.436,3.352A17.043,17.043,0,0,0,39.9,46.249l.044,0a3.718,3.718,0,0,1,.722.128A3.583,3.583,0,0,1,43.2,50.487a4.579,4.579,0,0,1-.493,1.264,3.583,3.583,0,0,1-4,1.544c-.054-.014-.106-.035-.158-.049a10.376,10.376,0,0,1-1.152.071,15.863,15.863,0,0,1-8.766-3.2.373.373,0,0,1-.084-.507l.907-1.343a11.731,11.731,0,0,1-5.659-6.9" transform="translate(-19.471 50.083)"/>
          <path id="Path_262" data-name="Path 262" class="cls-7" d="M48.22,31.8l-25-7.756a1.51,1.51,0,0,0-1.71.6c-2.868,4.325-14.186,22.7-8.671,35.485,2.228,5.163,13.282,11.182,16.008,12.6a1.525,1.525,0,0,1,.773.986l2.83,11.514a1.557,1.557,0,0,0,.2.463l9.967,15.384a1.515,1.515,0,0,0,1.272.692h3.336a1.517,1.517,0,0,0,1.405-2.086L41.665,82.541a1.5,1.5,0,0,1-.093-.809l7.7-48.247A1.519,1.519,0,0,0,48.22,31.8" transform="translate(8.371 41.316)"/>
          <path id="Path_263" data-name="Path 263" class="cls-7" d="M18.69,43.109s-1.261-5.989-2.043-9.649c-.727-3.4.43-6.781,3.268-7.326,3.924-.754,6.032,4.325,7.756,9.227,1.182,3.363,3.775,5.953,8.475,4.262a1.767,1.767,0,0,0,1.046-2.315l-5.9-14.687a7.566,7.566,0,0,0-6.637-4.45L1.966,17.447,3.687,35.77Z" transform="translate(45.881 30.066)"/>
          <path id="Path_264" data-name="Path 264" class="cls-8" d="M4.843,48.034c-1.827-.866-5.749-3.4-4.651-11.906l1.5-11.659c1.22-7.448,5.836-9.167,8-9.564a1.575,1.575,0,0,0,1.294-1.348l1.234-9.564C12.547,1.475,14.7-.75,18.378.25l0-.016s.109.035.294.1a9.924,9.924,0,0,1,1.362.539c4.1,1.759,14.431,7.386,14.875,19.51A1.57,1.57,0,0,1,33.2,22l-2.334-.2,2.394,4.491a1.561,1.561,0,0,1-1.141,2.274,18.167,18.167,0,0,1-4.447.1c-.046,7.5,1.912,13.377,8.459,14.219,1.408.463,11.335,2.732,14.249,9.167h0l.025.063c.1.215.182.433.261.656l9.121,22.819,19.8,19.148a2.475,2.475,0,0,1,.438,2.985l-2.574,4.605a1.645,1.645,0,0,1-2.454.487L54.345,86.523a4.157,4.157,0,0,0-4.54-.389L26.136,114.325l-.057.068L12.422,128.857a1.51,1.51,0,0,0-.411,1.035l-.046,11.683a1.516,1.516,0,0,1-1.517,1.511H7.2a1.514,1.514,0,0,1-1.492-1.258L2.936,125.714a1.527,1.527,0,0,1,.648-1.511C19.121,113.481,12,107.245,9.491,101.441,4.415,89.668,13.6,73.167,17.332,67.247a5.858,5.858,0,0,0,.528-5.226A25.592,25.592,0,0,0,4.843,48.034" transform="translate(8.205 0.008)"/>
          <g id="Group_417" data-name="Group 417" class="cls-9" transform="translate(11.847 18.307)">
            <g id="Group_416" data-name="Group 416">
              <g id="Group_415" data-name="Group 415" class="cls-10">
                <path id="Path_265" data-name="Path 265" class="cls-11" d="M28.235,7.54c-4.622,2.917-6.975,7.707-4.447,12.988s12.331,4.251,13.462-.9-2.078-6.593-2.119-9.387-3.766-4.679-6.9-2.7" transform="translate(-22.756 -6.722)"/>
              </g>
            </g>
          </g>
          <path id="Path_266" data-name="Path 266" class="cls-12" d="M26.869,8.487a1.944,1.944,0,1,0,1.68,2.176,1.944,1.944,0,0,0-1.68-2.176" transform="translate(-7.217 14.598)"/>
          <path id="Path_267" data-name="Path 267" class="cls-12" d="M24.2,5.782a5.151,5.151,0,0,1-4.774,7.988Z" transform="translate(10.587 9.964)"/>
          <path id="Path_268" data-name="Path 268" class="cls-12" d="M22.772,6.017l-.016-.022.261-2.029C23.341,1.455,25.5-.746,29.164.24a5.571,5.571,0,0,1-.065.871,5.569,5.569,0,0,1-6.326,4.9" transform="translate(-2.584 -0.002)"/>
          <path id="Path_269" data-name="Path 269" class="cls-7" d="M22.617,52.739c-1.539-9.439,3.592-20.526,7.222-26.92,6.994,8.971,5.006,23.042-7.222,26.92" transform="translate(-6.13 44.494)"/>
          <path id="Path_270" data-name="Path 270" class="cls-7" d="M34.556,11.851c8.333,6.463,10.6,14.7,9.491,19.121a19.712,19.712,0,0,0-1.876-1.294c-.724-.376-1.242.3-.8.961l.008.011c1.217,1.841,2.427,4.02,1.446,7.309a1.343,1.343,0,0,1-1.961.806c-3.3-2-5.174-1.656-9.51-4.8C18.834,24.9,30.3,13.523,34.556,11.851" transform="translate(-25.672 20.423)"/>
        </g>
      </g>
    </g>
  </g>
</svg>
