<svg id="PW_LOGO_MOBILE" data-name="PW LOGO MOBILE" xmlns="http://www.w3.org/2000/svg" xmlns:xlink="http://www.w3.org/1999/xlink" width="216.529" height="53.989" viewBox="0 0 216.529 53.989">
  <defs>
    <style>
      .cls-1 {
        fill: none;
      }

      .cls-2 {
        clip-path: url(#clip-path);
      }

      .cls-3 {
        fill: #0070ba;
      }

      .cls-4 {
        fill: #0d2253;
      }

      .cls-5 {
        fill: #fff;
      }
    </style>
    <clipPath id="clip-path">
      <rect id="Rectangle_403" data-name="Rectangle 403" class="cls-1" width="216.529" height="53.989"/>
    </clipPath>
  </defs>
  <g id="Group_465" data-name="Group 465" class="cls-2">
    <path id="Path_455" data-name="Path 455" class="cls-3" d="M144.941,48.836a7.967,7.967,0,0,1-6.033-6.408C136.491,29,141.188,17.195,153.2,19.745c10.655,2.263,16.81,16.793,13.1,28.463a7.992,7.992,0,0,1-11.672,4.37,31.716,31.716,0,0,0-9.683-3.743" transform="translate(-82.446 -11.563)"/>
    <path id="Path_456" data-name="Path 456" class="cls-4" d="M126.164,117.819a.421.421,0,0,0,.415-.424c-.151-6.886-5.6-10.328-11.042-10.328s-10.892,3.442-11.042,10.328a.421.421,0,0,0,.415.424Z" transform="translate(-62.296 -63.83)"/>
    <path id="Path_457" data-name="Path 457" class="cls-4" d="M24.547.575a1.057,1.057,0,0,1,1.194,1.663C9.749,21.113,26.413,45.993,7.756,50.286a1.46,1.46,0,0,1-1.794-1.559C8.023,27.206-16.311,18.689,20.7,2.049A35.479,35.479,0,0,1,24.547.575" transform="translate(0 -0.305)"/>
    <path id="Path_458" data-name="Path 458" class="cls-4" d="M200.747.575a1.057,1.057,0,0,0-1.194,1.663c15.991,18.875-.672,43.755,17.984,48.049a1.46,1.46,0,0,0,1.793-1.559C217.271,27.206,241.6,18.689,204.6,2.049A35.477,35.477,0,0,0,200.747.575" transform="translate(-118.813 -0.305)"/>
    <path id="Path_459" data-name="Path 459" class="cls-5" d="M170.439,58.954a7.036,7.036,0,1,0-7.036,7.036,7.036,7.036,0,0,0,7.036-7.036" transform="translate(-93.222 -30.952)"/>
    <path id="Path_460" data-name="Path 460" class="cls-4" d="M171.4,61.945a5.009,5.009,0,1,0-5.009,5.009,5.009,5.009,0,0,0,5.009-5.009" transform="translate(-96.214 -33.943)"/>
    <path id="Path_461" data-name="Path 461" class="cls-4" d="M87.5,61.945a5.009,5.009,0,1,0-5.009,5.009A5.009,5.009,0,0,0,87.5,61.945" transform="translate(-46.193 -33.943)"/>
    <path id="Path_462" data-name="Path 462" class="cls-5" d="M176.9,63.645a1.444,1.444,0,1,0-1.444,1.444,1.444,1.444,0,0,0,1.444-1.444" transform="translate(-103.743 -37.082)"/>
    <path id="Path_463" data-name="Path 463" class="cls-5" d="M93,63.645a1.444,1.444,0,1,0-1.444,1.444A1.444,1.444,0,0,0,93,63.645" transform="translate(-53.722 -37.082)"/>
    <path id="Path_464" data-name="Path 464" class="cls-4" d="M314.139.512h4.94c2.884,0,4.628,1.709,4.628,4.18v.035c0,2.8-2.176,4.248-4.888,4.248H316.8V12.6h-2.66Zm4.766,6.1a1.872,1.872,0,0,0,2.107-1.831V4.744c0-1.192-.828-1.831-2.159-1.831H316.8v3.7Z" transform="translate(-187.28 -0.305)"/>
    <path id="Path_465" data-name="Path 465" class="cls-4" d="M342.327.512h5.527a4.817,4.817,0,0,1,3.523,1.227A3.792,3.792,0,0,1,352.414,4.5v.035a3.755,3.755,0,0,1-2.591,3.748l2.953,4.317h-3.109l-2.591-3.868h-2.089V12.6h-2.66Zm5.354,5.872c1.295,0,2.037-.691,2.037-1.709V4.64c0-1.14-.794-1.727-2.089-1.727h-2.642V6.384Z" transform="translate(-204.085 -0.305)"/>
    <path id="Path_466" data-name="Path 466" class="cls-4" d="M371.928,6.286V6.252a6.427,6.427,0,0,1,12.849-.034v.034a6.427,6.427,0,0,1-12.849.035m10.068,0V6.252a3.673,3.673,0,0,0-3.661-3.8,3.615,3.615,0,0,0-3.627,3.765v.034a3.673,3.673,0,0,0,3.661,3.8A3.615,3.615,0,0,0,382,6.286" transform="translate(-221.732)"/>
    <path id="Path_467" data-name="Path 467" class="cls-4" d="M405.762,10.961,407.438,9.1a2.979,2.979,0,0,0,2.211,1.208c1,0,1.623-.6,1.623-2V.512H414V8.423a4.389,4.389,0,0,1-1.14,3.229,4.319,4.319,0,0,1-3.143,1.123,4.944,4.944,0,0,1-3.956-1.813" transform="translate(-241.903 -0.305)"/>
    <path id="Path_468" data-name="Path 468" class="cls-4" d="M432.88.512H442V2.879h-6.476V5.331h5.7V7.7h-5.7v2.538h6.563V12.6H432.88Z" transform="translate(-258.069 -0.305)"/>
    <path id="Path_469" data-name="Path 469" class="cls-4" d="M460.088,6.286V6.252A6.143,6.143,0,0,1,466.391,0a6.234,6.234,0,0,1,4.766,1.865l-1.692,1.951a4.463,4.463,0,0,0-3.092-1.364,3.582,3.582,0,0,0-3.506,3.765v.034a3.59,3.59,0,0,0,3.506,3.8,4.363,4.363,0,0,0,3.178-1.416l1.692,1.71a6.18,6.18,0,0,1-4.956,2.159,6.1,6.1,0,0,1-6.2-6.217" transform="translate(-274.29)"/>
    <path id="Path_470" data-name="Path 470" class="cls-4" d="M495.075,2.964H491.4V.512h10.017V2.964h-3.679V12.6h-2.66Z" transform="translate(-292.955 -0.305)"/>
    <path id="Path_471" data-name="Path 471" class="cls-3" d="M311.83,39.972h2.849l2.5,8.186,2.712-8.221h2.28l2.711,8.221,2.5-8.186h2.781l-4.128,12.176h-2.314L321,44.237l-2.729,7.911h-2.314Z" transform="translate(-185.903 -23.809)"/>
    <path id="Path_472" data-name="Path 472" class="cls-3" d="M362.352,39.808H364.8l5.181,12.176H367.2L366.1,49.273h-5.112l-1.105,2.711h-2.712Zm2.8,7.116L363.544,43l-1.606,3.92Z" transform="translate(-212.934 -23.732)"/>
    <path id="Path_473" data-name="Path 473" class="cls-3" d="M392.714,42.475h-3.678V40.023h10.017v2.452h-3.678v9.637h-2.66Z" transform="translate(-231.931 -23.86)"/>
    <path id="Path_474" data-name="Path 474" class="cls-3" d="M417.354,50.1l1.572-1.883a5.544,5.544,0,0,0,3.609,1.468c1.088,0,1.745-.432,1.745-1.14v-.035c0-.674-.415-1.019-2.436-1.537-2.435-.622-4.007-1.3-4.007-3.7V43.24c0-2.193,1.762-3.644,4.232-3.644a7,7,0,0,1,4.49,1.536l-1.382,2a5.673,5.673,0,0,0-3.143-1.192c-1.02,0-1.554.466-1.554,1.053v.035c0,.795.518,1.054,2.608,1.589,2.452.639,3.834,1.52,3.834,3.627v.035c0,2.4-1.831,3.748-4.439,3.748a7.689,7.689,0,0,1-5.129-1.934" transform="translate(-248.813 -23.606)"/>
    <path id="Path_475" data-name="Path 475" class="cls-3" d="M446.315,45.8v-.035a6.427,6.427,0,0,1,12.849-.034v.034a6.427,6.427,0,0,1-12.849.035m10.068,0v-.035a3.673,3.673,0,0,0-3.661-3.8,3.615,3.615,0,0,0-3.627,3.765v.034a3.673,3.673,0,0,0,3.661,3.8,3.615,3.615,0,0,0,3.627-3.764" transform="translate(-266.079 -23.555)"/>
    <path id="Path_476" data-name="Path 476" class="cls-3" d="M484.852,40.023H487.3l5.665,7.444V40.023h2.625V52.112h-2.263l-5.854-7.685v7.685h-2.625Z" transform="translate(-289.054 -23.86)"/>
    <path id="Path_477" data-name="Path 477" class="cls-3" d="M516.64,65.523v1.638h-.287V65.523h-.522v-.258h1.331v.258Z" transform="translate(-307.522 -38.909)"/>
    <path id="Path_478" data-name="Path 478" class="cls-3" d="M521.338,67.161V65.894l-.437.924h-.213l-.447-.924v1.268h-.287v-1.9h.287l.554,1.179.544-1.179h.287v1.9Z" transform="translate(-309.98 -38.91)"/>
    <path id="Path_479" data-name="Path 479" class="cls-3" d="M390.771,99.44H320.234a5.724,5.724,0,0,1-5.724-5.724V89.527a5.724,5.724,0,0,1,5.724-5.724h70.537a5.724,5.724,0,0,1,5.724,5.724v4.189a5.724,5.724,0,0,1-5.724,5.724" transform="translate(-187.501 -49.961)"/>
    <line id="Line_32" data-name="Line 32" class="cls-5" x2="95.717" transform="translate(120.143 41.661)"/>
    <path id="Path_480" data-name="Path 480" class="cls-3" d="M392.237,102.845H296.52a.669.669,0,1,1,0-1.338h95.717a.669.669,0,0,1,0,1.338" transform="translate(-176.377 -60.515)"/>
    <path id="Path_481" data-name="Path 481" class="cls-5" d="M335.627,101.276V94.534H340.8v1.6h-3.284v1.262H340.6v1.56h-3.082v2.321Z" transform="translate(-200.09 -56.358)"/>
    <path id="Path_482" data-name="Path 482" class="cls-5" d="M358.505,101.2c-2.205,0-3.746-1.281-3.746-3.534a3.416,3.416,0,0,1,3.746-3.535c2.215,0,3.746,1.29,3.746,3.535s-1.531,3.534-3.746,3.534m0-5.442a1.908,1.908,0,1,0,1.84,1.907,1.758,1.758,0,0,0-1.84-1.907" transform="translate(-211.496 -56.117)"/>
    <path id="Path_483" data-name="Path 483" class="cls-5" d="M386.787,101.275h-2.1l-1.57-2.186h-.665v2.186h-1.907V94.533h3.294a2.36,2.36,0,0,1,2.62,2.321,2.027,2.027,0,0,1-1.425,2.032l1.753,2.273Zm-4.334-5.22v1.618h1.406a.707.707,0,0,0,.722-.78.759.759,0,0,0-.742-.838Z" transform="translate(-226.87 -56.358)"/>
    <path id="Path_484" data-name="Path 484" class="cls-5" d="M415.973,94.534a3.172,3.172,0,0,1,3.525,3.323,3.222,3.222,0,0,1-3.525,3.419h-2.889V94.534Zm-1,5.134h1a1.606,1.606,0,0,0,1.638-1.83,1.541,1.541,0,0,0-1.638-1.714h-1Z" transform="translate(-246.268 -56.358)"/>
    <path id="Path_485" data-name="Path 485" class="cls-5" d="M439.064,101.2c-2.206,0-3.746-1.281-3.746-3.534a3.415,3.415,0,0,1,3.746-3.535c2.215,0,3.746,1.29,3.746,3.535s-1.532,3.534-3.746,3.534m0-5.442a1.908,1.908,0,1,0,1.84,1.907,1.758,1.758,0,0,0-1.84-1.907" transform="translate(-259.523 -56.117)"/>
    <path id="Path_486" data-name="Path 486" class="cls-5" d="M465.4,96.243a2.228,2.228,0,0,0-1.541-.587,1.722,1.722,0,0,0-1.811,1.974,1.769,1.769,0,0,0,1.811,1.936,2.342,2.342,0,0,0,1.3-.347v-.867h-1.7V96.859h3.294v3a3.145,3.145,0,0,1-2.9,1.32,3.354,3.354,0,0,1-3.678-3.544,3.456,3.456,0,0,1,3.689-3.573,3.368,3.368,0,0,1,2.648,1.088Z" transform="translate(-274.342 -56.074)"/>
    <path id="Path_487" data-name="Path 487" class="cls-5" d="M487.379,96.2a2.524,2.524,0,0,0-1.579-.462c-.462,0-.915.145-.915.5,0,.462.453.53,1.117.6,1.339.145,2.735.684,2.735,2.234,0,1.531-1.445,2.186-2.957,2.2a3.6,3.6,0,0,1-3.015-1.185l1.05-1.2a2.7,2.7,0,0,0,1.974.761c.626,0,1.06-.221,1.06-.6,0-.337-.386-.549-1.127-.616-1.473-.135-2.744-.51-2.744-2.186,0-1.426,1.4-2.042,2.822-2.042a3.826,3.826,0,0,1,2.523.8Z" transform="translate(-287.809 -56.159)"/>
  </g>
</svg>
