<svg xmlns="http://www.w3.org/2000/svg" width="296.316" height="171.427" viewBox="0 0 296.316 171.427">
  <defs>
    <style>
      .cls-1 {
        fill: #212d65;
      }

      .cls-2 {
        fill: #efefee;
      }

      .cls-3 {
        fill: #d3d3d3;
      }

      .cls-4 {
        fill: #fff;
        font-size: 14px;
        font-family: Archivo;
        font-weight: 700;
        letter-spacing: 0.2em;
      }
    </style>
  </defs>
  <g id="PW_BlueDog_Mobile_2" transform="translate(-36.35 -669.573)">
    <g id="DOG" transform="translate(36.35 699.618)">
      <path id="Path_572" data-name="Path 572" class="cls-1" d="M22.135,87.272h0l10.2,17.357a3.394,3.394,0,0,1,.285,2.683l-5.086,17.529a.978.978,0,0,0,.941,1.3h5.861a1.861,1.861,0,0,0,1.656-1.112l7.886-17.878a2.812,2.812,0,0,0,.184-1.805l-2.246-9.26a1.319,1.319,0,0,0-.782-.921Z" transform="translate(52.176 15.233)"/>
      <path id="Path_573" data-name="Path 573" class="cls-1" d="M79.584,71.557l-8.791,55.2a1.654,1.654,0,0,0,1.658,2.145H77.7a2.692,2.692,0,0,0,2.234-1.653L92.52,88.36a.689.689,0,0,0-.391-.969L79.015,83.127c-.91-.3.712-12.6.568-11.57" transform="translate(-53.361 12.479)"/>
      <path id="Path_574" data-name="Path 574" class="cls-1" d="M66.666,28.992c-1.052-10.557-3.9-17.677-6.2-21.89A4.453,4.453,0,0,1,63.562.624C70.448-.658,80.771-.828,83.077,8.836c3.529,14.8-16.412,20.156-16.412,20.156" transform="translate(-31.578 0)"/>
      <path id="Path_575" data-name="Path 575" class="cls-2" d="M.095,42.473c.133-2.361-.864-8.844,6.967-15.1l10.674-8.528a1.038,1.038,0,0,1,.134-.092c8.144-4.5,13.466-1.96,15.011-.992a.809.809,0,0,0,.943-.058c1.7-1.355,7.448-5.951,9.464-7.563,2.852-2.279,7.683-1.943,9.541,5.16l0-.007s7.633,15.327-4.591,27.9A.849.849,0,0,1,47,43.155l-1.5-1.724a.835.835,0,0,0-1.433.318L42.5,47.219a.832.832,0,0,1-1.177.521,16.854,16.854,0,0,1-4.536-3.673.85.85,0,0,0-1.229-.031c-5.445,5.639-8.56,11.7-5.526,18.294a.864.864,0,0,0,.5.463,8,8,0,0,0,2.516.362H77.874l.2.036s4.833,2.62,7.1,5.736c2.341,3.484,4.2,8.916,3.459,17.322l-.3,1.166c-3.062,6.954-9.136,17.43,9.433,24.423a2.616,2.616,0,0,1,1.714,2.268l1.866,23.106a2.418,2.418,0,0,1-2.41,2.613H94.2a1.014,1.014,0,0,1-1.017-.786l-4.271-18.392a3.445,3.445,0,0,0-1.483-2.113l-14.294-9.258-.545-.287-14.445-6.035a18.228,18.228,0,0,0-10.263-1.021L25.77,105.911a3.571,3.571,0,0,0-2.916,3.491l.833,27.522a2.817,2.817,0,0,1-2.818,2.9H15.5a1.49,1.49,0,0,1-1.522-1.3L10.112,110.1c-.063-.235-.128-.465-.193-.7,0,0-6.427-6.851-7.445-13.6-3.081-20.4-1.079-23.373-.12-29.7a1.033,1.033,0,0,0,.007-.217C1.456,55.725-.444,52.018.095,42.473" transform="translate(20.957 1.55)"/>
      <path id="Path_576" data-name="Path 576" class="cls-2" d="M9.211,64.035a.42.42,0,0,1-.446.4A25.283,25.283,0,0,1,.389,62.931S.279,56.095,2,56.095c2.442,0,9,.068,11.348-.493a18.323,18.323,0,0,0,9.141-5.572c.906-.987,1.485-.692,1.924-.46.381.2,1.03.867.221,2.249a22.081,22.081,0,0,1-1.966,2.829,20.482,20.482,0,0,1-3.215,3.14l.754,1.5a.381.381,0,0,1-.128.5A15.8,15.8,0,0,1,9.188,62.189Z" transform="translate(96.832 8.612)"/>
      <path id="Path_577" data-name="Path 577" d="M57.792,28.3a6.023,6.023,0,0,1-10.505,2.837Z" transform="translate(8.978 4.939)"/>
      <path id="Path_578" data-name="Path 578" d="M42.486,11.715c-.025-.032-.028-.07-.052-.1L44.3,10.117c2.314-1.849,5.919-1.942,8.195,1.865a6.036,6.036,0,0,1-.762.678,6.513,6.513,0,0,1-9.248-.946" transform="translate(19.974 1.549)"/>
      <path id="Path_579" data-name="Path 579" class="cls-1" d="M108.929,22.518c-4.462-8.1-13.126-6.224-21.494,1.218-3.7,3.286-5.218,1.812-8.52,3.42C76.488,28.339,75.957,31.9,77.652,34c5.408,6.7,12.321,13.431,19.986,9.159,0,0-.066,1.769.054,3.608,8.389-5.913,2.6-13.683,11.237-24.247" transform="translate(-76.665 3.01)"/>
      <path id="Path_580" data-name="Path 580" d="M56.956,25.113a5.879,5.879,0,0,1,.682,2.738A6.044,6.044,0,0,1,51.5,33.8a5.978,5.978,0,0,1-4.378-2.044Z" transform="translate(9.327 4.383)"/>
      <path id="Path_581" data-name="Path 581" class="cls-3" d="M71.773,18.305c-5.559-.754-10.567,1.462-12.061,7.285S66.6,37.066,70.889,33.762s2.714-6.555,4.526-8.783.122-6.163-3.641-6.674" transform="translate(-23.759 3.17)"/>
      <path id="Path_582" data-name="Path 582" d="M66.824,23.2a2.273,2.273,0,1,0-.356,3.2,2.273,2.273,0,0,0,.356-3.2" transform="translate(-18.743 3.901)"/>
      <path id="Path_583" data-name="Path 583" class="cls-1" d="M21.788,55.09c6.829,15.012,26.554,14.489,32.248,0Z" transform="translate(42.683 9.616)"/>
    </g>
    <g id="SPEECH_BUBBLE" data-name="SPEECH BUBBLE" transform="translate(125.184 669.573)">
      <g id="BUBBLE" transform="translate(0)">
        <g id="Group_399" data-name="Group 399" transform="translate(0 0)">
          <rect id="Rectangle_123" data-name="Rectangle 123" class="cls-1" width="199.667" height="51.235" rx="25.618" transform="translate(7.815)"/>
          <path id="Path_19" data-name="Path 19" class="cls-1" d="M14871.391,4137v37.281l-40.549,8.855" transform="translate(-14830.842 -4123.046)"/>
        </g>
      </g>
      <text id="Sorry_about_that_" data-name="Sorry about that!" class="cls-4" transform="translate(112.701 29.871)"><tspan x="-77.716" y="0">Sorry about that!</tspan></text>
    </g>
  </g>
</svg>
