<svg xmlns="http://www.w3.org/2000/svg" width="51.533" height="72.95" viewBox="0 0 51.533 72.95">
  <defs>
    <style>
      .cls-1 {
        fill: #008a9f;
      }
    </style>
  </defs>
  <path id="Icon_Sodium" class="cls-1" d="M129.393,411.389a98.084,98.084,0,0,0-5.841-11.822,227.52,227.52,0,0,0-13.087-20.154c-1-1.387-2-2.77-3.034-4.128a1.627,1.627,0,0,0-2.754,0c-2.872,3.768-5.585,7.667-8.222,11.6-4.86,7.255-9.583,14.772-13.036,22.815a34.82,34.82,0,0,0-3.062,10.451,25.222,25.222,0,0,0,3.529,14.518,25.644,25.644,0,0,0,47.573-9.058,29.094,29.094,0,0,0,.35-4.263A27.689,27.689,0,0,0,129.393,411.389Zm-16.663,31.9a22.713,22.713,0,0,1-29.223-22.606,18.99,18.99,0,0,1,.762-4.068,43.635,43.635,0,0,1,1.808-5.082c3.206-7.624,7.656-14.761,12.2-21.644q2.842-4.3,5.846-8.493c.628-.877,1.309-1.737,1.963-2.612,2.287,3.089,4.484,6.247,6.625,9.435,4.83,7.19,9.51,14.63,13,22.579a44.78,44.78,0,0,1,2.1,5.726,16.971,16.971,0,0,1,.806,4.821A23.135,23.135,0,0,1,112.73,443.293Z" transform="translate(-80.276 -374.524)"/>
</svg>
