<svg xmlns="http://www.w3.org/2000/svg" width="91.013" height="55.851" viewBox="0 0 91.013 55.851">
  <defs>
    <style>
      .cls-1 {
        fill: #008a9f;
      }
    </style>
  </defs>
  <g id="Icon_pH_Balance_Solution" data-name="Icon_pH Balance Solution" transform="translate(-66.934 -172.521)">
    <path id="Path_977" data-name="Path 977" class="cls-1" d="M128.726,224.788a66.272,66.272,0,0,0,20.66-14.292c2.086-2.1,4.067-4.265,6.161-6.561q.937-1.027,1.9-2.075a1.983,1.983,0,0,0,0-2.631c-.658-.719-1.3-1.433-1.944-2.14-2.119-2.342-4.122-4.554-6.274-6.649-7.712-7.51-15.487-12.613-23.771-15.6-9.656-3.486-19.588-3.033-29.52,1.345A67.1,67.1,0,0,0,75.669,190.27c-2.139,2.134-4.157,4.328-6.295,6.65q-.957,1.042-1.93,2.095a1.979,1.979,0,0,0-.069,2.571l.643.773c1.011,1.216,1.965,2.367,2.948,3.471,8.759,9.845,18.027,16.456,28.33,20.211a37.611,37.611,0,0,0,12.97,2.33A41.283,41.283,0,0,0,128.726,224.788ZM95.994,219.52c-8.477-4.161-16.214-10.395-23.647-19.055l.436-.517c.413-.491.815-.971,1.232-1.434a73.383,73.383,0,0,1,20.9-16.613c6.8-3.506,13.216-4.984,19.6-4.533a38.936,38.936,0,0,1,15.245,4.513c7.865,4.055,15.217,10.062,22.475,18.363a1.65,1.65,0,0,1,.148.22l.047.078c-.494.527-.984,1.06-1.474,1.59-1.158,1.258-2.356,2.559-3.584,3.77a71.222,71.222,0,0,1-17.5,13.069c-6.877,3.509-13.326,5-19.712,4.549A37.784,37.784,0,0,1,95.994,219.52Z" transform="translate(0 0)"/>
    <path id="Path_978" data-name="Path 978" class="cls-1" d="M126.109,193.571a2.156,2.156,0,0,0-1.475-1.518,2.2,2.2,0,0,0-2.117.459l-.4.352a4.373,4.373,0,0,1-3.353,1.062,4.91,4.91,0,0,1-4.516-3.418,4.819,4.819,0,0,1,1.234-5.311c.141-.138.283-.276.429-.412a2.21,2.21,0,0,0-.679-3.653A19.232,19.232,0,0,0,92.523,186.7c-6.774,8.247-4.812,19.408,1,25.433a19.41,19.41,0,0,0,14,6.1,19.129,19.129,0,0,0,11.87-4.181A18.873,18.873,0,0,0,126.109,193.571Zm-14.326,1.483c2.734,3.081,6.221,4.009,10.371,2.761.9,5.5-2.9,11.336-7.144,13.842a14.89,14.89,0,0,1-17.4-1.879,14.743,14.743,0,0,1,9.908-25.649,15.7,15.7,0,0,1,2.915.276C108.66,188.462,109.113,192.044,111.784,195.055Z" transform="translate(4.792 1.578)"/>
  </g>
</svg>
