<svg xmlns="http://www.w3.org/2000/svg" width="84.502" height="83.061" viewBox="0 0 84.502 83.061">
  <defs>
    <style>
      .cls-1 {
        fill: #008a9f;
      }
    </style>
  </defs>
  <g id="Icon_Multi-Purpose_Solution" data-name="Icon_Multi-Purpose Solution" transform="translate(-67.488 -257.711)">
    <path id="Path_979" data-name="Path 979" class="cls-1" d="M143.775,293.16c-1.888-2.086-3.67-4.057-5.588-5.923-1.8-1.751-3.6-3.346-5.415-4.808l-2.966,2.967a79.737,79.737,0,0,1,11.058,10.568,1.39,1.39,0,0,1,.133.2l.039.065c-.443.473-.883.951-1.322,1.427-1.027,1.116-2.09,2.269-3.18,3.343a63.326,63.326,0,0,1-15.573,11.628c-6.117,3.124-11.86,4.445-17.54,4.048a30.515,30.515,0,0,1-4.279-.616l-3.488,3.488a33.185,33.185,0,0,0,9.636,1.445,36.726,36.726,0,0,0,14.649-3.191,59,59,0,0,0,18.386-12.717c1.854-1.865,3.613-3.792,5.475-5.832.559-.612,1.122-1.228,1.7-1.853a1.766,1.766,0,0,0,0-2.342Q144.624,294.1,143.775,293.16Z" transform="translate(2.536 2.225)"/>
    <path id="Path_980" data-name="Path 980" class="cls-1" d="M115.362,308.781a16.67,16.67,0,0,0,6.321-16.67l-3.755,3.755c-.027,4.408-3.083,8.787-6.465,10.785a12.854,12.854,0,0,1-6.064,1.744l-3.79,3.79a16.72,16.72,0,0,0,3.191.316A17.018,17.018,0,0,0,115.362,308.781Z" transform="translate(3.072 3.097)"/>
    <path id="Path_981" data-name="Path 981" class="cls-1" d="M151.192,258.509a2.725,2.725,0,0,0-3.853,0l-20.444,20.444a49.48,49.48,0,0,0-7.326-3.374c-8.591-3.1-17.431-2.7-26.268,1.2a59.756,59.756,0,0,0-18.04,12.538c-1.9,1.894-3.692,3.842-5.589,5.9q-.857.934-1.732,1.878a1.763,1.763,0,0,0-.059,2.288l.538.649c.911,1.1,1.771,2.133,2.656,3.128A67.738,67.738,0,0,0,88.37,317.477L69.727,336.12a2.725,2.725,0,0,0,3.853,3.853l77.611-77.611A2.723,2.723,0,0,0,151.192,258.509ZM98.414,307.433a13.108,13.108,0,0,1,9.457-22.181,13.969,13.969,0,0,1,2.593.245c-1.5,3.415-1.194,6.446.852,9.033Zm15.78-15.78a4.888,4.888,0,0,1-.338-.723,4.242,4.242,0,0,1,1.1-4.726c.125-.123.253-.246.382-.367a1.964,1.964,0,0,0-.6-3.249,17.187,17.187,0,0,0-19.324,27.587c.045.046.093.084.136.129L91.5,314.348A67.645,67.645,0,0,1,72.3,298.386l.38-.45c.37-.441.73-.872,1.1-1.287a65.366,65.366,0,0,1,18.6-14.783c6.051-3.119,11.748-4.437,17.446-4.033a34.617,34.617,0,0,1,13.565,4.016c.131.066.258.143.387.214Z"/>
  </g>
</svg>
