<svg xmlns="http://www.w3.org/2000/svg" width="108.559" height="96.293" viewBox="0 0 108.559 96.293">
  <defs>
    <style>
      .cls-1 {
        fill: #008a9f;
      }
    </style>
  </defs>
  <g id="Icon_4_Premium_Naturally_Inspired_Ingredients_" data-name="Icon_4_Premium, Naturally Inspired Ingredients " transform="translate(-56.286 -33.674)">
    <path id="Path_975" data-name="Path 975" class="cls-1" d="M100.395,70.957a1.262,1.262,0,0,0,2.4-.275,70.9,70.9,0,0,1,2.793-8.438q.355-.907.734-1.812l5.527-2.46.869-.387a1.25,1.25,0,0,0-.936-2.319l-3.925,1.747a40.6,40.6,0,0,1,6.183-9.573c1.076-1.2-.887-2.75-1.958-1.555A42.565,42.565,0,0,0,105.6,55.919l-1.092-3.686a1.261,1.261,0,0,0-1.628-.691,1.277,1.277,0,0,0-.691,1.627q.922,3.115,1.846,6.233c-.254.611-.5,1.223-.744,1.835-.714,1.823-1.376,3.68-1.968,5.556q-1.105-2.574-2.212-5.149c-.634-1.474-2.957-.548-2.319.936Z"/>
    <path id="Path_976" data-name="Path 976" class="cls-1" d="M163.1,43.6c-9.819-1.038-20.034-1.417-29.746.7a41.454,41.454,0,0,0-9.4,3.189q-.453-1.824-.974-3.623a77.814,77.814,0,0,0-3.141-9.041,1.916,1.916,0,0,0-2.441-1.037c-7.625,2.718-15.313,6.063-21.732,11.086-3.849,3.012-7.387,6.812-9.138,11.451a18.1,18.1,0,0,0-1.066,4.513,1.465,1.465,0,0,0-.17.035c-3.773,1.226-7.006,3.825-9.913,6.442a94.575,94.575,0,0,0-8.868,9.323c-1.8,2.127-3.551,4.3-5.2,6.543a18.327,18.327,0,0,0-1.945,3.89c-3.688,8.827-4.547,19.181.1,27.833a29.011,29.011,0,0,0,22.84,14.917,22.884,22.884,0,0,0,9.062-.769l17.253-5.217,17.124-5.179c4.292-1.3,10.815-2.057,11.223-7.592a7.265,7.265,0,0,0-.219-2.27c-.047-.184-.1-.365-.166-.543-.031-.089-.111-.356-.157-.512a5.942,5.942,0,0,0-1.913-2.9c.869-.284,1.74-.567,2.6-.869a6.9,6.9,0,0,0,4.284-9.049c-.048-.128-.106-.244-.158-.369,0-.07-.106-.52-.118-.551a6.1,6.1,0,0,0-.837-1.563,5.843,5.843,0,0,0-.441-.51l.636-.2.046-.015a32.139,32.139,0,0,0,5.765-1.456c4.714-1.674,8.149-6.659,10.386-10.888,3.44-6.5,5.341-13.7,6.63-20.9a96.33,96.33,0,0,0,1.531-12.872A1.914,1.914,0,0,0,163.1,43.6ZM89.054,62.388c.028-.388.051-.774.1-1.16a20,20,0,0,1,.451-2.312,19.2,19.2,0,0,1,2.286-4.777,26.531,26.531,0,0,1,4.638-5.113c5.924-5.1,13.229-8.417,20.527-11.109A74.512,74.512,0,0,1,120.618,49.4a24.59,24.59,0,0,0-3.391,2.7,23.029,23.029,0,0,0-6.877,15.27L100,73.179,95.36,75.785c-.367-.182-.732-.368-1.091-.564-.085-.093-.171-.186-.254-.281-.494-.569-.957-1.165-1.392-1.78q-.442-.627-.847-1.281c-.109-.177-.213-.357-.318-.537-.009-.023-.276-.5-.349-.647a20.858,20.858,0,0,1-1.448-3.583c-.048-.163-.092-.326-.138-.489l-.013-.044-.02-.094c-.076-.364-.156-.727-.217-1.094a16.9,16.9,0,0,1-.22-2.233c-.006-.187-.007-.374-.008-.562,0-.038,0-.06,0-.075C89.046,62.488,89.049,62.448,89.054,62.388Zm25.379,2.187v0C114.451,64.477,114.5,64.274,114.433,64.575ZM89.95,75.821a20.236,20.236,0,0,0,1.712,2.043l-3.594,2.019A10.659,10.659,0,0,1,89.95,75.821Zm54.257,9.09c-.291,2.027-2.115,2.4-3.779,2.918l-.782.245-10.408,3.261-5.137,1.61c-6.8,2.132-13.651,4.16-20.421,6.4-.129.043-.26.082-.391.123-2.295.719-1.315,4.34,1,3.616l.236-.074,18.461-5.785,11.738-3.678a3.576,3.576,0,0,1,2.211.746,2.294,2.294,0,0,1,.661.913c.118.292.494,1.671.178.684a7.97,7.97,0,0,1,.339,1.269c-.015.007.016.661,0,.812a3.545,3.545,0,0,1-.148.688,2.654,2.654,0,0,1-.607.9,5.766,5.766,0,0,1-1.17.79c-1.841.732-3.82,1.2-5.713,1.79l-7.263,2.276-15.978,5.007.043.1c-2,.858-1.014,4.191,1.224,3.523l14.625-4.366c1.8-.537,3.622-1.023,5.4-1.613.045-.015.095-.01.139-.022l-.115.031a1.854,1.854,0,0,1,.25-.029,12.589,12.589,0,0,1,1.623.023,2.783,2.783,0,0,1,2.606,2.27c.05.222.142.619.172.756.009.047.016.07.022.1s0,.051,0,.1c.007.129.013.256.013.385a1.817,1.817,0,0,1-.184.963c-.526,1.208-1.744,1.433-2.923,1.79l-4.384,1.325-14.332,4.335-18.128,5.482c-1.5.454-3,.96-4.52,1.367-.158.042-.322.071-.478.114l-.006,0,.123-.015-.125.015c-.132.034-.453.056-.124.015-.067.008-.134.017-.2.023-.458.043-.915.082-1.374.1a25.556,25.556,0,0,1-19.177-6.979,24.087,24.087,0,0,1-7.169-13.775A30.977,30.977,0,0,1,61.509,92.16a27.7,27.7,0,0,1,2.66-6.523,7.959,7.959,0,0,1,.483-.693c.752-1,.941-1.245,1.7-2.209,4.628-5.842,9.721-11.975,15.954-16.164a21.367,21.367,0,0,1,2.418-1.416l2.859,7.625A13.91,13.91,0,0,0,84.11,83.2a1.9,1.9,0,0,0,2.822,1.619l8.62-4.844,4.335-2.436,10.482-5.89L114,69.611l3.771-2.12,4.1-2.306,1.371-.77c.147-.083.305-.158.446-.251l.026-.018a11.416,11.416,0,0,1,1.7-.462c.094-.015.188-.029.282-.039a2.443,2.443,0,0,1,2.079.619c.012.012.019.026.031.038a3.939,3.939,0,0,1,1.138,3.125,4.172,4.172,0,0,1-1.378,2.642c-.179.179-.364.352-.557.515-.149.128-.3.248-.457.371l-.116.089q-.215.165-.431.327c-.337.252-.686.486-1.025.734q-1.223.9-2.462,1.766-2.663,1.866-5.358,3.685c-.338.228-.678.452-1.016.68-1.044.7-2.093,1.4-3.139,2.1l-.3.2q-6.468,4.329-12.989,8.579c-1.711,1.113-.669,4.1,1.445,3.427l16.523-5.235,1.8-.57,4.656-1.475,14.224-4.507c.236-.074.483-.135.713-.226l.067-.028c1.483-.08,3.139-.228,4.138.942a3.513,3.513,0,0,1,.609,1.373c-.006-.005-.009.006-.006.046a2.323,2.323,0,0,0,.112.329A3.832,3.832,0,0,1,144.207,84.911Zm15.862-29.728a78.116,78.116,0,0,1-5.142,19.234,32.825,32.825,0,0,1-5.1,8.52,22.375,22.375,0,0,1-1.887,1.973,7.515,7.515,0,0,0-.32-2.716c-.069-.219-.178-.427-.244-.645-.149-.487,0-.169.022-.083-.04-.14-.086-.277-.13-.416a5.857,5.857,0,0,0-.528-1.181,6.185,6.185,0,0,0-3.148-2.592,9.556,9.556,0,0,0-5.343-.407c-1.7.387-3.383,1.064-5.045,1.59l-12,3.8-.914.29-4.157,1.317-3.165,1,2.506-1.672c.663-.442,1.327-.881,1.988-1.326.4-.271.8-.546,1.205-.818q3.4-2.295,6.756-4.671c.645-.459,1.3-.9,1.939-1.373a26.855,26.855,0,0,0,2.774-2.239q.316-.3.607-.633c1.312-1.362,2.647-2.7,4.031-3.99q.9-.845,1.836-1.672l7.552.216,1.151.033a1.278,1.278,0,0,0,1.336-1.159,1.264,1.264,0,0,0-1.159-1.335l-6.037-.173a50.993,50.993,0,0,1,12.593-7.836c1.485-.616.356-2.847-1.126-2.233a52.776,52.776,0,0,0-12.995,8.086q.431-2.676.86-5.352a1.261,1.261,0,0,0-1.159-1.336,1.277,1.277,0,0,0-1.335,1.159q-.644,4.007-1.288,8.012-.959.854-1.892,1.722c-.152.142-.3.291-.449.434a7.936,7.936,0,0,0-.67-2.723,6.589,6.589,0,0,0-3.973-3.822,6.717,6.717,0,0,0-2.221-.275,9.888,9.888,0,0,0-3.3.725c-.131.052-.257.118-.386.176-1.089.49-2.115,1.148-3.151,1.73l-4.615,2.594q.045-.267.094-.532c.019-.089.037-.179.059-.267.109-.448.218-.895.348-1.337a20.718,20.718,0,0,1,.943-2.564c.068-.154.141-.307.214-.46.03-.054.195-.383.228-.444q.363-.674.777-1.318.389-.6.82-1.177c.148-.2.3-.389.453-.58.094-.116.189-.23.285-.344l.021-.025.062-.068a21.9,21.9,0,0,1,2.749-2.535,24.145,24.145,0,0,1,3.408-2.213,33.016,33.016,0,0,1,7.139-2.752c9.4-2.514,19.416-2.28,29.055-1.348C160.8,49.844,160.469,52.527,160.069,55.183Z"/>
  </g>
</svg>
