<svg xmlns="http://www.w3.org/2000/svg" width="94.875" height="71.886" viewBox="0 0 94.875 71.886">
  <defs>
    <style>
      .cls-1 {
        fill: #1b3d6d;
      }

      .cls-2 {
        fill: #0e76b9;
      }

      .cls-3 {
        fill: #d3d3d3;
      }
    </style>
  </defs>
  <g id="PW_BlueDog_Mobile" transform="translate(-453.747 -159)">
    <path id="Path_811" data-name="Path 811" class="cls-1" d="M735.3,407.773c.466,6.239,6.771,8.945,7.131,10.87s-2.177,3.007-2.177,3.007-2.917-2.139-5.5-.128a1.6,1.6,0,0,0-.132,2.428,22.5,22.5,0,0,0,4.682,3.474c1.58.842,5.017-5.222,9.786-7.477a1.945,1.945,0,0,0,.948-2.674,32.1,32.1,0,0,1-3.515-10.9c-.963-7.578-11.223,1.4-11.223,1.4" transform="translate(-225.625 -196.617)"/>
    <path id="Path_812" data-name="Path 812" class="cls-1" d="M566.816,418.3c-.6,8.1,2.028,13.425,4.542,12.2a5.65,5.65,0,0,1,5.45.35,1.939,1.939,0,0,1,.4,3.019c-1.718,1.767-4.892,4.014-8.541,1.667-5.36-3.448-9.392-9.607-9.94-18.667q-.019-.322-.034-.647Z" transform="translate(-84.453 -206.993)"/>
    <path id="Path_813" data-name="Path 813" class="cls-2" d="M547.359,213.115c-.726-1.262-1.115-2.194-7.6-4.732a2.061,2.061,0,0,0-2.46.726c-.823,1.222-2.217,2.65-3.758,1.478a3.355,3.355,0,0,1-1.225-3.009c.264-2.673.367-9.092-4.015-12.933a.488.488,0,0,1,.066-.8,11.754,11.754,0,0,0,4.346-4.345.244.244,0,0,0-.16-.366l-1.411-.282c.417-1.168,1.8-5.719-.579-9.264a.249.249,0,0,0-.178-.107.241.241,0,0,0-.2.071l-1,1a7.38,7.38,0,0,0-5.231-2.129,9.36,9.36,0,0,0-3.235.158.162.162,0,0,0-.123.16.157.157,0,0,0,.164.15,7.806,7.806,0,0,1,5.271,1.668,6.067,6.067,0,0,1,2.176,4.466,5.685,5.685,0,0,1-1.8,4.215,11.425,11.425,0,0,1-4.264,2.4l-.1.034c-.01,0-.021.012-.031.015-8.268-2.247-14.242.058-20.748,2.561a13.5,13.5,0,0,1-3.54.9,4.716,4.716,0,0,1-4.847-3.113,17.6,17.6,0,0,1,.443-12.546c.537-1.362,1.355-4.641-3.43-8.594l-6.56-5.417c-4.514-2.61-7.667-1.639-8.96-.991a1.19,1.19,0,0,1-1.3-.132l-5.435-4.489c-1.416-1.169-3.657-1.278-5.1,1.068l-.005-.008s-.062.1-.162.289c-.036.065-.07.132-.1.2C461.2,163.513,457.559,172,464.061,180a.783.783,0,0,0,1.185.018l.393-.438a.782.782,0,0,1,1.339.32l.7,2.611a.777.777,0,0,0,1.125.487,10.8,10.8,0,0,0,2.258-1.791.667.667,0,0,1,.995.069c2.7,3.586,3.3,7.318.868,11.645-.075.136-.226.457-.371.722a18.551,18.551,0,0,0-2.39,9.259q0,.45.027.9a1.2,1.2,0,0,1-1.54,1.239c-5.726-1.719-9.5-2.925-11.109-3.449a1.3,1.3,0,0,0-1.479.5,13.864,13.864,0,0,0-2.256,5.264c-.517,3.223,2.32,5.028,5.028,4.384s-.129-3.223,2.449-3.094c1.944.1,5.354,4.81,6.914,7.125a1.664,1.664,0,0,0,2.165.539l2.822-1.508a1.234,1.234,0,0,1,1.522.305,18.678,18.678,0,0,0,12.225,6.421v.005c.05,0,.1,0,.149,0,.6.057,1.2.1,1.812.1a18.682,18.682,0,0,0,6.1-1.027c6.23-1.824,10.747-5.811,13.591-8.069,3.95-3.137,13.036,1,15.826,4.486s9.746,4.514,12.9-.1,5.51,2.079,5.51,2.079a3.975,3.975,0,0,0,2.188,2.681,2.666,2.666,0,0,0,3.539-2.265,10.421,10.421,0,0,0-1.192-6.308" transform="translate(0 -0.05)"/>
    <path id="Path_814" data-name="Path 814" class="cls-3" d="M562.544,191.763c3.641-.283,6.813,1.344,7.568,5.182s-4.907,7.2-7.568,4.9-1.521-4.361-2.614-5.877.149-4.009,2.614-4.2" transform="translate(-85.125 -26.339)"/>
    <path id="Path_815" data-name="Path 815" d="M574.049,210.8a1.407,1.407,0,1,1,.188,1.981,1.406,1.406,0,0,1-.188-1.981" transform="translate(-96.549 -41.274)"/>
    <path id="Path_816" data-name="Path 816" d="M514.914,238.365a.284.284,0,0,0-.26.421,3.512,3.512,0,0,0,6.29.3.285.285,0,0,0-.218-.444Z" transform="translate(-48.986 -63.865)"/>
    <path id="Path_817" data-name="Path 817" d="M504.959,160.816a.33.33,0,0,0,.041-.059c-.452-.375-.872-.718-1.15-.947-1.413-1.168-3.644-1.276-5.091,1.057a4.193,4.193,0,0,0,.465.443,4.034,4.034,0,0,0,5.735-.493" transform="translate(-36.222)"/>
    <path id="Path_818" data-name="Path 818" class="cls-1" d="M718.021,322.17c-8.13-2.329-14.232.062-20.726,2.559,7.5,7.182,18.376,3.656,20.726-2.559" transform="translate(-195.986 -130.542)"/>
    <path id="Path_819" data-name="Path 819" class="cls-1" d="M626.586,208.505c-1.208,7.538,1.655,12.94,4.425,14.728a11.227,11.227,0,0,1,.247-1.187.582.582,0,0,1,1.117.258.089.089,0,0,1,.005.018,5.52,5.52,0,0,0,2.753,4.067.983.983,0,0,0,1.451-.579c.753-2.656,1.908-3.413,2.643-7.2,2.132-10.986-9.564-11.329-12.641-10.105" transform="translate(-138.857 -39.447)"/>
  </g>
</svg>
