<svg xmlns="http://www.w3.org/2000/svg" xmlns:xlink="http://www.w3.org/1999/xlink" width="194.055" height="146.067" viewBox="0 0 194.055 146.067">
  <defs>
    <style>
      .cls-1 {
        fill: none;
      }

      .cls-2 {
        clip-path: url(#clip-path);
      }

      .cls-3 {
        fill: #2d4b53;
      }

      .cls-4 {
        fill: #efefee;
      }

      .cls-5 {
        fill: #aeeae7;
      }

      .cls-6 {
        fill: #fff;
        font-size: 12px;
        font-family: Archivo;
        font-weight: 700;
        letter-spacing: 0.2em;
      }
    </style>
    <clipPath id="clip-path">
      <rect id="Rectangle_533" data-name="Rectangle 533" class="cls-1" width="118.406" height="136.87"/>
    </clipPath>
  </defs>
  <g id="PW_GreenDog_Mobile" transform="translate(0 9.198)">
    <g id="Group_526" data-name="Group 526" class="cls-2" transform="translate(0 0)">
      <path id="Path_572" data-name="Path 572" class="cls-3" d="M22.135,87.272h0l9.874,16.8a3.285,3.285,0,0,1,.276,2.6l-4.923,16.969a.947.947,0,0,0,.911,1.262h5.674a1.8,1.8,0,0,0,1.6-1.077l7.634-17.307a2.722,2.722,0,0,0,.179-1.748l-2.174-8.965a1.277,1.277,0,0,0-.757-.891Z" transform="translate(49.803 11.961)"/>
      <path id="Path_573" data-name="Path 573" class="cls-3" d="M79.3,71.555l-8.511,53.439a1.6,1.6,0,0,0,1.606,2.076H77.48a2.607,2.607,0,0,0,2.163-1.6L91.825,87.822a.667.667,0,0,0-.379-.938l-12.7-4.128c-.881-.287.689-12.195.55-11.2" transform="translate(-53.917 9.799)"/>
      <path id="Path_574" data-name="Path 574" class="cls-3" d="M66.451,28.067c-1.019-10.22-3.778-17.113-6-21.191a4.311,4.311,0,0,1,3-6.272C70.112-.637,80.106-.8,82.339,8.554,85.756,22.88,66.451,28.067,66.451,28.067" transform="translate(-32.483 0)"/>
      <path id="Path_575" data-name="Path 575" class="cls-4" d="M.092,41.4c.128-2.285-.837-8.562,6.745-14.621L17.17,18.523a1,1,0,0,1,.13-.089c7.884-4.357,13.036-1.9,14.532-.961a.783.783,0,0,0,.913-.056c1.644-1.312,7.21-5.761,9.162-7.322,2.761-2.206,7.437-1.881,9.236,5l0-.007S58.538,29.922,46.7,42.1a.822.822,0,0,1-1.2-.036l-1.453-1.669a.808.808,0,0,0-1.387.308L41.143,46A.806.806,0,0,1,40,46.5a16.317,16.317,0,0,1-4.391-3.556.823.823,0,0,0-1.189-.03c-5.271,5.459-8.287,11.323-5.35,17.71a.836.836,0,0,0,.487.448,7.74,7.74,0,0,0,2.436.35H75.389l.194.035S80.262,64,82.452,67.012c2.266,3.373,4.065,8.631,3.349,16.769l-.288,1.129c-2.964,6.732-8.844,16.874,9.132,23.644a2.533,2.533,0,0,1,1.659,2.2l1.807,22.368a2.341,2.341,0,0,1-2.333,2.53H91.194a.982.982,0,0,1-.985-.761l-4.134-17.805a3.335,3.335,0,0,0-1.436-2.046L70.8,106.074l-.528-.277L56.29,99.955a17.646,17.646,0,0,0-9.936-.988l-21.406,3.848a3.457,3.457,0,0,0-2.823,3.379l.806,26.644a2.727,2.727,0,0,1-2.728,2.811H15a1.442,1.442,0,0,1-1.474-1.26L9.79,106.868c-.061-.227-.124-.45-.186-.675,0,0-6.222-6.632-7.208-13.169C-.587,73.27,1.35,70.4,2.279,64.27a1,1,0,0,0,.007-.21C1.41,54.23-.43,50.642.092,41.4" transform="translate(20.288 1.217)"/>
      <path id="Path_576" data-name="Path 576" class="cls-4" d="M8.93,63.566a.406.406,0,0,1-.432.39A24.477,24.477,0,0,1,.389,62.5s-.107-6.618,1.56-6.618c2.364,0,8.711.066,10.986-.478a17.738,17.738,0,0,0,8.85-5.394c.877-.955,1.437-.67,1.863-.446.368.194,1,.839.214,2.177a21.376,21.376,0,0,1-1.9,2.739,19.828,19.828,0,0,1-3.112,3.039l.73,1.45a.369.369,0,0,1-.124.48A15.3,15.3,0,0,1,8.907,61.779Z" transform="translate(93.728 6.762)"/>
      <path id="Path_577" data-name="Path 577" d="M57.457,28.3a5.831,5.831,0,0,1-10.17,2.746Z" transform="translate(7.181 3.878)"/>
      <path id="Path_578" data-name="Path 578" d="M42.484,11.624c-.024-.031-.027-.068-.05-.1l1.808-1.445c2.24-1.79,5.73-1.88,7.933,1.806a5.843,5.843,0,0,1-.738.656,6.305,6.305,0,0,1-8.953-.915" transform="translate(17.981 1.217)"/>
      <path id="Path_579" data-name="Path 579" class="cls-3" d="M107.9,22.35c-4.32-7.84-12.707-6.025-20.808,1.179-3.579,3.181-5.052,1.754-8.248,3.311-2.349,1.145-2.863,4.589-1.222,6.623,5.235,6.49,11.928,13,19.348,8.867,0,0-.064,1.712.052,3.493C105.142,40.1,99.54,32.576,107.9,22.35" transform="translate(-76.665 2.363)"/>
      <path id="Path_580" data-name="Path 580" d="M56.642,25.113a5.691,5.691,0,0,1,.661,2.65,5.851,5.851,0,0,1-5.945,5.758,5.787,5.787,0,0,1-4.238-1.978Z" transform="translate(7.524 3.442)"/>
      <path id="Path_581" data-name="Path 581" class="cls-5" d="M71.382,18.3c-5.382-.73-10.23,1.416-11.676,7.052s6.671,11.11,10.82,7.912,2.628-6.346,4.381-8.5.118-5.966-3.525-6.461" transform="translate(-24.902 2.489)"/>
      <path id="Path_582" data-name="Path 582" d="M66.695,23.178a2.2,2.2,0,1,0-.345,3.094,2.2,2.2,0,0,0,.345-3.094" transform="translate(-20.149 3.063)"/>
      <path id="Path_583" data-name="Path 583" class="cls-3" d="M21.788,55.09c6.611,14.533,25.707,14.027,31.219,0Z" transform="translate(40.625 7.55)"/>
    </g>
    <g id="SpeechBubble" transform="translate(-1003.139 -5036.248)">
      <g id="Group_398" data-name="Group 398" transform="translate(1084.966 5027.05)">
        <g id="Group_399" data-name="Group 399" transform="translate(0 0)">
          <rect id="Rectangle_123" data-name="Rectangle 123" class="cls-3" width="108.484" height="29.567" rx="14.783" transform="translate(3.744)"/>
          <path id="Path_19" data-name="Path 19" class="cls-3" d="M14850.274,4137v17.879l-19.428,4.246" transform="translate(-14830.847 -4125.313)"/>
        </g>
      </g>
      <text id="That_s_me_" data-name="That’s me!" class="cls-6" transform="translate(1142.976 5044.398)"><tspan x="-40.281" y="0">That’s me!</tspan></text>
    </g>
  </g>
</svg>
