<svg xmlns="http://www.w3.org/2000/svg" xmlns:xlink="http://www.w3.org/1999/xlink" width="240.174" height="148.105" viewBox="0 0 240.174 148.105">
  <defs>
    <style>
      .cls-1 {
        fill: none;
      }

      .cls-2 {
        clip-path: url(#clip-path);
      }

      .cls-3 {
        fill: #54231c;
      }

      .cls-4 {
        fill: #bc574e;
      }

      .cls-5 {
        fill: #f2dfdd;
      }

      .cls-6 {
        fill: #fff;
        font-size: 12px;
        font-family: Archivo;
        font-weight: 700;
        letter-spacing: 0.1em;
      }
    </style>
    <clipPath id="clip-path">
      <rect id="Rectangle_532" data-name="Rectangle 532" class="cls-1" width="108.326" height="125.218"/>
    </clipPath>
  </defs>
  <g id="PW_Red_Dog_mobile_1" data-name="PW_Red Dog_mobile_1" transform="translate(131.848 22.888)">
    <g id="Group_525" data-name="Group 525" class="cls-2" transform="translate(0 0)">
      <path id="Path_559" data-name="Path 559" class="cls-3" d="M41.621,87.272h0l-9.034,15.373a3.006,3.006,0,0,0-.253,2.376l4.5,15.525a.866.866,0,0,1-.833,1.155H30.815a1.648,1.648,0,0,1-1.467-.985l-6.984-15.834a2.491,2.491,0,0,1-.163-1.6l1.989-8.2a1.169,1.169,0,0,1,.693-.816Z" transform="translate(0.891 3.513)"/>
      <path id="Path_560" data-name="Path 560" class="cls-3" d="M82.254,71.55l7.786,48.89a1.465,1.465,0,0,1-1.469,1.9H83.921a2.385,2.385,0,0,1-1.979-1.464L70.8,86.432a.61.61,0,0,1,.346-.858L82.758,81.8c.806-.262-.63-11.157-.5-10.248" transform="translate(2.848 2.878)"/>
      <path id="Path_561" data-name="Path 561" class="cls-3" d="M74.838,25.678c.932-9.35,3.457-15.656,5.489-19.387A3.944,3.944,0,0,0,77.586.552C71.488-.583,62.345-.733,60.3,7.826,57.176,20.932,74.838,25.678,74.838,25.678" transform="translate(2.413 0)"/>
      <path id="Path_562" data-name="Path 562" class="cls-4" d="M89.682,38.632c-.118-2.091.766-7.833-6.171-13.377L74.057,17.7a.919.919,0,0,0-.119-.081c-7.213-3.986-11.927-1.736-13.294-.879a.717.717,0,0,1-.835-.051c-1.5-1.2-6.6-5.271-8.382-6.7-2.526-2.018-6.8-1.721-8.45,4.57l0-.006S36.211,28.131,47.038,39.27a.752.752,0,0,0,1.1-.033l1.329-1.527a.74.74,0,0,1,1.269.282l1.388,4.844a.737.737,0,0,0,1.042.462,14.928,14.928,0,0,0,4.017-3.253.753.753,0,0,1,1.088-.027c4.823,4.994,7.581,10.359,4.894,16.2a.765.765,0,0,1-.445.41,7.081,7.081,0,0,1-2.228.32h-39.7l-.178.032s-4.281,2.321-6.284,5.081c-2.073,3.085-3.719,7.9-3.064,15.342l.263,1.033c2.712,6.159,8.091,15.437-8.354,21.631a2.317,2.317,0,0,0-1.518,2.009L.007,122.542a2.142,2.142,0,0,0,2.135,2.315H6.335a.9.9,0,0,0,.9-.7l3.782-16.289A3.051,3.051,0,0,1,12.332,106l12.66-8.2.483-.254L38.268,92.2a16.144,16.144,0,0,1,9.09-.9l19.584,3.52a3.163,3.163,0,0,1,2.583,3.092l-.738,24.375a2.5,2.5,0,0,0,2.5,2.572h4.758a1.32,1.32,0,0,0,1.348-1.153l3.42-25.177c.056-.208.113-.412.171-.618,0,0,5.692-6.068,6.594-12.048,2.729-18.071.956-20.7.106-26.305a.914.914,0,0,1-.006-.192c.8-8.993,2.485-12.276,2.008-20.73" transform="translate(0 0.358)"/>
      <path id="Path_563" data-name="Path 563" class="cls-4" d="M14.392,62.355a.372.372,0,0,0,.4.357,22.393,22.393,0,0,0,7.418-1.335s.1-6.054-1.427-6.054c-2.163,0-7.969.06-10.051-.437a16.228,16.228,0,0,1-8.1-4.935c-.8-.874-1.315-.613-1.7-.408-.337.178-.912.768-.2,1.992a19.556,19.556,0,0,0,1.741,2.506A18.14,18.14,0,0,0,5.32,56.822l-.668,1.326a.338.338,0,0,0,.113.439,14,14,0,0,0,9.647,2.134Z" transform="translate(0.016 1.986)"/>
      <path id="Path_564" data-name="Path 564" d="M47.287,28.3a5.335,5.335,0,0,0,9.3,2.512Z" transform="translate(1.904 1.139)"/>
      <path id="Path_565" data-name="Path 565" d="M51.3,11.39c.022-.028.025-.062.046-.093L49.692,9.976c-2.049-1.637-5.242-1.72-7.258,1.652a5.346,5.346,0,0,0,.675.6A5.768,5.768,0,0,0,51.3,11.39" transform="translate(1.708 0.357)"/>
      <path id="Path_566" data-name="Path 566" class="cls-3" d="M76.665,21.915C80.617,14.742,88.29,16.4,95.7,22.994c3.275,2.911,4.622,1.605,7.546,3.029,2.149,1.048,2.619,4.2,1.118,6.06-4.789,5.938-10.912,11.9-17.7,8.112,0,0,.058,1.567-.048,3.2-7.43-5.237-2.3-12.119-9.952-21.475" transform="translate(3.086 0.694)"/>
      <path id="Path_567" data-name="Path 567" d="M47.725,25.113a5.207,5.207,0,0,0-.6,2.425,5.353,5.353,0,0,0,5.438,5.268A5.294,5.294,0,0,0,56.437,31Z" transform="translate(1.897 1.011)"/>
      <path id="Path_568" data-name="Path 568" class="cls-5" d="M63.406,18.289c4.924-.668,9.359,1.3,10.682,6.452s-6.1,10.164-9.9,7.238-2.4-5.806-4.008-7.779-.108-5.458,3.225-5.911" transform="translate(2.397 0.731)"/>
      <path id="Path_569" data-name="Path 569" d="M63.216,23.107a2.013,2.013,0,1,1,.315,2.831,2.013,2.013,0,0,1-.315-2.831" transform="translate(2.527 0.9)"/>
      <path id="Path_570" data-name="Path 570" class="cls-3" d="M50.349,55.09c-6.048,13.3-23.518,12.833-28.561,0Z" transform="translate(0.877 2.218)"/>
    </g>
    <g id="Speech_Bubble" data-name="Speech Bubble" transform="translate(-131.848 -22.888)">
      <rect id="Rectangle_123" data-name="Rectangle 123" class="cls-3" width="172.556" height="40.182" rx="20.091"/>
      <path id="Path_19" data-name="Path 19" class="cls-3" d="M14830.843,4137v33l32.045,7.838" transform="translate(-14700.169 -4132.063)"/>
      <text id="A_pup_with_purpose_" data-name="A pup with purpose!" class="cls-6" transform="translate(86.176 23.105)"><tspan x="-67.14" y="0">A pup with purpose!</tspan></text>
    </g>
  </g>
</svg>
