<svg xmlns="http://www.w3.org/2000/svg" xmlns:xlink="http://www.w3.org/1999/xlink" width="191.185" height="145.974" viewBox="0 0 191.185 145.974">
  <defs>
    <style>
      .cls-1 {
        fill: none;
      }

      .cls-2 {
        clip-path: url(#clip-path);
      }

      .cls-3 {
        clip-path: url(#clip-path-2);
      }

      .cls-4 {
        fill: #956c61;
      }

      .cls-5 {
        fill: #54231c;
      }

      .cls-6 {
        fill: #bc574e;
      }

      .cls-7 {
        opacity: 0.81;
      }

      .cls-8 {
        clip-path: url(#clip-path-3);
      }

      .cls-12, .cls-9 {
        fill: #fff;
      }

      .cls-10 {
        fill: #1a1818;
      }

      .cls-11 {
        fill: #873526;
      }

      .cls-12 {
        font-size: 12px;
        font-family: Archivo;
        font-weight: 700;
        letter-spacing: 0.2em;
      }
    </style>
    <clipPath id="clip-path">
      <rect id="Rectangle_381" data-name="Rectangle 381" class="cls-1" width="72.235" height="116.725"/>
    </clipPath>
    <clipPath id="clip-path-2">
      <rect id="Rectangle_380" data-name="Rectangle 380" class="cls-1" width="72.234" height="116.724"/>
    </clipPath>
    <clipPath id="clip-path-3">
      <rect id="Rectangle_379" data-name="Rectangle 379" class="cls-1" width="12.019" height="14.112"/>
    </clipPath>
  </defs>
  <g id="PW_Red_Dog_mobile_2" data-name="PW_Red Dog_mobile_2" transform="translate(-39.644 -5537.408)">
    <g id="REDDOG_2" transform="translate(39.644 5566.657)">
      <g id="Group_420" data-name="Group 420" class="cls-2" transform="translate(0)">
        <g id="Group_419" data-name="Group 419" transform="translate(0 0.001)">
          <g id="Group_418" data-name="Group 418" class="cls-3">
            <path id="Path_261" data-name="Path 261" class="cls-4" d="M23.793,39.1a.307.307,0,0,1,.131-.347l.873-.54a15.472,15.472,0,0,1-.369-2.981,17.669,17.669,0,0,1,.826-5.771.573.573,0,0,1,1.117.227l0,.013a13.712,13.712,0,0,0,2.446,9.686,9.008,9.008,0,0,0,3.619,2.735,13.9,13.9,0,0,0,4.494.96l.036,0a3.033,3.033,0,0,1,.589.1,2.923,2.923,0,0,1,2.07,3.35,3.735,3.735,0,0,1-.4,1.031,2.923,2.923,0,0,1-3.263,1.26c-.044-.011-.087-.029-.129-.04a8.464,8.464,0,0,1-.94.058,12.94,12.94,0,0,1-7.151-2.61.3.3,0,0,1-.069-.413l.74-1.1A9.57,9.57,0,0,1,23.793,39.1" transform="translate(-20.265 35.498)"/>
            <path id="Path_262" data-name="Path 262" class="cls-5" d="M41.425,30.358,21.031,24.031a1.232,1.232,0,0,0-1.4.493C17.3,28.052,8.064,43.038,12.563,53.47,14.38,57.682,23.4,62.591,25.621,63.751a1.244,1.244,0,0,1,.631.8l2.308,9.392a1.27,1.27,0,0,0,.162.378l8.131,12.549a1.236,1.236,0,0,0,1.037.564h2.721a1.237,1.237,0,0,0,1.146-1.7l-5.68-13.989a1.219,1.219,0,0,1-.076-.66L42.28,31.733a1.239,1.239,0,0,0-.855-1.375" transform="translate(4.738 29.284)"/>
            <path id="Path_263" data-name="Path 263" class="cls-5" d="M15.608,38.38s-1.029-4.885-1.666-7.871c-.593-2.772.351-5.532,2.666-5.976,3.2-.615,4.921,3.528,6.327,7.526.964,2.744,3.079,4.856,6.913,3.477a1.441,1.441,0,0,0,.853-1.888L25.887,21.668a6.172,6.172,0,0,0-5.414-3.63L1.966,17.447l1.4,14.946Z" transform="translate(37.064 21.311)"/>
            <path id="Path_264" data-name="Path 264" class="cls-6" d="M3.95,39.183C2.46,38.477-.739,36.408.156,29.471L1.38,19.96c1-6.076,4.761-7.478,6.529-7.8a1.285,1.285,0,0,0,1.055-1.1l1.006-7.8C10.235,1.2,11.994-.611,14.991.2l0-.013s.089.029.24.082a8.1,8.1,0,0,1,1.111.44c3.343,1.435,11.772,6.025,12.134,15.915a1.281,1.281,0,0,1-1.388,1.322l-1.9-.164,1.953,3.663A1.273,1.273,0,0,1,26.2,23.3a14.819,14.819,0,0,1-3.628.082c-.038,6.118,1.559,10.912,6.9,11.6,1.149.378,9.246,2.228,11.623,7.478h0l.02.051c.078.175.149.353.213.535l7.44,18.614L64.926,77.282a2.019,2.019,0,0,1,.358,2.435l-2.1,3.757a1.342,1.342,0,0,1-2,.4L44.33,70.579a3.391,3.391,0,0,0-3.7-.318l-19.307,23-.047.056-11.141,11.8a1.232,1.232,0,0,0-.335.844l-.038,9.53a1.237,1.237,0,0,1-1.237,1.233H5.876a1.235,1.235,0,0,1-1.217-1.026L2.4,102.549a1.246,1.246,0,0,1,.529-1.233C15.6,92.57,9.786,87.483,7.742,82.749c-4.141-9.6,3.354-23.064,6.4-27.893a4.778,4.778,0,0,0,.431-4.263A20.876,20.876,0,0,0,3.95,39.183" transform="translate(6.693 0.006)"/>
            <g id="Group_417" data-name="Group 417" class="cls-7" transform="translate(9.664 14.934)">
              <g id="Group_416" data-name="Group 416">
                <g id="Group_415" data-name="Group 415" class="cls-8">
                  <path id="Path_265" data-name="Path 265" class="cls-9" d="M27.225,7.389c-3.77,2.379-5.689,6.287-3.628,10.594s10.059,3.468,10.981-.731-1.7-5.378-1.728-7.657-3.072-3.817-5.625-2.206" transform="translate(-22.756 -6.722)"/>
                </g>
              </g>
            </g>
            <path id="Path_266" data-name="Path 266" class="cls-10" d="M26.465,8.484a1.586,1.586,0,1,0,1.371,1.775,1.586,1.586,0,0,0-1.371-1.775" transform="translate(-10.435 10.347)"/>
            <path id="Path_267" data-name="Path 267" class="cls-10" d="M23.321,5.782A4.2,4.2,0,0,1,19.427,12.3Z" transform="translate(5.056 7.062)"/>
            <path id="Path_268" data-name="Path 268" class="cls-10" d="M22.769,4.908l-.013-.018.213-1.655C23.233,1.187,24.995-.608,27.983.2a4.545,4.545,0,0,1-.053.711,4.543,4.543,0,0,1-5.161,4" transform="translate(-6.301 -0.001)"/>
            <path id="Path_269" data-name="Path 269" class="cls-5" d="M22.565,47.778c-1.255-7.7,2.93-16.743,5.891-21.959,5.7,7.318,4.083,18.8-5.891,21.959" transform="translate(-9.116 31.537)"/>
            <path id="Path_270" data-name="Path 270" class="cls-5" d="M32.919,11.851c6.8,5.272,8.644,11.994,7.742,15.6a16.081,16.081,0,0,0-1.531-1.055c-.591-.307-1.013.247-.653.784l.007.009a6.512,6.512,0,0,1,1.18,5.962,1.1,1.1,0,0,1-1.6.658c-2.688-1.631-4.221-1.351-7.757-3.912-10.212-7.4-.862-16.679,2.612-18.043" transform="translate(-25.673 14.475)"/>
          </g>
        </g>
      </g>
    </g>
    <g id="SPEECH_BUBBLE" data-name="SPEECH BUBBLE" transform="translate(80.612 5537.408)">
      <g id="Group_473" data-name="Group 473" transform="translate(0 0)">
        <g id="Group_399" data-name="Group 399">
          <rect id="Rectangle_123" data-name="Rectangle 123" class="cls-11" width="145.206" height="39.576" rx="19.788" transform="translate(5.011)"/>
          <path id="Path_19" data-name="Path 19" class="cls-11" d="M14856.85,4137v23.932l-26.006,5.683" transform="translate(-14830.844 -4121.356)"/>
        </g>
      </g>
      <text id="Don_t_miss_out_" data-name="Don’t miss out!" class="cls-12" transform="translate(78.755 23.255)"><tspan x="-59.368" y="0">Don’t miss out!</tspan></text>
    </g>
  </g>
</svg>
