<svg xmlns="http://www.w3.org/2000/svg" width="51.369" height="51.369" viewBox="0 0 51.369 51.369">
  <defs>
    <style>
      .cls-1 {
        fill: #055e8a;
      }

      .cls-1, .cls-2 {
        fill-rule: evenodd;
      }

      .cls-2 {
        fill: #fff;
      }
    </style>
  </defs>
  <g id="INSTAGRAM" transform="translate(-74.009 0)">
    <path id="Path_586" data-name="Path 586" class="cls-1" d="M939.947,25.684A25.684,25.684,0,1,1,914.262,0a25.684,25.684,0,0,1,25.684,25.684" transform="translate(-814.569)"/>
    <path id="Path_587" data-name="Path 587" class="cls-2" d="M1008.892,111.938H1024a8.887,8.887,0,0,1,8.846,8.846v15.03A8.887,8.887,0,0,1,1024,144.66h-15.109a8.887,8.887,0,0,1-8.846-8.846v-15.03a8.887,8.887,0,0,1,8.846-8.846m16.361,5.715h0a1.879,1.879,0,0,1,0,3.758,1.879,1.879,0,1,1,0-3.758m-8.846,1.722h.078a8.924,8.924,0,1,1,0,17.849h-.078a8.925,8.925,0,0,1,0-17.849m0,3.053h.078a5.911,5.911,0,0,1,0,11.821h-.078a5.911,5.911,0,0,1,0-11.821m-7.437-7.672h14.952a6.114,6.114,0,0,1,6.106,6.106v14.874a6.114,6.114,0,0,1-6.106,6.106H1008.97a6.114,6.114,0,0,1-6.106-6.106V120.862a6.114,6.114,0,0,1,6.106-6.106" transform="translate(-916.753 -102.615)"/>
  </g>
</svg>
