<svg xmlns="http://www.w3.org/2000/svg" width="51.369" height="51.369" viewBox="0 0 51.369 51.369">
  <defs>
    <style>
      .cls-1 {
        fill: #005e8a;
      }

      .cls-1, .cls-2 {
        fill-rule: evenodd;
      }

      .cls-2 {
        fill: #fff;
      }
    </style>
  </defs>
  <g id="TWITTER" transform="translate(-148.018 0)">
    <path id="Path_588" data-name="Path 588" class="cls-1" d="M1828.525,25.684A25.684,25.684,0,1,1,1802.84,0a25.684,25.684,0,0,1,25.684,25.684" transform="translate(-1629.138)"/>
    <path id="Path_589" data-name="Path 589" class="cls-2" d="M1916.228,166.119A6.69,6.69,0,0,1,1927.7,160.3a16.89,16.89,0,0,0,3.965-1.772,7.3,7.3,0,0,1-2.953,3.712,12.573,12.573,0,0,0,3.628-1.012,7.052,7.052,0,0,1-3.121,3.122c1.1,15.27-15.355,24.551-28.685,16.958,0,0,6.581.337,9.365-2.868,0,0-4.05.337-6.074-4.556a4.07,4.07,0,0,0,3.037-.169s-4.724-.759-5.146-6.412a4.157,4.157,0,0,0,3.206.759s-5.231-3.122-2.278-8.774c0,0,5.568,7.087,13.583,6.834" transform="translate(-1742.242 -145)"/>
  </g>
</svg>
