<svg xmlns="http://www.w3.org/2000/svg" xmlns:xlink="http://www.w3.org/1999/xlink" width="216.521" height="32.227" viewBox="0 0 216.521 32.227">
  <defs>
    <style>
      .cls-1 {
        fill: none;
      }

      .cls-2 {
        clip-path: url(#clip-path);
      }

      .cls-3 {
        fill: #48ae73;
      }

      .cls-4 {
        fill: #008b97;
      }

      .cls-5 {
        fill: #3bb5e4;
      }
    </style>
    <clipPath id="clip-path">
      <rect id="Rectangle_531" data-name="Rectangle 531" class="cls-1" width="216.521" height="32.227"/>
    </clipPath>
  </defs>
  <g id="BL_VetSolutions_1" class="cls-2">
    <path id="Path_532" data-name="Path 532" class="cls-3" d="M11.747,9.509,9.259,16.218,6.765,9.509H4.452L8.306,19.1h1.851l3.851-9.594Z" transform="translate(6.1 13.027)"/>
    <path id="Path_533" data-name="Path 533" class="cls-3" d="M9.384,9.509v9.525h7.254V17.171H11.465v-2h4.5V13.3h-4.5V11.372h5.1V9.509Z" transform="translate(12.856 13.027)"/>
    <path id="Path_534" data-name="Path 534" class="cls-3" d="M13.226,9.509V11.44h2.9v7.593h2.1V11.44h2.9V9.509Z" transform="translate(18.12 13.027)"/>
    <path id="Path_535" data-name="Path 535" class="cls-3" d="M17.516,9.509v9.525H24.77V17.171H19.6v-2h4.493V13.3H19.6V11.372h5.1V9.509Z" transform="translate(23.996 13.027)"/>
    <path id="Path_536" data-name="Path 536" class="cls-3" d="M21.645,9.509H26a3.8,3.8,0,0,1,2.778.965,2.992,2.992,0,0,1,.818,2.178v.026a2.959,2.959,0,0,1-2.043,2.955l2.327,3.4H27.43l-2.043-3.05H23.74v3.05h-2.1Zm4.219,4.626c1.021,0,1.607-.543,1.607-1.346v-.028c0-.9-.626-1.36-1.647-1.36H23.74v2.735Z" transform="translate(29.653 13.029)"/>
    <rect id="Rectangle_524" data-name="Rectangle 524" class="cls-3" width="2.097" height="9.527" transform="translate(61.898 22.537)"/>
    <path id="Path_537" data-name="Path 537" class="cls-3" d="M28.291,9.508h1.932l4.465,5.866V9.508h2.069v9.527H34.974L30.36,12.978v6.058H28.291Z" transform="translate(38.757 13.027)"/>
    <path id="Path_538" data-name="Path 538" class="cls-3" d="M36.847,9.479h1.932l4.083,9.6h-2.19L39.8,16.937H35.771l-.87,2.138H32.764Zm2.2,5.607L37.786,12l-1.266,3.09Z" transform="translate(44.885 12.988)"/>
    <path id="Path_539" data-name="Path 539" class="cls-3" d="M37.925,9.509h4.354a3.8,3.8,0,0,1,2.778.965,2.992,2.992,0,0,1,.818,2.178v.026a2.959,2.959,0,0,1-2.043,2.955l2.327,3.4H43.71l-2.043-3.05H40.02v3.05h-2.1Zm4.219,4.626c1.021,0,1.607-.543,1.607-1.346v-.028c0-.9-.626-1.36-1.647-1.36H40.02v2.735Z" transform="translate(51.956 13.029)"/>
    <path id="Path_540" data-name="Path 540" class="cls-3" d="M45.461,15.279,41.8,9.509H44.25l2.273,3.825,2.313-3.825h2.382l-3.659,5.728v3.8h-2.1Z" transform="translate(57.267 13.027)"/>
    <path id="Path_541" data-name="Path 541" class="cls-3" d="M48.338,17.727l1.237-1.484A4.372,4.372,0,0,0,52.419,17.4c.86,0,1.377-.341,1.377-.9v-.026c0-.531-.327-.806-1.92-1.211-1.92-.491-3.157-1.021-3.157-2.915v-.026c0-1.73,1.386-2.872,3.335-2.872a5.523,5.523,0,0,1,3.538,1.211L54.5,12.24a4.466,4.466,0,0,0-2.477-.939c-.8,0-1.225.367-1.225.829v.028c0,.626.41.832,2.057,1.251,1.932.5,3.019,1.2,3.019,2.858V16.3c0,1.891-1.441,2.953-3.5,2.953a6.056,6.056,0,0,1-4.041-1.524" transform="translate(66.221 12.949)"/>
    <path id="Path_542" data-name="Path 542" class="cls-3" d="M52.393,14.395v-.028A5.066,5.066,0,0,1,62.52,14.34v.026a5.066,5.066,0,0,1-10.127.028m7.935,0v-.028a2.893,2.893,0,0,0-2.884-2.993,2.85,2.85,0,0,0-2.858,2.967v.026a2.894,2.894,0,0,0,2.884,3,2.85,2.85,0,0,0,2.858-2.967" transform="translate(71.776 12.934)"/>
    <path id="Path_543" data-name="Path 543" class="cls-3" d="M57.731,9.508h2.1V17.13h4.749v1.905H57.731Z" transform="translate(79.088 13.027)"/>
    <path id="Path_544" data-name="Path 544" class="cls-3" d="M61.389,14.952V9.508h2.1V14.9c0,1.552.775,2.356,2.055,2.356s2.055-.775,2.055-2.287V9.508h2.1v5.377c0,2.884-1.619,4.3-4.178,4.3s-4.124-1.429-4.124-4.233" transform="translate(84.1 13.027)"/>
    <path id="Path_545" data-name="Path 545" class="cls-3" d="M68.688,11.44h-2.9V9.509h7.894V11.44h-2.9v7.593h-2.1Z" transform="translate(90.125 13.029)"/>
    <rect id="Rectangle_525" data-name="Rectangle 525" class="cls-3" width="2.097" height="9.527" transform="translate(166.174 22.537)"/>
    <path id="Path_546" data-name="Path 546" class="cls-3" d="M72.113,14.395v-.028A5.066,5.066,0,0,1,82.24,14.34v.026a5.066,5.066,0,0,1-10.127.028m7.935,0v-.028a2.893,2.893,0,0,0-2.884-2.993,2.85,2.85,0,0,0-2.858,2.967v.026a2.894,2.894,0,0,0,2.884,3,2.85,2.85,0,0,0,2.858-2.967" transform="translate(98.792 12.934)"/>
    <path id="Path_547" data-name="Path 547" class="cls-3" d="M77.451,9.508h1.932l4.465,5.866V9.508h2.069v9.527H84.134L79.52,12.978v6.058H77.451Z" transform="translate(106.104 13.027)"/>
    <path id="Path_548" data-name="Path 548" class="cls-3" d="M81.992,17.727l1.237-1.484A4.372,4.372,0,0,0,86.073,17.4c.86,0,1.377-.341,1.377-.9v-.026c0-.531-.327-.806-1.92-1.211-1.92-.491-3.157-1.021-3.157-2.915v-.026c0-1.73,1.386-2.872,3.335-2.872a5.523,5.523,0,0,1,3.538,1.211l-1.09,1.578A4.465,4.465,0,0,0,85.68,11.3c-.8,0-1.225.367-1.225.829v.028c0,.626.41.832,2.057,1.251,1.932.5,3.019,1.2,3.019,2.858V16.3c0,1.891-1.441,2.953-3.5,2.953a6.057,6.057,0,0,1-4.041-1.524" transform="translate(112.325 12.949)"/>
    <path id="Path_549" data-name="Path 549" class="cls-4" d="M7.766,16.645H0V.115H7.224c3.465,0,5.752,1.652,5.752,4.437a3.787,3.787,0,0,1-2.491,3.534,3.96,3.96,0,0,1,3.351,3.87c0,2.967-2.356,4.69-6.069,4.69M6,3.805H5.164V6.886H6c1.5,0,2.263-.521,2.263-1.609,0-1.109-.815-1.472-2.263-1.472M6.84,9.874H5.164v3.081H6.84c1.538,0,2.1-.59,2.1-1.607,0-1-.747-1.474-2.1-1.474" transform="translate(0 0.16)"/>
    <path id="Path_550" data-name="Path 550" class="cls-4" d="M19.177,16.644l-.884-3.012H13.449l-.882,3.012H7.289L13.017.114H19l5.728,16.53ZM15.871,5.456,14.626,9.648h2.488Z" transform="translate(9.986 0.158)"/>
    <path id="Path_551" data-name="Path 551" class="cls-4" d="M24.26,16.915c-4.574,0-8.015-2.353-8.015-7.878V.114h5.524V9.606c0,1.785.953,2.917,2.491,2.917s2.491-1.133,2.491-2.917V.114h5.527V9.037c0,5.524-3.446,7.878-8.018,7.878" transform="translate(22.255 0.158)"/>
    <path id="Path_552" data-name="Path 552" class="cls-4" d="M31.585,17.071A10.076,10.076,0,0,1,25.02,14.76l2.2-3.508a6.8,6.8,0,0,0,4.3,1.792c.792,0,1.358-.344,1.358-.908,0-.792-.633-1.085-2.65-1.7C27.217,9.508,25.7,8.219,25.7,5.5c0-3.579,2.808-5.5,6.816-5.5a9.272,9.272,0,0,1,5.366,1.673l-2.173,3.6a5.61,5.61,0,0,0-3.4-1.244c-1.04,0-1.427.453-1.427.927,0,.519.386.839,2.56,1.472,2.989.858,4.617,2.014,4.617,5.117,0,3.308-2.488,5.524-6.475,5.524" transform="translate(34.276 0.002)"/>
    <path id="Path_553" data-name="Path 553" class="cls-4" d="M41.092,17.071a8.235,8.235,0,0,1-8.627-8.465A8.446,8.446,0,0,1,41.182,0a8.559,8.559,0,0,1,5.842,2.356L44.308,6.043a4.35,4.35,0,0,0-3.24-1.538c-1.834,0-3.192,1.585-3.192,3.963s1.313,4.1,3.512,4.1a4.885,4.885,0,0,0,3.325-1.446l2.652,3.6a8.8,8.8,0,0,1-6.273,2.353" transform="translate(44.476 0.002)"/>
    <path id="Path_554" data-name="Path 554" class="cls-4" d="M50.653,16.645V10.869H46.489v5.776H40.965V.114h5.524V6.205h4.164V.114h5.529v16.53Z" transform="translate(56.12 0.158)"/>
    <path id="Path_555" data-name="Path 555" class="cls-4" d="M60.518,16.645V.114h5.3V12.434h5.413v4.211Z" transform="translate(82.908 0.158)"/>
    <path id="Path_556" data-name="Path 556" class="cls-4" d="M75.2,17.071c-5.188,0-8.878-3.576-8.878-8.513S70.06,0,75.246,0s8.876,3.579,8.876,8.513-3.737,8.558-8.921,8.558m0-12.679c-2.017,0-3.465,1.744-3.465,4.121s1.5,4.166,3.51,4.166,3.463-1.744,3.463-4.121S77.215,4.392,75.2,4.392" transform="translate(90.859 0.002)"/>
    <path id="Path_557" data-name="Path 557" class="cls-4" d="M88.447,16.645V8.585l-2.56,4.8H83.373l-2.628-4.8v8.06h-5.2V.114H80.9l3.763,6.593L88.149.114h5.821v16.53Z" transform="translate(103.487 0.158)"/>
    <path id="Path_558" data-name="Path 558" class="cls-4" d="M93.291,16.645H85.522V.115H92.75c3.465,0,5.752,1.652,5.752,4.437a3.79,3.79,0,0,1-2.491,3.534,3.958,3.958,0,0,1,3.346,3.87c0,2.967-2.351,4.69-6.067,4.69M91.527,3.805h-.841V6.886h.841c1.5,0,2.263-.521,2.263-1.609,0-1.109-.813-1.472-2.263-1.472m.839,6.069h-1.68v3.081h1.68c1.54,0,2.1-.59,2.1-1.607,0-1-.749-1.474-2.1-1.474" transform="translate(117.161 0.16)"/>
    <rect id="Rectangle_526" data-name="Rectangle 526" class="cls-4" width="5.342" height="5.368" transform="translate(125.19 5.855)"/>
    <rect id="Rectangle_527" data-name="Rectangle 527" class="cls-3" width="5.34" height="5.584" transform="translate(125.19 0.273)"/>
    <rect id="Rectangle_528" data-name="Rectangle 528" class="cls-3" width="5.34" height="5.584" transform="translate(125.19 11.223)"/>
    <rect id="Rectangle_529" data-name="Rectangle 529" class="cls-5" width="5.607" height="5.366" transform="translate(119.583 5.857)"/>
    <rect id="Rectangle_530" data-name="Rectangle 530" class="cls-5" width="5.581" height="5.366" transform="translate(130.53 5.857)"/>
  </g>
</svg>
