<svg xmlns="http://www.w3.org/2000/svg" xmlns:xlink="http://www.w3.org/1999/xlink" width="278.789" height="41.494" viewBox="0 0 278.789 41.494">
  <defs>
    <style>
      .cls-1 {
        fill: none;
      }

      .cls-2 {
        clip-path: url(#clip-path);
      }

      .cls-3 {
        fill: #48ae73;
      }

      .cls-4 {
        fill: #008b97;
      }

      .cls-5 {
        fill: #3bb5e4;
      }
    </style>
    <clipPath id="clip-path">
      <rect id="Rectangle_612" data-name="Rectangle 612" class="cls-1" width="278.789" height="41.494"/>
    </clipPath>
  </defs>
  <g id="BL_VetSolutions_3" class="cls-2">
    <path id="Path_745" data-name="Path 745" class="cls-3" d="M13.845,9.509l-3.2,8.639L7.431,9.509H4.452L9.414,21.861H11.8L16.756,9.509Z" transform="translate(9.134 19.508)"/>
    <path id="Path_746" data-name="Path 746" class="cls-3" d="M9.384,9.509V21.773h9.341v-2.4H12.064V16.8h5.789v-2.4H12.064V11.907h6.573v-2.4Z" transform="translate(19.252 19.508)"/>
    <path id="Path_747" data-name="Path 747" class="cls-3" d="M13.226,9.509V12h3.735v9.777h2.7V12h3.732V9.509Z" transform="translate(27.134 19.508)"/>
    <path id="Path_748" data-name="Path 748" class="cls-3" d="M17.516,9.509V21.773h9.341v-2.4H20.2V16.8h5.786v-2.4H20.2V11.907h6.573v-2.4Z" transform="translate(35.934 19.508)"/>
    <path id="Path_749" data-name="Path 749" class="cls-3" d="M21.645,9.509h5.606a4.893,4.893,0,0,1,3.576,1.242,3.852,3.852,0,0,1,1.053,2.8v.034a3.81,3.81,0,0,1-2.63,3.805l3,4.382H29.094l-2.63-3.927H24.343v3.927h-2.7Zm5.432,5.957c1.315,0,2.069-.7,2.069-1.733V13.7c0-1.157-.806-1.752-2.121-1.752H24.343v3.521Z" transform="translate(44.405 19.511)"/>
    <rect id="Rectangle_605" data-name="Rectangle 605" class="cls-3" width="2.701" height="12.267" transform="translate(79.699 29.018)"/>
    <path id="Path_750" data-name="Path 750" class="cls-3" d="M28.291,9.508h2.487l5.749,7.552V9.508h2.664V21.776H36.9l-5.941-7.8v7.8H28.291Z" transform="translate(58.039 19.508)"/>
    <path id="Path_751" data-name="Path 751" class="cls-3" d="M38.022,9.479h2.487l5.258,12.356h-2.82l-1.123-2.752H36.636l-1.12,2.752H32.764ZM40.86,16.7,39.23,12.72,37.6,16.7Z" transform="translate(67.216 19.449)"/>
    <path id="Path_752" data-name="Path 752" class="cls-3" d="M37.925,9.509h5.606a4.893,4.893,0,0,1,3.576,1.242,3.852,3.852,0,0,1,1.053,2.8v.034a3.81,3.81,0,0,1-2.63,3.805l3,4.382H45.374l-2.63-3.927H40.623v3.927h-2.7Zm5.432,5.957c1.315,0,2.069-.7,2.069-1.733V13.7c0-1.157-.806-1.752-2.121-1.752H40.623v3.521Z" transform="translate(77.803 19.511)"/>
    <path id="Path_753" data-name="Path 753" class="cls-3" d="M46.514,16.939,41.8,9.509h3.152l2.926,4.925,2.978-4.925h3.067l-4.712,7.375v4.892h-2.7Z" transform="translate(85.757 19.508)"/>
    <path id="Path_754" data-name="Path 754" class="cls-3" d="M48.338,20.107l1.593-1.91a5.629,5.629,0,0,0,3.662,1.489c1.108,0,1.773-.439,1.773-1.157V18.5c0-.684-.421-1.038-2.472-1.559-2.472-.632-4.065-1.315-4.065-3.753v-.034c0-2.228,1.785-3.7,4.293-3.7a7.112,7.112,0,0,1,4.556,1.559l-1.4,2.032a5.75,5.75,0,0,0-3.189-1.208c-1.034,0-1.578.473-1.578,1.068v.037c0,.806.528,1.071,2.649,1.611,2.487.647,3.888,1.544,3.888,3.68v.037c0,2.435-1.855,3.8-4.5,3.8a7.8,7.8,0,0,1-5.2-1.962" transform="translate(99.165 19.391)"/>
    <path id="Path_755" data-name="Path 755" class="cls-3" d="M52.393,15.82v-.037a6.522,6.522,0,0,1,13.039-.034v.034a6.522,6.522,0,0,1-13.039.037m10.216,0v-.037A3.725,3.725,0,0,0,58.9,11.929a3.669,3.669,0,0,0-3.68,3.82v.034a3.726,3.726,0,0,0,3.714,3.857,3.669,3.669,0,0,0,3.68-3.82" transform="translate(107.484 19.367)"/>
    <path id="Path_756" data-name="Path 756" class="cls-3" d="M57.731,9.508h2.7v9.814h6.115v2.453H57.731Z" transform="translate(118.435 19.508)"/>
    <path id="Path_757" data-name="Path 757" class="cls-3" d="M61.389,16.517V9.508h2.7v6.939c0,2,1,3.033,2.646,3.033s2.646-1,2.646-2.945V9.508h2.7v6.924c0,3.714-2.084,5.535-5.38,5.535s-5.31-1.84-5.31-5.45" transform="translate(125.94 19.508)"/>
    <path id="Path_758" data-name="Path 758" class="cls-3" d="M69.522,12H65.787V9.509H75.952V12H72.22v9.777h-2.7Z" transform="translate(134.962 19.511)"/>
    <rect id="Rectangle_606" data-name="Rectangle 606" class="cls-3" width="2.701" height="12.267" transform="translate(213.963 29.018)"/>
    <path id="Path_759" data-name="Path 759" class="cls-3" d="M72.113,15.82v-.037a6.522,6.522,0,0,1,13.039-.034v.034a6.522,6.522,0,0,1-13.039.037m10.216,0v-.037a3.725,3.725,0,0,0-3.714-3.854,3.669,3.669,0,0,0-3.68,3.82v.034a3.726,3.726,0,0,0,3.714,3.857,3.669,3.669,0,0,0,3.68-3.82" transform="translate(147.94 19.367)"/>
    <path id="Path_760" data-name="Path 760" class="cls-3" d="M77.451,9.508h2.487l5.749,7.552V9.508h2.664V21.776H86.056l-5.941-7.8v7.8H77.451Z" transform="translate(158.891 19.508)"/>
    <path id="Path_761" data-name="Path 761" class="cls-3" d="M81.992,20.107l1.593-1.91a5.629,5.629,0,0,0,3.662,1.489c1.108,0,1.773-.439,1.773-1.157V18.5c0-.684-.421-1.038-2.472-1.559-2.472-.632-4.065-1.315-4.065-3.753v-.034c0-2.228,1.785-3.7,4.293-3.7a7.112,7.112,0,0,1,4.556,1.559l-1.4,2.032a5.75,5.75,0,0,0-3.189-1.208c-1.034,0-1.578.473-1.578,1.068v.037c0,.806.528,1.071,2.649,1.611C90.3,15.2,91.7,16.094,91.7,18.23v.037c0,2.435-1.855,3.8-4.5,3.8a7.8,7.8,0,0,1-5.2-1.962" transform="translate(168.207 19.391)"/>
    <path id="Path_762" data-name="Path 762" class="cls-4" d="M10,21.4H0V.115H9.3c4.461,0,7.406,2.127,7.406,5.712a4.876,4.876,0,0,1-3.207,4.55,5.1,5.1,0,0,1,4.315,4.983c0,3.82-3.033,6.039-7.815,6.039M7.726,4.866H6.649V8.833H7.726c1.926,0,2.914-.671,2.914-2.072,0-1.428-1.05-1.895-2.914-1.895m1.08,7.815H6.649v3.967H8.807c1.98,0,2.71-.76,2.71-2.069,0-1.288-.961-1.9-2.71-1.9" transform="translate(0 0.239)"/>
    <path id="Path_763" data-name="Path 763" class="cls-4" d="M22.6,21.4,21.457,17.52H15.22L14.085,21.4h-6.8L14.664.114h7.7L29.739,21.4ZM18.338,6.992l-1.6,5.4h3.2Z" transform="translate(14.954 0.236)"/>
    <path id="Path_764" data-name="Path 764" class="cls-4" d="M26.565,21.746c-5.889,0-10.32-3.03-10.32-10.143V.114h7.113V12.335c0,2.3,1.227,3.756,3.207,3.756s3.207-1.459,3.207-3.756V.114h7.116V11.6c0,7.113-4.437,10.143-10.323,10.143" transform="translate(33.327 0.236)"/>
    <path id="Path_765" data-name="Path 765" class="cls-4" d="M33.473,21.98A12.974,12.974,0,0,1,25.02,19l2.829-4.516A8.757,8.757,0,0,0,33.387,16.8c1.019,0,1.749-.442,1.749-1.169,0-1.019-.815-1.4-3.412-2.188-3.875-1.2-5.831-2.856-5.831-6.356C25.893,2.475,29.509,0,34.669,0a11.939,11.939,0,0,1,6.909,2.154l-2.8,4.638a7.224,7.224,0,0,0-4.373-1.6c-1.34,0-1.837.583-1.837,1.193,0,.668.5,1.08,3.3,1.895,3.848,1.1,5.944,2.594,5.944,6.588,0,4.26-3.2,7.113-8.337,7.113" transform="translate(51.329 0.003)"/>
    <path id="Path_766" data-name="Path 766" class="cls-4" d="M43.572,21.98c-6.472,0-11.107-4.547-11.107-10.9A10.875,10.875,0,0,1,43.688,0,11.02,11.02,0,0,1,51.21,3.033l-3.5,4.748A5.6,5.6,0,0,0,43.542,5.8c-2.362,0-4.11,2.041-4.11,5.1s1.691,5.273,4.522,5.273a6.29,6.29,0,0,0,4.281-1.861L51.65,18.95a11.333,11.333,0,0,1-8.077,3.03" transform="translate(66.602 0.003)"/>
    <path id="Path_767" data-name="Path 767" class="cls-4" d="M53.439,21.4V13.962H48.078V21.4H40.965V.114h7.113V7.957h5.361V.114h7.119V21.4Z" transform="translate(84.039 0.237)"/>
    <path id="Path_768" data-name="Path 768" class="cls-4" d="M60.518,21.4V.114h6.823V15.976h6.97V21.4Z" transform="translate(124.154 0.237)"/>
    <path id="Path_769" data-name="Path 769" class="cls-4" d="M77.754,21.98c-6.68,0-11.431-4.6-11.431-10.961S71.135,0,77.812,0,89.24,4.608,89.24,10.961,84.428,21.98,77.754,21.98m0-16.326c-2.6,0-4.461,2.246-4.461,5.307s1.925,5.365,4.519,5.365,4.458-2.246,4.458-5.307-1.922-5.365-4.516-5.365" transform="translate(136.062 0.003)"/>
    <path id="Path_770" data-name="Path 770" class="cls-4" d="M92.159,21.4V11.021l-3.3,6.179H85.626l-3.384-6.179V21.4h-6.7V.114h6.9L87.289,8.6,91.774.114h7.494V21.4Z" transform="translate(154.971 0.237)"/>
    <path id="Path_771" data-name="Path 771" class="cls-4" d="M95.525,21.4h-10V.115h9.307c4.461,0,7.406,2.127,7.406,5.712a4.88,4.88,0,0,1-3.207,4.55,5.1,5.1,0,0,1,4.309,4.983c0,3.82-3.027,6.039-7.812,6.039M93.254,4.866H92.171V8.833h1.083c1.926,0,2.914-.671,2.914-2.072,0-1.428-1.047-1.895-2.914-1.895m1.08,7.815H92.171v3.967h2.164c1.983,0,2.71-.76,2.71-2.069,0-1.288-.964-1.9-2.71-1.9" transform="translate(175.449 0.239)"/>
    <rect id="Rectangle_607" data-name="Rectangle 607" class="cls-4" width="6.878" height="6.912" transform="translate(161.193 7.539)"/>
    <rect id="Rectangle_608" data-name="Rectangle 608" class="cls-3" width="6.875" height="7.189" transform="translate(161.193 0.352)"/>
    <rect id="Rectangle_609" data-name="Rectangle 609" class="cls-3" width="6.875" height="7.189" transform="translate(161.193 14.45)"/>
    <rect id="Rectangle_610" data-name="Rectangle 610" class="cls-5" width="7.22" height="6.909" transform="translate(153.973 7.542)"/>
    <rect id="Rectangle_611" data-name="Rectangle 611" class="cls-5" width="7.186" height="6.909" transform="translate(168.068 7.542)"/>
  </g>
</svg>
