<svg xmlns="http://www.w3.org/2000/svg" xmlns:xlink="http://www.w3.org/1999/xlink" width="449.76" height="66.941" viewBox="0 0 449.76 66.941">
  <defs>
    <style>
      .cls-1 {
        fill: none;
      }

      .cls-2 {
        clip-path: url(#clip-path);
      }

      .cls-3 {
        fill: #48ae73;
      }

      .cls-4 {
        fill: #008b97;
      }

      .cls-5 {
        fill: #3bb5e4;
      }
    </style>
    <clipPath id="clip-path">
      <rect id="Rectangle_580" data-name="Rectangle 580" class="cls-1" width="449.76" height="66.941"/>
    </clipPath>
  </defs>
  <g id="BL_VetSolutions_2" class="cls-2">
    <path id="Path_637" data-name="Path 637" class="cls-3" d="M19.6,9.509,14.436,23.446,9.257,9.509h-4.8l8,19.928H16.3l8-19.928Z" transform="translate(17.466 37.304)"/>
    <path id="Path_638" data-name="Path 638" class="cls-3" d="M9.384,9.509V29.294H24.453V25.425H13.707V21.27h9.339V17.39H13.707V13.378h10.6V9.509Z" transform="translate(36.813 37.304)"/>
    <path id="Path_639" data-name="Path 639" class="cls-3" d="M13.226,9.509v4.012h6.026V29.294H23.6V13.521h6.021V9.509Z" transform="translate(51.886 37.304)"/>
    <path id="Path_640" data-name="Path 640" class="cls-3" d="M17.516,9.509V29.294H32.585V25.425H21.843V21.27h9.334V17.39H21.843V13.378h10.6V9.509Z" transform="translate(68.713 37.304)"/>
    <path id="Path_641" data-name="Path 641" class="cls-3" d="M21.645,9.509h9.043a7.894,7.894,0,0,1,5.77,2,6.215,6.215,0,0,1,1.7,4.524v.054a6.147,6.147,0,0,1-4.244,6.139L38.747,29.3H33.662l-4.244-6.336H26V29.3H21.645Zm8.763,9.609c2.122,0,3.338-1.127,3.338-2.8v-.059c0-1.866-1.3-2.826-3.421-2.826H26v5.681Z" transform="translate(84.911 37.308)"/>
    <rect id="Rectangle_573" data-name="Rectangle 573" class="cls-3" width="4.357" height="19.79" transform="translate(128.576 46.814)"/>
    <path id="Path_642" data-name="Path 642" class="cls-3" d="M28.291,9.508H32.3l9.275,12.184V9.508h4.3V29.3h-3.7L32.589,16.716V29.3h-4.3Z" transform="translate(110.982 37.303)"/>
    <path id="Path_643" data-name="Path 643" class="cls-3" d="M41.246,9.479h4.012L53.74,29.412H49.192l-1.812-4.44H39.011L37.2,29.412h-4.44Zm4.578,11.648L43.2,14.707l-2.629,6.419Z" transform="translate(128.53 37.19)"/>
    <path id="Path_644" data-name="Path 644" class="cls-3" d="M37.925,9.509h9.043a7.894,7.894,0,0,1,5.77,2,6.215,6.215,0,0,1,1.7,4.524v.054a6.147,6.147,0,0,1-4.244,6.139L55.027,29.3H49.942L45.7,22.963H42.277V29.3H37.925Zm8.763,9.609c2.122,0,3.338-1.127,3.338-2.8v-.059c0-1.866-1.3-2.826-3.421-2.826H42.277v5.681Z" transform="translate(148.775 37.308)"/>
    <path id="Path_645" data-name="Path 645" class="cls-3" d="M49.4,21.5,41.8,9.509h5.085l4.721,7.946,4.8-7.946h4.947l-7.6,11.9V29.3H49.4Z" transform="translate(163.985 37.303)"/>
    <path id="Path_646" data-name="Path 646" class="cls-3" d="M48.338,26.642l2.57-3.082a9.082,9.082,0,0,0,5.907,2.4c1.787,0,2.86-.709,2.86-1.866v-.054c0-1.1-.679-1.674-3.988-2.516-3.988-1.019-6.557-2.122-6.557-6.055v-.054c0-3.594,2.88-5.967,6.926-5.967a11.473,11.473,0,0,1,7.35,2.516l-2.265,3.279A9.276,9.276,0,0,0,56,13.3c-1.669,0-2.545.763-2.545,1.723v.059c0,1.3.852,1.728,4.273,2.6C61.738,18.721,64,20.168,64,23.614v.059C64,27.6,61,29.807,56.731,29.807a12.581,12.581,0,0,1-8.394-3.165" transform="translate(189.624 37.079)"/>
    <path id="Path_647" data-name="Path 647" class="cls-3" d="M52.393,19.733v-.059A10.234,10.234,0,0,1,62.938,9.439,10.144,10.144,0,0,1,73.428,19.62v.054a10.238,10.238,0,0,1-10.545,10.24A10.144,10.144,0,0,1,52.393,19.733m16.482,0v-.059a6.009,6.009,0,0,0-5.991-6.218,5.92,5.92,0,0,0-5.937,6.163v.054A6.011,6.011,0,0,0,62.938,25.9a5.92,5.92,0,0,0,5.937-6.163" transform="translate(205.531 37.033)"/>
    <path id="Path_648" data-name="Path 648" class="cls-3" d="M57.731,9.508h4.357V25.34h9.865V29.3H57.731Z" transform="translate(226.471 37.303)"/>
    <path id="Path_649" data-name="Path 649" class="cls-3" d="M61.389,20.816V9.508h4.357V20.7c0,3.224,1.61,4.893,4.268,4.893s4.268-1.61,4.268-4.751V9.508h4.352v11.17c0,5.991-3.362,8.93-8.679,8.93s-8.566-2.969-8.566-8.792" transform="translate(240.822 37.303)"/>
    <path id="Path_650" data-name="Path 650" class="cls-3" d="M71.813,13.521H65.787V9.509h16.4v4.012H76.164V29.294H71.813Z" transform="translate(258.074 37.308)"/>
    <rect id="Rectangle_574" data-name="Rectangle 574" class="cls-3" width="4.357" height="19.79" transform="translate(345.178 46.814)"/>
    <path id="Path_651" data-name="Path 651" class="cls-3" d="M72.113,19.733v-.059a10.522,10.522,0,0,1,21.035-.054v.054a10.522,10.522,0,0,1-21.035.059m16.482,0v-.059A6.009,6.009,0,0,0,82.6,13.456a5.92,5.92,0,0,0-5.937,6.163v.054A6.011,6.011,0,0,0,82.658,25.9a5.92,5.92,0,0,0,5.937-6.163" transform="translate(282.891 37.033)"/>
    <path id="Path_652" data-name="Path 652" class="cls-3" d="M77.451,9.508h4.012l9.275,12.184V9.508h4.3V29.3h-3.7L81.749,16.716V29.3h-4.3Z" transform="translate(303.832 37.303)"/>
    <path id="Path_653" data-name="Path 653" class="cls-3" d="M81.992,26.642l2.57-3.082a9.082,9.082,0,0,0,5.907,2.4c1.787,0,2.86-.709,2.86-1.866v-.054c0-1.1-.679-1.674-3.988-2.516-3.988-1.019-6.557-2.122-6.557-6.055v-.054c0-3.594,2.88-5.967,6.927-5.967a11.473,11.473,0,0,1,7.35,2.516L94.8,15.245A9.276,9.276,0,0,0,89.652,13.3c-1.669,0-2.545.763-2.545,1.723v.059c0,1.3.852,1.728,4.273,2.6,4.012,1.044,6.272,2.491,6.272,5.937v.059c0,3.928-2.993,6.134-7.266,6.134a12.581,12.581,0,0,1-8.394-3.165" transform="translate(321.645 37.079)"/>
    <path id="Path_654" data-name="Path 654" class="cls-4" d="M16.132,34.452H0V.115H15c7.2,0,11.948,3.431,11.948,9.216a7.866,7.866,0,0,1-5.174,7.34A8.226,8.226,0,0,1,28.74,24.71c0,6.163-4.893,9.742-12.608,9.742M12.465,7.78H10.727v6.4h1.738c3.106,0,4.7-1.083,4.7-3.343,0-2.3-1.693-3.057-4.7-3.057m1.743,12.608h-3.48v6.4h3.48c3.195,0,4.372-1.226,4.372-3.338,0-2.077-1.551-3.062-4.372-3.062" transform="translate(0 0.457)"/>
    <path id="Path_655" data-name="Path 655" class="cls-4" d="M31.982,34.451l-1.836-6.257H20.084l-1.831,6.257H7.289L19.188.114h12.42l11.9,34.337ZM25.115,11.21,22.53,19.919H27.7Z" transform="translate(28.594 0.451)"/>
    <path id="Path_656" data-name="Path 656" class="cls-4" d="M32.894,35.012c-9.5,0-16.649-4.888-16.649-16.364V.114H27.72V19.83c0,3.707,1.979,6.06,5.174,6.06s5.174-2.353,5.174-6.06V.114h11.48V18.649c0,11.475-7.158,16.364-16.654,16.364" transform="translate(63.727 0.451)"/>
    <path id="Path_657" data-name="Path 657" class="cls-4" d="M38.656,35.46a20.931,20.931,0,0,1-13.636-4.8l4.564-7.286c3.195,2.545,5.971,3.722,8.935,3.722,1.644,0,2.821-.714,2.821-1.885,0-1.644-1.314-2.255-5.5-3.53-6.252-1.93-9.408-4.608-9.408-10.254C26.428,3.992,32.262,0,40.586,0A19.261,19.261,0,0,1,51.732,3.476l-4.514,7.483a11.654,11.654,0,0,0-7.054-2.585C38,8.374,37.2,9.314,37.2,10.3c0,1.078.8,1.743,5.317,3.057,6.208,1.782,9.59,4.184,9.59,10.629,0,6.872-5.169,11.475-13.449,11.475" transform="translate(98.151 0.004)"/>
    <path id="Path_658" data-name="Path 658" class="cls-4" d="M50.384,35.46c-10.441,0-17.919-7.335-17.919-17.585S40.228,0,50.571,0c5.5,0,9.171,2.353,12.135,4.893l-5.642,7.66c-1.93-1.881-3.766-3.195-6.73-3.195-3.81,0-6.631,3.293-6.631,8.231S46.431,26.1,51,26.1a10.148,10.148,0,0,0,6.907-3l5.509,7.478A18.283,18.283,0,0,1,50.384,35.46" transform="translate(127.356 0.004)"/>
    <path id="Path_659" data-name="Path 659" class="cls-4" d="M61.089,34.452v-12H52.44v12H40.965V.114H52.44V12.766h8.649V.114H72.575V34.452Z" transform="translate(160.699 0.452)"/>
    <path id="Path_660" data-name="Path 660" class="cls-4" d="M60.518,34.452V.114H71.526V25.7H82.77v8.748Z" transform="translate(237.407 0.452)"/>
    <path id="Path_661" data-name="Path 661" class="cls-4" d="M84.764,35.46c-10.776,0-18.441-7.429-18.441-17.683S74.086,0,84.858,0s18.436,7.434,18.436,17.683S95.53,35.46,84.764,35.46m0-26.337c-4.189,0-7.2,3.623-7.2,8.561s3.106,8.654,7.291,8.654,7.192-3.623,7.192-8.561-3.1-8.654-7.286-8.654" transform="translate(260.177 0.004)"/>
    <path id="Path_662" data-name="Path 662" class="cls-4" d="M102.35,34.452V17.709l-5.317,9.969H91.811l-5.46-9.969V34.452H75.54V.114H86.676l7.818,13.7L101.73.114h12.091V34.452Z" transform="translate(296.336 0.452)"/>
    <path id="Path_663" data-name="Path 663" class="cls-4" d="M101.659,34.452H85.522V.115h15.015c7.2,0,11.948,3.431,11.948,9.216a7.873,7.873,0,0,1-5.174,7.34,8.221,8.221,0,0,1,6.951,8.039c0,6.163-4.884,9.742-12.6,9.742M98,7.78H96.249v6.4H98c3.106,0,4.7-1.083,4.7-3.343,0-2.3-1.689-3.057-4.7-3.057m1.743,12.608h-3.49v6.4h3.49c3.2,0,4.371-1.226,4.371-3.338,0-2.077-1.556-3.062-4.371-3.062" transform="translate(335.493 0.457)"/>
    <rect id="Rectangle_575" data-name="Rectangle 575" class="cls-4" width="11.096" height="11.15" transform="translate(260.046 12.163)"/>
    <rect id="Rectangle_576" data-name="Rectangle 576" class="cls-3" width="11.091" height="11.598" transform="translate(260.046 0.568)"/>
    <rect id="Rectangle_577" data-name="Rectangle 577" class="cls-3" width="11.091" height="11.598" transform="translate(260.046 23.312)"/>
    <rect id="Rectangle_578" data-name="Rectangle 578" class="cls-5" width="11.648" height="11.145" transform="translate(248.399 12.167)"/>
    <rect id="Rectangle_579" data-name="Rectangle 579" class="cls-5" width="11.593" height="11.145" transform="translate(271.138 12.167)"/>
  </g>
</svg>
