<svg xmlns="http://www.w3.org/2000/svg" width="80.729" height="43.369" viewBox="0 0 80.729 43.369">
  <defs>
    <style>
      .cls-1 {
        fill: #19606d;
      }
    </style>
  </defs>
  <g id="SEAL_EYELID_WIPES_DESKTOP" data-name="SEAL_EYELID WIPES_DESKTOP" transform="translate(-34.314 -22.257)">
    <g id="Group_633" data-name="Group 633" transform="translate(34.314 41.551)">
      <g id="Group_622" data-name="Group 622">
        <path id="Path_831" data-name="Path 831" class="cls-1" d="M17.934,27.078V21.563l0-.008,0-.008v-.029l0-.012,0-.012a.323.323,0,0,1,.031-.089l.006-.008,0-.006L18,21.382l0-.008.008-.021v-.008l.014-.016.027-.031.025-.033.014-.016H18.1l0-.008,0-.008h.006l.016-.006.01-.008.008-.008.014-.008.012-.008.008-.012.014-.008.01,0,.012,0,.01,0,.01,0,.016-.008h.019l.008-.008h.033l.014-.006h.095l.012.006h.041a.211.211,0,0,0,.049.021.1.1,0,0,1,.045.021h.008c0,.006,0,.01.014.012l.008.008.008.008.014.008.014.014h.008a.2.2,0,0,1,.058.066l.014.014.014.016,0,.008,0,.008.006.008.012.012.006.016,0,.012,0,.01.935,2.036.935-2.036.006-.023.008-.016,0-.012.008-.008.008-.016.014-.016.014-.014a.172.172,0,0,1,.062-.066l.014-.014h.006l.016-.008.006-.008.008-.008c.01,0,.012,0,.012-.012h.008a.055.055,0,0,1,.037-.021.124.124,0,0,0,.039-.012l.021-.008h.037l.008-.006h.1l.021.006h.031l.006.008h.023l.014.008.01,0,.01,0,.014.008h.008l.019.008v.012l.023.008.012.008.006.008.008.008.014.006.014.016a.015.015,0,0,1,.016.016.253.253,0,0,1,.06.064l.014.016v.008l.008.021.008.008.006.008.006.014c.01.027.019.058.029.089l.008.025v.029l.006.016v5.515a.5.5,0,0,1-.13.35.406.406,0,0,1-.315.144.412.412,0,0,1-.315-.144.5.5,0,0,1-.13-.35V23.685l-.467,1.021a.442.442,0,0,1-.214.266.393.393,0,0,1-.185.047h-.027a.416.416,0,0,1-.189-.047.443.443,0,0,1-.214-.266l-.465-1.021v3.392a.506.506,0,0,1-.132.35.4.4,0,0,1-.313.144.406.406,0,0,1-.315-.144A.506.506,0,0,1,17.934,27.078Z" transform="translate(-17.934 -21.059)"/>
        <path id="Path_832" data-name="Path 832" class="cls-1" d="M19.783,27.016l.986-5.445v-.025l0-.008,0-.008v-.014l.008-.016,0-.01,0-.01v-.008a.359.359,0,0,1,.07-.113v-.006l.006,0,.008,0v-.008l.006-.008.008-.012.008-.008L20.9,21.3l.008-.008.014-.008a.273.273,0,0,1,.1-.072h.006l.014-.008a.249.249,0,0,1,.066-.019.5.5,0,0,0,.07-.012h.035a.513.513,0,0,0,.066.012.241.241,0,0,1,.068.019l.014.008h.006a.309.309,0,0,1,.1.072l.014.008.008.008.008.008.006.008.008.012.006.008.008.008.006.008v.006a.454.454,0,0,1,.07.113v.008l0,.008,0,.012a.335.335,0,0,1,.014.072l.984,5.445a.5.5,0,0,1,.012.107.514.514,0,0,1-.072.266.433.433,0,0,1-.286.21.28.28,0,0,1-.082.008.393.393,0,0,1-.276-.111.524.524,0,0,1-.156-.284l-.152-.84h-.8l-.156.84a.469.469,0,0,1-.15.284.4.4,0,0,1-.276.111.356.356,0,0,1-.091-.008.428.428,0,0,1-.286-.21.525.525,0,0,1-.072-.266A.5.5,0,0,1,19.783,27.016Zm1.2-1.632h.443l-.22-1.21Z" transform="translate(-15.988 -21.02)"/>
        <path id="Path_833" data-name="Path 833" class="cls-1" d="M21.317,27.078V21.555l.008-.008V21.51l.01-.016v-.008l0-.006,0-.008,0-.012,0-.012,0-.012,0-.012,0-.008,0-.008V21.4l.012-.014,0-.008,0-.008.008-.012v-.008l.008-.016h.006l0-.008,0-.008h.006l.008-.014.014-.016v-.008l.012-.008v-.008l.016-.008h.01l.014-.016.014-.014h.008l.008-.008.006,0,.006,0h.006l.016-.021a.255.255,0,0,1,.1-.041h.006a.7.7,0,0,1,.109-.006h.033l.006.006h.037l.008.008h.021l.014.008.023.008.014.008h.01l.014.008v.012l.014.008h.006l.008,0,.006,0,.008.008.008.008.006.006h.008l.014.008v.008l.008,0,0,0v.008l.008,0,.006,0v.008l.016.016.019.014.014.016.006.016.008.008.006.012.006.016v.008l.008.014h.006l0,.021,0,.012,1.266,3.252V21.627a.506.506,0,0,1,.132-.35.4.4,0,0,1,.313-.144.4.4,0,0,1,.315.144.506.506,0,0,1,.132.35V27.15l-.008.008V27.2l-.006.016v.008l0,.008,0,.006,0,.012,0,.012,0,.012,0,.012,0,.008,0,.008v.008l0,.006-.008.008-.008.016-.01.008v.008l-.008.012-.006.008,0,.008,0,.008h-.006l-.008.014-.014.016-.012.016-.016.016h-.006l-.014.016-.016.008-.006.006-.008.008-.006,0-.01,0H24.1l-.016.016-.051.027a.317.317,0,0,1-.058.019.338.338,0,0,1-.091.006.185.185,0,0,1-.064-.006h-.027l-.006-.008h-.029v-.008h-.014l-.037-.021L23.7,27.52H23.69l-.008-.008L23.67,27.5l-.006-.008h-.008l-.008,0-.01,0a.417.417,0,0,1-.13-.156v-.008l-.006-.008-.008-.006V27.3l-.01-.016-.008-.016-1.266-3.252v3.063a.5.5,0,0,1-.13.35.416.416,0,0,1-.63,0A.506.506,0,0,1,21.317,27.078Z" transform="translate(-14.353 -21.059)"/>
        <path id="Path_834" data-name="Path 834" class="cls-1" d="M23.078,26.086v-4.45a.5.5,0,0,1,.128-.35.415.415,0,0,1,.632,0,.5.5,0,0,1,.128.35v4.421a.821.821,0,0,0,.016.154,1.071,1.071,0,0,0,.043.169.417.417,0,0,0,.084.148.785.785,0,0,0,.095.076.452.452,0,0,0,.245.051.54.54,0,0,0,.27-.051.77.77,0,0,0,.1-.076.558.558,0,0,0,.126-.3,1.9,1.9,0,0,0,.023-.245V21.644a.5.5,0,0,1,.13-.35.412.412,0,0,1,.63,0,.5.5,0,0,1,.13.35v4.3c0,.033,0,.095,0,.185a1.471,1.471,0,0,1-.041.315,2.146,2.146,0,0,1-.119.379,1.319,1.319,0,0,1-.228.377,1.379,1.379,0,0,1-.377.3,1.222,1.222,0,0,1-.636.148,1.2,1.2,0,0,1-.636-.15,1.452,1.452,0,0,1-.366-.3,1.354,1.354,0,0,1-.226-.389,2.374,2.374,0,0,1-.111-.391A2.022,2.022,0,0,1,23.078,26.086Z" transform="translate(-12.489 -21.051)"/>
        <path id="Path_835" data-name="Path 835" class="cls-1" d="M24.733,27.074V21.623a.508.508,0,0,1,.13-.35.409.409,0,0,1,.315-.144h1.859a.41.41,0,0,1,.317.144.546.546,0,0,1,0,.7.411.411,0,0,1-.319.14H25.622v2.075h.994a.4.4,0,0,1,.317.144.55.55,0,0,1,0,.7.4.4,0,0,1-.317.144h-.994v1.894a.511.511,0,0,1-.126.35.4.4,0,0,1-.319.146.411.411,0,0,1-.315-.146A.5.5,0,0,1,24.733,27.074Z" transform="translate(-10.738 -21.063)"/>
        <path id="Path_836" data-name="Path 836" class="cls-1" d="M25.97,27.016l.986-5.445v-.025l0-.008,0-.008v-.014l.008-.016,0-.01,0-.01v-.008a.325.325,0,0,1,.07-.113v-.006l.006,0,.008,0v-.008l.006-.008.008-.012.008-.008,0-.008.008-.008.014-.008a.29.29,0,0,1,.1-.072h.008l.014-.008a.213.213,0,0,1,.066-.019.479.479,0,0,0,.068-.012h.037a.409.409,0,0,0,.066.012.229.229,0,0,1,.066.019l.014.008h.008a.354.354,0,0,1,.1.072l.014.008.006.008.008.008.006.008.008.012.006.008.008.008.008.008v.006a.447.447,0,0,1,.068.113v.008l0,.008,0,.012a.261.261,0,0,1,.016.072l.982,5.445a.5.5,0,0,1,.012.107.5.5,0,0,1-.072.266.428.428,0,0,1-.286.21.271.271,0,0,1-.082.008A.391.391,0,0,1,28.1,27.5a.527.527,0,0,1-.158-.284l-.152-.84h-.8l-.158.84a.459.459,0,0,1-.15.284.4.4,0,0,1-.276.111.366.366,0,0,1-.091-.008.425.425,0,0,1-.284-.21.505.505,0,0,1-.072-.266A.658.658,0,0,1,25.97,27.016Zm1.2-1.632h.443l-.218-1.21Z" transform="translate(-9.437 -21.02)"/>
        <path id="Path_837" data-name="Path 837" class="cls-1" d="M27.539,26.124V22.758a1.826,1.826,0,0,1,.148-.8,2.072,2.072,0,0,1,.3-.463,1.294,1.294,0,0,1,.424-.292,1.248,1.248,0,0,1,.5-.1,1.384,1.384,0,0,1,.506.1,1.283,1.283,0,0,1,.455.3,1.584,1.584,0,0,1,.325.519,1.962,1.962,0,0,1,.126.739.5.5,0,0,1-.128.354.429.429,0,0,1-.632,0,.5.5,0,0,1-.128-.356.915.915,0,0,0-.058-.352.555.555,0,0,0-.134-.2.4.4,0,0,0-.169-.095.652.652,0,0,0-.165-.025.572.572,0,0,0-.136.021.386.386,0,0,0-.161.091.527.527,0,0,0-.132.2.944.944,0,0,0-.056.36v3.333a1.105,1.105,0,0,0,.014.154,1.018,1.018,0,0,0,.045.173.385.385,0,0,0,.082.148.869.869,0,0,0,.1.076.467.467,0,0,0,.251.051.52.52,0,0,0,.268-.051.35.35,0,0,0,.093-.084.526.526,0,0,0,.132-.29,2.121,2.121,0,0,0,.027-.257v-.089a.455.455,0,0,1,.037-.177.476.476,0,0,1,.124-.179.376.376,0,0,1,.247-.091h.033a.354.354,0,0,1,.231.07.448.448,0,0,1,.142.165.71.71,0,0,1,.074.245c0,.016,0,.07,0,.161a2.705,2.705,0,0,1-.037.321,2.64,2.64,0,0,1-.117.4,1.337,1.337,0,0,1-.237.4,1.36,1.36,0,0,1-.375.3,1.225,1.225,0,0,1-.638.148,1.2,1.2,0,0,1-.636-.15,1.334,1.334,0,0,1-.6-.69,2,2,0,0,1-.113-.391A2.044,2.044,0,0,1,27.539,26.124Z" transform="translate(-7.768 -21.097)"/>
        <path id="Path_838" data-name="Path 838" class="cls-1" d="M28.992,21.632a.5.5,0,0,1,.13-.354.415.415,0,0,1,.317-.142h2.283a.407.407,0,0,1,.313.142.5.5,0,0,1,.132.354.51.51,0,0,1-.132.35.4.4,0,0,1-.313.144h-.688v4.94a.5.5,0,0,1-.13.35.412.412,0,0,1-.317.146.407.407,0,0,1-.313-.146.5.5,0,0,1-.132-.35v-4.94h-.7a.41.41,0,0,1-.317-.144A.508.508,0,0,1,28.992,21.632Z" transform="translate(-6.23 -21.056)"/>
        <path id="Path_839" data-name="Path 839" class="cls-1" d="M30.681,26.086v-4.45a.5.5,0,0,1,.13-.35.414.414,0,0,1,.315-.146.408.408,0,0,1,.315.146.5.5,0,0,1,.13.35v4.421a.821.821,0,0,0,.016.154,1.341,1.341,0,0,0,.041.169.45.45,0,0,0,.084.148,1.009,1.009,0,0,0,.095.076.462.462,0,0,0,.245.051.529.529,0,0,0,.27-.051.639.639,0,0,0,.1-.076.56.56,0,0,0,.128-.3,2.222,2.222,0,0,0,.021-.245V21.644a.5.5,0,0,1,.132-.35.408.408,0,0,1,.315-.146.4.4,0,0,1,.313.146.5.5,0,0,1,.132.35v4.3c0,.033,0,.095,0,.185a1.634,1.634,0,0,1-.043.315,2.129,2.129,0,0,1-.117.379,1.331,1.331,0,0,1-.605.679,1.23,1.23,0,0,1-.638.148,1.194,1.194,0,0,1-.634-.15,1.466,1.466,0,0,1-.368-.3,1.3,1.3,0,0,1-.224-.389,2.188,2.188,0,0,1-.111-.391A1.834,1.834,0,0,1,30.681,26.086Z" transform="translate(-4.442 -21.051)"/>
        <path id="Path_840" data-name="Path 840" class="cls-1" d="M32.333,27.066V21.632a.5.5,0,0,1,.13-.35.408.408,0,0,1,.315-.146h1.074a.948.948,0,0,1,.541.177,1.57,1.57,0,0,1,.453.508,2.635,2.635,0,0,1,.333,1.334,2.922,2.922,0,0,1-.084.7,2.532,2.532,0,0,1-.249.626,1.433,1.433,0,0,1-.154.224c-.056.066-.111.124-.163.179l.778,1.986a.5.5,0,0,1,.043.2.482.482,0,0,1-.033.177.457.457,0,0,1-.243.27.489.489,0,0,1-.177.045.407.407,0,0,1-.237-.078.5.5,0,0,1-.171-.22l-.823-2.091h-.445v1.894a.5.5,0,0,1-.13.35.412.412,0,0,1-.63,0A.5.5,0,0,1,32.333,27.066Zm.889-2.882h.63a.2.2,0,0,0,.1-.054.923.923,0,0,0,.144-.183,1.211,1.211,0,0,0,.144-.373,1.8,1.8,0,0,0,.049-.42,1.849,1.849,0,0,0-.049-.424,1.392,1.392,0,0,0-.144-.377.91.91,0,0,0-.144-.177.208.208,0,0,0-.1-.051h-.63Z" transform="translate(-2.694 -21.056)"/>
        <path id="Path_841" data-name="Path 841" class="cls-1" d="M34.035,27.074V21.623a.508.508,0,0,1,.13-.35.41.41,0,0,1,.317-.144H36.3a.4.4,0,0,1,.315.144.549.549,0,0,1,0,.7.406.406,0,0,1-.315.14H34.924v2.075h.949a.406.406,0,0,1,.315.144.537.537,0,0,1,0,.7.406.406,0,0,1-.315.144h-.949v1.4H36.3a.41.41,0,0,1,.315.144.544.544,0,0,1,0,.7.405.405,0,0,1-.315.146H34.482a.412.412,0,0,1-.317-.146A.5.5,0,0,1,34.035,27.074Z" transform="translate(-0.892 -21.063)"/>
        <path id="Path_842" data-name="Path 842" class="cls-1" d="M35.609,27.078V21.627a.506.506,0,0,1,.132-.35.406.406,0,0,1,.315-.144h.967a1.271,1.271,0,0,1,.928.393,1.952,1.952,0,0,1,.3.467,1.826,1.826,0,0,1,.148.8v3.112a1.826,1.826,0,0,1-.148.8,2,2,0,0,1-.3.463,1.275,1.275,0,0,1-.928.4h-.967a.406.406,0,0,1-.315-.144A.506.506,0,0,1,35.609,27.078Zm.891-.494h.521a.586.586,0,0,0,.136-.021.38.38,0,0,0,.163-.091.547.547,0,0,0,.134-.2.963.963,0,0,0,.056-.362V22.8a.963.963,0,0,0-.056-.362.547.547,0,0,0-.134-.2.38.38,0,0,0-.163-.091.586.586,0,0,0-.136-.021H36.5Z" transform="translate(0.774 -21.059)"/>
      </g>
      <g id="Group_623" data-name="Group 623" transform="translate(42.334 0.074)">
        <path id="Path_843" data-name="Path 843" class="cls-1" d="M38.51,27.016l.984-5.445v-.025l0-.008,0-.008v-.014l.008-.016,0-.01,0-.01v-.008a.325.325,0,0,1,.07-.113v-.006l.006,0,.008,0v-.008l.006-.008.008-.012.008-.008.006-.008.006-.008.014-.008a.309.309,0,0,1,.1-.072h.008l.014-.008a.229.229,0,0,1,.066-.019.432.432,0,0,0,.068-.012h.037a.455.455,0,0,0,.066.012.213.213,0,0,1,.066.019l.014.008H40.1a.33.33,0,0,1,.1.072l.014.008.008.008.006.008.006.008.008.012.006.008.008.008.008.008v.006a.448.448,0,0,1,.068.113v.008l0,.008,0,.012a.261.261,0,0,1,.016.072l.984,5.445a.671.671,0,0,1,.01.107.5.5,0,0,1-.072.266A.429.429,0,0,1,41,27.6a.289.289,0,0,1-.082.008.393.393,0,0,1-.276-.111.511.511,0,0,1-.156-.284l-.154-.84h-.8l-.156.84a.472.472,0,0,1-.152.284.4.4,0,0,1-.276.111.338.338,0,0,1-.089-.008.424.424,0,0,1-.286-.21.505.505,0,0,1-.072-.266A.5.5,0,0,1,38.51,27.016Zm1.2-1.632h.441l-.218-1.21Z" transform="translate(-38.5 -21.094)"/>
        <path id="Path_844" data-name="Path 844" class="cls-1" d="M40.044,27.078V21.555l.008-.008V21.51l.008-.016v-.008l0-.006,0-.008,0-.012,0-.012,0-.012,0-.012,0-.008,0-.008V21.4l.014-.014,0-.008,0-.008.008-.012v-.008l.008-.016h.006l0-.008,0-.008h.006l.008-.014.014-.016v-.008l.014-.008v-.008l.016-.008h.01l.014-.016.012-.014h.008l.008-.008.006,0,.008,0h.006l.016-.021a.244.244,0,0,1,.1-.041h0a.722.722,0,0,1,.109-.006h.035l.006.006h.035l.008.008h.023l.014.008.023.008.012.008h.01l.014.008v.012l.016.008h.006l.008,0,.006,0,.008.008.006.008.006.006h.008l.014.008v.008l.008,0,.006,0v.008l.008,0,.006,0v.008l.016.016.016.014.014.016.006.016.008.008.008.012.006.016v.008l.008.014h.006l0,.021,0,.012,1.266,3.252V21.627a.5.5,0,0,1,.13-.35.416.416,0,0,1,.63,0,.506.506,0,0,1,.132.35V27.15l-.008.008V27.2l-.006.016v.008l0,.008,0,.006,0,.012,0,.012,0,.012,0,.012,0,.008,0,.008v.008L43,27.314,43,27.323l-.008.016-.01.008v.008l-.006.012-.006.008,0,.008,0,.008h-.006l-.008.014-.014.016-.014.016-.016.016h-.006l-.012.016-.016.008-.006.006-.008.008-.006,0-.012,0h-.006l-.016.016-.049.027a.48.48,0,0,1-.058.019.346.346,0,0,1-.091.006.191.191,0,0,1-.066-.006h-.025l-.006-.008h-.031v-.008h-.014l-.035-.021-.006-.008h-.008l-.008-.008-.014-.008-.006-.008H42.38l-.008,0-.008,0a.423.423,0,0,1-.132-.156v-.008l-.006-.008-.008-.006V27.3l-.01-.016-.008-.016-1.266-3.252v3.063a.5.5,0,0,1-.128.35.418.418,0,0,1-.632,0A.5.5,0,0,1,40.044,27.078Z" transform="translate(-36.866 -21.133)"/>
        <path id="Path_845" data-name="Path 845" class="cls-1" d="M41.763,27.078V21.627a.506.506,0,0,1,.132-.35.409.409,0,0,1,.315-.144h.967a1.268,1.268,0,0,1,.928.393,1.951,1.951,0,0,1,.3.467,1.859,1.859,0,0,1,.146.8v3.112a1.859,1.859,0,0,1-.146.8,2,2,0,0,1-.3.463,1.272,1.272,0,0,1-.928.4H42.21a.409.409,0,0,1-.315-.144A.506.506,0,0,1,41.763,27.078Zm.891-.494h.521a.571.571,0,0,0,.136-.021.369.369,0,0,0,.163-.091.547.547,0,0,0,.134-.2.963.963,0,0,0,.056-.362V22.8a.963.963,0,0,0-.056-.362.547.547,0,0,0-.134-.2.369.369,0,0,0-.163-.091.572.572,0,0,0-.136-.021h-.521Z" transform="translate(-35.046 -21.133)"/>
      </g>
      <g id="Group_624" data-name="Group 624" transform="translate(55.293)">
        <path id="Path_846" data-name="Path 846" class="cls-1" d="M44.8,27.07V21.635a.5.5,0,0,1,.06-.251.462.462,0,0,1,.156-.175.446.446,0,0,1,.235-.076h1.062a.938.938,0,0,1,.541.177,1.513,1.513,0,0,1,.453.515,2.308,2.308,0,0,1,.247.622,2.866,2.866,0,0,1,.084.7,2.809,2.809,0,0,1-.084.7,2.494,2.494,0,0,1-.247.628,1.593,1.593,0,0,1-.451.51.954.954,0,0,1-.543.181h-.624v1.9a.5.5,0,0,1-.13.35.412.412,0,0,1-.63,0A.5.5,0,0,1,44.8,27.07Zm.889-2.89h.624a.187.187,0,0,0,.1-.054.851.851,0,0,0,.146-.183,1.428,1.428,0,0,0,.14-.373,1.7,1.7,0,0,0,.054-.42,1.654,1.654,0,0,0-.056-.424,1.625,1.625,0,0,0-.138-.377.838.838,0,0,0-.146-.177.2.2,0,0,0-.1-.051h-.624Z" transform="translate(-44.796 -21.059)"/>
        <path id="Path_847" data-name="Path 847" class="cls-1" d="M46.287,27.016l.984-5.445v-.025l0-.008,0-.008v-.014l.008-.016,0-.01,0-.01v-.008a.359.359,0,0,1,.07-.113v-.006l.006,0,.008,0v-.008l.006-.008.008-.012.008-.008.006-.008.008-.008.014-.008a.282.282,0,0,1,.1-.072h.008l.014-.008a.249.249,0,0,1,.066-.019.5.5,0,0,0,.07-.012h.035a.513.513,0,0,0,.066.012.241.241,0,0,1,.068.019l.012.008h.008a.33.33,0,0,1,.1.072l.014.008.008.008.008.008.006.008.008.012.006.008.006.008.008.008v.006a.454.454,0,0,1,.07.113v.008l0,.008,0,.012a.335.335,0,0,1,.014.072l.984,5.445a.5.5,0,0,1,.012.107.514.514,0,0,1-.072.266.438.438,0,0,1-.286.21.289.289,0,0,1-.082.008.393.393,0,0,1-.276-.111.524.524,0,0,1-.156-.284l-.152-.84h-.8l-.156.84A.469.469,0,0,1,47,27.5a.4.4,0,0,1-.276.111.356.356,0,0,1-.091-.008.424.424,0,0,1-.286-.21.525.525,0,0,1-.072-.266A.5.5,0,0,1,46.287,27.016Zm1.2-1.632h.443l-.22-1.21Z" transform="translate(-43.228 -21.02)"/>
        <path id="Path_848" data-name="Path 848" class="cls-1" d="M47.851,26.124V22.758a1.824,1.824,0,0,1,.15-.8,1.938,1.938,0,0,1,.3-.463,1.308,1.308,0,0,1,.422-.292,1.248,1.248,0,0,1,.5-.1,1.384,1.384,0,0,1,.506.1,1.265,1.265,0,0,1,.455.3,1.551,1.551,0,0,1,.325.519,1.961,1.961,0,0,1,.128.739.5.5,0,0,1-.13.354.412.412,0,0,1-.315.14.417.417,0,0,1-.315-.138.5.5,0,0,1-.13-.356.961.961,0,0,0-.056-.352.557.557,0,0,0-.136-.2.376.376,0,0,0-.169-.095.639.639,0,0,0-.165-.025.557.557,0,0,0-.134.021.362.362,0,0,0-.161.091.53.53,0,0,0-.134.2.991.991,0,0,0-.054.36v3.333a1.106,1.106,0,0,0,.014.154,1.012,1.012,0,0,0,.043.173.447.447,0,0,0,.082.148,1.137,1.137,0,0,0,.1.076.477.477,0,0,0,.251.051.51.51,0,0,0,.268-.051.368.368,0,0,0,.095-.084.523.523,0,0,0,.13-.29,2.118,2.118,0,0,0,.027-.257v-.089a.461.461,0,0,1,.039-.177.47.47,0,0,1,.121-.179.384.384,0,0,1,.247-.091h.033a.347.347,0,0,1,.231.07.454.454,0,0,1,.144.165.758.758,0,0,1,.074.245c0,.016,0,.07,0,.161a2.369,2.369,0,0,1-.039.321,2.4,2.4,0,0,1-.115.4,1.39,1.39,0,0,1-.239.4,1.347,1.347,0,0,1-.373.3,1.233,1.233,0,0,1-.64.148,1.194,1.194,0,0,1-.634-.15,1.334,1.334,0,0,1-.6-.69,2.1,2.1,0,0,1-.148-.72Z" transform="translate(-41.563 -21.097)"/>
        <path id="Path_849" data-name="Path 849" class="cls-1" d="M49.456,27.087V21.642a.49.49,0,0,1,.13-.348.412.412,0,0,1,.63,0,.5.5,0,0,1,.13.348V23.6l1.214-2.192a.424.424,0,0,1,.276-.224.689.689,0,0,1,.1-.016.419.419,0,0,1,.235.076.481.481,0,0,1,.2.307.458.458,0,0,1,.016.115.476.476,0,0,1-.074.253l-1.089,1.966,1.348,2.948a.557.557,0,0,1,.049.228.6.6,0,0,1-.023.156.434.434,0,0,1-.228.282.444.444,0,0,1-.2.054.391.391,0,0,1-.228-.072.443.443,0,0,1-.161-.2l-1.1-2.4-.34.611v1.6a.516.516,0,0,1-.128.35.418.418,0,0,1-.632,0A.5.5,0,0,1,49.456,27.087Z" transform="translate(-39.864 -21.043)"/>
        <path id="Path_850" data-name="Path 850" class="cls-1" d="M51.054,27.016l.986-5.445v-.025l0-.008,0-.008v-.014l.008-.016,0-.01,0-.01v-.008a.325.325,0,0,1,.07-.113v-.006l.006,0,.008,0v-.008l.006-.008.008-.012.008-.008,0-.008.008-.008.014-.008a.29.29,0,0,1,.1-.072h.008l.014-.008a.213.213,0,0,1,.066-.019.479.479,0,0,0,.068-.012h.037a.409.409,0,0,0,.066.012.229.229,0,0,1,.066.019l.014.008h.008a.354.354,0,0,1,.1.072l.014.008.006.008.008.008.006.008.008.012.006.008.008.008.008.008v.006a.447.447,0,0,1,.068.113v.008l0,.008,0,.012a.261.261,0,0,1,.016.072l.982,5.445a.5.5,0,0,1,.012.107.5.5,0,0,1-.072.266.428.428,0,0,1-.286.21.271.271,0,0,1-.082.008.391.391,0,0,1-.274-.111.527.527,0,0,1-.159-.284l-.152-.84h-.8l-.159.84a.459.459,0,0,1-.15.284.4.4,0,0,1-.276.111A.366.366,0,0,1,51.4,27.6a.425.425,0,0,1-.284-.21.505.505,0,0,1-.072-.266A.658.658,0,0,1,51.054,27.016Zm1.2-1.632H52.7l-.218-1.21Z" transform="translate(-38.181 -21.02)"/>
        <path id="Path_851" data-name="Path 851" class="cls-1" d="M52.588,26.124v-.084c0-.051,0-.091,0-.117V22.758a1.8,1.8,0,0,1,.148-.8,1.938,1.938,0,0,1,.3-.463,1.223,1.223,0,0,1,.92-.4,1.257,1.257,0,0,1,.92.379,1.988,1.988,0,0,1,.309.469,1.835,1.835,0,0,1,.152.813.5.5,0,0,1-.13.354.407.407,0,0,1-.317.14.414.414,0,0,1-.315-.138.5.5,0,0,1-.128-.356,1.018,1.018,0,0,0-.047-.336.591.591,0,0,0-.113-.206.365.365,0,0,0-.161-.1.572.572,0,0,0-.171-.029.56.56,0,0,0-.14.021.361.361,0,0,0-.156.091.576.576,0,0,0-.128.2.9.9,0,0,0-.058.36v3.2l-.008.016c0,.025,0,.064,0,.109a1.186,1.186,0,0,0,.019.156,1.249,1.249,0,0,0,.043.173.451.451,0,0,0,.084.148.646.646,0,0,0,.091.076.454.454,0,0,0,.249.051.483.483,0,0,0,.27-.056.779.779,0,0,0,.1-.08.382.382,0,0,0,.08-.142,1.278,1.278,0,0,0,.049-.167.557.557,0,0,0,.019-.146v-.928h-.323a.412.412,0,0,1-.313-.144.54.54,0,0,1,0-.7.412.412,0,0,1,.317-.146h1.212v1.787c0,.031,0,.095,0,.187a1.971,1.971,0,0,1-.039.319,2.747,2.747,0,0,1-.113.379,1.312,1.312,0,0,1-.226.377,1.492,1.492,0,0,1-.385.3,1.241,1.241,0,0,1-.642.148,1.189,1.189,0,0,1-.634-.15,1.445,1.445,0,0,1-.366-.3,1.3,1.3,0,0,1-.224-.389,2.155,2.155,0,0,1-.113-.391A1.873,1.873,0,0,1,52.588,26.124Z" transform="translate(-36.549 -21.097)"/>
        <path id="Path_852" data-name="Path 852" class="cls-1" d="M54.227,27.074V21.623a.51.51,0,0,1,.132-.35.406.406,0,0,1,.315-.144h1.816a.4.4,0,0,1,.313.144.543.543,0,0,1,0,.7.4.4,0,0,1-.313.14H55.118v2.075h.949a.4.4,0,0,1,.313.144.531.531,0,0,1,0,.7.4.4,0,0,1-.313.144h-.949v1.4h1.371a.409.409,0,0,1,.313.144.537.537,0,0,1,0,.7.4.4,0,0,1-.313.146H54.674a.408.408,0,0,1-.315-.146A.506.506,0,0,1,54.227,27.074Z" transform="translate(-34.814 -21.063)"/>
        <path id="Path_853" data-name="Path 853" class="cls-1" d="M55.8,27.078V21.627a.5.5,0,0,1,.13-.35.409.409,0,0,1,.315-.144h.967a1.268,1.268,0,0,1,.928.393,1.951,1.951,0,0,1,.3.467,1.829,1.829,0,0,1,.146.8v3.112a1.829,1.829,0,0,1-.146.8,2,2,0,0,1-.3.463,1.272,1.272,0,0,1-.928.4h-.967a.409.409,0,0,1-.315-.144A.5.5,0,0,1,55.8,27.078Zm.889-.494h.521a.6.6,0,0,0,.138-.021.392.392,0,0,0,.163-.091.571.571,0,0,0,.132-.2.923.923,0,0,0,.056-.362V22.8a.923.923,0,0,0-.056-.362.571.571,0,0,0-.132-.2.392.392,0,0,0-.163-.091.6.6,0,0,0-.138-.021h-.521Z" transform="translate(-33.151 -21.059)"/>
      </g>
      <g id="Group_625" data-name="Group 625" transform="translate(4.66 8.818)">
        <path id="Path_854" data-name="Path 854" class="cls-1" d="M20.2,31.326V25.875a.5.5,0,0,1,.13-.35.421.421,0,0,1,.634,0,.513.513,0,0,1,.128.35v5.451a.512.512,0,0,1-.128.35.417.417,0,0,1-.634,0A.5.5,0,0,1,20.2,31.326Z" transform="translate(-20.198 -25.381)"/>
        <path id="Path_855" data-name="Path 855" class="cls-1" d="M20.937,31.326V25.8l.008-.008v-.037l.01-.016v-.006l0-.008,0-.008,0-.012,0-.012,0-.012,0-.012,0-.008,0-.008v-.006L21,25.63l0-.008,0-.008.008-.012v-.008l.008-.016h.006l0-.008,0-.006h.006l.008-.016.014-.016v-.008l.014-.008V25.5l.014-.008h.01l.014-.016.014-.014h.008l.008-.008.006,0,.008,0h.006l.014-.021a.235.235,0,0,1,.1-.039H21.3a.485.485,0,0,1,.109-.008h.033l.006.008h.037l.008.006h.023l.012.008.023.008.014.008h.01l.014.008v.012l.014.008h.006l.008,0,.006,0,.008.008.008.008.006.006h.008l.014.008V25.5l.008,0,.006,0v.008l.006,0,.006,0v.008l.016.016.019.016.014.014.006.016.008.008.008.012,0,.016v.008l.008.014h.006l0,.021,0,.012,1.266,3.252V25.875a.506.506,0,0,1,.132-.35.416.416,0,0,1,.63,0,.5.5,0,0,1,.13.35V31.4l-.008.008v.037l-.006.016v.008l0,.008,0,.006,0,.012,0,.012,0,.012,0,.012,0,.008,0,.008v.008l-.006.008-.008.006-.008.016-.01.008V31.6l-.008.012-.006.008,0,.008,0,.008h-.006l-.008.014-.012.016-.014.016-.016.016h-.006l-.014.016-.016.008-.006.008-.006.006-.006,0-.012,0h-.006l-.016.016-.049.027a.422.422,0,0,1-.06.019.317.317,0,0,1-.091.008.177.177,0,0,1-.064-.008h-.027l-.006-.008h-.029V31.8h-.014l-.037-.021-.006-.008h-.006L23.3,31.76l-.014-.008-.006-.008h-.008l-.008,0-.01,0a.441.441,0,0,1-.13-.158v-.008l-.006-.006-.008-.008v-.008l-.01-.016-.008-.016-1.266-3.252v3.063a.5.5,0,0,1-.13.35.412.412,0,0,1-.63,0A.506.506,0,0,1,20.937,31.326Z" transform="translate(-19.416 -25.381)"/>
      </g>
      <g id="Group_626" data-name="Group 626" transform="translate(12.365 8.81)">
        <path id="Path_856" data-name="Path 856" class="cls-1" d="M23.941,25.879a.5.5,0,0,1,.132-.354.409.409,0,0,1,.315-.14H26.67a.409.409,0,0,1,.315.14.5.5,0,0,1,.13.354.508.508,0,0,1-.13.35.406.406,0,0,1-.315.144h-.688v4.94a.5.5,0,0,1-.13.35.412.412,0,0,1-.317.146.407.407,0,0,1-.313-.146.5.5,0,0,1-.13-.35v-4.94h-.706a.406.406,0,0,1-.315-.144A.51.51,0,0,1,23.941,25.879Z" transform="translate(-23.941 -25.369)"/>
        <path id="Path_857" data-name="Path 857" class="cls-1" d="M25.623,31.326V25.875a.5.5,0,0,1,.13-.35.41.41,0,0,1,.317-.144.4.4,0,0,1,.313.144.5.5,0,0,1,.13.35v2.569h1.155V25.875a.5.5,0,0,1,.13-.35.41.41,0,0,1,.317-.144.4.4,0,0,1,.313.144.5.5,0,0,1,.132.35v5.451a.5.5,0,0,1-.132.35.407.407,0,0,1-.313.146.412.412,0,0,1-.317-.146.5.5,0,0,1-.13-.35V29.432H26.512v1.894a.5.5,0,0,1-.13.35.407.407,0,0,1-.313.146.412.412,0,0,1-.317-.146A.5.5,0,0,1,25.623,31.326Z" transform="translate(-22.161 -25.373)"/>
        <path id="Path_858" data-name="Path 858" class="cls-1" d="M27.371,31.322V25.871a.508.508,0,0,1,.13-.35.41.41,0,0,1,.317-.144h1.813a.4.4,0,0,1,.315.144.549.549,0,0,1,0,.7.406.406,0,0,1-.315.14H28.26V28.44h.949a.406.406,0,0,1,.315.144.537.537,0,0,1,0,.7.406.406,0,0,1-.315.144H28.26v1.4h1.371a.41.41,0,0,1,.315.144.544.544,0,0,1,0,.7.405.405,0,0,1-.315.146H27.818a.412.412,0,0,1-.317-.146A.5.5,0,0,1,27.371,31.322Z" transform="translate(-20.311 -25.377)"/>
      </g>
      <g id="Group_627" data-name="Group 627" transform="translate(25.699 8.744)">
        <path id="Path_859" data-name="Path 859" class="cls-1" d="M30.419,30.334v-4.45a.5.5,0,0,1,.128-.35.415.415,0,0,1,.632,0,.5.5,0,0,1,.128.35v4.422a.821.821,0,0,0,.016.154,1.071,1.071,0,0,0,.043.169.388.388,0,0,0,.084.148.641.641,0,0,0,.095.076.452.452,0,0,0,.245.051.54.54,0,0,0,.27-.051.588.588,0,0,0,.1-.076.545.545,0,0,0,.128-.3,1.9,1.9,0,0,0,.023-.245V25.892a.5.5,0,0,1,.13-.35.412.412,0,0,1,.63,0,.5.5,0,0,1,.13.35v4.3c0,.033,0,.095,0,.185a1.791,1.791,0,0,1-.041.315,2.146,2.146,0,0,1-.119.379,1.319,1.319,0,0,1-.228.377,1.379,1.379,0,0,1-.377.3,1.222,1.222,0,0,1-.636.148,1.2,1.2,0,0,1-.636-.15,1.466,1.466,0,0,1-.368-.3,1.347,1.347,0,0,1-.224-.389,2.318,2.318,0,0,1-.111-.391A2.022,2.022,0,0,1,30.419,30.334Z" transform="translate(-30.419 -25.299)"/>
        <path id="Path_860" data-name="Path 860" class="cls-1" d="M32.024,30.25a.518.518,0,0,1,.13-.35.423.423,0,0,1,.636,0,.525.525,0,0,1,.126.35,1.548,1.548,0,0,0,.019.237.615.615,0,0,0,.078.218.4.4,0,0,0,.173.161.647.647,0,0,0,.3.06.8.8,0,0,0,.249-.035.508.508,0,0,0,.2-.113.7.7,0,0,0,.177-.519,1.436,1.436,0,0,0-.062-.443,1.182,1.182,0,0,0-.173-.35,1.917,1.917,0,0,0-.28-.3l-.373-.309c-.126-.1-.253-.2-.379-.311a2.393,2.393,0,0,1-.354-.366,2.115,2.115,0,0,1-.294-.548,1.832,1.832,0,0,1-.1-.622c0-.033,0-.093,0-.179a1.626,1.626,0,0,1,.039-.3,2.02,2.02,0,0,1,.111-.364,1.321,1.321,0,0,1,.226-.364,1.379,1.379,0,0,1,.377-.3,1.273,1.273,0,0,1,.65-.148,1.18,1.18,0,0,1,.648.154,1.566,1.566,0,0,1,.368.3,1.44,1.44,0,0,1,.212.4,1.837,1.837,0,0,1,.091.389,1.463,1.463,0,0,1,.016.241V26.9a1.008,1.008,0,0,1-.016.159.552.552,0,0,1-.089.245.458.458,0,0,1-.161.152.267.267,0,0,1-.144.035.556.556,0,0,1-.124-.014.458.458,0,0,1-.243-.119.451.451,0,0,1-.1-.181.57.57,0,0,1-.023-.169c0-.049,0-.08,0-.091a.356.356,0,0,0,.008-.091.678.678,0,0,0-.012-.124.726.726,0,0,0-.033-.132.432.432,0,0,0-.058-.115.4.4,0,0,0-.344-.121.489.489,0,0,0-.276.056c-.051.039-.086.066-.1.08a.39.39,0,0,0-.076.134.844.844,0,0,0-.041.148.866.866,0,0,0-.019.128l0,.078v.031a.88.88,0,0,0,.051.3.988.988,0,0,0,.146.255,1.671,1.671,0,0,0,.233.239l.319.257.426.358a2.8,2.8,0,0,1,.4.434A2.38,2.38,0,0,1,35,30.258a1.943,1.943,0,0,1-.049.457,2.111,2.111,0,0,1-.119.36,1.328,1.328,0,0,1-.159.272,1.707,1.707,0,0,1-.177.2,1.464,1.464,0,0,1-1.009.371,1.6,1.6,0,0,1-.541-.091,1.182,1.182,0,0,1-.443-.28,1.126,1.126,0,0,1-.169-.189,1.622,1.622,0,0,1-.268-.634A2.167,2.167,0,0,1,32.024,30.25Z" transform="translate(-28.72 -25.345)"/>
        <path id="Path_861" data-name="Path 861" class="cls-1" d="M33.54,31.264l.984-5.445v-.025l0-.008,0-.006v-.016l.008-.016,0-.01,0-.01v-.008a.329.329,0,0,1,.07-.111V25.6l.006,0,.008,0v-.008l.006-.008.008-.012.008-.008.006-.008.008-.008.014-.008a.282.282,0,0,1,.1-.072h.008l.014-.008a.249.249,0,0,1,.066-.019.5.5,0,0,0,.07-.012h.035a.511.511,0,0,0,.066.012.241.241,0,0,1,.068.019l.012.008h.008a.33.33,0,0,1,.1.072l.014.008.008.008.008.008.006.008.008.012,0,.008.008.008.008.008v.008a.408.408,0,0,1,.07.111v.008l0,.008,0,.012a.277.277,0,0,1,.016.072l.984,5.445a.5.5,0,0,1,.012.107.5.5,0,0,1-.074.266.429.429,0,0,1-.284.21.288.288,0,0,1-.082.008.393.393,0,0,1-.276-.111.524.524,0,0,1-.156-.284l-.152-.84h-.8l-.156.84a.469.469,0,0,1-.15.284.4.4,0,0,1-.276.111.356.356,0,0,1-.091-.008.424.424,0,0,1-.286-.21.525.525,0,0,1-.072-.266A.5.5,0,0,1,33.54,31.264Zm1.2-1.632h.443l-.22-1.21Z" transform="translate(-27.126 -25.268)"/>
      </g>
      <g id="Group_628" data-name="Group 628" transform="translate(38.25 8.818)">
        <path id="Path_862" data-name="Path 862" class="cls-1" d="M36.52,25.95c0-.023,0-.045,0-.068a.527.527,0,0,1,.095-.3.427.427,0,0,1,.3-.185l.062,0a.4.4,0,0,1,.268.1.483.483,0,0,1,.167.329l.358,3.261.243-.815,0-.012,0-.012.008-.008v-.008l0-.012,0-.01a.082.082,0,0,0,.019-.031.09.09,0,0,1,.021-.031l.008-.016v-.006l.006,0,.008,0v-.008l.008,0,.006,0v-.008l.008-.008.014-.008v-.008l.012-.008v-.008l.014-.006.023-.016a.286.286,0,0,1,.054-.037l.012-.008.01-.008h.008l.006-.008.023-.008.021-.006h.023l.006-.008h.041l.006-.008h.086l.006.008h.041l.008.008h.023l.019.006.023.008.014.008a.484.484,0,0,1,.076.054c.01,0,.014.006.014.016h.008l.008.006.006.008.008.008,0,.008.008.008.008.008.006.008.008.008.006.008.008.008.008.006.006.016a.062.062,0,0,1,.019.031.054.054,0,0,0,.021.031l.008.023v.008l.006.008,0,.012,0,.012.235.815.366-3.261a.481.481,0,0,1,.165-.329.4.4,0,0,1,.27-.1l.06,0a.419.419,0,0,1,.3.185.5.5,0,0,1,.091.3c0,.021,0,.043,0,.068l-.6,5.432,0,.023,0,.016v.012l-.008.008v.025l-.008.014-.006.025-.012.029-.01.027h-.008l0,.025,0,.008,0,.012h-.006l-.008.016v.008l-.008.008-.006.006-.008.008a.338.338,0,0,1-.082.08h-.008l-.006.008h-.008l-.014.008-.006.008-.006.008h-.016v.012l-.047.016-.049.016h-.031l-.006.006h-.049a.338.338,0,0,1-.076-.006l-.023-.008h-.023l-.006-.008h-.006l-.014-.008h-.008l-.01-.008a.064.064,0,0,1-.051-.029l-.014-.008-.014-.012-.014-.01-.008,0-.006,0L39,31.695a.385.385,0,0,1-.1-.148l-.006-.016-.008-.008v-.008l0-.008,0-.008,0-.012,0-.012L38.43,30l-.438,1.474-.006.025-.008.016v.008l-.006.008-.008.016a.528.528,0,0,1-.1.148l-.014.016h-.008l-.008.008-.014.01-.014.012h-.008l-.006.008H37.78a.236.236,0,0,1-.062.037L37.7,31.8h0l-.008.008h-.023l-.021.008a.325.325,0,0,1-.076.006h-.049l-.008-.006h-.029L37.43,31.8l-.045-.016-.008-.012H37.37l-.012-.008-.008-.008-.008-.008h-.006l-.014-.008a.463.463,0,0,1-.076-.072l-.008-.008-.006-.008-.008-.006-.008-.008v-.008l-.014-.016,0-.01,0-.01a.453.453,0,0,1-.035-.08l-.008-.025-.008-.014v-.008l0-.008,0-.008v-.021c-.006-.006-.008-.019-.008-.039Z" transform="translate(-36.516 -25.371)"/>
        <path id="Path_863" data-name="Path 863" class="cls-1" d="M38.7,31.326V25.875a.5.5,0,0,1,.13-.35.421.421,0,0,1,.634,0,.513.513,0,0,1,.128.35v5.451a.512.512,0,0,1-.128.35.417.417,0,0,1-.634,0A.5.5,0,0,1,38.7,31.326Z" transform="translate(-34.205 -25.381)"/>
        <path id="Path_864" data-name="Path 864" class="cls-1" d="M39.287,25.879a.5.5,0,0,1,.13-.354.413.413,0,0,1,.317-.14h2.283a.4.4,0,0,1,.313.14.5.5,0,0,1,.132.354.51.51,0,0,1-.132.35.4.4,0,0,1-.313.144h-.688v4.94a.5.5,0,0,1-.13.35.412.412,0,0,1-.317.146.407.407,0,0,1-.313-.146.5.5,0,0,1-.132-.35v-4.94h-.7a.41.41,0,0,1-.317-.144A.508.508,0,0,1,39.287,25.879Z" transform="translate(-33.583 -25.377)"/>
        <path id="Path_865" data-name="Path 865" class="cls-1" d="M40.968,31.326V25.875a.506.506,0,0,1,.132-.35.416.416,0,0,1,.63,0,.5.5,0,0,1,.13.35v2.569h1.155V25.875a.5.5,0,0,1,.13-.35.416.416,0,0,1,.63,0,.5.5,0,0,1,.13.35v5.451a.5.5,0,0,1-.13.35.412.412,0,0,1-.63,0,.5.5,0,0,1-.13-.35V29.432H41.859v1.894a.5.5,0,0,1-.13.35.412.412,0,0,1-.63,0A.506.506,0,0,1,40.968,31.326Z" transform="translate(-31.804 -25.381)"/>
      </g>
      <g id="Group_629" data-name="Group 629" transform="translate(53.97 8.744)">
        <path id="Path_866" data-name="Path 866" class="cls-1" d="M44.153,30.334v-4.45a.5.5,0,0,1,.13-.35.408.408,0,0,1,.315-.146.414.414,0,0,1,.315.146.5.5,0,0,1,.13.35v4.422a1.027,1.027,0,0,0,.014.154,1.072,1.072,0,0,0,.043.169.417.417,0,0,0,.084.148.784.784,0,0,0,.095.076.452.452,0,0,0,.245.051.529.529,0,0,0,.27-.051.77.77,0,0,0,.1-.076.558.558,0,0,0,.126-.3,1.9,1.9,0,0,0,.023-.245V25.892a.5.5,0,0,1,.13-.35.412.412,0,0,1,.63,0,.506.506,0,0,1,.132.35v4.3c0,.033,0,.095,0,.185a1.633,1.633,0,0,1-.043.315,2.313,2.313,0,0,1-.117.379,1.356,1.356,0,0,1-.605.679,1.23,1.23,0,0,1-.638.148,1.207,1.207,0,0,1-.636-.15,1.452,1.452,0,0,1-.366-.3,1.354,1.354,0,0,1-.226-.389,2.126,2.126,0,0,1-.109-.391A1.835,1.835,0,0,1,44.153,30.334Z" transform="translate(-44.153 -25.299)"/>
        <path id="Path_867" data-name="Path 867" class="cls-1" d="M45.758,30.25a.518.518,0,0,1,.13-.35.425.425,0,0,1,.638,0,.523.523,0,0,1,.124.35,1.33,1.33,0,0,0,.021.237.612.612,0,0,0,.076.218.422.422,0,0,0,.173.161.647.647,0,0,0,.3.06.8.8,0,0,0,.249-.035.48.48,0,0,0,.2-.113.694.694,0,0,0,.177-.519,1.5,1.5,0,0,0-.06-.443,1.291,1.291,0,0,0-.173-.35,1.841,1.841,0,0,0-.282-.3l-.373-.309c-.126-.1-.253-.2-.379-.311a2.494,2.494,0,0,1-.354-.366,2.247,2.247,0,0,1-.294-.548,1.832,1.832,0,0,1-.1-.622c0-.033,0-.093,0-.179a1.606,1.606,0,0,1,.037-.3,1.881,1.881,0,0,1,.113-.364,1.266,1.266,0,0,1,.224-.364,1.392,1.392,0,0,1,.379-.3,1.265,1.265,0,0,1,.648-.148,1.188,1.188,0,0,1,.65.154,1.55,1.55,0,0,1,.366.3,1.44,1.44,0,0,1,.212.4,1.989,1.989,0,0,1,.093.389,1.463,1.463,0,0,1,.016.241V26.9a1.009,1.009,0,0,1-.016.159.579.579,0,0,1-.091.245.469.469,0,0,1-.159.152.275.275,0,0,1-.146.035.526.526,0,0,1-.121-.014.443.443,0,0,1-.243-.119.457.457,0,0,1-.1-.181.571.571,0,0,1-.023-.169c0-.049,0-.08,0-.091a.356.356,0,0,0,.008-.091.677.677,0,0,0-.012-.124.941.941,0,0,0-.031-.132.437.437,0,0,0-.06-.115.4.4,0,0,0-.344-.121.5.5,0,0,0-.276.056.912.912,0,0,0-.1.08.334.334,0,0,0-.076.134.856.856,0,0,0-.043.148.865.865,0,0,0-.019.128l0,.078v.031a.834.834,0,0,0,.054.3.981.981,0,0,0,.144.255,1.671,1.671,0,0,0,.233.239l.321.257.426.358a2.9,2.9,0,0,1,.4.434,2.394,2.394,0,0,1,.438,1.422,1.938,1.938,0,0,1-.051.457,2.115,2.115,0,0,1-.117.36,1.547,1.547,0,0,1-.158.272,2.2,2.2,0,0,1-.177.2,1.466,1.466,0,0,1-1.011.371,1.594,1.594,0,0,1-.539-.091,1.166,1.166,0,0,1-.443-.28,1.043,1.043,0,0,1-.169-.189,1.422,1.422,0,0,1-.154-.272,1.665,1.665,0,0,1-.115-.362A2.168,2.168,0,0,1,45.758,30.25Z" transform="translate(-42.454 -25.345)"/>
        <path id="Path_868" data-name="Path 868" class="cls-1" d="M47.274,31.264l.986-5.445v-.025l0-.008,0-.006v-.016l.008-.016,0-.01,0-.01v-.008a.276.276,0,0,1,.07-.111V25.6l.006,0,.008,0v-.008l0-.008.008-.012.008-.008.006-.008.008-.008.014-.008a.29.29,0,0,1,.1-.072h.008l.012-.008a.241.241,0,0,1,.068-.019.536.536,0,0,0,.068-.012h.035a.478.478,0,0,0,.068.012.249.249,0,0,1,.066.019l.014.008h.008a.321.321,0,0,1,.1.072l.014.008.008.008.008.008.006.008.008.012.006.008.008.008.008.008v.008a.458.458,0,0,1,.068.111v.008l0,.008,0,.012a.277.277,0,0,1,.016.072l.982,5.445a.5.5,0,0,1,.012.107.514.514,0,0,1-.072.266.428.428,0,0,1-.286.21.28.28,0,0,1-.082.008.393.393,0,0,1-.276-.111.524.524,0,0,1-.156-.284l-.152-.84h-.8l-.156.84a.469.469,0,0,1-.15.284.4.4,0,0,1-.276.111.366.366,0,0,1-.091-.008.425.425,0,0,1-.284-.21.507.507,0,0,1-.074-.266A.5.5,0,0,1,47.274,31.264Zm1.2-1.632h.443l-.218-1.21Z" transform="translate(-40.86 -25.268)"/>
      </g>
      <g id="Group_630" data-name="Group 630" transform="translate(66.238 8.818)">
        <path id="Path_869" data-name="Path 869" class="cls-1" d="M50.123,31.264l.984-5.445v-.025l0-.008,0-.006v-.016l.008-.016,0-.01,0-.01v-.008a.329.329,0,0,1,.07-.111V25.6l.006,0,.008,0v-.008l.006-.008.008-.012.008-.008.006-.008.008-.008.014-.008a.282.282,0,0,1,.1-.072h.008l.014-.008a.249.249,0,0,1,.066-.019.5.5,0,0,0,.07-.012h.035a.511.511,0,0,0,.066.012.241.241,0,0,1,.068.019l.012.008h.008a.33.33,0,0,1,.1.072l.014.008.008.008.008.008.006.008.008.012,0,.008.008.008.008.008v.008a.408.408,0,0,1,.07.111v.008l0,.008,0,.012a.277.277,0,0,1,.016.072l.984,5.445a.5.5,0,0,1,.012.107.5.5,0,0,1-.074.266.429.429,0,0,1-.284.21.289.289,0,0,1-.082.008.393.393,0,0,1-.276-.111.524.524,0,0,1-.156-.284l-.152-.84h-.8l-.156.84a.469.469,0,0,1-.15.284.4.4,0,0,1-.276.111.356.356,0,0,1-.091-.008.424.424,0,0,1-.286-.21.525.525,0,0,1-.072-.266A.5.5,0,0,1,50.123,31.264Zm1.2-1.632h.443l-.22-1.21Z" transform="translate(-50.113 -25.342)"/>
        <path id="Path_870" data-name="Path 870" class="cls-1" d="M51.657,31.326V25.8l.008-.008v-.037l.01-.016v-.006l0-.008,0-.008,0-.012,0-.012,0-.012,0-.012,0-.008,0-.008v-.006l.014-.016,0-.008,0-.008.008-.012v-.008l.008-.016h.006l0-.008,0-.006h.006l.008-.016.012-.016v-.008l.014-.008V25.5l.016-.008h.01l.014-.016.014-.014h.008l.006-.008.006,0,.008,0h.006l.016-.021a.226.226,0,0,1,.1-.039h.006a.465.465,0,0,1,.107-.008h.035l.006.008H52.2l.008.006h.021l.014.008.023.008.014.008h.01l.012.008v.012l.016.008h.006l.008,0,.006,0,.008.008.008.008.006.006h.008l.012.008V25.5l.008,0,.006,0v.008l.008,0,.006,0v.008l.016.016.019.016.014.014,0,.016.008.008.008.012.006.016v.008l.008.014H52.5l0,.021,0,.012,1.266,3.252V25.875a.506.506,0,0,1,.132-.35.414.414,0,0,1,.628,0,.506.506,0,0,1,.132.35V31.4l-.008.008v.037l-.006.016v.008l0,.008,0,.006,0,.012,0,.012,0,.012,0,.012,0,.008,0,.008v.008l-.006.008-.008.006-.006.016-.01.008V31.6l-.008.012-.006.008,0,.008,0,.008h-.006l-.008.014-.014.016-.014.016-.014.016h-.006l-.014.016-.016.008-.006.008-.008.006-.006,0-.012,0h0l-.016.016-.051.027a.383.383,0,0,1-.058.019.318.318,0,0,1-.091.008.17.17,0,0,1-.064-.008h-.027l-.006-.008h-.031V31.8h-.012l-.037-.021-.006-.008H54.03l-.008-.008-.012-.008L54,31.744H54l-.008,0-.01,0a.469.469,0,0,1-.132-.158v-.008l-.006-.006-.006-.008v-.008l-.01-.016-.008-.016-1.266-3.252v3.063a.5.5,0,0,1-.13.35.415.415,0,0,1-.632,0A.5.5,0,0,1,51.657,31.326Z" transform="translate(-48.479 -25.381)"/>
        <path id="Path_871" data-name="Path 871" class="cls-1" d="M53.377,31.326V25.875a.5.5,0,0,1,.13-.35.409.409,0,0,1,.315-.144h.967a1.268,1.268,0,0,1,.928.393,1.951,1.951,0,0,1,.3.467,1.829,1.829,0,0,1,.146.8v3.112a1.829,1.829,0,0,1-.146.8,2,2,0,0,1-.3.463,1.282,1.282,0,0,1-.928.4h-.967a.411.411,0,0,1-.315-.146A.5.5,0,0,1,53.377,31.326Zm.889-.494h.521a.6.6,0,0,0,.138-.021.392.392,0,0,0,.163-.091.545.545,0,0,0,.132-.2.919.919,0,0,0,.058-.362V27.044a.919.919,0,0,0-.058-.362.545.545,0,0,0-.132-.2.392.392,0,0,0-.163-.091.6.6,0,0,0-.138-.021h-.521Z" transform="translate(-46.658 -25.381)"/>
      </g>
      <g id="Group_631" data-name="Group 631" transform="translate(9.819 17.497)">
        <path id="Path_872" data-name="Path 872" class="cls-1" d="M22.7,35.574V30.123a.5.5,0,0,1,.13-.35.421.421,0,0,1,.634,0,.515.515,0,0,1,.126.35v5.451a.511.511,0,0,1-.126.35.417.417,0,0,1-.634,0A.5.5,0,0,1,22.7,35.574Z" transform="translate(-22.704 -29.563)"/>
        <path id="Path_873" data-name="Path 873" class="cls-1" d="M23.425,35.574V30.059l0-.008,0-.008v-.029l0-.012,0-.012a.322.322,0,0,1,.031-.089l.006-.006,0-.008.008-.008.006-.008.008-.021v-.008l.012-.016.027-.031.025-.033.016-.016h.006l0-.008,0-.006H23.6l.016-.008.01-.008.008-.008.014-.008.014-.008.008-.012.012-.008.01,0,.012,0,.01,0,.01,0,.016-.008h.021l.006-.006h.033l.014-.008h.095l.014.008h.039a.266.266,0,0,0,.051.019.1.1,0,0,1,.043.021h.008c0,.006,0,.01.014.012l.01.008.008.008.012.008.014.016h.008a.158.158,0,0,1,.058.064l.014.016.014.014,0,.008,0,.008.006.008.012.012.006.016,0,.012,0,.01.932,2.036.935-2.036.006-.023.008-.016.006-.012.008-.008.006-.016.014-.014.014-.016a.154.154,0,0,1,.062-.064l.014-.016h.006l.016-.008L26.3,29.7l.008-.008c.01,0,.014,0,.014-.012h.008a.047.047,0,0,1,.035-.021.124.124,0,0,0,.039-.012l.021-.006h.037l.008-.008h.1l.023.008h.029l.006.006h.023l.014.008.012,0,.008,0,.014.008h.008l.019.008v.012l.023.008.014.008.006.008.006.008.014.008.014.014a.015.015,0,0,1,.016.016.221.221,0,0,1,.06.064l.014.016v.008l.008.021.008.008.006.008.008.014c.01.027.016.058.027.089l.008.025v.029l.006.016v5.515a.5.5,0,0,1-.128.35.415.415,0,0,1-.632,0,.5.5,0,0,1-.128-.35V32.181L25.611,33.2a.436.436,0,0,1-.214.266.369.369,0,0,1-.183.047h-.029A.392.392,0,0,1,25,33.468a.422.422,0,0,1-.212-.266l-.467-1.021v3.392a.5.5,0,0,1-.13.35.412.412,0,0,1-.63,0A.506.506,0,0,1,23.425,35.574Z" transform="translate(-21.941 -29.563)"/>
        <path id="Path_874" data-name="Path 874" class="cls-1" d="M25.379,35.566V30.131a.5.5,0,0,1,.06-.251.462.462,0,0,1,.156-.175.446.446,0,0,1,.235-.076h1.062a.938.938,0,0,1,.541.177,1.513,1.513,0,0,1,.453.515,2.308,2.308,0,0,1,.247.622,2.866,2.866,0,0,1,.084.7,2.809,2.809,0,0,1-.084.7,2.494,2.494,0,0,1-.247.628,1.593,1.593,0,0,1-.451.51.954.954,0,0,1-.543.181h-.624v1.9a.5.5,0,0,1-.13.35.412.412,0,0,1-.63,0A.5.5,0,0,1,25.379,35.566Zm.889-2.89h.624a.187.187,0,0,0,.1-.054.851.851,0,0,0,.146-.183,1.428,1.428,0,0,0,.14-.373,1.7,1.7,0,0,0,.054-.42,1.654,1.654,0,0,0-.056-.424,1.624,1.624,0,0,0-.138-.377.767.767,0,0,0-.146-.175.187.187,0,0,0-.1-.054h-.624Z" transform="translate(-19.873 -29.563)"/>
        <path id="Path_875" data-name="Path 875" class="cls-1" d="M26.955,34.607V31.25a1.838,1.838,0,0,1,.148-.8,1.768,1.768,0,0,1,.3-.459,1.218,1.218,0,0,1,.918-.4,1.365,1.365,0,0,1,.5.1,1.294,1.294,0,0,1,.453.3,1.584,1.584,0,0,1,.325.519,1.963,1.963,0,0,1,.126.739v3.2c0,.031,0,.095,0,.185a1.6,1.6,0,0,1-.041.313,2.252,2.252,0,0,1-.119.377,1.272,1.272,0,0,1-.231.375,1.4,1.4,0,0,1-.375.307,1.245,1.245,0,0,1-.638.148,1.214,1.214,0,0,1-.634-.148,1.432,1.432,0,0,1-.368-.307,1.466,1.466,0,0,1-.226-.385,2.319,2.319,0,0,1-.111-.391A2.256,2.256,0,0,1,26.955,34.607Zm.889-.029a.85.85,0,0,0,.014.156,1.221,1.221,0,0,0,.045.169.391.391,0,0,0,.082.146.569.569,0,0,0,.1.076.426.426,0,0,0,.243.051.478.478,0,0,0,.272-.056.791.791,0,0,0,.1-.08.47.47,0,0,0,.084-.14,1.425,1.425,0,0,0,.043-.167,1.105,1.105,0,0,0,.019-.144l0-.089V31.258a.915.915,0,0,0-.058-.352.615.615,0,0,0-.134-.2.347.347,0,0,0-.165-.095.7.7,0,0,0-.163-.021.587.587,0,0,0-.142.021.372.372,0,0,0-.156.086.5.5,0,0,0-.128.2.957.957,0,0,0-.056.356v3.328Z" transform="translate(-18.205 -29.597)"/>
        <path id="Path_876" data-name="Path 876" class="cls-1" d="M28.508,35.561V30.127a.506.506,0,0,1,.132-.35.4.4,0,0,1,.313-.144h1.077a.927.927,0,0,1,.539.177,1.545,1.545,0,0,1,.455.506,2.635,2.635,0,0,1,.333,1.334,2.81,2.81,0,0,1-.086.7,2.494,2.494,0,0,1-.247.628,1.689,1.689,0,0,1-.154.222c-.056.066-.111.126-.163.179l.778,1.986a.533.533,0,0,1,.041.2.526.526,0,0,1-.031.177.457.457,0,0,1-.243.27.489.489,0,0,1-.177.045.414.414,0,0,1-.239-.078.531.531,0,0,1-.171-.22l-.821-2.089H29.4v1.892a.5.5,0,0,1-.13.35.412.412,0,0,1-.63,0A.506.506,0,0,1,28.508,35.561Zm.891-2.882h.63a.206.206,0,0,0,.1-.054.924.924,0,0,0,.144-.183,1.191,1.191,0,0,0,.144-.373,1.8,1.8,0,0,0,.049-.42,1.85,1.85,0,0,0-.049-.424,1.392,1.392,0,0,0-.144-.377.911.911,0,0,0-.144-.177.216.216,0,0,0-.1-.051H29.4Z" transform="translate(-16.561 -29.559)"/>
        <path id="Path_877" data-name="Path 877" class="cls-1" d="M30.026,30.127a.5.5,0,0,1,.132-.354.409.409,0,0,1,.315-.14h2.283a.409.409,0,0,1,.315.14.5.5,0,0,1,.13.354.508.508,0,0,1-.13.35.406.406,0,0,1-.315.144h-.688v4.94a.5.5,0,0,1-.13.35.412.412,0,0,1-.317.146.407.407,0,0,1-.313-.146.5.5,0,0,1-.13-.35v-4.94h-.706a.406.406,0,0,1-.315-.144A.51.51,0,0,1,30.026,30.127Z" transform="translate(-14.954 -29.559)"/>
        <path id="Path_878" data-name="Path 878" class="cls-1" d="M31.708,35.57V30.119a.508.508,0,0,1,.13-.35.41.41,0,0,1,.317-.144h1.813a.4.4,0,0,1,.315.144.549.549,0,0,1,0,.7.406.406,0,0,1-.315.14H32.6v2.075h.949a.406.406,0,0,1,.315.144.537.537,0,0,1,0,.7.408.408,0,0,1-.315.146H32.6v1.4h1.371a.405.405,0,0,1,.315.146.5.5,0,0,1,.128.348.5.5,0,0,1-.128.35.405.405,0,0,1-.315.146H32.155a.412.412,0,0,1-.317-.146A.5.5,0,0,1,31.708,35.57Z" transform="translate(-13.174 -29.567)"/>
        <path id="Path_879" data-name="Path 879" class="cls-1" d="M33.282,35.574V30.123a.508.508,0,0,1,.13-.35.41.41,0,0,1,.317-.144h.965a1.272,1.272,0,0,1,.93.393,2.017,2.017,0,0,1,.3.467,1.829,1.829,0,0,1,.146.8V34.4a1.829,1.829,0,0,1-.146.8,2.025,2.025,0,0,1-.3.463,1.286,1.286,0,0,1-.93.4h-.965a.412.412,0,0,1-.317-.146A.5.5,0,0,1,33.282,35.574Zm.891-.494h.519a.586.586,0,0,0,.138-.021.36.36,0,0,0,.163-.091.544.544,0,0,0,.132-.2.919.919,0,0,0,.058-.362V31.292a.919.919,0,0,0-.058-.362.562.562,0,0,0-.132-.2.38.38,0,0,0-.163-.091.586.586,0,0,0-.138-.021h-.519Z" transform="translate(-11.508 -29.563)"/>
      </g>
      <g id="Group_632" data-name="Group 632" transform="translate(37.933 17.49)">
        <path id="Path_880" data-name="Path 880" class="cls-1" d="M36.362,35.574V30.123a.508.508,0,0,1,.13-.35.421.421,0,0,1,.634,0,.516.516,0,0,1,.128.35v5.451a.513.513,0,0,1-.128.35.417.417,0,0,1-.634,0A.5.5,0,0,1,36.362,35.574Z" transform="translate(-36.362 -29.557)"/>
        <path id="Path_881" data-name="Path 881" class="cls-1" d="M37.1,35.574V30.051l.008-.008v-.037l.01-.016v-.006l0-.008,0-.008,0-.012,0-.012,0-.012,0-.012,0-.008,0-.008v-.006l.014-.016,0-.008,0-.008.008-.012v-.008l.008-.016h.006l0-.008,0-.006h.006l.008-.016.014-.016v-.008l.014-.008v-.008l.014-.008h.01l.014-.014.014-.016H37.3l.008-.008.006,0,.008,0h.006l.014-.021a.262.262,0,0,1,.1-.039h.006a.486.486,0,0,1,.109-.008H37.6l.006.008h.037l.008.006h.023l.012.008.023.008.014.008h.01l.014.008v.012l.016.008h0l.008,0,.006,0,.008.008.008.008.006.008h.008l.014.006v.008l.008,0,.006,0v.008l.008,0,0,0v.008l.016.016.019.016.014.014.006.016.008.008.008.012.006.016v.008l.006.014h.006l0,.021,0,.012,1.268,3.252V30.123a.508.508,0,0,1,.13-.35.416.416,0,0,1,.63,0,.508.508,0,0,1,.13.35v5.525l-.008.006v.037l-.006.016v.008l0,.008,0,.008,0,.01,0,.012,0,.012,0,.012,0,.008,0,.008V35.8l-.006.008-.008.006-.008.016-.01.008v.008l-.008.012-.006.008,0,.008,0,.008h-.006L40,35.905l-.012.014-.014.016-.016.016H39.95l-.014.016-.016.008-.006.008-.006.006L39.9,36l-.012,0h-.006l-.016.016-.049.027a.422.422,0,0,1-.06.019.309.309,0,0,1-.091.008.177.177,0,0,1-.064-.008h-.027l-.006-.008H39.54v-.008h-.014l-.037-.021-.006-.008h-.006l-.008-.008L39.454,36l-.006-.008h-.008l-.008,0-.01,0a.441.441,0,0,1-.13-.158v-.008l-.006-.006-.008-.008V35.8l-.01-.016-.008-.016-1.266-3.252v3.063a.5.5,0,0,1-.13.35.412.412,0,0,1-.63,0A.506.506,0,0,1,37.1,35.574Z" transform="translate(-35.58 -29.557)"/>
        <path id="Path_882" data-name="Path 882" class="cls-1" d="M38.823,34.619v-.084c0-.049,0-.091,0-.117V31.253a1.782,1.782,0,0,1,.148-.8,1.914,1.914,0,0,1,.3-.465,1.216,1.216,0,0,1,.918-.393,1.252,1.252,0,0,1,.92.377,1.988,1.988,0,0,1,.311.469,1.864,1.864,0,0,1,.152.813.5.5,0,0,1-.132.354.4.4,0,0,1-.317.14.41.41,0,0,1-.313-.138.5.5,0,0,1-.13-.356,1.082,1.082,0,0,0-.045-.336.593.593,0,0,0-.115-.206.354.354,0,0,0-.161-.1.561.561,0,0,0-.171-.029.533.533,0,0,0-.138.021.367.367,0,0,0-.159.091.576.576,0,0,0-.128.2.905.905,0,0,0-.056.36v3.2l-.008.016c0,.025,0,.064,0,.109a1.22,1.22,0,0,0,.016.158,1.049,1.049,0,0,0,.045.171.447.447,0,0,0,.082.148.571.571,0,0,0,.093.076.44.44,0,0,0,.247.051.5.5,0,0,0,.272-.056.969.969,0,0,0,.1-.08.462.462,0,0,0,.08-.14c.019-.058.035-.113.047-.169a.566.566,0,0,0,.021-.146V33.67H40.4a.406.406,0,0,1-.315-.144.547.547,0,0,1,0-.7.411.411,0,0,1,.319-.144h1.21v1.785c0,.031,0,.095,0,.189a1.786,1.786,0,0,1-.041.317,2.487,2.487,0,0,1-.113.379,1.267,1.267,0,0,1-.226.377,1.492,1.492,0,0,1-.385.3,1.236,1.236,0,0,1-.642.148,1.189,1.189,0,0,1-.634-.15,1.432,1.432,0,0,1-.364-.3,1.372,1.372,0,0,1-.226-.387,2.411,2.411,0,0,1-.113-.393A2.065,2.065,0,0,1,38.823,34.619Z" transform="translate(-33.757 -29.594)"/>
        <path id="Path_883" data-name="Path 883" class="cls-1" d="M40.425,35.561V30.127a.506.506,0,0,1,.132-.35.4.4,0,0,1,.313-.144h1.077a.927.927,0,0,1,.539.177,1.545,1.545,0,0,1,.455.506,2.635,2.635,0,0,1,.333,1.334,2.81,2.81,0,0,1-.086.7,2.494,2.494,0,0,1-.247.628,1.689,1.689,0,0,1-.154.222c-.056.066-.111.126-.163.179l.778,1.986a.533.533,0,0,1,.041.2.525.525,0,0,1-.031.177.457.457,0,0,1-.243.27.489.489,0,0,1-.177.045.413.413,0,0,1-.239-.078.53.53,0,0,1-.171-.22l-.821-2.089h-.445v1.892a.5.5,0,0,1-.13.35.412.412,0,0,1-.63,0A.506.506,0,0,1,40.425,35.561Zm.891-2.882h.63a.206.206,0,0,0,.1-.054.924.924,0,0,0,.144-.183,1.191,1.191,0,0,0,.144-.373,1.8,1.8,0,0,0,.049-.42,1.85,1.85,0,0,0-.049-.424,1.392,1.392,0,0,0-.144-.377.911.911,0,0,0-.144-.177.216.216,0,0,0-.1-.051h-.63Z" transform="translate(-32.062 -29.553)"/>
        <path id="Path_884" data-name="Path 884" class="cls-1" d="M42.128,35.57V30.119a.508.508,0,0,1,.13-.35.409.409,0,0,1,.315-.144h1.816a.4.4,0,0,1,.315.144.549.549,0,0,1,0,.7.406.406,0,0,1-.315.14H43.017v2.075h.949a.406.406,0,0,1,.315.144.537.537,0,0,1,0,.7.408.408,0,0,1-.315.146h-.949v1.4h1.371a.405.405,0,0,1,.315.146.5.5,0,0,1,.128.348.5.5,0,0,1-.128.35.405.405,0,0,1-.315.146H42.573a.411.411,0,0,1-.315-.146A.5.5,0,0,1,42.128,35.57Z" transform="translate(-30.259 -29.561)"/>
        <path id="Path_885" data-name="Path 885" class="cls-1" d="M43.7,35.574V30.123a.508.508,0,0,1,.13-.35.41.41,0,0,1,.317-.144h.965a1.272,1.272,0,0,1,.93.393,2.017,2.017,0,0,1,.3.467,1.829,1.829,0,0,1,.146.8V34.4a1.829,1.829,0,0,1-.146.8,2.025,2.025,0,0,1-.3.463,1.286,1.286,0,0,1-.93.4h-.965a.412.412,0,0,1-.317-.146A.5.5,0,0,1,43.7,35.574Zm.889-.494h.521a.6.6,0,0,0,.138-.021.36.36,0,0,0,.163-.091.545.545,0,0,0,.132-.2A.919.919,0,0,0,45.6,34.4V31.292a.919.919,0,0,0-.058-.362.562.562,0,0,0-.132-.2.38.38,0,0,0-.163-.091.6.6,0,0,0-.138-.021h-.521Z" transform="translate(-28.593 -29.557)"/>
        <path id="Path_886" data-name="Path 886" class="cls-1" d="M45.361,35.574V30.123a.5.5,0,0,1,.132-.35.4.4,0,0,1,.313-.144.405.405,0,0,1,.319.144.516.516,0,0,1,.128.35v5.451a.513.513,0,0,1-.128.35.407.407,0,0,1-.319.146.4.4,0,0,1-.313-.146A.5.5,0,0,1,45.361,35.574Z" transform="translate(-26.837 -29.557)"/>
        <path id="Path_887" data-name="Path 887" class="cls-1" d="M46.133,35.57V30.119a.51.51,0,0,1,.132-.35.409.409,0,0,1,.315-.144H48.4a.4.4,0,0,1,.313.144.543.543,0,0,1,0,.7.4.4,0,0,1-.313.14H47.024v2.075h.949a.4.4,0,0,1,.313.144.531.531,0,0,1,0,.7.4.4,0,0,1-.313.146h-.949v1.4H48.4a.4.4,0,0,1,.313.146.5.5,0,0,1,.13.348.5.5,0,0,1-.13.35.4.4,0,0,1-.313.146H46.58a.411.411,0,0,1-.315-.146A.506.506,0,0,1,46.133,35.57Z" transform="translate(-26.02 -29.561)"/>
        <path id="Path_888" data-name="Path 888" class="cls-1" d="M47.708,35.574V30.051l.008-.008v-.037l.008-.016v-.006l0-.008,0-.008,0-.012,0-.012,0-.012,0-.012,0-.008,0-.008v-.006l.014-.016,0-.008,0-.008.008-.012v-.008l.008-.016H47.8l0-.008,0-.006h0l.008-.016.014-.016v-.008l.014-.008v-.008l.016-.008h.01l.014-.014.012-.016h.008l.008-.008.006,0,.008,0h.006l.016-.021a.241.241,0,0,1,.1-.039h.006a.465.465,0,0,1,.107-.008h.035l.006.008h.035l.008.006h.023l.014.008.023.008.012.008h.01l.014.008v.012l.016.008h.006l.008,0,.006,0,.008.008.008.008,0,.008h.008l.014.006v.008l.008,0,.006,0v.008l.008,0,.006,0v.008l.016.016.016.016.014.014.006.016.008.008.008.012.006.016v.008l.008.014h.006l0,.021,0,.012,1.266,3.252V30.123a.508.508,0,0,1,.13-.35.416.416,0,0,1,.63,0,.51.51,0,0,1,.132.35v5.525l-.008.006v.037l-.006.016v.008l0,.008,0,.008,0,.01,0,.012,0,.012,0,.012,0,.008,0,.008V35.8l-.006.008-.008.006-.008.016-.01.008v.008l-.006.012-.006.008,0,.008,0,.008h-.006l-.008.016-.014.014-.014.016-.016.016h-.006l-.012.016-.016.008-.006.008-.008.006-.006,0-.012,0h-.006l-.016.016-.049.027a.482.482,0,0,1-.058.019.327.327,0,0,1-.091.008.164.164,0,0,1-.064-.008h-.027l-.006-.008h-.031v-.008h-.014l-.035-.021-.006-.008h-.008l-.008-.008L50.059,36l-.006-.008h-.008l-.006,0-.01,0a.446.446,0,0,1-.132-.158v-.008l-.006-.006-.008-.008V35.8l-.01-.016-.006-.016L48.6,32.511v3.063a.5.5,0,0,1-.128.35.415.415,0,0,1-.632,0A.5.5,0,0,1,47.708,35.574Z" transform="translate(-24.353 -29.557)"/>
        <path id="Path_889" data-name="Path 889" class="cls-1" d="M49.277,30.127a.5.5,0,0,1,.132-.354.409.409,0,0,1,.315-.14h2.283a.409.409,0,0,1,.315.14.5.5,0,0,1,.13.354.508.508,0,0,1-.13.35.406.406,0,0,1-.315.144h-.688v4.94a.5.5,0,0,1-.13.35.412.412,0,0,1-.317.146.407.407,0,0,1-.313-.146.5.5,0,0,1-.13-.35v-4.94h-.706a.406.406,0,0,1-.315-.144A.51.51,0,0,1,49.277,30.127Z" transform="translate(-22.692 -29.553)"/>
        <path id="Path_890" data-name="Path 890" class="cls-1" d="M50.873,34.5a.516.516,0,0,1,.128-.35A.418.418,0,0,1,51.32,34a.412.412,0,0,1,.319.144.523.523,0,0,1,.124.35,1.313,1.313,0,0,0,.021.237.655.655,0,0,0,.076.218.422.422,0,0,0,.173.161.651.651,0,0,0,.307.06.8.8,0,0,0,.249-.035.485.485,0,0,0,.2-.113.691.691,0,0,0,.177-.519,1.44,1.44,0,0,0-.06-.443,1.233,1.233,0,0,0-.173-.35,1.84,1.84,0,0,0-.282-.3l-.371-.309c-.128-.1-.253-.2-.381-.311a2.587,2.587,0,0,1-.354-.364,2.218,2.218,0,0,1-.292-.55,1.823,1.823,0,0,1-.1-.622c0-.031,0-.093,0-.179a1.8,1.8,0,0,1,.037-.3,2.034,2.034,0,0,1,.113-.364,1.33,1.33,0,0,1,.6-.667,1.271,1.271,0,0,1,.648-.146,1.189,1.189,0,0,1,.65.152,1.566,1.566,0,0,1,.368.3,1.365,1.365,0,0,1,.21.4,1.805,1.805,0,0,1,.093.387,1.465,1.465,0,0,1,.016.241v.068a1.01,1.01,0,0,1-.016.159.553.553,0,0,1-.091.245.451.451,0,0,1-.158.152.272.272,0,0,1-.144.035.543.543,0,0,1-.124-.014.443.443,0,0,1-.243-.119.483.483,0,0,1-.1-.181.57.57,0,0,1-.023-.169c0-.049,0-.08,0-.091a.357.357,0,0,0,.008-.091.678.678,0,0,0-.012-.124.584.584,0,0,0-.031-.132.437.437,0,0,0-.06-.115.393.393,0,0,0-.344-.121.485.485,0,0,0-.274.056,1.025,1.025,0,0,0-.1.08.36.36,0,0,0-.076.134.853.853,0,0,0-.043.148.866.866,0,0,0-.019.128l0,.078v.031a.834.834,0,0,0,.051.3,1.043,1.043,0,0,0,.144.255,1.694,1.694,0,0,0,.235.239l.319.257.426.358a2.8,2.8,0,0,1,.4.434,2.38,2.38,0,0,1,.438,1.422,2.059,2.059,0,0,1-.049.457,2.308,2.308,0,0,1-.119.36,1.367,1.367,0,0,1-.158.272,1.92,1.92,0,0,1-.177.2,1.464,1.464,0,0,1-1.009.371,1.6,1.6,0,0,1-.541-.091,1.182,1.182,0,0,1-.443-.28.978.978,0,0,1-.169-.189,1.541,1.541,0,0,1-.154-.272,1.664,1.664,0,0,1-.115-.362A2.313,2.313,0,0,1,50.873,34.5Z" transform="translate(-21.003 -29.594)"/>
      </g>
    </g>
    <path id="Path_891" data-name="Path 891" class="cls-1" d="M50.815,15.221H37.845a1.1,1.1,0,0,1-1.1-1.1V12.825a1.1,1.1,0,0,1,1.1-1.1h12.97a1.1,1.1,0,0,1,1.1,1.1V14.12a1.1,1.1,0,0,1-1.1,1.1" transform="translate(36.289 10.533)"/>
    <path id="Path_892" data-name="Path 892" class="cls-1" d="M50.815,18.305H37.845a1.1,1.1,0,0,1-1.1-1.1V15.909a1.1,1.1,0,0,1,1.1-1.1h12.97a1.1,1.1,0,0,1,1.1,1.1V17.2a1.1,1.1,0,0,1-1.1,1.1" transform="translate(36.289 13.798)"/>
    <path id="Path_893" data-name="Path 893" class="cls-1" d="M57.149,21.39H31.863a1.1,1.1,0,0,1-1.1-1.1V18.994a1.1,1.1,0,0,1,1.1-1.1H57.149a1.1,1.1,0,0,1,1.1,1.1v1.295a1.1,1.1,0,0,1-1.1,1.1" transform="translate(29.956 17.063)"/>
    <path id="Path_894" data-name="Path 894" class="cls-1" d="M39.667,11.724h-7.9a1.015,1.015,0,0,0-1.013,1.013v7.822a1.015,1.015,0,0,0,1.013,1.013h7.9a1.013,1.013,0,0,0,1.013-1.013V12.737a1.013,1.013,0,0,0-1.013-1.013m-5.79,7.622a.945.945,0,1,1,.945-.945.943.943,0,0,1-.945.945m0-3.508a.945.945,0,1,1,.945-.945.944.944,0,0,1-.945.945m3.683,3.508A.945.945,0,1,1,38.5,18.4a.945.945,0,0,1-.945.945m0-3.508a.945.945,0,1,1,.945-.945.946.946,0,0,1-.945.945" transform="translate(29.951 10.533)"/>
  </g>
</svg>
