<svg xmlns="http://www.w3.org/2000/svg" width="49.58" height="48.735" viewBox="0 0 49.58 48.735">
  <defs>
    <style>
      .cls-1 {
        fill: #008a9f;
      }
    </style>
  </defs>
  <g id="Icon_Multi-Purpose_Solution" data-name="Icon_Multi-Purpose Solution" transform="translate(-67.488 -257.711)">
    <path id="Path_979" data-name="Path 979" class="cls-1" d="M123.888,288.725c-1.108-1.224-2.153-2.38-3.278-3.475-1.055-1.027-2.113-1.963-3.177-2.821l-1.74,1.741a46.788,46.788,0,0,1,6.488,6.2.819.819,0,0,1,.078.117l.023.038c-.26.278-.518.558-.776.837-.6.655-1.226,1.332-1.866,1.962a37.157,37.157,0,0,1-9.137,6.823,19.338,19.338,0,0,1-10.291,2.375,17.91,17.91,0,0,1-2.511-.361l-2.047,2.047a19.471,19.471,0,0,0,5.654.848,21.549,21.549,0,0,0,8.6-1.872,34.615,34.615,0,0,0,10.787-7.462c1.088-1.094,2.12-2.225,3.213-3.422.328-.359.658-.721,1-1.087a1.036,1.036,0,0,0,0-1.374Q124.387,289.278,123.888,288.725Z" transform="translate(-10.152 -8.909)"/>
    <path id="Path_980" data-name="Path 980" class="cls-1" d="M109.678,301.892a9.781,9.781,0,0,0,3.709-9.781l-2.2,2.2a7.961,7.961,0,0,1-3.793,6.328,7.542,7.542,0,0,1-3.558,1.023l-2.224,2.224a9.811,9.811,0,0,0,1.872.185A9.985,9.985,0,0,0,109.678,301.892Z" transform="translate(-12.298 -12.399)"/>
    <path id="Path_981" data-name="Path 981" class="cls-1" d="M116.6,258.179a1.6,1.6,0,0,0-2.261,0l-11.995,11.995a29.034,29.034,0,0,0-4.3-1.979,20.141,20.141,0,0,0-15.412.7,35.061,35.061,0,0,0-10.585,7.356c-1.115,1.112-2.166,2.254-3.279,3.465q-.5.548-1.016,1.1a1.034,1.034,0,0,0-.035,1.342l.316.381c.535.643,1.039,1.252,1.559,1.836a39.744,39.744,0,0,0,10.147,8.4L68.8,303.717a1.6,1.6,0,0,0,2.261,2.261L116.6,260.44A1.6,1.6,0,0,0,116.6,258.179ZM85.634,286.885a7.691,7.691,0,0,1,5.549-13.014,8.2,8.2,0,0,1,1.522.144,4.857,4.857,0,0,0,.5,5.3Zm9.259-9.259a2.869,2.869,0,0,1-.2-.424,2.489,2.489,0,0,1,.645-2.773c.074-.072.148-.145.224-.216a1.153,1.153,0,0,0-.354-1.907,10.084,10.084,0,0,0-11.338,16.186c.026.027.054.049.08.076l-2.374,2.374a39.69,39.69,0,0,1-11.262-9.366l.223-.264c.217-.259.429-.512.648-.755A38.353,38.353,0,0,1,82.1,271.883a19.03,19.03,0,0,1,10.236-2.366,20.31,20.31,0,0,1,7.959,2.356c.077.039.152.084.227.125Z"/>
  </g>
</svg>
