<svg xmlns="http://www.w3.org/2000/svg" width="51.233" height="45.444" viewBox="0 0 51.233 45.444">
  <defs>
    <style>
      .cls-1 {
        fill: #008a9f;
      }
    </style>
  </defs>
  <g id="Icon_4_Premium_Naturally_Inspired_Ingredients_" data-name="Icon_4_Premium, Naturally Inspired Ingredients " transform="translate(-56.286 -33.674)">
    <path id="Path_975" data-name="Path 975" class="cls-1" d="M98.436,57.49a.6.6,0,0,0,1.13-.13,33.455,33.455,0,0,1,1.318-3.982q.168-.428.346-.855l2.608-1.161.41-.183a.59.59,0,0,0-.442-1.094l-1.852.824a19.158,19.158,0,0,1,2.918-4.518c.508-.567-.419-1.3-.924-.734a20.088,20.088,0,0,0-3.055,4.735l-.515-1.74a.6.6,0,0,0-.768-.326.6.6,0,0,0-.326.768l.871,2.942c-.12.288-.238.577-.351.866-.337.86-.649,1.737-.929,2.622L97.831,53.1c-.3-.7-1.4-.259-1.094.442Z" transform="translate(-21.333 -6.221)"/>
    <path id="Path_976" data-name="Path 976" class="cls-1" d="M106.7,38.36a44.371,44.371,0,0,0-14.038.331,19.564,19.564,0,0,0-4.435,1.5q-.214-.861-.46-1.71a36.723,36.723,0,0,0-1.482-4.267.9.9,0,0,0-1.152-.489,36.223,36.223,0,0,0-10.256,5.232,12.953,12.953,0,0,0-4.313,5.4,8.544,8.544,0,0,0-.5,2.13.691.691,0,0,0-.08.017,13.566,13.566,0,0,0-4.678,3.04,44.633,44.633,0,0,0-4.185,4.4c-.848,1-1.676,2.03-2.456,3.088a8.649,8.649,0,0,0-.918,1.836c-1.74,4.166-2.146,9.052.049,13.135a13.691,13.691,0,0,0,10.779,7.04,10.8,10.8,0,0,0,4.277-.363l8.142-2.462,8.081-2.444c2.026-.613,5.1-.971,5.3-3.583a3.429,3.429,0,0,0-.1-1.071c-.022-.087-.049-.172-.078-.256-.015-.042-.052-.168-.074-.242a2.8,2.8,0,0,0-.9-1.366c.41-.134.821-.268,1.228-.41a3.255,3.255,0,0,0,2.022-4.271c-.023-.06-.05-.115-.075-.174,0-.033-.05-.245-.056-.26a2.877,2.877,0,0,0-.4-.738,2.759,2.759,0,0,0-.208-.241l.3-.094.022-.007a15.168,15.168,0,0,0,2.721-.687c2.225-.79,3.846-3.143,4.9-5.138A33.62,33.62,0,0,0,106.8,45.38a45.461,45.461,0,0,0,.723-6.075A.9.9,0,0,0,106.7,38.36ZM71.751,47.225c.013-.183.024-.365.046-.547a9.435,9.435,0,0,1,.213-1.091,9.061,9.061,0,0,1,1.079-2.254,12.521,12.521,0,0,1,2.189-2.413,31.184,31.184,0,0,1,9.687-5.243,35.164,35.164,0,0,1,1.682,5.417,11.605,11.605,0,0,0-1.6,1.272A10.868,10.868,0,0,0,81.8,49.573l-4.885,2.745-2.189,1.23c-.173-.086-.345-.174-.515-.266-.04-.044-.081-.088-.12-.133-.233-.269-.452-.55-.657-.84q-.209-.3-.4-.6c-.051-.084-.1-.168-.15-.253,0-.011-.13-.238-.165-.305a9.844,9.844,0,0,1-.683-1.691c-.023-.077-.043-.154-.065-.231l-.006-.021-.009-.044c-.036-.172-.074-.343-.1-.516a7.976,7.976,0,0,1-.1-1.054c0-.088,0-.177,0-.265,0-.018,0-.028,0-.035S71.748,47.254,71.751,47.225Zm11.977,1.032v0C83.736,48.211,83.758,48.115,83.728,48.257ZM72.173,53.565a9.551,9.551,0,0,0,.808.964l-1.7.953A5.03,5.03,0,0,1,72.173,53.565Zm25.606,4.29c-.137.957-1,1.131-1.783,1.377l-.369.116-4.912,1.539-2.424.76c-3.211,1.006-6.442,1.963-9.637,3.02-.061.02-.123.039-.185.058-1.083.339-.621,2.048.471,1.707l.111-.035,8.712-2.73L93.3,61.93a1.688,1.688,0,0,1,1.043.352,1.083,1.083,0,0,1,.312.431c.056.138.233.789.084.323a3.762,3.762,0,0,1,.16.6c-.007,0,.008.312,0,.383a1.673,1.673,0,0,1-.07.325,1.252,1.252,0,0,1-.286.423,2.721,2.721,0,0,1-.552.373c-.869.345-1.8.565-2.7.845l-3.428,1.074L80.33,69.42l.02.047a.884.884,0,0,0,.578,1.663l6.9-2.06c.849-.253,1.709-.483,2.55-.761.021-.007.045,0,.066-.01l-.054.015a.873.873,0,0,1,.118-.014,5.939,5.939,0,0,1,.766.011,1.313,1.313,0,0,1,1.23,1.071c.024.1.067.292.081.357,0,.022.008.033.01.045s0,.024,0,.045c0,.061.006.121.006.182a.857.857,0,0,1-.087.454c-.248.57-.823.676-1.379.845l-2.069.625L82.305,73.98,73.75,76.567c-.71.214-1.417.453-2.133.645-.075.02-.152.034-.226.054h0l.058-.007-.059.007c-.062.016-.214.026-.059.007l-.095.011c-.216.02-.432.039-.648.05a12.061,12.061,0,0,1-9.05-3.294,11.368,11.368,0,0,1-3.383-6.5,14.619,14.619,0,0,1,.6-6.264A13.07,13.07,0,0,1,60.006,58.2a3.755,3.755,0,0,1,.228-.327c.355-.474.444-.588.8-1.043A35.43,35.43,0,0,1,68.568,49.2a10.084,10.084,0,0,1,1.141-.668l1.349,3.6a6.565,6.565,0,0,0-1.641,4.919.9.9,0,0,0,1.332.764l4.068-2.286,2.046-1.15L81.81,51.6l1.715-.964,1.78-1,1.937-1.088.647-.363c.069-.039.144-.075.21-.118l.012-.008a5.388,5.388,0,0,1,.8-.218c.044-.007.089-.014.133-.018a1.153,1.153,0,0,1,.981.292c.006.006.009.012.015.018a1.859,1.859,0,0,1,.537,1.475,1.969,1.969,0,0,1-.65,1.247c-.084.084-.172.166-.263.243-.07.06-.143.117-.216.175l-.055.042-.2.154c-.159.119-.324.229-.484.346q-.577.423-1.162.833-1.257.881-2.529,1.739l-.479.321c-.493.332-.988.661-1.481.992l-.141.094q-3.052,2.043-6.13,4.049c-.807.525-.316,1.933.682,1.617l7.8-2.471.849-.269,2.2-.7,6.713-2.127c.111-.035.228-.064.336-.107l.032-.013c.7-.038,1.481-.108,1.953.445a1.658,1.658,0,0,1,.287.648s0,0,0,.022a1.1,1.1,0,0,0,.053.155A1.809,1.809,0,0,1,97.779,57.855Zm7.486-14.03a36.865,36.865,0,0,1-2.427,9.077,15.491,15.491,0,0,1-2.408,4.021,10.56,10.56,0,0,1-.891.931,3.547,3.547,0,0,0-.151-1.282c-.033-.1-.084-.2-.115-.3-.07-.23,0-.08.01-.039-.019-.066-.041-.131-.061-.2a2.764,2.764,0,0,0-.249-.557,2.919,2.919,0,0,0-1.486-1.223,4.51,4.51,0,0,0-2.522-.192c-.8.183-1.6.5-2.381.75L86.92,56.6l-.431.137-1.962.622-1.494.473,1.183-.789c.313-.209.626-.416.938-.626l.569-.386q1.607-1.083,3.188-2.2c.3-.217.614-.427.915-.648a12.673,12.673,0,0,0,1.309-1.057q.149-.144.286-.3c.619-.643,1.249-1.275,1.9-1.883q.427-.4.866-.789l3.564.1.543.016a.6.6,0,0,0,.631-.547.6.6,0,0,0-.547-.63l-2.849-.082a24.066,24.066,0,0,1,5.943-3.7c.7-.291.168-1.344-.531-1.054a24.907,24.907,0,0,0-6.133,3.816l.406-2.526a.6.6,0,0,0-.547-.631.6.6,0,0,0-.63.547q-.3,1.891-.608,3.781-.452.4-.893.813c-.072.067-.141.137-.212.2a3.745,3.745,0,0,0-.316-1.285,3.11,3.11,0,0,0-1.875-1.8,3.17,3.17,0,0,0-1.048-.13,4.666,4.666,0,0,0-1.559.342c-.062.025-.121.056-.182.083-.514.231-1,.542-1.487.816l-2.178,1.224q.021-.126.044-.251c.009-.042.017-.084.028-.126.051-.211.1-.422.164-.631a9.779,9.779,0,0,1,.445-1.21c.032-.073.067-.145.1-.217.014-.025.092-.181.108-.21q.171-.318.367-.622.183-.285.387-.555c.07-.092.141-.184.214-.274.044-.055.089-.109.134-.162l.01-.012.029-.032a10.338,10.338,0,0,1,1.3-1.2,11.4,11.4,0,0,1,1.608-1.044,15.582,15.582,0,0,1,3.369-1.3,38.846,38.846,0,0,1,13.712-.636C105.611,41.305,105.454,42.571,105.265,43.825Z"/>
  </g>
</svg>
