<svg xmlns="http://www.w3.org/2000/svg" width="57.866" height="35.51" viewBox="0 0 57.866 35.51">
  <defs>
    <style>
      .cls-1 {
        fill: #008a9f;
      }
    </style>
  </defs>
  <g id="Icon_pH_Balance_Solution" data-name="Icon_pH Balance Solution" transform="translate(-66.934 -172.521)">
    <path id="Path_977" data-name="Path 977" class="cls-1" d="M106.221,205.752a42.135,42.135,0,0,0,13.135-9.087c1.326-1.334,2.586-2.712,3.917-4.171q.6-.653,1.207-1.319a1.261,1.261,0,0,0,0-1.673c-.418-.457-.829-.911-1.236-1.361-1.347-1.489-2.621-2.9-3.989-4.227a42.243,42.243,0,0,0-15.114-9.92,24.524,24.524,0,0,0-18.769.855,42.659,42.659,0,0,0-12.888,8.958c-1.36,1.357-2.643,2.752-4,4.228q-.609.662-1.227,1.332A1.258,1.258,0,0,0,67.214,191l.409.491c.643.773,1.249,1.5,1.875,2.207,5.569,6.259,11.462,10.463,18.012,12.85a23.913,23.913,0,0,0,8.246,1.481A26.248,26.248,0,0,0,106.221,205.752ZM85.41,202.4a47.389,47.389,0,0,1-15.035-12.115l.277-.329c.262-.312.518-.618.783-.912a46.656,46.656,0,0,1,13.289-10.562A23.2,23.2,0,0,1,97.188,175.6a24.755,24.755,0,0,1,9.693,2.869,48.882,48.882,0,0,1,14.29,11.675,1.049,1.049,0,0,1,.094.14l.03.05c-.314.335-.625.674-.937,1.011-.736.8-1.5,1.627-2.279,2.4a45.282,45.282,0,0,1-11.127,8.309,23.529,23.529,0,0,1-12.533,2.893A24.023,24.023,0,0,1,85.41,202.4Z"/>
    <path id="Path_978" data-name="Path 978" class="cls-1" d="M112.317,188.459a1.371,1.371,0,0,0-.938-.965,1.4,1.4,0,0,0-1.346.292l-.253.224a2.781,2.781,0,0,1-2.132.675,3.121,3.121,0,0,1-2.871-2.173,3.064,3.064,0,0,1,.784-3.377c.09-.088.18-.175.273-.262a1.4,1.4,0,0,0-.431-2.322,12.323,12.323,0,1,0,2.645,20.928A12,12,0,0,0,112.317,188.459Zm-9.108.943a5.909,5.909,0,0,0,6.594,1.755c.57,3.5-1.845,7.207-4.542,8.8A9.467,9.467,0,0,1,94.2,198.764a9.373,9.373,0,0,1,6.3-16.307,9.985,9.985,0,0,1,1.854.175A5.911,5.911,0,0,0,103.208,189.4Z" transform="translate(-4.712 -1.552)"/>
  </g>
</svg>
