<svg xmlns="http://www.w3.org/2000/svg" width="30.89" height="42.896" viewBox="0 0 30.89 42.896">
  <defs>
    <style>
      .cls-1 {
        fill: #008a9f;
      }
    </style>
  </defs>
  <path id="Icon_Sodium" class="cls-1" d="M109.718,396.2a57.236,57.236,0,0,0-3.5-6.952A133.543,133.543,0,0,0,98.372,377.4c-.6-.815-1.2-1.629-1.819-2.427a.986.986,0,0,0-1.651,0c-1.721,2.216-3.348,4.508-4.928,6.822a83.745,83.745,0,0,0-7.814,13.415,20.182,20.182,0,0,0-1.836,6.145,14.608,14.608,0,0,0,2.116,8.537,15.454,15.454,0,0,0,28.516-5.326,16.79,16.79,0,0,0,.21-2.507A16.029,16.029,0,0,0,109.718,396.2Zm-9.988,18.76a13.673,13.673,0,0,1-15.243-5.388,13.2,13.2,0,0,1-2.274-7.9,10.977,10.977,0,0,1,.457-2.392,25.338,25.338,0,0,1,1.084-2.988,78.791,78.791,0,0,1,7.315-12.727q1.7-2.529,3.5-4.994c.376-.516.785-1.021,1.177-1.536,1.371,1.816,2.688,3.673,3.971,5.548a86.1,86.1,0,0,1,7.792,13.277,26.015,26.015,0,0,1,1.258,3.367,9.807,9.807,0,0,1,.483,2.835A13.63,13.63,0,0,1,99.73,414.961Z" transform="translate(-80.276 -374.524)"/>
</svg>
