<svg xmlns="http://www.w3.org/2000/svg" width="113.754" height="92.895" viewBox="0 0 113.754 92.895">
  <defs>
    <style>
      .cls-1 {
        fill: #d77a41;
      }
    </style>
  </defs>
  <g id="Icon_3_PH_Balance" data-name="Icon_3_PH Balance" transform="translate(-333.134 -407.393)">
    <g id="Group_642" data-name="Group 642" transform="translate(333.134 407.393)">
      <g id="Group_638" data-name="Group 638" transform="translate(85.855 18.232)">
        <path id="Path_955" data-name="Path 955" class="cls-1" d="M450.331,442.031a1.12,1.12,0,0,0-.573-.128,1.5,1.5,0,0,0-1.053.436,1.547,1.547,0,0,0-.436,1.053v1.994a1.536,1.536,0,0,0,.436,1.053,1.65,1.65,0,0,0,1.053.436,1.5,1.5,0,0,0,1.053-.436,1.55,1.55,0,0,0,.436-1.053v-1.994a1.536,1.536,0,0,0-.436-1.053A1.118,1.118,0,0,0,450.331,442.031Z" transform="translate(-442.682 -432.725)"/>
        <path id="Path_956" data-name="Path 956" class="cls-1" d="M450.331,430.477a1.12,1.12,0,0,0-.573-.128,1.506,1.506,0,0,0-1.053.436,1.547,1.547,0,0,0-.436,1.053v2a1.536,1.536,0,0,0,.436,1.052,1.113,1.113,0,0,0,.479.308,1.127,1.127,0,0,0,.574.129,1.5,1.5,0,0,0,1.053-.437,1.547,1.547,0,0,0,.436-1.052v-2a1.536,1.536,0,0,0-.436-1.053A1.118,1.118,0,0,0,450.331,430.477Z" transform="translate(-442.682 -430.348)"/>
        <path id="Path_957" data-name="Path 957" class="cls-1" d="M444.719,437.382h-2a1.536,1.536,0,0,0-1.052.436,1.113,1.113,0,0,0-.308.479,1.135,1.135,0,0,0-.129.574,1.5,1.5,0,0,0,.437,1.053,1.547,1.547,0,0,0,1.052.436h2a1.536,1.536,0,0,0,1.053-.436,1.655,1.655,0,0,0,.436-1.053,1.5,1.5,0,0,0-.436-1.053A1.547,1.547,0,0,0,444.719,437.382Z" transform="translate(-441.234 -431.795)"/>
        <path id="Path_958" data-name="Path 958" class="cls-1" d="M457.326,437.818a1.547,1.547,0,0,0-1.053-.436h-2a1.536,1.536,0,0,0-1.052.436,1.121,1.121,0,0,0-.308.479,1.135,1.135,0,0,0-.129.574,1.5,1.5,0,0,0,.437,1.053,1.547,1.547,0,0,0,1.052.436h2a1.536,1.536,0,0,0,1.053-.436,1.654,1.654,0,0,0,.436-1.053A1.5,1.5,0,0,0,457.326,437.818Z" transform="translate(-443.612 -431.795)"/>
      </g>
      <g id="Group_639" data-name="Group 639" transform="translate(0 36.075)">
        <path id="Path_959" data-name="Path 959" class="cls-1" d="M342.222,465.3a1.506,1.506,0,0,0-1.053.436,1.547,1.547,0,0,0-.436,1.053v2.155a1.538,1.538,0,0,0,.436,1.053,1.489,1.489,0,0,0,2.105,0,1.548,1.548,0,0,0,.437-1.053v-2.155a1.537,1.537,0,0,0-.437-1.053A1.512,1.512,0,0,0,342.222,465.3Z" transform="translate(-334.698 -455.383)"/>
        <path id="Path_960" data-name="Path 960" class="cls-1" d="M342.222,452.816a1.507,1.507,0,0,0-1.053.436,1.547,1.547,0,0,0-.436,1.053v2.156a1.536,1.536,0,0,0,.436,1.052,1.487,1.487,0,0,0,2.105,0,1.545,1.545,0,0,0,.437-1.052V454.3a1.539,1.539,0,0,0-.437-1.053A1.512,1.512,0,0,0,342.222,452.816Z" transform="translate(-334.698 -452.815)"/>
        <path id="Path_961" data-name="Path 961" class="cls-1" d="M336.779,460.413h-2.155a1.536,1.536,0,0,0-1.053.436,1.49,1.49,0,0,0,0,2.106,1.547,1.547,0,0,0,1.053.436h2.155a1.536,1.536,0,0,0,1.053-.436,1.49,1.49,0,0,0,0-2.106A1.551,1.551,0,0,0,336.779,460.413Z" transform="translate(-333.134 -454.378)"/>
        <path id="Path_962" data-name="Path 962" class="cls-1" d="M350.314,460.849a1.551,1.551,0,0,0-1.053-.436h-2.155a1.536,1.536,0,0,0-1.053.436,1.49,1.49,0,0,0,0,2.106,1.547,1.547,0,0,0,1.053.436h2.155a1.536,1.536,0,0,0,1.053-.436,1.49,1.49,0,0,0,0-2.106Z" transform="translate(-335.702 -454.378)"/>
      </g>
      <g id="Group_640" data-name="Group 640" transform="translate(102.016 65.762)">
        <path id="Path_963" data-name="Path 963" class="cls-1" d="M474.651,501.252l-1.344-1.37-.191-.195a1.53,1.53,0,0,0-2.105,0,1.5,1.5,0,0,0-.436,1.053l.053.4a1.483,1.483,0,0,0,.383.658l1.343,1.37.191.195a1.534,1.534,0,0,0,2.106,0,1.5,1.5,0,0,0,.436-1.053l-.053-.4A1.492,1.492,0,0,0,474.651,501.252Z" transform="translate(-463.432 -492.057)"/>
        <path id="Path_964" data-name="Path 964" class="cls-1" d="M465.763,492.194l-1.343-1.369-.191-.194a1.12,1.12,0,0,0-.479-.308,1.344,1.344,0,0,0-1.148,0,1.119,1.119,0,0,0-.48.308,1.5,1.5,0,0,0-.436,1.052l.053.4a1.487,1.487,0,0,0,.383.657l1.344,1.369.191.195a1.53,1.53,0,0,0,2.105,0,1.5,1.5,0,0,0,.436-1.053l-.053-.4A1.482,1.482,0,0,0,465.763,492.194Z" transform="translate(-461.603 -490.193)"/>
        <path id="Path_965" data-name="Path 965" class="cls-1" d="M465.688,499.621a1.5,1.5,0,0,0-1.052-.436l-.4.053a1.488,1.488,0,0,0-.657.383l-1.369,1.344-.195.191a1.651,1.651,0,0,0-.436,1.052,1.65,1.65,0,0,0,.436,1.053,1.5,1.5,0,0,0,1.053.436l.4-.053a1.482,1.482,0,0,0,.658-.383l1.369-1.344.194-.191a1.118,1.118,0,0,0,.308-.48,1.532,1.532,0,0,0-.308-1.627Z" transform="translate(-461.582 -492.043)"/>
        <path id="Path_966" data-name="Path 966" class="cls-1" d="M471.078,494.375a1.5,1.5,0,0,0,1.053.436l.4-.053a1.487,1.487,0,0,0,.657-.383l1.37-1.343.195-.191a1.53,1.53,0,0,0,0-2.106,1.5,1.5,0,0,0-1.053-.436l-.4.053a1.483,1.483,0,0,0-.657.383l-1.37,1.343-.195.191a1.532,1.532,0,0,0,0,2.106Z" transform="translate(-463.446 -490.215)"/>
      </g>
      <g id="Group_641" data-name="Group 641" transform="translate(19.107)">
        <path id="Path_967" data-name="Path 967" class="cls-1" d="M369.262,417.356l-.2-.2a1.532,1.532,0,0,0-2.106,0,1.5,1.5,0,0,0-.436,1.053,1.548,1.548,0,0,0,.436,1.052l1.41,1.41.2.2a1.532,1.532,0,0,0,2.105,0,1.5,1.5,0,0,0,.437-1.053,1.556,1.556,0,0,0-.437-1.053Z" transform="translate(-359.111 -409.312)"/>
        <path id="Path_968" data-name="Path 968" class="cls-1" d="M359.936,408.03l-.2-.2a1.53,1.53,0,0,0-2.105,0,1.5,1.5,0,0,0-.437,1.053,1.556,1.556,0,0,0,.437,1.053l1.41,1.409.2.2a1.532,1.532,0,0,0,2.106,0,1.5,1.5,0,0,0,.436-1.053,1.552,1.552,0,0,0-.436-1.053Z" transform="translate(-357.192 -407.393)"/>
        <path id="Path_969" data-name="Path 969" class="cls-1" d="M361.346,417.156a1.5,1.5,0,0,0-1.053-.436,1.552,1.552,0,0,0-1.053.436l-1.41,1.41-.2.2a1.531,1.531,0,0,0,0,2.106,1.5,1.5,0,0,0,1.052.436,1.55,1.55,0,0,0,1.053-.436l1.41-1.41.2-.2a1.532,1.532,0,0,0,0-2.105Z" transform="translate(-357.192 -409.312)"/>
        <path id="Path_970" data-name="Path 970" class="cls-1" d="M366.956,411.546a1.5,1.5,0,0,0,1.053.436,1.552,1.552,0,0,0,1.053-.436l1.41-1.41.2-.2a1.661,1.661,0,0,0,.437-1.053,1.126,1.126,0,0,0-.129-.574,1.113,1.113,0,0,0-.308-.479,1.5,1.5,0,0,0-1.052-.436,1.55,1.55,0,0,0-1.053.436l-1.41,1.41-.2.2a1.534,1.534,0,0,0,0,2.106Z" transform="translate(-359.111 -407.393)"/>
      </g>
      <path id="Path_971" data-name="Path 971" class="cls-1" d="M398.1,439.64a201.278,201.278,0,0,0-15.718-23.861,1.519,1.519,0,0,0-2.572,0A210.386,210.386,0,0,0,365.8,436.654a79.108,79.108,0,0,0-7.631,15.984,20.8,20.8,0,0,0-1.1,7,24.91,24.91,0,0,0,2.927,10.863A24.287,24.287,0,0,0,380,483.179c1.915.1,1.909-2.873,0-2.978a21.176,21.176,0,0,1-16.779-10.063,21.555,21.555,0,0,1-3.141-9.8,16.78,16.78,0,0,1,.852-6.559,71.842,71.842,0,0,1,7.03-14.921c2.822-4.861,5.9-9.575,9.1-14.192q1.981-2.854,4.047-5.652a199.8,199.8,0,0,1,14.422,22.132C396.465,442.817,399.038,441.317,398.1,439.64Z" transform="translate(-338.057 -408.972)"/>
      <path id="Path_972" data-name="Path 972" class="cls-1" d="M439.275,473.019a91.655,91.655,0,0,0-5.452-11.039,212.853,212.853,0,0,0-12.22-18.817c-.93-1.295-1.866-2.586-2.833-3.854a1.519,1.519,0,0,0-2.572,0c-2.68,3.519-5.215,7.158-7.676,10.832-4.537,6.774-8.947,13.792-12.171,21.3a32.5,32.5,0,0,0-2.86,9.757,23.549,23.549,0,0,0,3.3,13.555A23.942,23.942,0,0,0,441.2,486.3a27.056,27.056,0,0,0,.327-3.981A25.827,25.827,0,0,0,439.275,473.019Zm-15.557,29.786A21.2,21.2,0,0,1,396.434,481.7a17.736,17.736,0,0,1,.711-3.8,41.03,41.03,0,0,1,1.689-4.745c2.993-7.118,7.148-13.781,11.393-20.208q2.653-4.016,5.458-7.929c.587-.819,1.223-1.622,1.834-2.438,2.135,2.884,4.186,5.833,6.185,8.809a137.335,137.335,0,0,1,12.136,21.081,41.931,41.931,0,0,1,1.961,5.346,15.818,15.818,0,0,1,.752,4.5A21.6,21.6,0,0,1,423.718,502.805Z" transform="translate(-345.539 -413.814)"/>
      <path id="Path_973" data-name="Path 973" class="cls-1" d="M419.165,486.779a6.111,6.111,0,0,0-5.315-3.169c-1.178-.025-2.359,0-3.537,0a1.511,1.511,0,0,0-1.489,1.489v16.521a1.49,1.49,0,0,0,2.978,0v-5.961c.612,0,1.225,0,1.837,0a6.187,6.187,0,0,0,5.064-2.46A6.074,6.074,0,0,0,419.165,486.779Zm-5.388,5.9c-.658.012-1.316.011-1.974.007v-6.107c.658,0,1.317-.006,1.974.007a3.047,3.047,0,1,1,0,6.092Z" transform="translate(-348.71 -423.075)"/>
      <path id="Path_974" data-name="Path 974" class="cls-1" d="M432.773,485.242v6.771h-5.1v-6.771a1.49,1.49,0,0,0-2.978,0v16.521a1.49,1.49,0,0,0,2.978,0v-6.771h5.1v6.771a1.49,1.49,0,0,0,2.978,0V485.242A1.49,1.49,0,0,0,432.773,485.242Z" transform="translate(-351.975 -423.117)"/>
    </g>
  </g>
</svg>
