<svg xmlns="http://www.w3.org/2000/svg" width="58.492" height="66.606" viewBox="0 0 58.492 66.606">
  <defs>
    <style>
      .cls-1 {
        fill: #d77a41;
      }
    </style>
  </defs>
  <g id="ICON_2_Glycerin_Propylene_Glycol_" data-name="ICON_2_Glycerin &amp; Propylene Glycol " transform="translate(-267.779 -462.418)">
    <path id="Path_984" data-name="Path 984" class="cls-1" d="M299.94,527.769a9.71,9.71,0,1,0,6.358,9.112A9.854,9.854,0,0,0,299.94,527.769Zm-.935,15.665a6.988,6.988,0,1,1,4.559-6.553A7.072,7.072,0,0,1,299.005,543.434Z" transform="translate(-5.179 -17.549)"/>
    <path id="Path_985" data-name="Path 985" class="cls-1" d="M321.124,488.349a14.526,14.526,0,0,0-9.113-3.3,1.5,1.5,0,0,0-.322.032c.009-.229.03-.456.031-.686a22.042,22.042,0,1,0-.288,3.512c.012-.079.017-.158.028-.238a1.386,1.386,0,0,0,.55.114,11.532,11.532,0,1,1,0,23.063,1.368,1.368,0,0,0,0,2.734,14.261,14.261,0,0,0,9.113-25.232Zm-24.918,14.193A19.269,19.269,0,1,1,308.987,484.4,19.5,19.5,0,0,1,296.206,502.542Z"/>
    <path id="Path_986" data-name="Path 986" class="cls-1" d="M289.369,473.267a8.119,8.119,0,0,0-2.826.443,10.912,10.912,0,0,0-5.388,3.926,14.943,14.943,0,0,0-2.281,4.747,1.367,1.367,0,0,0,2.636.727c.111-.37.23-.736.363-1.1q.089-.236.184-.47l.034-.079c.054-.117.106-.235.162-.351a12.323,12.323,0,0,1,.976-1.7c.08-.116.166-.227.246-.342.042-.049.081-.1.122-.149q.286-.347.6-.666.266-.267.55-.512c.079-.068.163-.132.242-.2.047-.034.094-.069.141-.1a9.043,9.043,0,0,1,1.171-.706c.089-.044.178-.087.268-.129l.017-.008s-.012,0-.014,0,.015,0,.018,0c.037-.017.075-.033.112-.051.119-.058.032.007-.048.039.138-.042.4-.17.458-.189a8.65,8.65,0,0,1,.954-.265q.2-.044.4-.078l.088-.014a5.515,5.515,0,0,1,.806-.038,1.367,1.367,0,1,0,0-2.734Z" transform="translate(-2.993 -2.938)"/>
    <path id="Path_987" data-name="Path 987" class="cls-1" d="M289.478,477.834a.128.128,0,0,0,.068-.013.188.188,0,0,1-.063.012Z" transform="translate(-5.881 -4.174)"/>
  </g>
</svg>
