<svg xmlns="http://www.w3.org/2000/svg" width="108.559" height="96.293" viewBox="0 0 108.559 96.293">
  <defs>
    <style>
      .cls-1 {
        fill: #d77a41;
      }
    </style>
  </defs>
  <g id="ICON_6_Premium_Naturally_Inspired_Ingredients" data-name="ICON_6_Premium, Naturally Inspired Ingredients" transform="translate(-248.961 -33.674)">
    <path id="Path_982" data-name="Path 982" class="cls-1" d="M293.069,70.957a1.262,1.262,0,0,0,2.395-.275,71.081,71.081,0,0,1,2.793-8.438q.355-.907.734-1.812l5.527-2.46.869-.387a1.25,1.25,0,1,0-.936-2.319l-3.925,1.747a40.6,40.6,0,0,1,6.184-9.573c1.075-1.2-.888-2.75-1.958-1.555a42.569,42.569,0,0,0-6.475,10.034l-1.092-3.686a1.261,1.261,0,0,0-1.627-.691,1.277,1.277,0,0,0-.692,1.627q.922,3.115,1.847,6.233-.383.917-.744,1.835c-.715,1.823-1.377,3.68-1.968,5.556q-1.107-2.574-2.213-5.149c-.634-1.474-2.957-.548-2.319.936Z"/>
    <path id="Path_983" data-name="Path 983" class="cls-1" d="M355.78,43.6c-9.82-1.038-20.035-1.417-29.747.7a41.43,41.43,0,0,0-9.4,3.189q-.454-1.824-.975-3.623a77.813,77.813,0,0,0-3.141-9.041,1.915,1.915,0,0,0-2.441-1.037c-7.625,2.718-15.313,6.063-21.732,11.086-3.848,3.012-7.386,6.812-9.138,11.451a18.1,18.1,0,0,0-1.066,4.513,1.51,1.51,0,0,0-.17.035c-3.772,1.226-7.005,3.825-9.913,6.442a94.683,94.683,0,0,0-8.867,9.323c-1.8,2.127-3.551,4.3-5.206,6.543a18.327,18.327,0,0,0-1.945,3.89c-3.688,8.827-4.546,19.181.1,27.833a29.012,29.012,0,0,0,22.84,14.917,22.882,22.882,0,0,0,9.062-.769l17.253-5.217,17.125-5.179c4.291-1.3,10.815-2.057,11.222-7.592a7.236,7.236,0,0,0-.219-2.27,5.676,5.676,0,0,0-.166-.543c-.031-.089-.111-.356-.156-.512a5.937,5.937,0,0,0-1.914-2.9c.87-.284,1.74-.567,2.6-.869a6.9,6.9,0,0,0,4.284-9.049c-.048-.128-.105-.244-.158-.369,0-.07-.106-.52-.117-.551a6.129,6.129,0,0,0-.837-1.563,5.856,5.856,0,0,0-.442-.51l.636-.2.047-.015a32.128,32.128,0,0,0,5.764-1.456c4.714-1.674,8.149-6.659,10.387-10.888,3.439-6.5,5.34-13.7,6.629-20.9a96.5,96.5,0,0,0,1.532-12.872A1.915,1.915,0,0,0,355.78,43.6ZM281.728,62.388c.028-.388.051-.774.1-1.16a20.243,20.243,0,0,1,.45-2.312,19.2,19.2,0,0,1,2.287-4.777,26.526,26.526,0,0,1,4.637-5.113c5.925-5.1,13.229-8.417,20.528-11.109A74.505,74.505,0,0,1,313.292,49.4a24.651,24.651,0,0,0-3.391,2.7,23.023,23.023,0,0,0-6.876,15.27l-10.352,5.817-4.638,2.606c-.367-.182-.732-.368-1.091-.564-.086-.093-.171-.186-.254-.281a22.528,22.528,0,0,1-1.392-1.78q-.444-.627-.847-1.281c-.109-.177-.214-.357-.318-.537-.009-.023-.277-.5-.35-.647a20.86,20.86,0,0,1-1.448-3.583c-.048-.163-.092-.326-.138-.489l-.013-.044-.019-.094c-.077-.364-.156-.727-.217-1.094a16.74,16.74,0,0,1-.221-2.233c-.006-.187-.006-.374-.008-.562,0-.038,0-.06,0-.075C281.72,62.488,281.724,62.448,281.728,62.388Zm25.379,2.187v0C307.126,64.477,307.171,64.274,307.107,64.575ZM282.624,75.821a20.371,20.371,0,0,0,1.712,2.043l-3.594,2.019A10.673,10.673,0,0,1,282.624,75.821Zm54.258,9.09c-.292,2.027-2.116,2.4-3.78,2.918l-.782.245-10.407,3.261-5.137,1.61c-6.8,2.132-13.652,4.16-20.421,6.4-.13.043-.261.082-.391.123-2.295.719-1.315,4.34,1,3.616l.235-.074,18.461-5.785,11.738-3.678a3.572,3.572,0,0,1,2.211.746,2.285,2.285,0,0,1,.661.913c.118.292.494,1.671.178.684a8.085,8.085,0,0,1,.34,1.269c-.015.007.015.661,0,.812a3.528,3.528,0,0,1-.147.688,2.668,2.668,0,0,1-.607.9,5.767,5.767,0,0,1-1.171.79c-1.84.732-3.819,1.2-5.713,1.79l-7.263,2.276-15.977,5.007.042.1c-2,.858-1.013,4.191,1.224,3.523l14.626-4.366c1.8-.537,3.621-1.023,5.4-1.613.044-.015.094-.01.138-.022l-.114.031a1.835,1.835,0,0,1,.25-.029,12.577,12.577,0,0,1,1.622.023,2.784,2.784,0,0,1,2.607,2.27c.05.222.142.619.171.756.01.047.016.07.022.1s0,.051,0,.1c.006.129.012.256.012.385a1.807,1.807,0,0,1-.184.963c-.526,1.208-1.744,1.433-2.923,1.79l-4.383,1.325-14.333,4.335-18.128,5.482c-1.5.454-3,.96-4.52,1.367-.157.042-.322.071-.478.114l-.006,0,.123-.015-.125.015c-.131.034-.453.056-.123.015-.068.008-.135.017-.2.023-.458.043-.914.082-1.374.1a25.557,25.557,0,0,1-19.177-6.979,24.087,24.087,0,0,1-7.169-13.775,30.993,30.993,0,0,1,1.269-13.273,27.738,27.738,0,0,1,2.66-6.523,7.964,7.964,0,0,1,.483-.693c.752-1,.942-1.245,1.705-2.209,4.627-5.842,9.721-11.975,15.953-16.164a21.453,21.453,0,0,1,2.418-1.416l2.859,7.625A13.909,13.909,0,0,0,276.785,83.2a1.9,1.9,0,0,0,2.821,1.619l8.62-4.844,4.335-2.436,10.482-5.89,3.634-2.042,3.771-2.12,4.105-2.306,1.37-.77c.147-.083.306-.158.447-.251l.025-.018a11.431,11.431,0,0,1,1.7-.462c.094-.015.187-.029.281-.039a2.443,2.443,0,0,1,2.079.619c.012.012.019.026.031.038a3.94,3.94,0,0,1,1.139,3.125,4.177,4.177,0,0,1-1.378,2.642c-.179.179-.365.352-.557.515-.15.128-.305.248-.458.371l-.115.089-.432.327c-.336.252-.685.486-1.025.734q-1.221.9-2.461,1.766-2.664,1.866-5.359,3.685c-.337.228-.678.452-1.016.68-1.043.7-2.093,1.4-3.139,2.1l-.3.2q-6.468,4.329-12.988,8.579c-1.711,1.113-.669,4.1,1.444,3.427l16.523-5.235,1.8-.57,4.655-1.475,14.224-4.507c.236-.074.483-.135.713-.226.032-.012.048-.02.067-.028,1.483-.08,3.139-.228,4.138.942a3.5,3.5,0,0,1,.609,1.373c-.006-.005-.009.006-.006.046a2.21,2.21,0,0,0,.113.329A3.846,3.846,0,0,1,336.882,84.911Zm15.861-29.728A78.072,78.072,0,0,1,347.6,74.417a32.85,32.85,0,0,1-5.1,8.52,22.537,22.537,0,0,1-1.888,1.973,7.493,7.493,0,0,0-.32-2.716c-.068-.219-.177-.427-.244-.645-.149-.487,0-.169.023-.083-.041-.14-.087-.277-.13-.416a5.918,5.918,0,0,0-.529-1.181,6.186,6.186,0,0,0-3.148-2.592,9.555,9.555,0,0,0-5.343-.407c-1.7.387-3.383,1.064-5.045,1.59l-12,3.8-.915.29L308.8,83.87l-3.165,1,2.506-1.672c.663-.442,1.327-.881,1.988-1.326.4-.271.8-.546,1.205-.818q3.406-2.295,6.757-4.671c.645-.459,1.3-.9,1.938-1.373a26.862,26.862,0,0,0,2.775-2.239q.315-.3.607-.633c1.311-1.362,2.647-2.7,4.03-3.99q.906-.845,1.836-1.672l7.553.216,1.15.033a1.278,1.278,0,0,0,1.336-1.159,1.263,1.263,0,0,0-1.159-1.335l-6.037-.173a50.993,50.993,0,0,1,12.593-7.836c1.485-.616.356-2.847-1.126-2.233a52.794,52.794,0,0,0-12.995,8.086q.43-2.676.86-5.352a1.261,1.261,0,0,0-1.158-1.336,1.278,1.278,0,0,0-1.336,1.159l-1.287,8.012q-.958.854-1.892,1.722c-.152.142-.3.291-.45.434a7.936,7.936,0,0,0-.67-2.723,6.584,6.584,0,0,0-3.973-3.822,6.714,6.714,0,0,0-2.221-.275,9.877,9.877,0,0,0-3.3.725c-.131.052-.258.118-.387.176-1.089.49-2.115,1.148-3.15,1.73l-4.616,2.594q.045-.267.1-.532c.018-.089.037-.179.058-.267.109-.448.218-.895.348-1.337a20.722,20.722,0,0,1,.943-2.564c.069-.154.142-.307.214-.46.03-.054.2-.383.228-.444q.363-.674.778-1.318.389-.6.82-1.177.221-.294.452-.58c.094-.116.189-.23.285-.344l.021-.025.063-.068a21.837,21.837,0,0,1,2.749-2.535,24.079,24.079,0,0,1,3.407-2.213,33.016,33.016,0,0,1,7.139-2.752c9.406-2.514,19.416-2.28,29.055-1.348C353.477,49.844,353.143,52.527,352.743,55.183Z"/>
  </g>
</svg>
