<svg xmlns="http://www.w3.org/2000/svg" width="63.806" height="72.9" viewBox="0 0 63.806 72.9">
  <defs>
    <style>
      .cls-1 {
        fill: #0085cd;
      }
    </style>
  </defs>
  <g id="Icon_Zinc_and_Vitamins_A_E" data-name="Icon_Zinc and Vitamins A &amp; E" transform="translate(-202.176 -277.829)">
    <path id="Path_929" data-name="Path 929" class="cls-1" d="M265.943,340.917V281.972c0-.179.007-.36,0-.539a3.633,3.633,0,0,0-3.181-3.534,1.45,1.45,0,0,0-.392-.057H208.09c-.757,0-1.521-.029-2.278,0a3.723,3.723,0,0,0-3.6,3.989v58.625c0,2.221-.088,4.462,0,6.682.093,2.332,1.931,3.587,4.092,3.587h55.375c.223,0,.449.009.671,0a3.657,3.657,0,0,0,3.59-3.573C266.03,345.082,265.943,342.989,265.943,340.917Zm-2.763,6.236c-.144,1.049-1.353.809-2.133.809H206.232c-.706,0-1.231-.225-1.253-1.027-.025-.868,0-1.74,0-2.607V281.8c0-.7.295-1.184,1.061-1.193,8.394-.1,16.8,0,25.19,0h31.14c1.017.06.81,1.254.81,1.957V345.6A11.807,11.807,0,0,1,263.179,347.153Z" transform="translate(0)"/>
    <path id="Path_930" data-name="Path 930" class="cls-1" d="M214.631,289.885v-.035a1.255,1.255,0,0,0,.464-.3,1.4,1.4,0,0,0,.31-.473,1.523,1.523,0,0,0,.111-.575,1.374,1.374,0,0,0-.274-.827,1.873,1.873,0,0,0-.8-.6,3.226,3.226,0,0,0-1.278-.226,3.438,3.438,0,0,0-1.322.226,1.927,1.927,0,0,0-.827.6,1.36,1.36,0,0,0-.283.836v.221h1.477v-.089a.445.445,0,0,1,.106-.282.765.765,0,0,1,.292-.217.965.965,0,0,1,.407-.085.862.862,0,0,1,.429.1.662.662,0,0,1,.261.256.7.7,0,0,1,.088.346.682.682,0,0,1-.084.353.541.541,0,0,1-.221.212.666.666,0,0,1-.314.071h-.5v1.088h.646a.684.684,0,0,1,.314.071.56.56,0,0,1,.221.208.681.681,0,0,1,.084.359.85.85,0,0,1-.2.584.923.923,0,0,1-.716.229,1.194,1.194,0,0,1-.694-.163.479.479,0,0,1-.226-.394v-.168h-1.556v.186a1.494,1.494,0,0,0,.279.875,1.891,1.891,0,0,0,.853.637,3.848,3.848,0,0,0,1.459.238,3.683,3.683,0,0,0,1.433-.238,1.9,1.9,0,0,0,.836-.637,1.606,1.606,0,0,0,.018-1.835A1.475,1.475,0,0,0,214.631,289.885Z" transform="translate(-2.2 -2.374)"/>
    <path id="Path_931" data-name="Path 931" class="cls-1" d="M221.12,293.148a3.071,3.071,0,0,0,1.26-.225,1.865,1.865,0,0,0,.787-.641,2.734,2.734,0,0,0,.411-.995,6.748,6.748,0,0,0,0-2.573,2.736,2.736,0,0,0-.411-.994,1.865,1.865,0,0,0-.787-.641,3.61,3.61,0,0,0-2.516,0,1.892,1.892,0,0,0-.8.641,2.69,2.69,0,0,0-.416.994,6.748,6.748,0,0,0,0,2.573,2.688,2.688,0,0,0,.416.995,1.891,1.891,0,0,0,.8.641A3.077,3.077,0,0,0,221.12,293.148Zm-.849-3.59a3.664,3.664,0,0,1,.084-.872.9.9,0,0,1,.27-.486.87.87,0,0,1,.99,0,.88.88,0,0,1,.265.486,3.861,3.861,0,0,1,.08.872v.875a3.865,3.865,0,0,1-.08.867.9.9,0,0,1-.265.5.847.847,0,0,1-.99,0,.925.925,0,0,1-.27-.5,3.668,3.668,0,0,1-.084-.867Z" transform="translate(-4.302 -2.374)"/>
    <path id="Path_932" data-name="Path 932" class="cls-1" d="M238.07,314.785v-1.957h-17v3.731h10.121L220.3,331.849v1.957h18.011v-3.761H227.184Z" transform="translate(-4.769 -9.208)"/>
    <path id="Path_933" data-name="Path 933" class="cls-1" d="M260.973,319.551a6.291,6.291,0,0,0-2.783-.581,7.185,7.185,0,0,0-2.141.305,5.833,5.833,0,0,0-1.758.887,5.908,5.908,0,0,0-1.33,1.376h-.214l-.336-2.2h-3.517v16.085h4.251v-9.388a3.8,3.8,0,0,1,.428-1.834,3.2,3.2,0,0,1,1.192-1.254,3.269,3.269,0,0,1,1.713-.458,4.1,4.1,0,0,1,1.162.153,2.006,2.006,0,0,1,.871.5,2.279,2.279,0,0,1,.535.887,4.037,4.037,0,0,1,.184,1.3v10.091h4.251V324.658a7.046,7.046,0,0,0-.657-3.273A4.082,4.082,0,0,0,260.973,319.551Z" transform="translate(-12.291 -10.824)"/>
  </g>
</svg>
