<svg xmlns="http://www.w3.org/2000/svg" width="97.341" height="74.423" viewBox="0 0 97.341 74.423">
  <defs>
    <style>
      .cls-1 {
        fill: #0085cd;
      }
    </style>
  </defs>
  <g id="Icon_Coenzyme_Q10_Omega-3" data-name="Icon_Coenzyme Q10 &amp; Omega-3" transform="translate(-189.235 -409.365)">
    <g id="Group_636" data-name="Group 636" transform="translate(201.539 409.364)">
      <path id="Path_941" data-name="Path 941" class="cls-1" d="M217.962,417.471c.155-.1.108-.077,0,0Z" transform="translate(-205.402 -410.445)"/>
      <path id="Path_942" data-name="Path 942" class="cls-1" d="M288.425,431.581c-.776-10.062-8.242-20.069-18.493-21.852-6.1-1.062-12.174.827-17.485,3.8a40.743,40.743,0,0,0-6.573,4.525c-8.425-6.293-19.684-11.752-29.9-6.706a16.057,16.057,0,0,0-3.123,2.054,8.716,8.716,0,0,0-.711.638,1.007,1.007,0,0,0-.162.187c-.056.04-.143.106-.31.237-5.008,3.941-7.626,9.852-8.116,16.112a29.118,29.118,0,0,0,1.125,10.888c.846,2.642,5.025,1.513,4.174-1.15a19.844,19.844,0,0,1-.542-2.214q-.106-.539-.194-1.08c-.025-.156-.048-.311-.07-.467,0-.022-.057-.454-.069-.565a30.329,30.329,0,0,1-.178-3.083c-.031-4.977,1.338-10,5.085-13.751.8-.8,1.7-1.486,2.531-2.258.11-.1.222-.2.336-.3.085-.072.19-.149.266-.2l-.173.116c.432-.287.84-.6,1.288-.866a15.981,15.981,0,0,1,1.535-.792c.035-.006.621-.247.775-.3q.567-.2,1.149-.351t1.177-.267c.165-.031.33-.057.5-.084.041,0,.357-.049.473-.061a19.314,19.314,0,0,1,3.092-.052,17.44,17.44,0,0,1,3.56.57,28.381,28.381,0,0,1,4.22,1.4,47.59,47.59,0,0,1,10.855,6.676,2.225,2.225,0,0,0,3.06,0,29.171,29.171,0,0,1,5.5-4.161c3.957-2.463,8.619-4.532,13.361-4.5,9.2.059,16.337,8.167,17.611,16.862,1.3,8.882-4.541,16.945-10.014,23.311a149.151,149.151,0,0,1-18.02,17.3q-2.262,1.877-4.573,3.692-.469.369-.939.734l-.28.216-.312.241q-.846.649-1.7,1.29c-.736.553-1.483,1.091-2.228,1.631a169.085,169.085,0,0,1-17.9-13.112c-.987-.847-1.956-1.717-2.881-2.632-.414-.409-.82-.827-1.209-1.258q-.238-.262-.466-.532l-.215-.259-.04-.047-.013-.017a2.231,2.231,0,0,0-2.96-.776,2.178,2.178,0,0,0-.776,2.96c2.99,3.977,7.117,7.069,11.04,10.063,3.841,2.932,7.8,5.712,11.815,8.4.855.573,1.712,1.143,2.577,1.7a2.119,2.119,0,0,0,2.185,0c3.592-2.519,7.054-5.243,10.453-8.014a155.507,155.507,0,0,0,18.944-17.879C282.736,450.438,289.2,441.6,288.425,431.581Z" transform="translate(-203.451 -409.364)"/>
    </g>
    <path id="Path_943" data-name="Path 943" class="cls-1" d="M256.331,450.4H247.2l-2.908-7.372a2.186,2.186,0,0,0-4.174,0l-4.072,11.814q-1.989-7.289-3.976-14.579l-.835-3.063a2.188,2.188,0,0,0-3.955-.517l-7.6,14.2H191.325c-2.784,0-2.789,4.328,0,4.328h29.652a2.158,2.158,0,0,0,1.869-1.072l5.645-10.554,4.391,16.1q.417,1.531.835,3.063a2.183,2.183,0,0,0,4.173,0l4.457-12.928q.653,1.658,1.308,3.316a2.253,2.253,0,0,0,2.087,1.589h10.59C259.115,454.73,259.12,450.4,256.331,450.4Z" transform="translate(0 -3.534)"/>
  </g>
</svg>
