<svg xmlns="http://www.w3.org/2000/svg" width="66.914" height="102.44" viewBox="0 0 66.914 102.44">
  <defs>
    <style>
      .cls-1 {
        fill: #0085cd;
      }
    </style>
  </defs>
  <g id="Icon_Glucosamine_Chondroitin" data-name="Icon_Glucosamine &amp; Chondroitin" transform="translate(-1388.992 -1026.86)">
    <path id="Icon_Glucosamine_Chondroitin_" data-name="Icon_Glucosamine &amp; Chondroitin " class="cls-1" d="M267.055,722.252a1.99,1.99,0,0,0-.54-.679,16.478,16.478,0,0,0-.063-5.009,7.368,7.368,0,0,0-.754-2.647,2.021,2.021,0,0,0-2.787-.58,2.224,2.224,0,0,0-.844,2.283,10.2,10.2,0,0,1-.116,2.663,8.944,8.944,0,0,1-2.088,4.512,7.49,7.49,0,0,1-4.5,2.045,13.518,13.518,0,0,0-1.79.247,29.626,29.626,0,0,0-1.87-7.787,51.681,51.681,0,0,0-3.523-7.446A11.033,11.033,0,0,1,246.625,707c-.286-1.437.868-3.129,1.6-4.282a15.485,15.485,0,0,1,2.676-3.144,2.1,2.1,0,0,0,.86.991c1.332.749,2.6-.412,3.811-.886a22.421,22.421,0,0,0,3.675-1.687c2.564-1.584,5.007-3.894,5.485-7.008a9.361,9.361,0,0,0-1.889-6.805,12.341,12.341,0,0,0-4.676-4.105c-.43-2.99-1.2-5.9-3.767-7.823a7.829,7.829,0,0,0-1.861-1.02,7.116,7.116,0,0,0-.761-.256,1.962,1.962,0,0,0-.2-.052c-.045-.225-.107-.453-.123-.575l-.291-2.26c-.168-1.3-.232-2.661-.516-3.938a4.794,4.794,0,0,0-6.1-3.465c-.04.01-.079.01-.118.023a20.219,20.219,0,0,0-9.757,7.036,15.245,15.245,0,0,0-2.818,7.532c-.149,1.5.241,2.959,1.669,3.5-.123.238-.256.473-.372.714a2.76,2.76,0,0,0,.789,3.536,4.882,4.882,0,0,0,2.815.665c-.1,2-.5,4.161-1.968,5.481-1.234,1.109-3.271,1.208-4.818,1.739a18.527,18.527,0,0,0-6.511,3.571,8.552,8.552,0,0,0-1.019,1.107l-.855-.428a6.71,6.71,0,0,0-6.147-.115c-1.837.905-3.166,2.833-4.5,4.323-1.476,1.651-2.979,3.28-4.429,4.952-2.99,3.446,2.273,6.572,5.492,5.558,2.148-.678,3.228-2.622,4.906-3.952a13.932,13.932,0,0,1,1.307-.914q-.738,1.846-1.476,3.692-.908,2.271-1.816,4.542c-.036.088-.087.189-.138.294-.089.084-.173.179-.252.255l-7.685,7.431-4,3.87a12.942,12.942,0,0,0-1.982,2.034c-1.378,2.129.316,4.266,1.35,6.116a2.862,2.862,0,0,0,4.74,1.108q3.886-3.048,7.755-6.116l4.524-3.569a11.044,11.044,0,0,1,2.034-1.525c.235-.072.889-.071.705-.178.071.042.129.16.184.22.286.307.543.646.812.968q1.489,1.772,2.978,3.546c2.653,3.159,5.265,6.362,7.918,9.529a2.414,2.414,0,0,0-.269.685,7,7,0,0,0,.329,3.153,46.249,46.249,0,0,0,1.455,4.452q-2.1,4.712-4.2,9.424l-.661,1.483a1.666,1.666,0,0,0,.973,2.392l3.494,1.358a1.567,1.567,0,0,0,1.584-.419l7.378-9.4.833-1.062a29.085,29.085,0,0,0,2.874,3.031l.005.005-.01.1c-.069.792.006,1.624.01,2.418.006,1.719-.065,3.459.02,5.177a2.764,2.764,0,0,0,2.185,2.76,10.854,10.854,0,0,0,2.59.066,2.787,2.787,0,0,0,2.762-2.1c.1-.42.149-.867.223-1.294l1-5.824c.229-1.329.483-2.656.688-3.989.314-2.038-1.117-2.781-2.527-3.869a17.371,17.371,0,0,1-3.262-3.134,6.62,6.62,0,0,1-1.273-2.638,4.826,4.826,0,0,1,.068-1.875,7.615,7.615,0,0,1,.771-1.994c.353-.7.746-1.373,1.1-2.069a14.427,14.427,0,0,0,.728-1.705,3.982,3.982,0,0,0,1.336.479,5.489,5.489,0,0,0,1.491-.029c.309-.026.619.025,1.022,0a12.463,12.463,0,0,0,5.848-1.914c.955-.612,1.863-1.478,1.423-2.643a9.935,9.935,0,0,0,3.159-4.353,1.356,1.356,0,0,0,.215-.656A1.286,1.286,0,0,0,267.055,722.252Zm-11.566-37.786a20.927,20.927,0,0,1,2.25-2.2c.262.158.572.363.83.552.08.059.156.116.222.17a12.613,12.613,0,0,1,1.933,1.954,7.864,7.864,0,0,1,1.93,5.231c-.166,2.715-2.458,4.708-4.626,6.017A19.508,19.508,0,0,1,255,697.583c-.526.206-1.049.423-1.552.678-.12.062-.643.437-.715.4.057.027.051-.264.035-.552-.014-.235-.036-.467-.036-.526a4.47,4.47,0,0,1,.652-2.419,6.949,6.949,0,0,0,.561-1.022c.189-.473-.157.513.025.041a1.465,1.465,0,0,0,.095-.559c0-.023,0-.045,0-.068a1.457,1.457,0,0,0-1.219-1.352,1.715,1.715,0,0,0-.922.123,10.607,10.607,0,0,1,.964-3.863A15.739,15.739,0,0,1,255.489,684.466Zm-3.884-13a.917.917,0,0,0-.005-.435C251.667,671.111,251.7,671.24,251.6,671.468Zm-33.165,29.99a16.513,16.513,0,0,0-4.112,2.682c-1.068.934-2,2.683-3.523,2.918a2.174,2.174,0,0,1-1.019-.107c-.142-.049-.72-.423-1.01-.589,1.317-1.206,2.446-2.754,3.631-4.079,1.113-1.244,2.188-2.54,3.347-3.741a3.633,3.633,0,0,1,4.3-.757c.3.142.591.292.887.437-.071.166-.142.333-.209.5l-.886,2.215A9.247,9.247,0,0,0,218.44,701.458Zm-13.876,30.662c-.018.018-.058.033-.07.055a.226.226,0,0,1,.1-.078C204.583,732.106,204.572,732.113,204.564,732.121Zm.777.047c.01-.018-.008-.067-.038-.128A.085.085,0,0,1,205.341,732.167Zm29.981,23.941-.436.556-.792-.308q1.889-4.239,3.78-8.478.33-.741.661-1.483c0-.01.006-.02.01-.03a1.416,1.416,0,0,0,.154-1.225c-.4-1.076-.78-2.162-1.128-3.257.239.3.474.6.71.9-.3-.38.067.088.171.226.133.175.264.35.4.526q.375.5.743,1.014.68.939,1.34,1.893c.31.448.612.9.916,1.354Zm12.393-3.711a.745.745,0,0,0,.12.123C247.77,752.557,247.736,752.486,247.715,752.4Zm4.354,7.513a.045.045,0,0,1,.01-.07C252.071,759.87,252.061,759.9,252.069,759.911Zm-2.518-28.219c-.639,1.492-1.554,2.842-2.158,4.357-1.865,4.68.908,8.795,4.493,11.707.351.286.71.565,1.071.838a4.31,4.31,0,0,0,.643.476c.43.2.139.289.336.01v0c-.126.653-.227,1.312-.34,1.968q-.512,2.974-1.025,5.949l-.385,2.231c-.012.072-.05.2-.077.315-.337-.019-.777.055-1.042.055l-.061,0c-.014-.394-.077-.864-.077-1.019q-.012-2.869-.023-5.74a3.906,3.906,0,0,0-.434-2.18,6.166,6.166,0,0,0-.805-.937l-7.51-7.952c-3.618-3.831-6.884-8-10.271-12.037l-6.72-8a4.127,4.127,0,0,0-2.27-1.767c-1.925-.52-3.429.407-4.853,1.53l-8.587,6.772-3.959,3.122c-.128.1-.268.2-.406.3-.069-.107-.134-.2-.149-.231l-.693-1.24a4.328,4.328,0,0,1-.621-1.112c-.03-.245-.029-.153.147-.37a30.331,30.331,0,0,1,2.592-2.506l8.579-8.3c.764-.738,1.575-1.447,2.3-2.224a6.967,6.967,0,0,0,1.055-2.182q1.839-4.6,3.676-9.193.292-.73.583-1.458.3-.764.611-1.527.336-.839.672-1.68c.048-.121.1-.241.144-.361a4.692,4.692,0,0,1,.681-1.317,6.366,6.366,0,0,1,.777-.9,10.171,10.171,0,0,1,1.855-1.417,20.731,20.731,0,0,1,5.316-2.172,14.3,14.3,0,0,0,2.894-.9,7.346,7.346,0,0,0,2.742-2.527c1.544-2.338,1.806-5.378,1.805-8.1a1.641,1.641,0,0,0-1.629-1.629,14.533,14.533,0,0,1-1.543.06c-.166,0-.332-.016-.5-.027.026-.062.05-.116.065-.146l1.173-2.19a1.644,1.644,0,0,0-1.406-2.451c-.136.012-.7,0-1.121.033.012-.18.016-.364.038-.534a11.809,11.809,0,0,1,.335-1.609,12.168,12.168,0,0,1,2.715-4.926,17.191,17.191,0,0,1,7.052-4.682c.021-.006.042-.005.063-.012a1.575,1.575,0,0,1,1.948.473c.334.478.238.455.3.944.161,1.216.314,2.433.47,3.65.111.859.22,1.719.333,2.578a2.824,2.824,0,0,0,2.093,2.5c.175.051.36.076.537.124.105.03.53.185.559.188,2.339,1.053,3.1,3.556,3.391,5.812q.1.787.2,1.573c-3.4,3.285-6.272,8.094-5.159,12.81a1.153,1.153,0,0,0,.923.8c-.017.056-.027.105-.042.16a19.975,19.975,0,0,0-4.8,4.673c-1.971,2.693-3.728,6.178-1.876,9.374,2.606,4.5,5.04,9.053,5.963,14.242A14.124,14.124,0,0,1,249.551,731.692Zm11.483-5.19a1.537,1.537,0,0,0-.577,2.018,9.7,9.7,0,0,1-2.585,1.042,7,7,0,0,1-1.841.223c-.464-.014-.929.124-1.373.095a1,1,0,0,1-.71-1.575,1.139,1.139,0,0,1,.918-.382,20.035,20.035,0,0,0,2.192-.318,9.541,9.541,0,0,0,6.434-4.714,1.5,1.5,0,0,0,.433.558A6.828,6.828,0,0,1,261.034,726.5Z" transform="translate(1188.646 366.398)"/>
  </g>
</svg>
