<svg xmlns="http://www.w3.org/2000/svg" width="91.468" height="86.016" viewBox="0 0 91.468 86.016">
  <defs>
    <style>
      .cls-1 {
        fill: #007aba;
      }
    </style>
  </defs>
  <g id="Icon_Vitamin_E_Omega-3" data-name="Icon_Vitamin E &amp; Omega-3" transform="translate(-194.355 -529.841)">
    <path id="Path_934" data-name="Path 934" class="cls-1" d="M279.391,580.164c-7.31-11.048-19.611-20.487-33.093-21.888-5.182-.539-10.614.468-14.688,3.871a16.43,16.43,0,0,0-5.488,11.613,48.369,48.369,0,0,0-17.113,4.034c-4.995,2.251-9.825,5.727-12.567,10.578a15.668,15.668,0,0,0-.748,14.142c2.178,4.966,6.672,8.668,11.378,11.138,11.967,6.279,27.561,6.779,40.1,1.907a38.618,38.618,0,0,0,6.265-3.09,37.6,37.6,0,0,0,9.808,3.2c5.188.887,10.9.6,15.423-2.367a15.843,15.843,0,0,0,2.8-2.34C289.424,602.246,285.114,588.815,279.391,580.164Zm-26.166,28.43a30.628,30.628,0,0,1-3.279,2.023c-.169.09-.336.19-.506.276-10.994,5.648-25.148,5.919-36.64,1.657-8.014-2.972-17.674-10.306-14.538-20.06,1.423-4.425,5.171-7.763,9.064-10.057a41.038,41.038,0,0,1,16.916-5.189c.631-.06,1.264-.1,1.9-.133,1.032-.058,2.064-.1,3.1-.1.081,0,.162.005.242.006a45.746,45.746,0,0,1,18.007,3.547c4.485,1.968,8.914,4.893,11.466,9.187a12.245,12.245,0,0,1,.735,11.5A19.188,19.188,0,0,1,253.224,608.594Zm27.581-2.422a12.091,12.091,0,0,1-1.712,2.414c-5.775,6.1-15.021,4.732-22.451,1.62a24.055,24.055,0,0,0,4.4-4.638,15.831,15.831,0,0,0,2.444-13.856c-1.608-5.139-5.644-9.111-10.136-11.872a44.294,44.294,0,0,0-18.573-5.9c-1.761-.185-3.528-.268-5.3-.281a13.907,13.907,0,0,1,2.439-6.961c2.5-3.489,6.752-5.044,10.914-5.194,5.446-.2,10.858,1.552,15.633,4.061a50.16,50.16,0,0,1,15.16,12.414,39.335,39.335,0,0,1,8.06,15.224C282.749,597.429,282.938,602.235,280.805,606.172Z" transform="translate(0 -2.978)"/>
    <path id="Path_935" data-name="Path 935" class="cls-1" d="M253.377,589.405a30.676,30.676,0,0,0-8.564-2.833,25.667,25.667,0,0,0-4.157-.455,1.678,1.678,0,1,0,0,3.355c.333,0,.666.025,1,.05q.542.042,1.084.107c.1.012.208.026.311.038l.047.007c.276.044.551.084.826.132a27.751,27.751,0,0,1,7.762,2.495,1.718,1.718,0,0,0,2.3-.6A1.694,1.694,0,0,0,253.377,589.405Z" transform="translate(-4.696 -5.922)"/>
    <path id="Path_936" data-name="Path 936" class="cls-1" d="M232.717,585.578H229.75a1.731,1.731,0,0,0-1.186.491,1.678,1.678,0,0,0,0,2.373,1.747,1.747,0,0,0,1.186.491h2.968a1.735,1.735,0,0,0,1.186-.491,1.678,1.678,0,0,0,0-2.373A1.741,1.741,0,0,0,232.717,585.578Z" transform="translate(-3.548 -5.866)"/>
    <path id="Path_937" data-name="Path 937" class="cls-1" d="M271.376,576.559a22.906,22.906,0,0,0-3.253-2.047,1.678,1.678,0,0,0-1.693,2.9,22.652,22.652,0,0,1,3.073,1.917q.325.233.643.474l.088.067.054.042c.132.106.264.209.395.316q.79.644,1.538,1.339.815.76,1.571,1.582.369.4.724.821c.138.163.273.327.407.493.059.073.117.148.175.222l.061.08a1.723,1.723,0,0,0,2.3.6,1.7,1.7,0,0,0,.6-2.3A31.758,31.758,0,0,0,271.376,576.559Z" transform="translate(-7.5 -4.68)"/>
    <path id="Path_938" data-name="Path 938" class="cls-1" d="M261.224,570.543,258.89,569.4l-.335-.164a1.245,1.245,0,0,0-.624-.2,1.271,1.271,0,0,0-.669.029,1.679,1.679,0,0,0-1.172,2.064,1.661,1.661,0,0,0,.771,1l2.334,1.139.335.163a1.254,1.254,0,0,0,.624.2,1.282,1.282,0,0,0,.669-.03,1.679,1.679,0,0,0,1.171-2.063A1.661,1.661,0,0,0,261.224,570.543Z" transform="translate(-6.49 -4.122)"/>
    <path id="Path_939" data-name="Path 939" class="cls-1" d="M206.109,545.013a11.742,11.742,0,0,1,7.011,1.919,8.742,8.742,0,0,1,1.616,1.654,10.379,10.379,0,0,1,1.067,2.005,14.807,14.807,0,0,1,.591,2.226c.01.051.049.318.061.388.015.126.03.253.042.38,0,.054.005.107.01.16a22.094,22.094,0,0,0-.012,2.6,1.679,1.679,0,0,0,3.355,0,13.548,13.548,0,0,0,.041-2.976,10.251,10.251,0,0,1,1.322-4.341,7.686,7.686,0,0,1,3.655-3.14.507.507,0,0,0,.051-.024c.067-.027.135-.055.2-.08.191-.072.383-.141.577-.2.37-.12.745-.221,1.124-.307.307-.07.615-.122.924-.176l.064-.012.1-.01c.151-.016.3-.032.453-.044a10.979,10.979,0,0,1,1.87-.021c2.193.02,2.117-3.163,0-3.355a9.736,9.736,0,0,1-9.056-5.265,14.036,14.036,0,0,1-1.192-3.522c-.052-.252-.089-.507-.138-.76-.006-.033-.009-.046-.013-.066s0-.039-.005-.073c-.013-.171-.037-.34-.044-.511a1.679,1.679,0,0,0-3.355,0c-.163,3.992-1.938,7.3-5.47,9.019a14.2,14.2,0,0,1-3.478,1.052c-.115.02-.232.037-.348.054l-.046,0c-.161.014-.32.033-.481.045s-.334.022-.5.023a1.679,1.679,0,0,0,0,3.355Zm12.079-7.12c.087.171.172.344.264.511a12.231,12.231,0,0,0,4.532,4.684,11.406,11.406,0,0,0-4.875,4.636,11.276,11.276,0,0,0-4.253-4.293c-.218-.122-.444-.229-.668-.336A12,12,0,0,0,218.189,537.893Z" transform="translate(-1.066)"/>
    <path id="Path_940" data-name="Path 940" class="cls-1" d="M262.443,544.552a7.816,7.816,0,0,1,4.562,1.215,5.434,5.434,0,0,1,1.86,2.5,9.463,9.463,0,0,1,.387,1.475,2.048,2.048,0,0,1,.064.5c.013.16.023.321.03.482-.031.443-.043.888-.032,1.332a1.119,1.119,0,0,0,2.237,0,8.282,8.282,0,0,0,.051-1.36c.206-2.348,1.144-4.465,3.388-5.518a6.613,6.613,0,0,1,3.434-.622,1.119,1.119,0,0,0,0-2.237,6.436,6.436,0,0,1-6-3.5,9.162,9.162,0,0,1-.787-2.342c-.032-.158-.057-.318-.086-.477-.005-.028-.008-.041-.012-.056s0-.038-.005-.07c-.009-.1-.021-.2-.026-.307a1.119,1.119,0,0,0-2.237,0,6.555,6.555,0,0,1-3.631,5.973,9.477,9.477,0,0,1-2.311.694c-.065.013-.132.022-.2.03l-.044,0-.347.031c-.1.008-.2.012-.3.013a1.119,1.119,0,0,0,0,2.237Zm8-4.732c.061.119.111.246.174.362a8.093,8.093,0,0,0,3.089,3.137l-.06.028a7.278,7.278,0,0,0-3.159,3.19,7.384,7.384,0,0,0-3.415-3.224A7.934,7.934,0,0,0,270.445,539.821Z" transform="translate(-7.052 -0.489)"/>
  </g>
</svg>
