<svg xmlns="http://www.w3.org/2000/svg" width="84.911" height="52.107" viewBox="0 0 84.911 52.107">
  <defs>
    <style>
      .cls-1 {
        fill: #007aba;
      }
    </style>
  </defs>
  <g id="ICON_2_Lutein_Zeaxanthin_and_Vitamin_A_" data-name="ICON_2_Lutein, Zeaxanthin, and Vitamin A " transform="translate(-202.045 -171.517)">
    <path id="Path_927" data-name="Path 927" class="cls-1" d="M259.694,220.279a61.81,61.81,0,0,0,19.275-13.334c1.946-1.956,3.793-3.979,5.747-6.12q.876-.958,1.772-1.936a1.851,1.851,0,0,0,0-2.456c-.614-.67-1.216-1.336-1.814-2-1.977-2.185-3.846-4.249-5.853-6.2-7.2-7.005-14.448-11.767-22.177-14.556-9.009-3.254-18.275-2.831-27.54,1.254a62.605,62.605,0,0,0-18.913,13.146c-2,1.99-3.878,4.036-5.872,6.2q-.893.97-1.8,1.954a1.844,1.844,0,0,0-.064,2.4l.6.721c.944,1.136,1.834,2.208,2.752,3.239,8.172,9.185,16.818,15.352,26.431,18.857a35.115,35.115,0,0,0,12.1,2.174A38.519,38.519,0,0,0,259.694,220.279Zm-30.537-4.914c-7.909-3.881-15.127-9.7-22.062-17.776l.407-.483c.385-.458.76-.906,1.15-1.338a68.459,68.459,0,0,1,19.5-15.5c6.345-3.27,12.33-4.65,18.289-4.228a36.287,36.287,0,0,1,14.223,4.21c7.337,3.783,14.2,9.386,20.968,17.132a1.475,1.475,0,0,1,.137.206l.043.072q-.689.739-1.374,1.484c-1.08,1.174-2.2,2.387-3.345,3.518a66.419,66.419,0,0,1-16.327,12.191c-6.415,3.275-12.433,4.665-18.389,4.244A35.229,35.229,0,0,1,229.157,215.365Z"/>
    <path id="Path_928" data-name="Path 928" class="cls-1" d="M258.681,191.626a2.012,2.012,0,0,0-1.376-1.415,2.047,2.047,0,0,0-1.975.429l-.373.327a4.078,4.078,0,0,1-3.127.992,4.582,4.582,0,0,1-4.214-3.188,4.5,4.5,0,0,1,1.15-4.955c.133-.13.265-.258.4-.385a2.056,2.056,0,0,0,.61-1.888,2.034,2.034,0,0,0-1.245-1.519,18.083,18.083,0,1,0,3.882,30.709A17.61,17.61,0,0,0,258.681,191.626Zm-13.365,1.385c2.55,2.873,5.8,3.74,9.676,2.575.837,5.13-2.707,10.577-6.665,12.914a13.891,13.891,0,0,1-16.231-1.752,13.755,13.755,0,0,1,9.243-23.93,14.537,14.537,0,0,1,2.72.258C242.4,186.86,242.825,190.2,245.316,193.011Z" transform="translate(3.042 1.002)"/>
  </g>
</svg>
