<svg xmlns="http://www.w3.org/2000/svg" width="108.559" height="96.293" viewBox="0 0 108.559 96.293">
  <defs>
    <style>
      .cls-1 {
        fill: #007aba;
      }
    </style>
  </defs>
  <g id="ICON_Premium_Naturally_Inspired_Ingredients_" data-name="ICON_Premium, Naturally Inspired Ingredients " transform="translate(-189.631 -33.674)">
    <path id="Path_925" data-name="Path 925" class="cls-1" d="M233.739,70.957a1.262,1.262,0,0,0,2.4-.275,71.076,71.076,0,0,1,2.793-8.438q.355-.907.734-1.812l5.527-2.46.869-.387a1.25,1.25,0,0,0-.936-2.319L241.2,57.013a40.567,40.567,0,0,1,6.184-9.573c1.075-1.2-.888-2.75-1.958-1.555a42.537,42.537,0,0,0-6.475,10.034l-1.092-3.686a1.261,1.261,0,0,0-1.627-.691,1.277,1.277,0,0,0-.692,1.627q.923,3.115,1.846,6.233c-.254.611-.5,1.223-.743,1.835-.715,1.823-1.377,3.68-1.968,5.556q-1.107-2.574-2.213-5.149c-.634-1.474-2.957-.548-2.319.936Z"/>
    <path id="Path_926" data-name="Path 926" class="cls-1" d="M296.45,43.6c-9.82-1.038-20.035-1.417-29.747.7a41.429,41.429,0,0,0-9.4,3.189q-.455-1.824-.975-3.623a77.81,77.81,0,0,0-3.141-9.041,1.915,1.915,0,0,0-2.441-1.037c-7.625,2.718-15.313,6.063-21.732,11.086-3.848,3.012-7.387,6.812-9.138,11.451a18.1,18.1,0,0,0-1.066,4.513,1.464,1.464,0,0,0-.17.035c-3.772,1.226-7.005,3.825-9.913,6.442a94.693,94.693,0,0,0-8.868,9.323c-1.8,2.127-3.55,4.3-5.205,6.543a18.327,18.327,0,0,0-1.945,3.89c-3.688,8.827-4.546,19.181.1,27.833a29.011,29.011,0,0,0,22.84,14.917,22.882,22.882,0,0,0,9.062-.769l17.253-5.217,17.124-5.179c4.292-1.3,10.815-2.057,11.223-7.592a7.235,7.235,0,0,0-.219-2.27,5.667,5.667,0,0,0-.166-.543c-.031-.089-.111-.356-.156-.512a5.944,5.944,0,0,0-1.914-2.9c.87-.284,1.74-.567,2.6-.869a6.9,6.9,0,0,0,4.284-9.049c-.048-.128-.106-.244-.158-.369,0-.07-.106-.52-.118-.551a6.125,6.125,0,0,0-.836-1.563,5.856,5.856,0,0,0-.442-.51l.636-.2.047-.015a32.128,32.128,0,0,0,5.764-1.456c4.714-1.674,8.149-6.659,10.387-10.888,3.439-6.5,5.34-13.7,6.629-20.9a96.492,96.492,0,0,0,1.532-12.872A1.916,1.916,0,0,0,296.45,43.6ZM222.4,62.388c.028-.388.051-.774.1-1.16a20.019,20.019,0,0,1,.45-2.312,19.2,19.2,0,0,1,2.287-4.777,26.526,26.526,0,0,1,4.637-5.113c5.924-5.1,13.229-8.417,20.528-11.109A74.509,74.509,0,0,1,253.962,49.4a24.65,24.65,0,0,0-3.391,2.7,23.023,23.023,0,0,0-6.876,15.27l-10.352,5.817L228.7,75.785c-.366-.182-.732-.368-1.091-.564-.085-.093-.171-.186-.253-.281a22.528,22.528,0,0,1-1.392-1.78q-.444-.627-.847-1.281c-.109-.177-.214-.357-.319-.537-.009-.023-.276-.5-.349-.647a20.858,20.858,0,0,1-1.448-3.583c-.048-.163-.092-.326-.138-.489l-.013-.044-.019-.094c-.077-.364-.157-.727-.217-1.094a16.735,16.735,0,0,1-.221-2.233c-.006-.187-.006-.374-.008-.562,0-.038,0-.06,0-.075C222.39,62.488,222.394,62.448,222.4,62.388Zm25.379,2.187v0C247.8,64.477,247.841,64.274,247.777,64.575ZM223.294,75.821a20.369,20.369,0,0,0,1.712,2.043l-3.594,2.019A10.674,10.674,0,0,1,223.294,75.821Zm54.258,9.09c-.292,2.027-2.116,2.4-3.78,2.918l-.782.245-10.407,3.261-5.138,1.61c-6.8,2.132-13.651,4.16-20.42,6.4-.13.043-.261.082-.391.123-2.3.719-1.316,4.34,1,3.616l.235-.074,18.461-5.785,11.738-3.678a3.572,3.572,0,0,1,2.211.746,2.285,2.285,0,0,1,.661.913c.118.292.494,1.671.178.684a7.97,7.97,0,0,1,.339,1.269c-.014.007.016.661,0,.812a3.6,3.6,0,0,1-.147.688,2.668,2.668,0,0,1-.607.9,5.767,5.767,0,0,1-1.171.79c-1.841.732-3.819,1.2-5.713,1.79l-7.263,2.276-15.977,5.007.042.1c-2,.858-1.013,4.191,1.224,3.523l14.626-4.366c1.8-.537,3.621-1.023,5.4-1.613.044-.015.094-.01.138-.022l-.114.031a1.834,1.834,0,0,1,.25-.029,12.576,12.576,0,0,1,1.622.023,2.785,2.785,0,0,1,2.607,2.27c.049.222.142.619.171.756.01.047.016.07.022.1s0,.051,0,.1c.007.129.013.256.013.385a1.807,1.807,0,0,1-.184.963c-.526,1.208-1.744,1.433-2.923,1.79l-4.383,1.325-14.333,4.335-18.128,5.482c-1.5.454-3,.96-4.52,1.367-.158.042-.322.071-.478.114l-.006,0,.123-.015-.125.015c-.131.034-.453.056-.124.015-.067.008-.134.017-.2.023-.458.043-.915.082-1.374.1a25.557,25.557,0,0,1-19.177-6.979,24.087,24.087,0,0,1-7.169-13.775,30.978,30.978,0,0,1,1.269-13.273,27.7,27.7,0,0,1,2.66-6.523,7.957,7.957,0,0,1,.483-.693c.752-1,.942-1.245,1.705-2.209,4.627-5.842,9.72-11.975,15.953-16.164a21.454,21.454,0,0,1,2.418-1.416l2.859,7.625A13.909,13.909,0,0,0,217.455,83.2a1.9,1.9,0,0,0,2.821,1.619l8.62-4.844,4.335-2.436,10.482-5.89,3.634-2.042,3.771-2.12,4.105-2.306,1.37-.77c.147-.083.306-.158.447-.251l.025-.018a11.4,11.4,0,0,1,1.7-.462c.093-.015.187-.029.281-.039a2.443,2.443,0,0,1,2.079.619c.012.012.019.026.031.038a3.943,3.943,0,0,1,1.139,3.125,4.177,4.177,0,0,1-1.378,2.642c-.179.179-.365.352-.557.515-.15.128-.3.248-.458.371l-.115.089q-.216.165-.432.327c-.336.252-.686.486-1.025.734q-1.221.9-2.461,1.766-2.664,1.866-5.359,3.685c-.338.228-.678.452-1.016.68-1.043.7-2.093,1.4-3.139,2.1l-.3.2q-6.468,4.329-12.989,8.579c-1.711,1.113-.669,4.1,1.445,3.427l16.523-5.235,1.8-.57,4.656-1.475,14.224-4.507c.236-.074.483-.135.713-.226.032-.012.047-.02.067-.028,1.483-.08,3.139-.228,4.138.942a3.5,3.5,0,0,1,.609,1.373c-.006-.005-.009.006-.006.046a2.207,2.207,0,0,0,.113.329A3.861,3.861,0,0,1,277.552,84.911Zm15.861-29.728a78.115,78.115,0,0,1-5.142,19.234,32.85,32.85,0,0,1-5.1,8.52,22.537,22.537,0,0,1-1.888,1.973,7.494,7.494,0,0,0-.32-2.716c-.068-.219-.177-.427-.244-.645-.149-.487,0-.169.022-.083-.04-.14-.086-.277-.129-.416a5.916,5.916,0,0,0-.529-1.181,6.185,6.185,0,0,0-3.148-2.592,9.556,9.556,0,0,0-5.343-.407c-1.7.387-3.383,1.064-5.045,1.59l-12,3.8-.915.29L249.47,83.87l-3.165,1,2.506-1.672c.663-.442,1.327-.881,1.988-1.326.4-.271.8-.546,1.205-.818q3.405-2.295,6.756-4.671c.646-.459,1.3-.9,1.939-1.373a26.747,26.747,0,0,0,2.774-2.239q.316-.3.608-.633c1.311-1.362,2.647-2.7,4.03-3.99q.906-.845,1.836-1.672l7.553.216,1.15.033a1.278,1.278,0,0,0,1.336-1.159,1.263,1.263,0,0,0-1.159-1.335l-6.037-.173a50.994,50.994,0,0,1,12.593-7.836c1.485-.616.356-2.847-1.126-2.233a52.8,52.8,0,0,0-12.995,8.086q.431-2.676.86-5.352a1.261,1.261,0,0,0-1.159-1.336,1.277,1.277,0,0,0-1.335,1.159l-1.287,8.012q-.959.854-1.892,1.722c-.152.142-.3.291-.45.434a7.936,7.936,0,0,0-.67-2.723,6.589,6.589,0,0,0-3.973-3.822,6.717,6.717,0,0,0-2.221-.275,9.888,9.888,0,0,0-3.3.725c-.131.052-.257.118-.386.176-1.089.49-2.115,1.148-3.151,1.73l-4.615,2.594q.045-.267.1-.532c.018-.089.037-.179.058-.267.109-.448.218-.895.348-1.337a20.72,20.72,0,0,1,.943-2.564c.069-.154.141-.307.214-.46.03-.054.2-.383.228-.444q.363-.674.778-1.318.389-.6.819-1.177.222-.294.453-.58c.094-.116.189-.23.285-.344l.021-.025.062-.068a21.844,21.844,0,0,1,2.75-2.535,24.079,24.079,0,0,1,3.407-2.213,33.017,33.017,0,0,1,7.139-2.752c9.406-2.514,19.416-2.28,29.055-1.348C294.147,49.844,293.813,52.527,293.413,55.183Z"/>
  </g>
</svg>
