<svg xmlns="http://www.w3.org/2000/svg" width="53.042" height="47.049" viewBox="0 0 53.042 47.049">
  <defs>
    <style>
      .cls-1 {
        fill: #c16c38;
      }
    </style>
  </defs>
  <g id="ICON_6_Premium_Naturally_Inspired_Ingredients" data-name="ICON_6_Premium, Naturally Inspired Ingredients" transform="translate(-248.961 -33.674)">
    <path id="Path_982" data-name="Path 982" class="cls-1" d="M291.172,57.915a.617.617,0,0,0,1.17-.134,34.734,34.734,0,0,1,1.365-4.123q.174-.443.359-.885l2.7-1.2.425-.189a.611.611,0,1,0-.457-1.133l-1.918.854a19.834,19.834,0,0,1,3.022-4.677c.525-.587-.434-1.344-.957-.76a20.8,20.8,0,0,0-3.164,4.9l-.534-1.8a.616.616,0,0,0-.795-.338.624.624,0,0,0-.338.795l.9,3.045q-.187.448-.364.9c-.349.891-.673,1.8-.962,2.715l-1.081-2.516c-.31-.72-1.445-.268-1.133.457Z" transform="translate(-20.66 -6.025)"/>
    <path id="Path_983" data-name="Path 983" class="cls-1" d="M301.153,38.526a45.941,45.941,0,0,0-14.534.343,20.243,20.243,0,0,0-4.591,1.558q-.222-.891-.476-1.77a38.019,38.019,0,0,0-1.535-4.417.936.936,0,0,0-1.193-.507A37.5,37.5,0,0,0,268.2,39.149a13.418,13.418,0,0,0-4.465,5.595,8.844,8.844,0,0,0-.521,2.205.737.737,0,0,0-.083.017,14.054,14.054,0,0,0-4.843,3.148,46.256,46.256,0,0,0-4.332,4.555c-.879,1.039-1.735,2.1-2.544,3.2a8.952,8.952,0,0,0-.95,1.9c-1.8,4.313-2.221,9.372.05,13.6a14.176,14.176,0,0,0,11.16,7.288,11.18,11.18,0,0,0,4.428-.376l8.43-2.549L282.9,75.2c2.1-.634,5.284-1.005,5.483-3.709a3.534,3.534,0,0,0-.107-1.109,2.772,2.772,0,0,0-.081-.265c-.015-.043-.054-.174-.076-.25a2.9,2.9,0,0,0-.935-1.415c.425-.139.85-.277,1.271-.425a3.37,3.37,0,0,0,2.093-4.421c-.023-.063-.051-.119-.077-.18,0-.034-.052-.254-.057-.269a2.992,2.992,0,0,0-.409-.764,2.84,2.84,0,0,0-.216-.249l.311-.1.023-.007a15.7,15.7,0,0,0,2.816-.711c2.3-.818,3.982-3.254,5.075-5.32a34.82,34.82,0,0,0,3.239-10.213A47.149,47.149,0,0,0,302,39.5.936.936,0,0,0,301.153,38.526ZM264.971,47.7c.014-.19.025-.378.048-.567a9.877,9.877,0,0,1,.22-1.13,9.382,9.382,0,0,1,1.117-2.334,12.963,12.963,0,0,1,2.266-2.5,32.287,32.287,0,0,1,10.03-5.428,36.41,36.41,0,0,1,1.741,5.609,12.046,12.046,0,0,0-1.657,1.317,11.249,11.249,0,0,0-3.36,7.461l-5.058,2.842-2.266,1.273c-.179-.089-.358-.18-.533-.276-.042-.045-.084-.091-.124-.137a11,11,0,0,1-.68-.87q-.217-.306-.414-.626c-.053-.086-.1-.174-.155-.262,0-.011-.135-.246-.171-.316a10.19,10.19,0,0,1-.708-1.751c-.023-.08-.045-.159-.067-.239l-.006-.021-.009-.046c-.038-.178-.076-.355-.106-.535a8.183,8.183,0,0,1-.108-1.091c0-.091,0-.183,0-.275,0-.019,0-.029,0-.037S264.969,47.733,264.971,47.7Zm12.4,1.069v0C277.38,48.725,277.4,48.625,277.371,48.772Zm-11.962,5.495a9.952,9.952,0,0,0,.836,1l-1.756.986A5.215,5.215,0,0,1,265.409,54.267Zm26.511,4.441c-.143.99-1.034,1.171-1.847,1.426l-.382.12-5.085,1.593-2.51.787c-3.324,1.042-6.67,2.033-9.978,3.127-.064.021-.128.04-.191.06-1.121.351-.643,2.121.487,1.767l.115-.036,9.02-2.827,5.735-1.8a1.745,1.745,0,0,1,1.08.364,1.117,1.117,0,0,1,.323.446c.058.143.241.816.087.334a3.947,3.947,0,0,1,.166.62c-.007,0,.007.323,0,.4a1.725,1.725,0,0,1-.072.336,1.3,1.3,0,0,1-.3.438,2.815,2.815,0,0,1-.572.386c-.9.358-1.866.585-2.791.875l-3.549,1.112-7.806,2.446.021.049a.916.916,0,0,0,.6,1.721l7.146-2.133c.879-.262,1.769-.5,2.64-.788.021-.007.046,0,.067-.011l-.056.015a.9.9,0,0,1,.122-.014,6.147,6.147,0,0,1,.793.011,1.36,1.36,0,0,1,1.274,1.109c.024.108.069.3.084.369,0,.023.008.034.011.046s0,.025,0,.047c0,.063.006.125.006.188a.883.883,0,0,1-.09.471c-.257.59-.852.7-1.428.875l-2.142.647-7,2.118-8.857,2.679c-.735.222-1.467.469-2.208.668-.077.021-.157.035-.234.056h0l.06-.007-.061.007c-.064.017-.221.027-.06.007l-.1.011c-.224.021-.447.04-.671.051a12.487,12.487,0,0,1-9.37-3.41,11.769,11.769,0,0,1-3.5-6.73,15.142,15.142,0,0,1,.62-6.485,13.553,13.553,0,0,1,1.3-3.187,3.883,3.883,0,0,1,.236-.339c.367-.491.46-.608.833-1.079,2.261-2.854,4.75-5.851,7.795-7.9a10.48,10.48,0,0,1,1.181-.692l1.4,3.726a6.8,6.8,0,0,0-1.7,5.093.928.928,0,0,0,1.378.791l4.212-2.367,2.118-1.19,5.122-2.878,1.776-1L279,50.2l2.006-1.127.669-.376c.072-.041.15-.077.218-.123l.012-.009a5.586,5.586,0,0,1,.829-.226c.046-.007.091-.014.137-.019a1.194,1.194,0,0,1,1.016.3c.006.006.009.013.015.019a1.925,1.925,0,0,1,.557,1.527,2.041,2.041,0,0,1-.673,1.291c-.087.087-.178.172-.272.252-.073.063-.149.121-.224.181l-.056.043-.211.16c-.164.123-.335.237-.5.359q-.6.438-1.2.863-1.3.912-2.618,1.8c-.165.111-.331.221-.5.332-.51.344-1.023.685-1.534,1.027l-.146.1q-3.16,2.115-6.346,4.192c-.836.544-.327,2,.706,1.674l8.073-2.558.879-.279,2.274-.721,6.95-2.2c.115-.036.236-.066.348-.11l.033-.014c.725-.039,1.534-.111,2.022.46a1.709,1.709,0,0,1,.3.671s0,0,0,.022a1.08,1.08,0,0,0,.055.161A1.879,1.879,0,0,1,291.919,58.709Zm7.75-14.525a38.146,38.146,0,0,1-2.512,9.4,16.049,16.049,0,0,1-2.493,4.163,11.013,11.013,0,0,1-.922.964,3.662,3.662,0,0,0-.156-1.327c-.033-.107-.086-.209-.119-.315-.073-.238,0-.083.011-.041-.02-.068-.043-.135-.064-.2a2.9,2.9,0,0,0-.258-.577,3.022,3.022,0,0,0-1.538-1.266,4.669,4.669,0,0,0-2.611-.2c-.831.189-1.653.52-2.465.777l-5.865,1.858-.447.142L278.2,58.2l-1.546.49,1.224-.817c.324-.216.648-.43.971-.648l.589-.4q1.664-1.121,3.3-2.282c.315-.224.635-.442.947-.671a13.123,13.123,0,0,0,1.356-1.094c.1-.1.2-.2.3-.309.641-.665,1.293-1.32,1.969-1.95q.443-.413.9-.817l3.69.106.562.016a.624.624,0,0,0,.653-.566.617.617,0,0,0-.566-.652l-2.95-.085a24.915,24.915,0,0,1,6.153-3.829c.726-.3.174-1.391-.55-1.091a25.8,25.8,0,0,0-6.349,3.951q.21-1.307.42-2.615a.616.616,0,0,0-.566-.653.624.624,0,0,0-.653.566l-.629,3.915q-.468.417-.924.841c-.074.069-.146.142-.22.212a3.877,3.877,0,0,0-.327-1.33,3.217,3.217,0,0,0-1.941-1.867,3.28,3.28,0,0,0-1.085-.134,4.826,4.826,0,0,0-1.613.354c-.064.025-.126.058-.189.086-.532.239-1.033.561-1.539.845l-2.255,1.267q.022-.13.046-.26c.009-.043.018-.087.028-.13.053-.219.107-.437.17-.653a10.129,10.129,0,0,1,.461-1.253c.034-.075.069-.15.1-.225.015-.026.1-.187.111-.217q.177-.329.38-.644.19-.295.4-.575.108-.144.221-.283c.046-.057.092-.112.139-.168l.01-.012.031-.033a10.67,10.67,0,0,1,1.343-1.239,11.763,11.763,0,0,1,1.665-1.081,16.132,16.132,0,0,1,3.488-1.345c4.6-1.228,9.487-1.114,14.2-.659C300.028,41.575,299.865,42.886,299.669,44.183Z" transform="translate(0 0)"/>
  </g>
</svg>
