<svg xmlns="http://www.w3.org/2000/svg" width="68.653" height="63.767" viewBox="0 0 68.653 63.767">
  <defs>
    <style>
      .cls-1 {
        fill: #c16c38;
      }
    </style>
  </defs>
  <path id="Icon_3_Aloe_and_Licorice" data-name="Icon_3_Aloe and Licorice" class="cls-1" d="M412.619,290.378c-.951-.543-1.875.408-2.654.843-2.788,1.558-5.594,3.022-8.236,4.832a55.51,55.51,0,0,0-5.788,4.558c.005-.024.01-.051.015-.076.559-2.8.945-5.639,1.311-8.472.757-5.864,1.337-11.751,1.858-17.64.118-1.331.233-2.662.338-3.994a1.127,1.127,0,0,0-2.085-.565c-1.063,2.292-2.106,4.592-3.147,6.894l-.778-2.331-.1,4.249c-.71,1.579-1.4,3.164-2.1,4.747l-.707-2.115-.088,3.909c-.316.717-.639,1.432-.954,2.15q-.435,1-.866,1.992c.074-1.027.135-2.053.175-3.078a51.382,51.382,0,0,0-.346-8.992,23.421,23.421,0,0,0-.861-3.985c-.272-.846-.61-2.46-1.614-2.74-1.75-.487-1.884,2.422-2.067,3.463-.485,2.739-1.022,5.468-1.773,8.149a39.343,39.343,0,0,1-4.1,9.864,38.34,38.34,0,0,0-4.085,9.15c-.023.076-.043.154-.065.231-.495-1.2-1.1-2.353-1.657-3.436-1.558-3-3.338-5.884-5.027-8.814a102.146,102.146,0,0,0-8.164-12.587,7.444,7.444,0,0,0-1.531-1.619,1.271,1.271,0,0,0-2.025.628,3.781,3.781,0,0,0,.482,2.221c.029.069.251.624.128.3.012.032.026.063.037.094.031.085.061.171.09.257.087.259.161.522.235.785,1.112,3.981,1.909,8.063,2.765,12.1.408,1.925.8,3.854,1.194,5.781q-1.619-2.174-3.245-4.344l.044-.064-.38-2.646-.363,1.773q-2.384-3.185-4.789-6.355l.06-.087-.38-2.646L351,284.585c-.072-.094-.142-.189-.213-.283-1.412-1.856-2.781-3.78-4.324-5.531-.8-.908-2.06.083-1.87,1.089a64.107,64.107,0,0,0,2.686,9.314c1.926,5.475,4.581,10.62,6.622,16.029,1.944,5.15,3.766,10.353,6.051,15.366a47.946,47.946,0,0,0,3.653,6.781c1.316,1.969,2.949,4.082,5.167,5.073a8.358,8.358,0,0,0,6.9-.171,22.557,22.557,0,0,0,10.888-2.091,19.2,19.2,0,0,0,8-8.052,43.315,43.315,0,0,0,2.236-4.822c.288-.711.566-1.427.847-2.141q.207-.528.418-1.055.093-.231.188-.46l.059-.142.091-.212c1.625-3.724,4.218-7.035,6.64-10.264s5.036-6.328,7.3-9.664C412.89,292.544,413.871,291.091,412.619,290.378Zm-24.929,6.854.005-.033c2.791-6.714,5.766-13.355,8.765-19.975.071-.156.144-.313.215-.469q-.2,2.131-.407,4.262c-.589,5.927-1.189,11.87-2.245,17.73-.207,1.152-.432,2.3-.738,3.434-.112.411-.245.812-.385,1.213l0,.013c-.031.064-.057.13-.092.192-.1.173-.252.363-.045.113a1.142,1.142,0,0,0-.068.1c-1.025,1.106-2,2.256-2.923,3.46a48.269,48.269,0,0,0-4.99,8.311c-.444.914-.931,1.807-1.453,2.678-.036-.122-.078-.242-.11-.365q-.1-.4-.182-.8a8.518,8.518,0,0,1-.135-.882c-.5-4.6.872-9.245,2.548-13.48q1-2.522,2.041-5.026A1.036,1.036,0,0,0,387.69,297.231Zm5.2,6.187c-.048.137-.021.053,0,0Zm-33.748-22.75-.09-.371c.565.806,1.117,1.631,1.657,2.444,1.311,1.973,2.572,3.98,3.72,6.053,1.69,3.053,3.552,6.009,5.219,9.076a42.649,42.649,0,0,1,2.126,4.345,10.41,10.41,0,0,1,.928,3.571,1.209,1.209,0,0,0,.047.307,58.99,58.99,0,0,0-.95,6.376l-4.329-5.848.023-.033-.381-2.646-.352,1.719q-.744-1-1.487-2.008-.886-1.193-1.775-2.385a1.2,1.2,0,0,0-.014-.366C362.13,294.143,360.777,287.367,359.144,280.668ZM376,329.237c-.039.045-.073.091-.115.135a4.22,4.22,0,0,1-.763.631,5.988,5.988,0,0,1-5.5.337,4.972,4.972,0,0,1-.795-.443,15.037,15.037,0,0,1-3.888-4.6,54.933,54.933,0,0,1-3.383-6.577c-2.065-4.641-3.737-9.443-5.531-14.191-1.906-5.043-4.371-9.838-6.219-14.905-.632-1.734-1.248-3.5-1.789-5.282l.28.368q3.248,4.256,6.447,8.549,7.606,10.158,15.143,20.366.892,1.2,1.781,2.41a.92.92,0,0,0,.267.36q2.018,2.73,4.035,5.46a6.919,6.919,0,0,1,1.28,3.637A5.19,5.19,0,0,1,376,329.237Zm-2.152-14a57.519,57.519,0,0,1,1.517-10.577A38.724,38.724,0,0,1,378.4,295.9c.757-1.492,1.718-2.862,2.5-4.341a40.533,40.533,0,0,0,2.066-4.647,58.377,58.377,0,0,0,2.493-8.933c.165-.81.295-1.634.43-2.457.085.378.164.759.232,1.139a42.084,42.084,0,0,1,.5,8.15c-.053,2.8-.27,5.6-.6,8.385-.141,1.188-.262,2.157-.485,3.44v0q-.817,1.961-1.611,3.93L383.1,298.1l-.106,4.652.454-1.007a46.4,46.4,0,0,0-2.311,7.326l-1.042-2,.62,4.561a21.488,21.488,0,0,0-.106,3.983,12.241,12.241,0,0,0,1.218,4.924,28.742,28.742,0,0,1-2.365,2.865c-.071.076-.148.145-.22.22a8.545,8.545,0,0,0-1.33-2.9Q375.884,317.977,373.852,315.239Zm31.232-15.951a95.365,95.365,0,0,0-7.578,10.783,32.484,32.484,0,0,0-1.861,4.09c-.57,1.442-1.129,2.906-1.7,4.181a20.978,20.978,0,0,1-5.956,8.294,17.45,17.45,0,0,1-9.766,3.354,7.7,7.7,0,0,0,1.228-3.476,29.717,29.717,0,0,0,3.42-3.658c.392-.5.767-1.014,1.131-1.534a1.046,1.046,0,0,0,.141-.2c.5-.721.969-1.46,1.408-2.22.851-1.475,1.524-3.037,2.322-4.539,4.644-8.756,12.261-15.28,20.875-19.952l.121-.063C407.636,296.016,406.343,297.644,405.083,299.288Z" transform="translate(-344.575 -269.319)"/>
</svg>
