<svg xmlns="http://www.w3.org/2000/svg" width="28.3" height="15.203" viewBox="0 0 28.3 15.203">
  <defs>
    <style>
      .cls-1 {
        fill: #5c5851;
      }
    </style>
  </defs>
  <g id="SEAL_EAR_WIPES_MB" data-name="SEAL_EAR WIPES_MB" transform="translate(-13.625 -8.953)">
    <g id="Group_633" data-name="Group 633" transform="translate(13.625 15.717)">
      <g id="Group_622" data-name="Group 622">
        <path id="Path_831" data-name="Path 831" class="cls-1" d="M17.934,23.217V21.259a.113.113,0,0,1,.011-.031l0,0v0l0,0v0l0-.007v0l.005-.006.009-.011.009-.012.005-.006h0v-.006h0l.006,0,0,0,0,0,.005,0,0,0,0,0,.005,0h.015l.006,0h.006l0,0h.012l.005,0h.033l0,0h.014a.074.074,0,0,0,.017.007.035.035,0,0,1,.016.007h0s0,0,.005,0l0,0,0,0,.005,0,.005.005h0a.07.07,0,0,1,.02.023l.005.005.005.006v.006l0,0,0,0,0,.006v.008l.328.714.328-.714,0-.008,0-.006v0l0,0,0-.006L18.9,21.2l.005-.005a.06.06,0,0,1,.022-.023l.005-.005h0l.006,0,0,0,0,0s0,0,0,0h0a.019.019,0,0,1,.013-.007l.014,0,.007,0H19l0,0h.034l.007,0h.011l0,0h.008l.005,0h.007l.005,0h0l.006,0v0l.008,0,0,0,0,0,0,0,.005,0,.005.006a.005.005,0,0,1,.006.006.089.089,0,0,1,.021.022l.005.006v0l0,.007,0,0,0,0,0,.005c0,.009.006.02.01.031l0,.009v.01l0,.006v1.933a.177.177,0,0,1-.045.123.142.142,0,0,1-.11.051.144.144,0,0,1-.11-.051.177.177,0,0,1-.045-.123V22.028l-.164.358a.155.155,0,0,1-.075.093.138.138,0,0,1-.065.017h-.009a.146.146,0,0,1-.066-.017.155.155,0,0,1-.075-.093l-.163-.358v1.189a.177.177,0,0,1-.046.123.141.141,0,0,1-.11.051.142.142,0,0,1-.11-.051A.177.177,0,0,1,17.934,23.217Z" transform="translate(-17.934 -21.107)"/>
        <path id="Path_832" data-name="Path 832" class="cls-1" d="M19.777,23.219l.346-1.909v-.019l0-.006v-.01a.126.126,0,0,1,.025-.04v0h.005v0l0,0,0,0,0,0,0,0,0,0,.005,0a.1.1,0,0,1,.037-.025h0l.005,0a.087.087,0,0,1,.023-.006l.025,0h.012l.023,0a.085.085,0,0,1,.024.006l.005,0h0a.108.108,0,0,1,.037.025l.005,0,0,0,0,0,0,0,0,0,0,0,0,0,0,0v0a.159.159,0,0,1,.025.04v.01a.117.117,0,0,1,.005.025l.345,1.909a.176.176,0,0,1,0,.038.18.18,0,0,1-.025.093.152.152,0,0,1-.1.074.1.1,0,0,1-.029,0,.138.138,0,0,1-.1-.039.184.184,0,0,1-.055-.1l-.053-.294h-.281l-.055.294a.164.164,0,0,1-.053.1.139.139,0,0,1-.1.039.125.125,0,0,1-.032,0,.15.15,0,0,1-.1-.074.184.184,0,0,1-.025-.093A.174.174,0,0,1,19.777,23.219Zm.421-.572h.155l-.077-.424Z" transform="translate(-18.446 -21.117)"/>
        <path id="Path_833" data-name="Path 833" class="cls-1" d="M21.317,23.217V21.281l0,0v-.013l0-.006v-.034l0-.005v-.006l0,0v0l0-.006h0V21.2h0l0-.005.005-.006v0l0,0v0l.006,0h0l.005-.006.005-.005h0l0,0H21.4l.006-.007a.089.089,0,0,1,.037-.014h0l.038,0h.012l0,0h.013l0,0h.007l.005,0,.008,0,.005,0h0l.005,0v0l.005,0h.007l0,0,0,0,0,0h0l.005,0v0h0v0h.005v0l.006.006.006.005.005.006,0,.006,0,0,0,0,0,.006v0l0,.005h0v.012l.444,1.14V21.306a.177.177,0,0,1,.046-.123.142.142,0,0,1,.11-.051.14.14,0,0,1,.11.051.177.177,0,0,1,.046.123v1.936l0,0v.013l0,.006V23.3l0,0,0,.006,0,0v0l0,0,0,0v.006h0l0,.005-.005.006,0,.006-.006.006h0l-.005.006-.006,0,0,0,0,0h-.008l-.006.006-.018.009-.02.006a.119.119,0,0,1-.032,0,.065.065,0,0,1-.022,0h-.009l0,0h-.01v0h-.005l-.013-.007,0,0h0l0,0,0,0,0,0H22.13a.146.146,0,0,1-.045-.055v0l0,0,0,0v0l0-.006,0-.006-.444-1.14v1.074a.177.177,0,0,1-.045.123.146.146,0,0,1-.221,0A.177.177,0,0,1,21.317,23.217Z" transform="translate(-18.876 -21.107)"/>
        <path id="Path_834" data-name="Path 834" class="cls-1" d="M23.078,22.874v-1.56a.176.176,0,0,1,.045-.123.145.145,0,0,1,.222,0,.176.176,0,0,1,.045.123v1.55a.288.288,0,0,0,.006.054.376.376,0,0,0,.015.059.146.146,0,0,0,.03.052.275.275,0,0,0,.033.027.158.158,0,0,0,.086.018.189.189,0,0,0,.095-.018.27.27,0,0,0,.035-.027.2.2,0,0,0,.044-.1.667.667,0,0,0,.008-.086V21.317a.176.176,0,0,1,.045-.123.145.145,0,0,1,.221,0,.176.176,0,0,1,.045.123v1.506c0,.012,0,.033,0,.065a.516.516,0,0,1-.014.11.752.752,0,0,1-.042.133.462.462,0,0,1-.08.132.483.483,0,0,1-.132.106.429.429,0,0,1-.223.052.421.421,0,0,1-.223-.053.509.509,0,0,1-.128-.105.475.475,0,0,1-.079-.136.832.832,0,0,1-.039-.137A.709.709,0,0,1,23.078,22.874Z" transform="translate(-19.366 -21.109)"/>
        <path id="Path_835" data-name="Path 835" class="cls-1" d="M24.733,23.213V21.3a.178.178,0,0,1,.045-.123.143.143,0,0,1,.11-.051h.652a.144.144,0,0,1,.111.051.191.191,0,0,1,0,.247.144.144,0,0,1-.112.049h-.5V22.2h.349a.139.139,0,0,1,.111.051.193.193,0,0,1,0,.245.139.139,0,0,1-.111.051h-.349v.664a.179.179,0,0,1-.044.123.141.141,0,0,1-.112.051.144.144,0,0,1-.11-.051A.177.177,0,0,1,24.733,23.213Z" transform="translate(-19.827 -21.106)"/>
        <path id="Path_836" data-name="Path 836" class="cls-1" d="M25.965,23.219l.346-1.909v-.019l0-.006v-.01a.114.114,0,0,1,.025-.04v0h.005v0l0,0,0,0,0,0v0l0,0,.005,0a.1.1,0,0,1,.037-.025h0l.005,0a.075.075,0,0,1,.023-.006l.024,0h.013l.023,0a.08.08,0,0,1,.023.006l.005,0h0a.124.124,0,0,1,.037.025l.005,0,0,0,0,0,0,0,0,0,0,0,0,0,0,0v0a.157.157,0,0,1,.024.04v.01a.091.091,0,0,1,.006.025l.344,1.909a.176.176,0,0,1,0,.038.174.174,0,0,1-.025.093.15.15,0,0,1-.1.074.1.1,0,0,1-.029,0,.137.137,0,0,1-.1-.039.185.185,0,0,1-.056-.1l-.053-.294h-.281l-.056.294a.161.161,0,0,1-.053.1.139.139,0,0,1-.1.039.128.128,0,0,1-.032,0,.149.149,0,0,1-.1-.074.177.177,0,0,1-.025-.093A.23.23,0,0,1,25.965,23.219Zm.421-.572h.155l-.076-.424Z" transform="translate(-20.169 -21.117)"/>
        <path id="Path_837" data-name="Path 837" class="cls-1" d="M27.539,22.859v-1.18a.64.64,0,0,1,.052-.281.726.726,0,0,1,.106-.162.454.454,0,0,1,.149-.1.437.437,0,0,1,.175-.036.485.485,0,0,1,.178.035.45.45,0,0,1,.159.107.555.555,0,0,1,.114.182.688.688,0,0,1,.044.259.176.176,0,0,1-.045.124.15.15,0,0,1-.222,0,.176.176,0,0,1-.045-.125.321.321,0,0,0-.02-.123.194.194,0,0,0-.047-.07.14.14,0,0,0-.059-.033.229.229,0,0,0-.058-.009.2.2,0,0,0-.048.007.135.135,0,0,0-.056.032.185.185,0,0,0-.046.07.331.331,0,0,0-.019.126v1.168a.387.387,0,0,0,.005.054.357.357,0,0,0,.016.061.135.135,0,0,0,.029.052.3.3,0,0,0,.034.027.164.164,0,0,0,.088.018.182.182,0,0,0,.094-.018.123.123,0,0,0,.032-.03.184.184,0,0,0,.046-.1.743.743,0,0,0,.009-.09v-.031a.16.16,0,0,1,.013-.062.167.167,0,0,1,.043-.063.132.132,0,0,1,.087-.032h.012a.124.124,0,0,1,.081.025.157.157,0,0,1,.05.058.249.249,0,0,1,.026.086c0,.006,0,.025,0,.056a.948.948,0,0,1-.013.113.926.926,0,0,1-.041.14.469.469,0,0,1-.083.139.477.477,0,0,1-.131.106.43.43,0,0,1-.224.052.421.421,0,0,1-.223-.053.468.468,0,0,1-.209-.242.7.7,0,0,1-.04-.137A.716.716,0,0,1,27.539,22.859Z" transform="translate(-20.608 -21.097)"/>
        <path id="Path_838" data-name="Path 838" class="cls-1" d="M28.992,21.31a.176.176,0,0,1,.045-.124.145.145,0,0,1,.111-.05h.8a.143.143,0,0,1,.11.05.176.176,0,0,1,.046.124.179.179,0,0,1-.046.123.141.141,0,0,1-.11.051h-.241v1.732a.177.177,0,0,1-.045.123.145.145,0,0,1-.111.051.143.143,0,0,1-.11-.051.174.174,0,0,1-.046-.123V21.483h-.247a.144.144,0,0,1-.111-.051A.178.178,0,0,1,28.992,21.31Z" transform="translate(-21.013 -21.108)"/>
        <path id="Path_839" data-name="Path 839" class="cls-1" d="M30.681,22.874v-1.56a.177.177,0,0,1,.045-.123.145.145,0,0,1,.11-.051.143.143,0,0,1,.11.051.177.177,0,0,1,.045.123v1.55a.288.288,0,0,0,.006.054.47.47,0,0,0,.014.059.158.158,0,0,0,.03.052.354.354,0,0,0,.033.027.162.162,0,0,0,.086.018.185.185,0,0,0,.095-.018.224.224,0,0,0,.035-.027.2.2,0,0,0,.045-.1.779.779,0,0,0,.007-.086V21.317a.176.176,0,0,1,.046-.123.143.143,0,0,1,.11-.051.142.142,0,0,1,.11.051.176.176,0,0,1,.046.123v1.506c0,.012,0,.033,0,.065a.573.573,0,0,1-.015.11.746.746,0,0,1-.041.133.467.467,0,0,1-.212.238.431.431,0,0,1-.224.052.419.419,0,0,1-.222-.053.514.514,0,0,1-.129-.105.456.456,0,0,1-.079-.136.767.767,0,0,1-.039-.137A.643.643,0,0,1,30.681,22.874Z" transform="translate(-21.483 -21.109)"/>
        <path id="Path_840" data-name="Path 840" class="cls-1" d="M32.333,23.215v-1.9a.177.177,0,0,1,.045-.123.143.143,0,0,1,.11-.051h.377a.332.332,0,0,1,.19.062.55.55,0,0,1,.159.178.924.924,0,0,1,.117.468,1.024,1.024,0,0,1-.03.245.887.887,0,0,1-.087.219.5.5,0,0,1-.054.079c-.019.023-.039.043-.057.063l.273.7a.175.175,0,0,1,.015.07.169.169,0,0,1-.012.062.16.16,0,0,1-.085.095.172.172,0,0,1-.062.016.143.143,0,0,1-.083-.027.175.175,0,0,1-.06-.077l-.289-.733h-.156v.664a.177.177,0,0,1-.045.123.145.145,0,0,1-.221,0A.177.177,0,0,1,32.333,23.215Zm.312-1.01h.221a.069.069,0,0,0,.035-.019.324.324,0,0,0,.051-.064A.425.425,0,0,0,33,21.991a.631.631,0,0,0,.017-.147A.648.648,0,0,0,33,21.7a.488.488,0,0,0-.051-.132A.319.319,0,0,0,32.9,21.5a.073.073,0,0,0-.035-.018h-.221Z" transform="translate(-21.943 -21.108)"/>
        <path id="Path_841" data-name="Path 841" class="cls-1" d="M34.035,23.213V21.3a.178.178,0,0,1,.045-.123.144.144,0,0,1,.111-.051h.636a.141.141,0,0,1,.11.051.193.193,0,0,1,0,.247.142.142,0,0,1-.11.049h-.481V22.2h.333a.142.142,0,0,1,.11.051.188.188,0,0,1,0,.245.142.142,0,0,1-.11.051h-.333v.491h.481a.144.144,0,0,1,.11.051.191.191,0,0,1,0,.245.142.142,0,0,1-.11.051h-.636a.145.145,0,0,1-.111-.051A.177.177,0,0,1,34.035,23.213Z" transform="translate(-22.417 -21.106)"/>
        <path id="Path_842" data-name="Path 842" class="cls-1" d="M35.609,23.217V21.306a.177.177,0,0,1,.046-.123.142.142,0,0,1,.11-.051H36.1a.446.446,0,0,1,.325.138.684.684,0,0,1,.105.164.64.64,0,0,1,.052.281v1.091a.64.64,0,0,1-.052.281.7.7,0,0,1-.105.162.447.447,0,0,1-.325.139h-.339a.142.142,0,0,1-.11-.051A.177.177,0,0,1,35.609,23.217Zm.312-.173H36.1a.206.206,0,0,0,.048-.007A.133.133,0,0,0,36.209,23a.192.192,0,0,0,.047-.071.338.338,0,0,0,.019-.127V21.716a.338.338,0,0,0-.019-.127.192.192,0,0,0-.047-.071.133.133,0,0,0-.057-.032.206.206,0,0,0-.048-.007h-.183Z" transform="translate(-22.855 -21.107)"/>
      </g>
      <g id="Group_623" data-name="Group 623" transform="translate(14.84 0.026)">
        <path id="Path_843" data-name="Path 843" class="cls-1" d="M38.5,23.219l.345-1.909v-.019l0-.006v-.01a.114.114,0,0,1,.025-.04v0h.005v0l0,0,0,0,0,0,0,0,0,0,.005,0a.108.108,0,0,1,.037-.025h0l.005,0a.08.08,0,0,1,.023-.006l.024,0h.013l.023,0a.075.075,0,0,1,.023.006l.005,0h0a.116.116,0,0,1,.037.025l.005,0,0,0,0,0,0,0,0,0,0,0,0,0,0,0v0a.157.157,0,0,1,.024.04v.01a.091.091,0,0,1,.006.025l.345,1.909a.235.235,0,0,1,0,.038.174.174,0,0,1-.025.093.15.15,0,0,1-.1.074.1.1,0,0,1-.029,0,.138.138,0,0,1-.1-.039.179.179,0,0,1-.055-.1l-.054-.294h-.281l-.055.294a.165.165,0,0,1-.053.1.139.139,0,0,1-.1.039.119.119,0,0,1-.031,0,.149.149,0,0,1-.1-.074.177.177,0,0,1-.025-.093A.173.173,0,0,1,38.5,23.219Zm.421-.572h.154L39,22.223Z" transform="translate(-38.5 -21.143)"/>
        <path id="Path_844" data-name="Path 844" class="cls-1" d="M40.044,23.217V21.281l0,0v-.013l0-.006v-.034l.005-.005v-.006l0,0v0l0-.006h0V21.2h0l0-.005.005-.006v0l.005,0v0l.006,0h0l.005-.006,0-.005h0l0,0h.007l.006-.007a.086.086,0,0,1,.037-.014h0l.038,0h.012l0,0h.012l0,0h.008l.005,0,.008,0,0,0h0l.005,0v0l.006,0h.007l0,0,0,0,0,0h0l.005,0v0H40.3v0h.005v0l.006.006.006.005.005.006,0,.006,0,0,0,0,0,.006v0l0,.005h0v.012l.444,1.14V21.306a.177.177,0,0,1,.045-.123.146.146,0,0,1,.221,0,.177.177,0,0,1,.046.123v1.936l0,0v.013l0,.006V23.3l0,0,0,0,0,.006,0,0v0l0,0,0,0v.006h0l0,.005-.005.006-.005.006-.006.006h0l0,.006-.006,0,0,0,0,0h-.009l-.006.006L41,23.381l-.02.006a.122.122,0,0,1-.032,0,.067.067,0,0,1-.023,0h-.009l0,0H40.9v0h-.005l-.012-.007,0,0h0l0,0-.005,0,0,0h-.009a.148.148,0,0,1-.046-.055v0l0,0,0,0v0l0-.006,0-.006-.444-1.14v1.074a.176.176,0,0,1-.045.123.147.147,0,0,1-.222,0A.177.177,0,0,1,40.044,23.217Z" transform="translate(-38.93 -21.133)"/>
        <path id="Path_845" data-name="Path 845" class="cls-1" d="M41.763,23.217V21.306a.177.177,0,0,1,.046-.123.143.143,0,0,1,.11-.051h.339a.444.444,0,0,1,.325.138.684.684,0,0,1,.106.164.652.652,0,0,1,.051.281v1.091a.652.652,0,0,1-.051.281.7.7,0,0,1-.106.162.446.446,0,0,1-.325.139H41.92a.143.143,0,0,1-.11-.051A.177.177,0,0,1,41.763,23.217Zm.312-.173h.183a.2.2,0,0,0,.048-.007A.129.129,0,0,0,42.363,23a.192.192,0,0,0,.047-.071.337.337,0,0,0,.019-.127V21.716a.337.337,0,0,0-.019-.127.192.192,0,0,0-.047-.071.129.129,0,0,0-.057-.032.2.2,0,0,0-.048-.007h-.183Z" transform="translate(-39.408 -21.133)"/>
      </g>
      <g id="Group_624" data-name="Group 624" transform="translate(19.383)">
        <path id="Path_846" data-name="Path 846" class="cls-1" d="M44.8,23.214v-1.9a.177.177,0,0,1,.021-.088.162.162,0,0,1,.055-.061.156.156,0,0,1,.082-.027h.372a.329.329,0,0,1,.19.062.53.53,0,0,1,.159.18.809.809,0,0,1,.087.218,1,1,0,0,1,.03.247.985.985,0,0,1-.03.245.874.874,0,0,1-.087.22.558.558,0,0,1-.158.179.335.335,0,0,1-.19.063h-.219v.666a.174.174,0,0,1-.045.123.145.145,0,0,1-.221,0A.177.177,0,0,1,44.8,23.214Zm.312-1.013h.219a.066.066,0,0,0,.035-.019.3.3,0,0,0,.051-.064.5.5,0,0,0,.049-.131.6.6,0,0,0,.019-.147.58.58,0,0,0-.019-.149.57.57,0,0,0-.048-.132.294.294,0,0,0-.051-.062.069.069,0,0,0-.035-.018h-.219Z" transform="translate(-44.796 -21.107)"/>
        <path id="Path_847" data-name="Path 847" class="cls-1" d="M46.281,23.219l.345-1.909v-.019l0-.006v-.01a.126.126,0,0,1,.025-.04v0h.005v0l0,0,0,0,0,0,0,0,0,0,.005,0a.1.1,0,0,1,.036-.025h0l.005,0a.087.087,0,0,1,.023-.006l.025,0h.012l.023,0a.084.084,0,0,1,.024.006l0,0h0a.116.116,0,0,1,.037.025l.005,0,0,0,0,0,0,0,0,0,0,0,0,0,0,0v0a.159.159,0,0,1,.025.04v.01a.118.118,0,0,1,.005.025l.345,1.909a.176.176,0,0,1,0,.038.18.18,0,0,1-.025.093.153.153,0,0,1-.1.074.1.1,0,0,1-.029,0,.138.138,0,0,1-.1-.039.184.184,0,0,1-.055-.1l-.053-.294h-.281l-.055.294a.164.164,0,0,1-.053.1.139.139,0,0,1-.1.039.125.125,0,0,1-.032,0,.149.149,0,0,1-.1-.074.184.184,0,0,1-.025-.093A.174.174,0,0,1,46.281,23.219Zm.421-.572h.155l-.077-.424Z" transform="translate(-45.208 -21.117)"/>
        <path id="Path_848" data-name="Path 848" class="cls-1" d="M47.851,22.859v-1.18A.639.639,0,0,1,47.9,21.4a.679.679,0,0,1,.106-.162.459.459,0,0,1,.148-.1.437.437,0,0,1,.175-.036.485.485,0,0,1,.178.035.443.443,0,0,1,.159.107.544.544,0,0,1,.114.182.688.688,0,0,1,.045.259.177.177,0,0,1-.045.124.144.144,0,0,1-.11.049.146.146,0,0,1-.11-.048.176.176,0,0,1-.045-.125.337.337,0,0,0-.019-.123.2.2,0,0,0-.048-.07.132.132,0,0,0-.059-.033.224.224,0,0,0-.058-.009.2.2,0,0,0-.047.007.127.127,0,0,0-.056.032.186.186,0,0,0-.047.07.348.348,0,0,0-.019.126v1.168a.388.388,0,0,0,.005.054.355.355,0,0,0,.015.061.157.157,0,0,0,.029.052.4.4,0,0,0,.034.027.167.167,0,0,0,.088.018.179.179,0,0,0,.094-.018.129.129,0,0,0,.033-.03.183.183,0,0,0,.045-.1.743.743,0,0,0,.009-.09v-.031a.162.162,0,0,1,.014-.062.165.165,0,0,1,.043-.063.135.135,0,0,1,.087-.032h.012a.122.122,0,0,1,.081.025.159.159,0,0,1,.051.058.266.266,0,0,1,.026.086c0,.006,0,.025,0,.056a.83.83,0,0,1-.014.113.842.842,0,0,1-.04.14.487.487,0,0,1-.084.139.472.472,0,0,1-.131.106.432.432,0,0,1-.224.052.419.419,0,0,1-.222-.053.468.468,0,0,1-.209-.242.737.737,0,0,1-.052-.253Z" transform="translate(-45.647 -21.097)"/>
        <path id="Path_849" data-name="Path 849" class="cls-1" d="M49.456,23.23V21.321A.172.172,0,0,1,49.5,21.2a.145.145,0,0,1,.221,0,.175.175,0,0,1,.045.122v.686l.426-.768a.149.149,0,0,1,.1-.079.242.242,0,0,1,.037-.006.147.147,0,0,1,.082.027.169.169,0,0,1,.07.108.161.161,0,0,1,.006.04.167.167,0,0,1-.026.089l-.382.689.473,1.033a.2.2,0,0,1,.017.08.21.21,0,0,1-.008.055.152.152,0,0,1-.08.1.156.156,0,0,1-.07.019.137.137,0,0,1-.08-.025.155.155,0,0,1-.056-.071l-.386-.843-.119.214v.562a.181.181,0,0,1-.045.123.147.147,0,0,1-.222,0A.175.175,0,0,1,49.456,23.23Z" transform="translate(-46.093 -21.111)"/>
        <path id="Path_850" data-name="Path 850" class="cls-1" d="M51.049,23.219l.346-1.909v-.019l0-.006v-.01a.114.114,0,0,1,.025-.04v0h.005v0l0,0,0,0,0,0v0l0,0,.005,0a.1.1,0,0,1,.037-.025h0l.005,0a.075.075,0,0,1,.023-.006l.024,0h.013l.023,0a.08.08,0,0,1,.023.006l.005,0h0a.124.124,0,0,1,.037.025l.005,0,0,0,0,0,0,0,0,0,0,0,0,0,0,0v0a.157.157,0,0,1,.024.04v.01a.091.091,0,0,1,.006.025l.344,1.909a.176.176,0,0,1,0,.038.174.174,0,0,1-.025.093.15.15,0,0,1-.1.074.1.1,0,0,1-.029,0,.137.137,0,0,1-.1-.039.185.185,0,0,1-.056-.1l-.053-.294h-.281l-.056.294a.161.161,0,0,1-.053.1.139.139,0,0,1-.1.039.128.128,0,0,1-.032,0,.149.149,0,0,1-.1-.074.177.177,0,0,1-.025-.093A.23.23,0,0,1,51.049,23.219Zm.421-.572h.155l-.076-.424Z" transform="translate(-46.536 -21.117)"/>
        <path id="Path_851" data-name="Path 851" class="cls-1" d="M52.588,22.859v-.03c0-.018,0-.032,0-.041V21.679a.63.63,0,0,1,.052-.281.68.68,0,0,1,.106-.162.429.429,0,0,1,.323-.139.441.441,0,0,1,.323.133.7.7,0,0,1,.108.165.643.643,0,0,1,.053.285.177.177,0,0,1-.045.124.143.143,0,0,1-.111.049.145.145,0,0,1-.11-.048.176.176,0,0,1-.045-.125.357.357,0,0,0-.017-.118.207.207,0,0,0-.04-.072.128.128,0,0,0-.056-.035.2.2,0,0,0-.06-.01.2.2,0,0,0-.049.007.127.127,0,0,0-.055.032.2.2,0,0,0-.045.07.316.316,0,0,0-.02.126V22.8l0,.006c0,.009,0,.022,0,.038a.415.415,0,0,0,.006.055.438.438,0,0,0,.015.061.158.158,0,0,0,.03.052.226.226,0,0,0,.032.027.159.159,0,0,0,.087.018.169.169,0,0,0,.095-.019.273.273,0,0,0,.035-.028.134.134,0,0,0,.028-.05.448.448,0,0,0,.017-.058.2.2,0,0,0,.006-.051v-.325h-.113a.144.144,0,0,1-.11-.051.189.189,0,0,1,0-.245.145.145,0,0,1,.111-.051h.425v.626c0,.011,0,.033,0,.066a.69.69,0,0,1-.014.112.963.963,0,0,1-.04.133.46.46,0,0,1-.079.132.523.523,0,0,1-.135.106.435.435,0,0,1-.225.052.417.417,0,0,1-.222-.053.507.507,0,0,1-.128-.105.456.456,0,0,1-.079-.136.755.755,0,0,1-.04-.137A.657.657,0,0,1,52.588,22.859Z" transform="translate(-46.965 -21.097)"/>
        <path id="Path_852" data-name="Path 852" class="cls-1" d="M54.227,23.213V21.3a.179.179,0,0,1,.046-.123.142.142,0,0,1,.11-.051h.636a.141.141,0,0,1,.11.051.19.19,0,0,1,0,.247.142.142,0,0,1-.11.049h-.481V22.2h.333a.142.142,0,0,1,.11.051.186.186,0,0,1,0,.245.142.142,0,0,1-.11.051h-.333v.491h.481a.143.143,0,0,1,.11.051.188.188,0,0,1,0,.245.142.142,0,0,1-.11.051h-.636a.143.143,0,0,1-.11-.051A.177.177,0,0,1,54.227,23.213Z" transform="translate(-47.422 -21.106)"/>
        <path id="Path_853" data-name="Path 853" class="cls-1" d="M55.8,23.217V21.306a.177.177,0,0,1,.045-.123.143.143,0,0,1,.11-.051h.339a.444.444,0,0,1,.325.138.684.684,0,0,1,.106.164.641.641,0,0,1,.051.281v1.091a.641.641,0,0,1-.051.281.7.7,0,0,1-.106.162.446.446,0,0,1-.325.139h-.339a.143.143,0,0,1-.11-.051A.177.177,0,0,1,55.8,23.217Zm.312-.173h.183a.211.211,0,0,0,.048-.007A.137.137,0,0,0,56.4,23a.2.2,0,0,0,.046-.071.324.324,0,0,0,.019-.127V21.716a.324.324,0,0,0-.019-.127.2.2,0,0,0-.046-.071.137.137,0,0,0-.057-.032.211.211,0,0,0-.048-.007H56.11Z" transform="translate(-47.859 -21.107)"/>
      </g>
      <g id="Group_625" data-name="Group 625" transform="translate(1.634 3.091)">
        <path id="Path_854" data-name="Path 854" class="cls-1" d="M20.2,27.465V25.554a.174.174,0,0,1,.045-.123.147.147,0,0,1,.222,0,.18.18,0,0,1,.045.123v1.911a.18.18,0,0,1-.045.123.146.146,0,0,1-.222,0A.174.174,0,0,1,20.2,27.465Z" transform="translate(-20.198 -25.381)"/>
        <path id="Path_855" data-name="Path 855" class="cls-1" d="M20.937,27.465V25.529l0,0v-.013l0-.006v-.033l0-.006v-.006l0,0v0l0-.006h0v-.005h0l0-.006.005-.006v0l.005,0v0l.005,0h0L21,25.416l.005-.005h0l0,0h.007l.005-.007a.082.082,0,0,1,.037-.014h0a.17.17,0,0,1,.038,0h.012l0,0h.013l0,0h.008l0,0,.008,0,.005,0h0l.005,0v0l.005,0h.007l0,0,0,0,0,0h0l.005,0v0H21.2v0h0v0l.006.006.006.006.005.005,0,.006,0,0,0,0v.009l0,.005h0v.012l.444,1.14V25.554a.177.177,0,0,1,.046-.123.146.146,0,0,1,.221,0,.177.177,0,0,1,.045.123V27.49l0,0v.013l0,.006v.034l0,0,0,0,0,.006,0,0v0l0,0,0,0v.006h0l0,.005,0,.006-.005.006-.006.006h0l-.005.006-.006,0,0,0,0,0h-.009l-.006.006-.017.009-.021.006a.111.111,0,0,1-.032,0,.062.062,0,0,1-.022,0H21.8l0,0h-.01v0h-.005l-.013-.007,0,0h0l0,0-.005,0,0,0H21.75a.155.155,0,0,1-.045-.056v0l0,0,0,0v0l0-.006,0-.006-.444-1.14v1.074a.177.177,0,0,1-.045.123.145.145,0,0,1-.221,0A.177.177,0,0,1,20.937,27.465Z" transform="translate(-20.404 -25.381)"/>
      </g>
      <g id="Group_626" data-name="Group 626" transform="translate(4.335 3.088)">
        <path id="Path_856" data-name="Path 856" class="cls-1" d="M23.941,25.558a.176.176,0,0,1,.046-.124.143.143,0,0,1,.11-.049h.8a.143.143,0,0,1,.11.049.175.175,0,0,1,.045.124.178.178,0,0,1-.045.123.142.142,0,0,1-.11.051h-.241v1.732a.177.177,0,0,1-.045.123.145.145,0,0,1-.111.051.143.143,0,0,1-.11-.051.174.174,0,0,1-.045-.123V25.731H24.1a.142.142,0,0,1-.11-.051A.179.179,0,0,1,23.941,25.558Z" transform="translate(-23.941 -25.379)"/>
        <path id="Path_857" data-name="Path 857" class="cls-1" d="M25.623,27.465V25.554a.177.177,0,0,1,.045-.123.144.144,0,0,1,.111-.051.142.142,0,0,1,.11.051.174.174,0,0,1,.045.123v.9h.4v-.9a.177.177,0,0,1,.045-.123.144.144,0,0,1,.111-.051.142.142,0,0,1,.11.051.174.174,0,0,1,.046.123v1.911a.174.174,0,0,1-.046.123.143.143,0,0,1-.11.051.144.144,0,0,1-.111-.051.177.177,0,0,1-.045-.123V26.8h-.4v.664a.174.174,0,0,1-.045.123.143.143,0,0,1-.11.051.144.144,0,0,1-.111-.051A.177.177,0,0,1,25.623,27.465Z" transform="translate(-24.409 -25.378)"/>
        <path id="Path_858" data-name="Path 858" class="cls-1" d="M27.371,27.461V25.55a.178.178,0,0,1,.045-.123.144.144,0,0,1,.111-.051h.636a.141.141,0,0,1,.11.051.193.193,0,0,1,0,.247.142.142,0,0,1-.11.049h-.481v.727h.333a.142.142,0,0,1,.11.051.188.188,0,0,1,0,.245.142.142,0,0,1-.11.051h-.333v.491h.481a.144.144,0,0,1,.11.051.191.191,0,0,1,0,.245.142.142,0,0,1-.11.051h-.636a.144.144,0,0,1-.111-.051A.177.177,0,0,1,27.371,27.461Z" transform="translate(-24.896 -25.377)"/>
      </g>
      <g id="Group_627" data-name="Group 627" transform="translate(9.009 3.065)">
        <path id="Path_859" data-name="Path 859" class="cls-1" d="M30.419,27.122v-1.56a.176.176,0,0,1,.045-.123.145.145,0,0,1,.222,0,.176.176,0,0,1,.045.123v1.55a.288.288,0,0,0,.006.054.375.375,0,0,0,.015.059.136.136,0,0,0,.03.052.225.225,0,0,0,.033.027.158.158,0,0,0,.086.018.189.189,0,0,0,.095-.018.206.206,0,0,0,.034-.027.191.191,0,0,0,.045-.1.667.667,0,0,0,.008-.086V25.565a.177.177,0,0,1,.045-.123.145.145,0,0,1,.221,0,.177.177,0,0,1,.045.123v1.506c0,.012,0,.033,0,.065a.628.628,0,0,1-.014.11.752.752,0,0,1-.042.133.462.462,0,0,1-.08.132.483.483,0,0,1-.132.106.428.428,0,0,1-.223.052.421.421,0,0,1-.223-.053.514.514,0,0,1-.129-.105.472.472,0,0,1-.079-.136.813.813,0,0,1-.039-.137A.709.709,0,0,1,30.419,27.122Z" transform="translate(-30.419 -25.357)"/>
        <path id="Path_860" data-name="Path 860" class="cls-1" d="M32.024,27.065a.182.182,0,0,1,.045-.123.148.148,0,0,1,.223,0,.184.184,0,0,1,.044.123.543.543,0,0,0,.006.083.216.216,0,0,0,.027.076.14.14,0,0,0,.061.056.227.227,0,0,0,.107.021.281.281,0,0,0,.087-.012.178.178,0,0,0,.069-.04.246.246,0,0,0,.062-.182.5.5,0,0,0-.022-.155.414.414,0,0,0-.061-.123.672.672,0,0,0-.1-.107l-.131-.108c-.044-.035-.089-.071-.133-.109a.839.839,0,0,1-.124-.128.741.741,0,0,1-.1-.192.642.642,0,0,1-.036-.218c0-.012,0-.032,0-.063a.57.57,0,0,1,.014-.106.708.708,0,0,1,.039-.128.463.463,0,0,1,.079-.128.483.483,0,0,1,.132-.106.446.446,0,0,1,.228-.052.414.414,0,0,1,.227.054.549.549,0,0,1,.129.107.5.5,0,0,1,.074.14.644.644,0,0,1,.032.136.512.512,0,0,1,.006.084v.024a.353.353,0,0,1-.006.056.193.193,0,0,1-.031.086.16.16,0,0,1-.056.053.094.094,0,0,1-.051.012.2.2,0,0,1-.043-.005.161.161,0,0,1-.085-.042.158.158,0,0,1-.036-.063.2.2,0,0,1-.008-.059c0-.017,0-.028,0-.032a.125.125,0,0,0,0-.032.238.238,0,0,0,0-.043.255.255,0,0,0-.012-.046.151.151,0,0,0-.02-.04.139.139,0,0,0-.121-.043.171.171,0,0,0-.1.019c-.018.014-.03.023-.035.028a.137.137,0,0,0-.027.047.3.3,0,0,0-.014.052.3.3,0,0,0-.006.045v.038a.308.308,0,0,0,.018.106.346.346,0,0,0,.051.089.586.586,0,0,0,.082.084l.112.09.149.126a.981.981,0,0,1,.141.152.834.834,0,0,1,.154.5.681.681,0,0,1-.017.16.74.74,0,0,1-.042.126.466.466,0,0,1-.056.1.6.6,0,0,1-.062.069.513.513,0,0,1-.354.13.56.56,0,0,1-.19-.032.414.414,0,0,1-.155-.1.4.4,0,0,1-.059-.066.569.569,0,0,1-.094-.222A.76.76,0,0,1,32.024,27.065Z" transform="translate(-30.866 -25.345)"/>
        <path id="Path_861" data-name="Path 861" class="cls-1" d="M33.534,27.467l.345-1.909v-.019l0-.006v-.01a.115.115,0,0,1,.025-.039v0h.005v0l0,0,0,0,0,0,0,0,0,0,.005,0a.1.1,0,0,1,.036-.025h0l.005,0A.087.087,0,0,1,34,25.422l.025,0h.012l.023,0a.085.085,0,0,1,.024.006l0,0h0a.116.116,0,0,1,.037.025l.005,0,0,0,0,0,0,0,0,0v0l0,0,0,0v0a.143.143,0,0,1,.025.039v.01a.1.1,0,0,1,.006.025l.345,1.909a.176.176,0,0,1,0,.038.174.174,0,0,1-.026.093.151.151,0,0,1-.1.074.1.1,0,0,1-.029,0,.138.138,0,0,1-.1-.039.184.184,0,0,1-.055-.1l-.053-.294h-.281l-.055.294a.164.164,0,0,1-.053.1.14.14,0,0,1-.1.039.125.125,0,0,1-.032,0,.149.149,0,0,1-.1-.074.184.184,0,0,1-.025-.093A.174.174,0,0,1,33.534,27.467Zm.421-.572h.155l-.077-.424Z" transform="translate(-31.285 -25.365)"/>
      </g>
      <g id="Group_628" data-name="Group 628" transform="translate(13.409 3.091)">
        <path id="Path_862" data-name="Path 862" class="cls-1" d="M36.517,25.586c0-.008,0-.016,0-.024a.185.185,0,0,1,.033-.106.15.15,0,0,1,.105-.065h.022a.139.139,0,0,1,.094.037.169.169,0,0,1,.058.115l.126,1.143.085-.286v-.009l0,0v-.011a.029.029,0,0,0,.006-.011.031.031,0,0,1,.007-.011l0-.006v0h.005v0h.005v0l0,0,.005,0v0l0,0v0l.005,0,.008-.006a.1.1,0,0,1,.019-.013l0,0,0,0h0l0,0,.008,0,.007,0h.008l0,0h.014l0,0h.03l0,0h.014l0,0h.008l.006,0,.008,0,.005,0a.17.17,0,0,1,.027.019s.005,0,.005.006h0l0,0,0,0,0,0v0l0,0,0,0,0,0,0,0,0,0,0,0,0,0,0,.006a.022.022,0,0,1,.006.011.019.019,0,0,0,.007.011l0,.008v0l0,0V26.4l.082.286.128-1.143a.169.169,0,0,1,.058-.115.139.139,0,0,1,.095-.037h.021a.147.147,0,0,1,.1.065.175.175,0,0,1,.032.106c0,.007,0,.015,0,.024l-.211,1.9v.018l0,0v.009l0,.005,0,.009,0,.01,0,.009h0v.016h0l0,.006v0l0,0,0,0,0,0a.119.119,0,0,1-.029.028h0l0,0h0l-.005,0,0,0,0,0h-.006v0l-.017.006-.017.006h-.011l0,0h-.017l-.027,0-.008,0h-.008l0,0h0l-.005,0h0l0,0a.022.022,0,0,1-.018-.01l-.005,0-.005,0-.005,0h-.005l-.005-.006a.135.135,0,0,1-.037-.052l0-.006,0,0v-.017l-.154-.517-.154.517,0,.009,0,.006v0l0,0,0,.006a.185.185,0,0,1-.036.052l-.005.006h0l0,0-.005,0-.005,0h0l0,0h0a.083.083,0,0,1-.022.013l-.006,0h0l0,0h-.008l-.007,0a.114.114,0,0,1-.027,0h-.017l0,0h-.01l-.019-.006-.016-.006,0,0h0l0,0,0,0,0,0h0l-.005,0a.162.162,0,0,1-.027-.025l0,0,0,0,0,0,0,0v0l-.005-.006v-.007a.159.159,0,0,1-.012-.028l0-.009,0-.005V27.5s0-.006,0-.014Z" transform="translate(-36.516 -25.384)"/>
        <path id="Path_863" data-name="Path 863" class="cls-1" d="M38.7,27.465V25.554a.174.174,0,0,1,.045-.123.147.147,0,0,1,.222,0,.18.18,0,0,1,.045.123v1.911a.18.18,0,0,1-.045.123.146.146,0,0,1-.222,0A.174.174,0,0,1,38.7,27.465Z" transform="translate(-37.124 -25.381)"/>
        <path id="Path_864" data-name="Path 864" class="cls-1" d="M39.287,25.558a.175.175,0,0,1,.045-.124.145.145,0,0,1,.111-.049h.8a.142.142,0,0,1,.11.049.176.176,0,0,1,.046.124.179.179,0,0,1-.046.123.141.141,0,0,1-.11.051H40v1.732a.177.177,0,0,1-.045.123.145.145,0,0,1-.111.051.143.143,0,0,1-.11-.051.174.174,0,0,1-.046-.123V25.731h-.247a.144.144,0,0,1-.111-.051A.178.178,0,0,1,39.287,25.558Z" transform="translate(-37.287 -25.382)"/>
        <path id="Path_865" data-name="Path 865" class="cls-1" d="M40.968,27.465V25.554a.177.177,0,0,1,.046-.123.146.146,0,0,1,.221,0,.174.174,0,0,1,.045.123v.9h.4v-.9a.177.177,0,0,1,.045-.123.146.146,0,0,1,.221,0,.174.174,0,0,1,.045.123v1.911a.174.174,0,0,1-.045.123.145.145,0,0,1-.221,0,.177.177,0,0,1-.045-.123V26.8h-.4v.664a.174.174,0,0,1-.045.123.145.145,0,0,1-.221,0A.177.177,0,0,1,40.968,27.465Z" transform="translate(-37.756 -25.381)"/>
      </g>
      <g id="Group_629" data-name="Group 629" transform="translate(18.919 3.065)">
        <path id="Path_866" data-name="Path 866" class="cls-1" d="M44.153,27.122v-1.56a.177.177,0,0,1,.045-.123.143.143,0,0,1,.11-.051.145.145,0,0,1,.11.051.177.177,0,0,1,.045.123v1.55a.36.36,0,0,0,.005.054.376.376,0,0,0,.015.059.146.146,0,0,0,.03.052.275.275,0,0,0,.033.027.158.158,0,0,0,.086.018.185.185,0,0,0,.095-.018.27.27,0,0,0,.035-.027.2.2,0,0,0,.044-.1.666.666,0,0,0,.008-.086V25.565a.177.177,0,0,1,.045-.123.145.145,0,0,1,.221,0,.177.177,0,0,1,.046.123v1.506c0,.012,0,.033,0,.065a.572.572,0,0,1-.015.11.811.811,0,0,1-.041.133.475.475,0,0,1-.212.238.431.431,0,0,1-.224.052.423.423,0,0,1-.223-.053.509.509,0,0,1-.128-.105.475.475,0,0,1-.079-.136.745.745,0,0,1-.038-.137A.643.643,0,0,1,44.153,27.122Z" transform="translate(-44.153 -25.357)"/>
        <path id="Path_867" data-name="Path 867" class="cls-1" d="M45.758,27.065a.182.182,0,0,1,.045-.123.149.149,0,0,1,.224,0,.183.183,0,0,1,.043.123.466.466,0,0,0,.007.083.215.215,0,0,0,.027.076.148.148,0,0,0,.061.056.227.227,0,0,0,.107.021.281.281,0,0,0,.087-.012.168.168,0,0,0,.069-.04.243.243,0,0,0,.062-.182.528.528,0,0,0-.021-.155.453.453,0,0,0-.061-.123.645.645,0,0,0-.1-.107l-.131-.108c-.044-.035-.089-.071-.133-.109a.874.874,0,0,1-.124-.128.788.788,0,0,1-.1-.192.642.642,0,0,1-.035-.218c0-.012,0-.032,0-.063a.563.563,0,0,1,.013-.106.659.659,0,0,1,.04-.128.444.444,0,0,1,.079-.128.488.488,0,0,1,.133-.106.443.443,0,0,1,.227-.052.416.416,0,0,1,.228.054.544.544,0,0,1,.128.107.5.5,0,0,1,.074.14.7.7,0,0,1,.032.136.513.513,0,0,1,.006.084v.024a.354.354,0,0,1-.006.056.2.2,0,0,1-.032.086.164.164,0,0,1-.056.053.1.1,0,0,1-.051.012.184.184,0,0,1-.043-.005.155.155,0,0,1-.085-.042.16.16,0,0,1-.037-.063.2.2,0,0,1-.008-.059c0-.017,0-.028,0-.032a.125.125,0,0,0,0-.032.238.238,0,0,0,0-.043.33.33,0,0,0-.011-.046.153.153,0,0,0-.021-.04.139.139,0,0,0-.12-.043.175.175,0,0,0-.1.019.32.32,0,0,0-.035.028.117.117,0,0,0-.027.047.3.3,0,0,0-.015.052.3.3,0,0,0-.006.045v.038a.292.292,0,0,0,.019.106.344.344,0,0,0,.051.089.586.586,0,0,0,.082.084l.113.09.149.126a1.018,1.018,0,0,1,.141.152.839.839,0,0,1,.154.5.68.68,0,0,1-.018.16.742.742,0,0,1-.041.126.543.543,0,0,1-.056.1.77.77,0,0,1-.062.069.514.514,0,0,1-.354.13.559.559,0,0,1-.189-.032.409.409,0,0,1-.155-.1.366.366,0,0,1-.059-.066.5.5,0,0,1-.054-.1.584.584,0,0,1-.04-.127A.76.76,0,0,1,45.758,27.065Z" transform="translate(-44.6 -25.345)"/>
        <path id="Path_868" data-name="Path 868" class="cls-1" d="M47.268,27.467l.346-1.909v-.019l0-.006v-.01a.1.1,0,0,1,.025-.039v0h.005v-.006l0,0,0,0,0,0,0,0,.005,0a.1.1,0,0,1,.037-.025h0l0,0a.085.085,0,0,1,.024-.006l.024,0h.012l.024,0a.087.087,0,0,1,.023.006l.005,0h0a.113.113,0,0,1,.036.025l.005,0,0,0,0,0,0,0,0,0,0,0,0,0,0,0v0a.161.161,0,0,1,.024.039v.01a.1.1,0,0,1,.006.025l.344,1.909a.176.176,0,0,1,0,.038.18.18,0,0,1-.025.093.15.15,0,0,1-.1.074.1.1,0,0,1-.029,0,.138.138,0,0,1-.1-.039.184.184,0,0,1-.055-.1l-.053-.294h-.281l-.055.294a.164.164,0,0,1-.053.1.139.139,0,0,1-.1.039.128.128,0,0,1-.032,0,.149.149,0,0,1-.1-.074.178.178,0,0,1-.026-.093A.174.174,0,0,1,47.268,27.467Zm.421-.572h.155l-.076-.424Z" transform="translate(-45.019 -25.365)"/>
      </g>
      <g id="Group_630" data-name="Group 630" transform="translate(23.22 3.091)">
        <path id="Path_869" data-name="Path 869" class="cls-1" d="M50.117,27.467l.345-1.909v-.019l0-.006v-.01a.115.115,0,0,1,.025-.039v0H50.5v0l0,0,0,0,0,0,0,0,0,0,.005,0a.1.1,0,0,1,.036-.025h0l.005,0a.087.087,0,0,1,.023-.006l.025,0h.012l.023,0a.085.085,0,0,1,.024.006l0,0h0a.116.116,0,0,1,.037.025l.005,0,0,0,0,0,0,0,0,0v0l0,0,0,0v0a.143.143,0,0,1,.025.039v.01a.1.1,0,0,1,.006.025l.345,1.909a.176.176,0,0,1,0,.038.174.174,0,0,1-.026.093.15.15,0,0,1-.1.074.1.1,0,0,1-.029,0,.138.138,0,0,1-.1-.039.184.184,0,0,1-.055-.1l-.053-.294h-.281l-.055.294a.164.164,0,0,1-.053.1.14.14,0,0,1-.1.039.125.125,0,0,1-.032,0,.149.149,0,0,1-.1-.074.184.184,0,0,1-.025-.093A.173.173,0,0,1,50.117,27.467Zm.421-.572h.155l-.077-.424Z" transform="translate(-50.113 -25.391)"/>
        <path id="Path_870" data-name="Path 870" class="cls-1" d="M51.657,27.465V25.529l0,0v-.013l0-.006v-.033l.005-.006v-.006l0,0v0l0-.006h0v-.005h0l0-.006,0-.006v0l.005,0v0l.006,0h0l.005-.006.005-.005h0l0,0h.007l.006-.007a.079.079,0,0,1,.037-.014h0a.163.163,0,0,1,.038,0h.012l0,0h.013l0,0h.007l.005,0,.008,0,.005,0h0l0,0v0l.006,0H51.9l0,0,0,0,0,0h0l0,0v0h.005v0h.005v0l.006.006.006.006.005.005v.006l0,0,0,0,0,.006v0l0,.005h0v.012l.444,1.14V25.554a.177.177,0,0,1,.046-.123.145.145,0,0,1,.22,0,.177.177,0,0,1,.046.123V27.49l0,0v.013l0,.006v.034l0,0,0,0,0,.006,0,0v0l0,0,0,0v.006h0l0,.005-.005.006-.005.006-.005.006h0l-.005.006-.006,0,0,0,0,0h-.008l-.006.006-.018.009-.02.006a.111.111,0,0,1-.032,0,.06.06,0,0,1-.022,0h-.009l0,0h-.011v0h0l-.013-.007,0,0h0l0,0,0,0,0,0H52.47a.164.164,0,0,1-.046-.056v0l0,0,0,0v0l0-.006,0-.006-.444-1.14v1.074a.177.177,0,0,1-.045.123.145.145,0,0,1-.222,0A.177.177,0,0,1,51.657,27.465Z" transform="translate(-50.543 -25.381)"/>
        <path id="Path_871" data-name="Path 871" class="cls-1" d="M53.377,27.465V25.554a.177.177,0,0,1,.045-.123.143.143,0,0,1,.11-.051h.339a.444.444,0,0,1,.325.138.684.684,0,0,1,.106.164.641.641,0,0,1,.051.281v1.091a.641.641,0,0,1-.051.281.7.7,0,0,1-.106.162.449.449,0,0,1-.325.14h-.339a.144.144,0,0,1-.11-.051A.177.177,0,0,1,53.377,27.465Zm.312-.173h.183a.211.211,0,0,0,.048-.007.138.138,0,0,0,.057-.032.191.191,0,0,0,.046-.071.322.322,0,0,0,.02-.127V25.964a.322.322,0,0,0-.02-.127.191.191,0,0,0-.046-.071.138.138,0,0,0-.057-.032.211.211,0,0,0-.048-.007h-.183Z" transform="translate(-51.022 -25.381)"/>
      </g>
      <g id="Group_631" data-name="Group 631" transform="translate(3.442 6.133)">
        <path id="Path_872" data-name="Path 872" class="cls-1" d="M22.7,31.713V29.8a.175.175,0,0,1,.045-.123.147.147,0,0,1,.222,0,.18.18,0,0,1,.044.123v1.911a.179.179,0,0,1-.044.123.146.146,0,0,1-.222,0A.174.174,0,0,1,22.7,31.713Z" transform="translate(-22.704 -29.606)"/>
        <path id="Path_873" data-name="Path 873" class="cls-1" d="M23.425,31.713V29.755a.113.113,0,0,1,.011-.031l0,0v0l0,0,0,0,0-.007v0l0-.006.009-.011.009-.012.006-.006h0v-.005h0l.006,0,0,0,0,0,.005,0,.005,0,0,0,0,0h.015l.006,0h.007l0,0h.012l.005,0H23.6l.005,0h.014a.093.093,0,0,0,.018.006.036.036,0,0,1,.015.007h0s0,0,.005,0l0,0,0,0,0,0,.005.006h0a.055.055,0,0,1,.02.022l.005.006.005.005V29.7l0,0,0,0,0,.006v.008l.327.714.328-.714,0-.008,0-.006,0,0,0,0,0-.006.005-.005.005-.006a.054.054,0,0,1,.022-.022l.005-.006h0l.006,0,0,0,0,0s.005,0,.005,0h0a.016.016,0,0,1,.012-.007l.014,0,.007,0h.013l0,0h.034l.008,0h.01l0,0h.008l.005,0h.007l.005,0h0l.006,0v0l.008,0,.005,0,0,0,0,0,.005,0,.005.005a.005.005,0,0,1,.006.006.077.077,0,0,1,.021.022l.005.006v0l0,.007,0,0,0,0,0,.005c0,.009.006.02.009.031l0,.009v.01l0,.006v1.933a.176.176,0,0,1-.045.123.145.145,0,0,1-.222,0,.176.176,0,0,1-.045-.123V30.524l-.165.358a.153.153,0,0,1-.075.093.129.129,0,0,1-.064.017h-.01a.137.137,0,0,1-.066-.017.148.148,0,0,1-.074-.093l-.164-.358v1.189a.177.177,0,0,1-.045.123.145.145,0,0,1-.221,0A.177.177,0,0,1,23.425,31.713Z" transform="translate(-22.905 -29.606)"/>
        <path id="Path_874" data-name="Path 874" class="cls-1" d="M25.379,31.71v-1.9a.177.177,0,0,1,.021-.088.162.162,0,0,1,.055-.061.157.157,0,0,1,.082-.027h.372a.329.329,0,0,1,.19.062.531.531,0,0,1,.159.18.809.809,0,0,1,.087.218,1,1,0,0,1,.03.247.985.985,0,0,1-.03.245.874.874,0,0,1-.087.22.558.558,0,0,1-.158.179.335.335,0,0,1-.191.063h-.219v.666a.174.174,0,0,1-.045.123.145.145,0,0,1-.221,0A.177.177,0,0,1,25.379,31.71Zm.312-1.013h.219a.066.066,0,0,0,.035-.019A.3.3,0,0,0,26,30.614a.5.5,0,0,0,.049-.131.6.6,0,0,0,.019-.147.58.58,0,0,0-.019-.149A.569.569,0,0,0,26,30.055a.269.269,0,0,0-.051-.061.066.066,0,0,0-.035-.019h-.219Z" transform="translate(-23.449 -29.606)"/>
        <path id="Path_875" data-name="Path 875" class="cls-1" d="M26.955,31.353V30.176a.644.644,0,0,1,.052-.28.62.62,0,0,1,.107-.161.427.427,0,0,1,.322-.139.479.479,0,0,1,.177.035.454.454,0,0,1,.159.107.555.555,0,0,1,.114.182.688.688,0,0,1,.044.259V31.3c0,.011,0,.033,0,.065a.559.559,0,0,1-.014.11.79.79,0,0,1-.042.132.446.446,0,0,1-.081.131.492.492,0,0,1-.131.108.437.437,0,0,1-.224.052.426.426,0,0,1-.222-.052.5.5,0,0,1-.129-.108A.514.514,0,0,1,27,31.606a.813.813,0,0,1-.039-.137A.791.791,0,0,1,26.955,31.353Zm.312-.01a.3.3,0,0,0,.005.055.428.428,0,0,0,.016.059.137.137,0,0,0,.029.051.2.2,0,0,0,.034.027.149.149,0,0,0,.085.018.168.168,0,0,0,.1-.019.277.277,0,0,0,.034-.028.165.165,0,0,0,.03-.049.5.5,0,0,0,.015-.058.387.387,0,0,0,.006-.051V30.179a.321.321,0,0,0-.02-.123.216.216,0,0,0-.047-.071.122.122,0,0,0-.058-.033.246.246,0,0,0-.057-.007.206.206,0,0,0-.05.007.13.13,0,0,0-.055.03.175.175,0,0,0-.045.07.336.336,0,0,0-.019.125v1.167Z" transform="translate(-23.888 -29.597)"/>
        <path id="Path_876" data-name="Path 876" class="cls-1" d="M28.508,31.711v-1.9a.177.177,0,0,1,.046-.123.142.142,0,0,1,.11-.051h.377a.325.325,0,0,1,.189.062.542.542,0,0,1,.159.178.924.924,0,0,1,.117.468.985.985,0,0,1-.03.245.874.874,0,0,1-.087.22.592.592,0,0,1-.054.078c-.019.023-.039.044-.057.063l.273.7a.187.187,0,0,1,.014.07.184.184,0,0,1-.011.062.16.16,0,0,1-.085.095.172.172,0,0,1-.062.016.145.145,0,0,1-.084-.027.186.186,0,0,1-.06-.077l-.288-.732H28.82v.663a.177.177,0,0,1-.045.123.145.145,0,0,1-.221,0A.177.177,0,0,1,28.508,31.711Zm.312-1.01h.221a.072.072,0,0,0,.035-.019.324.324,0,0,0,.051-.064.417.417,0,0,0,.051-.131.632.632,0,0,0,.017-.147.649.649,0,0,0-.017-.149.488.488,0,0,0-.051-.132A.319.319,0,0,0,29.077,30a.076.076,0,0,0-.035-.018H28.82Z" transform="translate(-24.32 -29.607)"/>
        <path id="Path_877" data-name="Path 877" class="cls-1" d="M30.026,29.806a.176.176,0,0,1,.046-.124.143.143,0,0,1,.11-.049h.8a.143.143,0,0,1,.11.049.175.175,0,0,1,.045.124.178.178,0,0,1-.045.123.142.142,0,0,1-.11.051h-.241v1.732a.177.177,0,0,1-.045.123.145.145,0,0,1-.111.051.143.143,0,0,1-.11-.051.174.174,0,0,1-.045-.123V29.979h-.248a.142.142,0,0,1-.11-.051A.179.179,0,0,1,30.026,29.806Z" transform="translate(-24.743 -29.607)"/>
        <path id="Path_878" data-name="Path 878" class="cls-1" d="M31.708,31.709V29.8a.178.178,0,0,1,.045-.123.144.144,0,0,1,.111-.051H32.5a.141.141,0,0,1,.11.051.193.193,0,0,1,0,.247.142.142,0,0,1-.11.049H32.02V30.7h.333a.142.142,0,0,1,.11.051.188.188,0,0,1,0,.245.143.143,0,0,1-.11.051H32.02v.49H32.5a.142.142,0,0,1,.11.051.174.174,0,0,1,.045.122.176.176,0,0,1-.045.123.142.142,0,0,1-.11.051h-.636a.145.145,0,0,1-.111-.051A.177.177,0,0,1,31.708,31.709Z" transform="translate(-25.211 -29.605)"/>
        <path id="Path_879" data-name="Path 879" class="cls-1" d="M33.282,31.713V29.8a.178.178,0,0,1,.045-.123.144.144,0,0,1,.111-.051h.338a.446.446,0,0,1,.326.138.707.707,0,0,1,.105.164.641.641,0,0,1,.051.281V31.3a.641.641,0,0,1-.051.281.71.71,0,0,1-.105.162.451.451,0,0,1-.326.14h-.338a.144.144,0,0,1-.111-.051A.177.177,0,0,1,33.282,31.713Zm.312-.173h.182a.205.205,0,0,0,.048-.007.126.126,0,0,0,.057-.032.191.191,0,0,0,.046-.071.322.322,0,0,0,.02-.127V30.212a.322.322,0,0,0-.02-.127.2.2,0,0,0-.046-.071.133.133,0,0,0-.057-.032.205.205,0,0,0-.048-.007h-.182Z" transform="translate(-25.649 -29.606)"/>
      </g>
      <g id="Group_632" data-name="Group 632" transform="translate(13.297 6.131)">
        <path id="Path_880" data-name="Path 880" class="cls-1" d="M36.362,31.713V29.8a.178.178,0,0,1,.045-.123.147.147,0,0,1,.222,0,.181.181,0,0,1,.045.123v1.911a.18.18,0,0,1-.045.123.146.146,0,0,1-.222,0A.177.177,0,0,1,36.362,31.713Z" transform="translate(-36.362 -29.604)"/>
        <path id="Path_881" data-name="Path 881" class="cls-1" d="M37.1,31.713V29.777l0,0v-.013l0-.006v-.033l.005-.006v-.006l0,0v0l0-.006h0v-.005h0l0-.006.005-.006v0l.005,0v0l.005,0h0l.005-.005.005-.006h0l0,0h.007l.005-.007a.092.092,0,0,1,.037-.014h0a.17.17,0,0,1,.038,0h.012l0,0h.013l0,0H37.3l0,0,.008,0,.005,0h0l.005,0v0l.006,0h.006l0,0,0,0,0,0h0l.005,0v0h.005v0h0v0l.006.006.006.006.005.005,0,.006,0,0,0,0,0,.006v0l0,.005h0v.012l.444,1.14V29.8a.178.178,0,0,1,.045-.123.146.146,0,0,1,.221,0,.178.178,0,0,1,.045.123v1.937l0,0v.013l0,.006v.034l0,0,0,0,0,.006,0,0v0l0,0,0,0v.006h0l0,.006,0,.005-.005.006-.006.006h0l-.005.006-.006,0,0,0,0,0h-.009l-.006.006-.017.009-.021.006a.108.108,0,0,1-.032,0,.062.062,0,0,1-.022,0h-.009l0,0h-.01v0h-.005l-.013-.007,0,0h0l0,0-.005,0,0,0h-.009a.154.154,0,0,1-.045-.056v0l0,0,0,0v0l0-.006,0-.006-.444-1.14v1.074a.177.177,0,0,1-.045.123.145.145,0,0,1-.221,0A.177.177,0,0,1,37.1,31.713Z" transform="translate(-36.568 -29.604)"/>
        <path id="Path_882" data-name="Path 882" class="cls-1" d="M38.823,31.355v-.03c0-.017,0-.032,0-.041V30.176a.625.625,0,0,1,.052-.281.671.671,0,0,1,.107-.163.426.426,0,0,1,.322-.138.439.439,0,0,1,.323.132.7.7,0,0,1,.109.165.654.654,0,0,1,.053.285.176.176,0,0,1-.046.124.142.142,0,0,1-.111.049.144.144,0,0,1-.11-.048.176.176,0,0,1-.045-.125.379.379,0,0,0-.016-.118.208.208,0,0,0-.04-.072.124.124,0,0,0-.056-.035.2.2,0,0,0-.06-.01.187.187,0,0,0-.048.007.129.129,0,0,0-.056.032.2.2,0,0,0-.045.07.317.317,0,0,0-.019.126V31.3l0,.006c0,.009,0,.022,0,.038a.428.428,0,0,0,.006.056.368.368,0,0,0,.016.06.157.157,0,0,0,.029.052.2.2,0,0,0,.032.027.154.154,0,0,0,.087.018.174.174,0,0,0,.1-.019.339.339,0,0,0,.035-.028.162.162,0,0,0,.028-.049c.006-.02.012-.04.017-.059a.2.2,0,0,0,.007-.051v-.325h-.113a.142.142,0,0,1-.11-.051.192.192,0,0,1,0-.245.144.144,0,0,1,.112-.051H39.8V31.3c0,.011,0,.033,0,.066a.626.626,0,0,1-.014.111.872.872,0,0,1-.04.133.444.444,0,0,1-.079.132.523.523,0,0,1-.135.106.433.433,0,0,1-.225.052.417.417,0,0,1-.222-.053.5.5,0,0,1-.128-.105.481.481,0,0,1-.079-.136.845.845,0,0,1-.04-.138A.724.724,0,0,1,38.823,31.355Z" transform="translate(-37.047 -29.594)"/>
        <path id="Path_883" data-name="Path 883" class="cls-1" d="M40.425,31.711v-1.9a.177.177,0,0,1,.046-.123.142.142,0,0,1,.11-.051h.377a.325.325,0,0,1,.189.062.542.542,0,0,1,.159.178.924.924,0,0,1,.117.468.985.985,0,0,1-.03.245.874.874,0,0,1-.087.22.592.592,0,0,1-.054.078c-.019.023-.039.044-.057.063l.273.7a.187.187,0,0,1,.014.07.184.184,0,0,1-.011.062.16.16,0,0,1-.085.095.172.172,0,0,1-.062.016.145.145,0,0,1-.084-.027.186.186,0,0,1-.06-.077l-.288-.732h-.156v.663a.177.177,0,0,1-.045.123.145.145,0,0,1-.221,0A.177.177,0,0,1,40.425,31.711Zm.312-1.01h.221a.072.072,0,0,0,.035-.019.324.324,0,0,0,.051-.064.418.418,0,0,0,.051-.131.632.632,0,0,0,.017-.147.649.649,0,0,0-.017-.149.488.488,0,0,0-.051-.132A.319.319,0,0,0,40.994,30a.076.076,0,0,0-.035-.018h-.221Z" transform="translate(-37.493 -29.605)"/>
        <path id="Path_884" data-name="Path 884" class="cls-1" d="M42.128,31.709V29.8a.178.178,0,0,1,.045-.123.143.143,0,0,1,.11-.051h.636a.141.141,0,0,1,.11.051.193.193,0,0,1,0,.247.142.142,0,0,1-.11.049H42.44V30.7h.333a.142.142,0,0,1,.11.051.188.188,0,0,1,0,.245.143.143,0,0,1-.11.051H42.44v.49h.481a.142.142,0,0,1,.11.051.174.174,0,0,1,.045.122.176.176,0,0,1-.045.123.142.142,0,0,1-.11.051h-.636a.144.144,0,0,1-.11-.051A.177.177,0,0,1,42.128,31.709Z" transform="translate(-37.967 -29.603)"/>
        <path id="Path_885" data-name="Path 885" class="cls-1" d="M43.7,31.713V29.8a.178.178,0,0,1,.045-.123.144.144,0,0,1,.111-.051H44.2a.446.446,0,0,1,.326.138.707.707,0,0,1,.105.164.641.641,0,0,1,.051.281V31.3a.641.641,0,0,1-.051.281.71.71,0,0,1-.105.162.451.451,0,0,1-.326.14h-.338a.144.144,0,0,1-.111-.051A.177.177,0,0,1,43.7,31.713Zm.312-.173H44.2a.211.211,0,0,0,.048-.007A.126.126,0,0,0,44.3,31.5a.191.191,0,0,0,.046-.071.322.322,0,0,0,.02-.127V30.212a.322.322,0,0,0-.02-.127.2.2,0,0,0-.046-.071.133.133,0,0,0-.057-.032.211.211,0,0,0-.048-.007h-.183Z" transform="translate(-38.406 -29.604)"/>
        <path id="Path_886" data-name="Path 886" class="cls-1" d="M45.361,31.713V29.8a.175.175,0,0,1,.046-.123.14.14,0,0,1,.11-.051.142.142,0,0,1,.112.051.181.181,0,0,1,.045.123v1.911a.18.18,0,0,1-.045.123.143.143,0,0,1-.112.051.141.141,0,0,1-.11-.051A.174.174,0,0,1,45.361,31.713Z" transform="translate(-38.867 -29.604)"/>
        <path id="Path_887" data-name="Path 887" class="cls-1" d="M46.133,31.709V29.8a.179.179,0,0,1,.046-.123.143.143,0,0,1,.11-.051h.636a.14.14,0,0,1,.11.051.19.19,0,0,1,0,.247.141.141,0,0,1-.11.049h-.481V30.7h.333a.141.141,0,0,1,.11.051.186.186,0,0,1,0,.245.142.142,0,0,1-.11.051h-.333v.49h.481a.141.141,0,0,1,.11.051.175.175,0,0,1,.045.122.177.177,0,0,1-.045.123.141.141,0,0,1-.11.051H46.29a.144.144,0,0,1-.11-.051A.177.177,0,0,1,46.133,31.709Z" transform="translate(-39.082 -29.603)"/>
        <path id="Path_888" data-name="Path 888" class="cls-1" d="M47.708,31.713V29.777l0,0v-.013l0-.006v-.033l.005-.006v-.006l0,0v0l0-.006h0v-.005h0l0-.006.005-.006v0l.005,0v0l.006,0h0l.005-.005,0-.006h0l0,0h.007l.006-.007a.085.085,0,0,1,.037-.014h0a.163.163,0,0,1,.038,0h.012l0,0H47.9l0,0h.008l.005,0,.008,0,0,0h0l.005,0v0l.006,0h.007l0,0,0,0v0h0l.005,0v0h.005v0h.005v0l.006.006.006.006.005.005,0,.006,0,0,0,0,0,.006v0l0,.005h0v.012l.444,1.14V29.8a.178.178,0,0,1,.045-.123.146.146,0,0,1,.221,0,.179.179,0,0,1,.046.123v1.937l0,0v.013l0,.006v.034l0,0,0,0,0,.006,0,0v0l0,0,0,0v.006h0l0,.006-.005.005-.005.006-.006.006h0l0,.006-.006,0,0,0,0,0h-.009l-.006.006-.017.009-.02.006a.115.115,0,0,1-.032,0,.057.057,0,0,1-.022,0h-.009l0,0h-.011v0h-.005l-.012-.007,0,0h0l0,0-.005,0,0,0h-.009a.157.157,0,0,1-.046-.056v0l0,0,0,0v0l0-.006,0-.006-.444-1.14v1.074a.176.176,0,0,1-.045.123.145.145,0,0,1-.222,0A.177.177,0,0,1,47.708,31.713Z" transform="translate(-39.521 -29.604)"/>
        <path id="Path_889" data-name="Path 889" class="cls-1" d="M49.277,29.806a.176.176,0,0,1,.046-.124.143.143,0,0,1,.11-.049h.8a.143.143,0,0,1,.11.049.175.175,0,0,1,.045.124.178.178,0,0,1-.045.123.142.142,0,0,1-.11.051h-.241v1.732a.177.177,0,0,1-.045.123.145.145,0,0,1-.111.051.143.143,0,0,1-.11-.051.174.174,0,0,1-.045-.123V29.979h-.248a.142.142,0,0,1-.11-.051A.179.179,0,0,1,49.277,29.806Z" transform="translate(-39.958 -29.605)"/>
        <path id="Path_890" data-name="Path 890" class="cls-1" d="M50.873,31.313a.181.181,0,0,1,.045-.123.147.147,0,0,1,.112-.051.144.144,0,0,1,.112.051.183.183,0,0,1,.043.123.46.46,0,0,0,.007.083.23.23,0,0,0,.027.076.148.148,0,0,0,.061.056.228.228,0,0,0,.108.021.281.281,0,0,0,.087-.012.17.17,0,0,0,.069-.04.242.242,0,0,0,.062-.182.5.5,0,0,0-.021-.155.432.432,0,0,0-.061-.123.645.645,0,0,0-.1-.107l-.13-.108c-.045-.035-.089-.071-.133-.109a.907.907,0,0,1-.124-.128.778.778,0,0,1-.1-.193.639.639,0,0,1-.036-.218c0-.011,0-.032,0-.063a.63.63,0,0,1,.013-.106.713.713,0,0,1,.04-.128.466.466,0,0,1,.211-.234.445.445,0,0,1,.227-.051.417.417,0,0,1,.228.053.549.549,0,0,1,.129.107.478.478,0,0,1,.074.141.633.633,0,0,1,.032.136.514.514,0,0,1,.006.084v.024a.354.354,0,0,1-.006.056.194.194,0,0,1-.032.086.158.158,0,0,1-.056.053.1.1,0,0,1-.051.012.19.19,0,0,1-.043-.005.155.155,0,0,1-.085-.042.169.169,0,0,1-.037-.063.2.2,0,0,1-.008-.059c0-.017,0-.028,0-.032a.125.125,0,0,0,0-.032.238.238,0,0,0,0-.043.2.2,0,0,0-.011-.046.153.153,0,0,0-.021-.04.138.138,0,0,0-.12-.043.17.17,0,0,0-.1.019.359.359,0,0,0-.035.028.126.126,0,0,0-.027.047.3.3,0,0,0-.015.052.3.3,0,0,0-.007.045v.038a.292.292,0,0,0,.018.106.366.366,0,0,0,.051.089.594.594,0,0,0,.082.084l.112.09.149.126a.981.981,0,0,1,.141.152.834.834,0,0,1,.154.5.722.722,0,0,1-.017.16.809.809,0,0,1-.042.126.479.479,0,0,1-.056.1.673.673,0,0,1-.062.069.513.513,0,0,1-.354.13.56.56,0,0,1-.19-.032.414.414,0,0,1-.155-.1.343.343,0,0,1-.059-.066.54.54,0,0,1-.054-.1.583.583,0,0,1-.04-.127A.811.811,0,0,1,50.873,31.313Z" transform="translate(-40.402 -29.594)"/>
      </g>
    </g>
    <path id="Path_891" data-name="Path 891" class="cls-1" d="M41.677,12.95H37.13a.386.386,0,0,1-.386-.386V12.11a.386.386,0,0,1,.386-.386h4.547a.386.386,0,0,1,.386.386v.454a.386.386,0,0,1-.386.386" transform="translate(-9.546 -2.771)"/>
    <path id="Path_892" data-name="Path 892" class="cls-1" d="M41.677,16.034H37.13a.386.386,0,0,1-.386-.386v-.454a.386.386,0,0,1,.386-.386h4.547a.386.386,0,0,1,.386.386v.454a.386.386,0,0,1-.386.386" transform="translate(-9.546 -3.629)"/>
    <path id="Path_893" data-name="Path 893" class="cls-1" d="M40.011,19.119H31.147a.387.387,0,0,1-.387-.386v-.454a.387.387,0,0,1,.387-.386h8.864a.386.386,0,0,1,.386.386v.454a.386.386,0,0,1-.386.386" transform="translate(-7.88 -4.488)"/>
    <path id="Path_894" data-name="Path 894" class="cls-1" d="M33.88,11.724H31.111a.356.356,0,0,0-.355.355v2.742a.356.356,0,0,0,.355.355H33.88a.355.355,0,0,0,.355-.355V12.079a.355.355,0,0,0-.355-.355M31.85,14.4a.331.331,0,1,1,.331-.331.331.331,0,0,1-.331.331m0-1.23a.331.331,0,1,1,.331-.331.331.331,0,0,1-.331.331m1.291,1.23a.331.331,0,1,1,.331-.331.331.331,0,0,1-.331.331m0-1.23a.331.331,0,1,1,.331-.331.332.332,0,0,1-.331.331" transform="translate(-7.879 -2.771)"/>
  </g>
</svg>
