<svg xmlns="http://www.w3.org/2000/svg" width="317.3" height="183.566" viewBox="0 0 317.3 183.566">
  <defs>
    <style>
      .cls-1 {
        fill: #212d65;
      }

      .cls-2 {
        fill: #efefee;
      }

      .cls-3 {
        fill: #d3d3d3;
      }

      .cls-4 {
        fill: #fff;
        font-size: 16px;
        font-family: Archivo;
        font-weight: 700;
        letter-spacing: 0.2em;
      }
    </style>
  </defs>
  <g id="PW_BlueDog_Desktop_2" transform="translate(-1380 -895.434)">
    <g id="DOG" transform="translate(1380 927.606)">
      <path id="Path_572" data-name="Path 572" class="cls-1" d="M22.135,87.272h0l10.922,18.587a3.634,3.634,0,0,1,.306,2.873L27.917,127.5a1.048,1.048,0,0,0,1.007,1.4H35.2a1.993,1.993,0,0,0,1.773-1.191l8.444-19.144a3.011,3.011,0,0,0,.2-1.933l-2.4-9.916a1.413,1.413,0,0,0-.838-.986Z" transform="translate(57.437 22.492)"/>
      <path id="Path_573" data-name="Path 573" class="cls-1" d="M80.21,71.561,70.8,130.672a1.771,1.771,0,0,0,1.776,2.3h5.623a2.883,2.883,0,0,0,2.392-1.77L94.062,89.554a.738.738,0,0,0-.419-1.038L79.6,83.951c-.975-.317.762-13.489.609-12.39" transform="translate(-52.131 18.426)"/>
      <path id="Path_574" data-name="Path 574" class="cls-1" d="M67.142,31.046c-1.127-11.3-4.179-18.929-6.637-23.44A4.769,4.769,0,0,1,63.82.668C71.192-.7,82.246-.887,84.717,9.462,88.5,25.308,67.142,31.046,67.142,31.046" transform="translate(-29.571 0)"/>
      <path id="Path_575" data-name="Path 575" class="cls-2" d="M.1,44.851c.142-2.528-.926-9.471,7.461-16.173l11.43-9.132a1.111,1.111,0,0,1,.143-.1c8.721-4.82,14.42-2.1,16.074-1.063a.867.867,0,0,0,1.01-.062c1.819-1.451,7.975-6.373,10.135-8.1,3.054-2.44,8.227-2.08,10.216,5.525l.005-.008s8.174,16.412-4.916,29.88a.91.91,0,0,1-1.331-.04l-1.607-1.846a.894.894,0,0,0-1.534.341l-1.678,5.857a.891.891,0,0,1-1.26.558,18.048,18.048,0,0,1-4.857-3.933.911.911,0,0,0-1.316-.033c-5.831,6.038-9.166,12.524-5.918,19.589a.925.925,0,0,0,.538.5A8.561,8.561,0,0,0,35.391,67h48l.215.039s5.176,2.806,7.6,6.143c2.507,3.73,4.5,9.547,3.7,18.549l-.318,1.249c-3.279,7.447-9.783,18.665,10.1,26.153a2.8,2.8,0,0,1,1.835,2.429l2,24.742a2.59,2.59,0,0,1-2.581,2.8h-5.07a1.086,1.086,0,0,1-1.089-.841l-4.573-19.695A3.689,3.689,0,0,0,93.62,126.3l-15.306-9.913-.584-.307-15.467-6.462a19.519,19.519,0,0,0-10.99-1.093L27.6,112.782a3.824,3.824,0,0,0-3.123,3.738l.892,29.471a3.017,3.017,0,0,1-3.017,3.109H16.594a1.6,1.6,0,0,1-1.63-1.394l-4.135-30.441c-.068-.252-.137-.5-.206-.747,0,0-6.882-7.336-7.973-14.567-3.3-21.849-1.156-25.029-.128-31.8a1.106,1.106,0,0,0,.008-.233C1.559,59.042-.476,55.073.1,44.851" transform="translate(22.441 2.289)"/>
      <path id="Path_576" data-name="Path 576" class="cls-2" d="M9.836,65.075a.45.45,0,0,1-.478.431A27.074,27.074,0,0,1,.389,63.893s-.118-7.32,1.726-7.32c2.615,0,9.635.073,12.152-.528a19.62,19.62,0,0,0,9.789-5.967c.97-1.056,1.59-.741,2.06-.493.407.215,1.1.928.236,2.409a23.644,23.644,0,0,1-2.105,3.03A21.932,21.932,0,0,1,20.8,58.385l.807,1.6a.408.408,0,0,1-.137.531A16.923,16.923,0,0,1,9.811,63.1Z" transform="translate(103.716 12.716)"/>
      <path id="Path_577" data-name="Path 577" d="M58.536,28.3a6.45,6.45,0,0,1-11.249,3.037Z" transform="translate(12.961 7.293)"/>
      <path id="Path_578" data-name="Path 578" d="M42.489,11.916c-.026-.034-.03-.075-.055-.112l2-1.6c2.478-1.98,6.338-2.079,8.775,2a6.463,6.463,0,0,1-.816.726,6.974,6.974,0,0,1-9.9-1.012" transform="translate(24.392 2.288)"/>
      <path id="Path_579" data-name="Path 579" class="cls-1" d="M111.214,22.892c-4.778-8.672-14.055-6.665-23.016,1.3-3.959,3.519-5.588,1.941-9.124,3.662-2.6,1.267-3.167,5.076-1.352,7.326,5.791,7.179,13.193,14.382,21.4,9.808,0,0-.07,1.894.058,3.864,8.983-6.331,2.786-14.652,12.033-25.964" transform="translate(-76.665 4.444)"/>
      <path id="Path_580" data-name="Path 580" d="M57.652,25.113a6.3,6.3,0,0,1,.731,2.932,6.472,6.472,0,0,1-6.575,6.369,6.4,6.4,0,0,1-4.688-2.188Z" transform="translate(13.323 6.472)"/>
      <path id="Path_581" data-name="Path 581" class="cls-3" d="M72.64,18.315c-5.953-.807-11.316,1.566-12.916,7.8S67.1,38.4,71.693,34.867s2.907-7.019,4.846-9.405.131-6.6-3.9-7.146" transform="translate(-21.227 4.681)"/>
      <path id="Path_582" data-name="Path 582" d="M67.111,23.265a2.434,2.434,0,1,0-.381,3.422,2.434,2.434,0,0,0,.381-3.422" transform="translate(-15.626 5.76)"/>
      <path id="Path_583" data-name="Path 583" class="cls-1" d="M21.788,55.09c7.312,16.075,28.434,15.515,34.532,0Z" transform="translate(47.248 14.198)"/>
    </g>
    <g id="SPEECH_BUBBLE" data-name="SPEECH BUBBLE" transform="translate(559 -3197.33)">
      <g id="Group_398" data-name="Group 398" transform="translate(916.125 4092.764)">
        <g id="Group_399" data-name="Group 399" transform="translate(0 0)">
          <rect id="Rectangle_123" data-name="Rectangle 123" class="cls-1" width="213.806" height="54.864" rx="27.432" transform="translate(8.369)"/>
          <path id="Path_19" data-name="Path 19" class="cls-1" d="M14874.263,4137v39.921l-43.421,9.482" transform="translate(-14830.842 -4122.058)"/>
        </g>
      </g>
      <text id="Sorry_about_that_" data-name="Sorry about that!" class="cls-4" transform="translate(1030.787 4124.758)"><tspan x="-88.819" y="0">Sorry about that!</tspan></text>
    </g>
  </g>
</svg>
