<svg xmlns="http://www.w3.org/2000/svg" width="56.34" height="52.982" viewBox="0 0 56.34 52.982">
  <defs>
    <style>
      .cls-1 {
        fill: #007aba;
      }
    </style>
  </defs>
  <g id="Icon_Vitamin_E_Omega-3" data-name="Icon_Vitamin E &amp; Omega-3" transform="translate(-194.355 -529.841)">
    <path id="Path_934" data-name="Path 934" class="cls-1" d="M246.733,571.705c-4.5-6.8-12.08-12.619-20.384-13.482a12.046,12.046,0,0,0-9.047,2.384,10.12,10.12,0,0,0-3.381,7.153,29.794,29.794,0,0,0-10.541,2.484,16.5,16.5,0,0,0-7.741,6.516,9.651,9.651,0,0,0-.461,8.711,15.063,15.063,0,0,0,7.008,6.86,30.922,30.922,0,0,0,24.7,1.174,23.791,23.791,0,0,0,3.859-1.9,23.161,23.161,0,0,0,6.042,1.97c3.2.546,6.714.37,9.5-1.458a9.752,9.752,0,0,0,1.726-1.441C252.914,585.307,250.259,577.034,246.733,571.705Zm-16.117,17.512a18.866,18.866,0,0,1-2.02,1.246c-.1.056-.207.117-.312.17-6.772,3.479-15.49,3.646-22.568,1.021-4.936-1.831-10.887-6.348-8.955-12.356.876-2.725,3.185-4.782,5.583-6.195a25.278,25.278,0,0,1,10.42-3.2c.389-.037.779-.059,1.168-.082.635-.036,1.271-.061,1.909-.063l.149,0a28.176,28.176,0,0,1,11.092,2.185,15.01,15.01,0,0,1,7.062,5.658,7.542,7.542,0,0,1,.453,7.086A11.818,11.818,0,0,1,230.616,589.217Zm16.989-1.492a7.447,7.447,0,0,1-1.054,1.487c-3.557,3.757-9.252,2.915-13.828,1a14.815,14.815,0,0,0,2.708-2.857,9.751,9.751,0,0,0,1.505-8.535,13.818,13.818,0,0,0-6.243-7.312,27.284,27.284,0,0,0-11.44-3.632c-1.085-.114-2.173-.165-3.263-.173a8.567,8.567,0,0,1,1.5-4.288,8.476,8.476,0,0,1,6.723-3.2,19.528,19.528,0,0,1,9.629,2.5,30.9,30.9,0,0,1,9.338,7.646,24.229,24.229,0,0,1,4.965,9.378A11.172,11.172,0,0,1,247.6,587.725Z" transform="translate(0 -12.702)"/>
    <path id="Path_935" data-name="Path 935" class="cls-1" d="M247.847,588.143a18.9,18.9,0,0,0-5.275-1.745,15.814,15.814,0,0,0-2.561-.28,1.033,1.033,0,1,0,0,2.067c.205,0,.41.015.615.031q.334.026.667.066l.192.024.029,0c.17.027.339.052.509.082a17.093,17.093,0,0,1,4.781,1.537,1.058,1.058,0,0,0,1.414-.371A1.043,1.043,0,0,0,247.847,588.143Z" transform="translate(-20.03 -25.261)"/>
    <path id="Path_936" data-name="Path 936" class="cls-1" d="M230.933,585.578H229.1a1.066,1.066,0,0,0-.731.3,1.034,1.034,0,0,0,0,1.462,1.076,1.076,0,0,0,.731.3h1.828a1.069,1.069,0,0,0,.731-.3,1.034,1.034,0,0,0,0-1.462A1.073,1.073,0,0,0,230.933,585.578Z" transform="translate(-15.134 -25.019)"/>
    <path id="Path_937" data-name="Path 937" class="cls-1" d="M269.165,575.7a14.1,14.1,0,0,0-2-1.261,1.033,1.033,0,0,0-1.043,1.785,13.964,13.964,0,0,1,1.893,1.181c.133.1.266.193.4.292l.054.041.033.026c.081.065.163.129.243.195q.487.4.947.825.5.468.968.974.227.248.446.506c.085.1.168.2.251.3l.108.137.037.049a1.062,1.062,0,0,0,1.414.371,1.044,1.044,0,0,0,.37-1.414A19.56,19.56,0,0,0,269.165,575.7Z" transform="translate(-31.988 -19.96)"/>
    <path id="Path_938" data-name="Path 938" class="cls-1" d="M259.228,569.955l-1.437-.7-.206-.1a.767.767,0,0,0-.384-.122.783.783,0,0,0-.412.018,1.034,1.034,0,0,0-.722,1.271,1.023,1.023,0,0,0,.475.617l1.437.7.206.1a.773.773,0,0,0,.384.123.788.788,0,0,0,.412-.019,1.053,1.053,0,0,0,.617-.475,1.042,1.042,0,0,0,.1-.8A1.023,1.023,0,0,0,259.228,569.955Z" transform="translate(-27.682 -17.582)"/>
    <path id="Path_939" data-name="Path 939" class="cls-1" d="M205.487,539.186a7.233,7.233,0,0,1,4.319,1.182,5.385,5.385,0,0,1,1,1.019,6.39,6.39,0,0,1,.657,1.235,9.122,9.122,0,0,1,.364,1.371c.006.031.03.2.037.239.009.078.019.156.026.234,0,.033,0,.066.006.1a13.611,13.611,0,0,0-.007,1.6,1.034,1.034,0,0,0,2.067,0,8.346,8.346,0,0,0,.025-1.833,6.314,6.314,0,0,1,.814-2.674,4.735,4.735,0,0,1,2.251-1.934l.031-.015.125-.049c.117-.044.236-.086.355-.125.228-.074.459-.136.692-.189.189-.043.379-.075.569-.109l.039-.007.063-.006c.093-.01.186-.02.279-.027a6.76,6.76,0,0,1,1.152-.013c1.351.012,1.3-1.948,0-2.067a6,6,0,0,1-5.578-3.243,8.647,8.647,0,0,1-.734-2.169c-.032-.155-.055-.312-.085-.468,0-.02-.006-.028-.008-.041s0-.024,0-.045c-.008-.105-.023-.209-.027-.315a1.034,1.034,0,0,0-2.067,0,6.094,6.094,0,0,1-3.369,5.555,8.748,8.748,0,0,1-2.142.648c-.071.012-.143.023-.214.033l-.028,0c-.1.009-.2.02-.3.028s-.206.014-.308.014a1.034,1.034,0,0,0,0,2.067Zm7.44-4.385c.053.105.106.212.163.315A7.534,7.534,0,0,0,215.881,538a7.025,7.025,0,0,0-3,2.855,6.945,6.945,0,0,0-2.62-2.644c-.134-.075-.273-.141-.412-.207A7.393,7.393,0,0,0,212.927,534.8Z" transform="translate(-4.549)"/>
    <path id="Path_940" data-name="Path 940" class="cls-1" d="M262.029,540.688a4.814,4.814,0,0,1,2.81.748,3.347,3.347,0,0,1,1.146,1.538,5.83,5.83,0,0,1,.239.909,1.263,1.263,0,0,1,.04.306c.008.1.014.2.019.3-.019.273-.026.547-.02.821a.689.689,0,0,0,1.378,0,5.1,5.1,0,0,0,.031-.838,3.845,3.845,0,0,1,2.087-3.4,4.074,4.074,0,0,1,2.115-.383.689.689,0,0,0,0-1.378,3.964,3.964,0,0,1-3.695-2.153,5.644,5.644,0,0,1-.485-1.442c-.02-.1-.035-.2-.053-.294,0-.017,0-.025-.007-.035s0-.023,0-.043c-.005-.063-.013-.126-.016-.189a.689.689,0,0,0-1.378,0A4.037,4.037,0,0,1,264,538.833a5.835,5.835,0,0,1-1.424.428c-.04.008-.081.013-.121.019l-.027,0-.214.019c-.061,0-.123.008-.185.008a.689.689,0,0,0,0,1.378Zm4.929-2.914c.037.073.068.152.107.223a4.985,4.985,0,0,0,1.9,1.932l-.037.017a4.483,4.483,0,0,0-1.946,1.965,4.548,4.548,0,0,0-2.1-1.986A4.887,4.887,0,0,0,266.957,537.773Z" transform="translate(-30.078 -2.086)"/>
  </g>
</svg>
