<svg xmlns="http://www.w3.org/2000/svg" width="39.94" height="45.633" viewBox="0 0 39.94 45.633">
  <defs>
    <style>
      .cls-1 {
        fill: #0085cd;
      }
    </style>
  </defs>
  <g id="Icon_Zinc_and_Vitamins_A_E" data-name="Icon_Zinc and Vitamins A &amp; E" transform="translate(-202.176 -277.829)">
    <path id="Path_929" data-name="Path 929" class="cls-1" d="M242.092,317.32v-36.9c0-.112,0-.226,0-.338a2.274,2.274,0,0,0-1.991-2.212.908.908,0,0,0-.245-.036H205.878c-.474,0-.952-.018-1.426,0a2.33,2.33,0,0,0-2.252,2.5v36.7c0,1.39-.055,2.793,0,4.183a2.348,2.348,0,0,0,2.562,2.245h34.663c.14,0,.281.006.42,0a2.289,2.289,0,0,0,2.247-2.237C242.147,319.927,242.092,318.617,242.092,317.32Zm-1.73,3.9c-.09.657-.847.507-1.335.507H204.715c-.442,0-.77-.141-.785-.643-.016-.543,0-1.089,0-1.632V280.314c0-.441.185-.741.664-.747,5.254-.06,10.513,0,15.768,0h19.493c.637.037.507.785.507,1.225v39.462A7.391,7.391,0,0,1,240.362,321.224Z" transform="translate(0)"/>
    <path id="Path_930" data-name="Path 930" class="cls-1" d="M213.1,288.751v-.022a.786.786,0,0,0,.291-.185.877.877,0,0,0,.194-.3.953.953,0,0,0,.069-.36.86.86,0,0,0-.172-.518,1.172,1.172,0,0,0-.5-.376,2.019,2.019,0,0,0-.8-.142,2.152,2.152,0,0,0-.828.142,1.206,1.206,0,0,0-.518.376.851.851,0,0,0-.177.524v.138h.924v-.056a.279.279,0,0,1,.066-.177.479.479,0,0,1,.183-.136.6.6,0,0,1,.255-.053.54.54,0,0,1,.268.061.414.414,0,0,1,.163.161.439.439,0,0,1,.055.216.427.427,0,0,1-.053.221.339.339,0,0,1-.138.133.417.417,0,0,1-.2.044h-.316v.681h.4a.429.429,0,0,1,.2.044.35.35,0,0,1,.138.13.426.426,0,0,1,.053.225.532.532,0,0,1-.127.365.578.578,0,0,1-.448.143.747.747,0,0,1-.435-.1.3.3,0,0,1-.141-.247v-.105h-.974v.116a.935.935,0,0,0,.174.548,1.183,1.183,0,0,0,.534.4,2.408,2.408,0,0,0,.913.149,2.3,2.3,0,0,0,.9-.149,1.189,1.189,0,0,0,.523-.4,1,1,0,0,0,.011-1.149A.923.923,0,0,0,213.1,288.751Z" transform="translate(-4.504 -4.861)"/>
    <path id="Path_931" data-name="Path 931" class="cls-1" d="M220.151,290.793a1.922,1.922,0,0,0,.789-.141,1.167,1.167,0,0,0,.493-.4,1.712,1.712,0,0,0,.257-.623,4.226,4.226,0,0,0,0-1.611,1.713,1.713,0,0,0-.257-.622,1.167,1.167,0,0,0-.493-.4,2.26,2.26,0,0,0-1.575,0,1.184,1.184,0,0,0-.5.4,1.684,1.684,0,0,0-.26.622,4.226,4.226,0,0,0,0,1.611,1.683,1.683,0,0,0,.26.623,1.184,1.184,0,0,0,.5.4A1.926,1.926,0,0,0,220.151,290.793Zm-.531-2.247a2.3,2.3,0,0,1,.053-.546.565.565,0,0,1,.169-.3.544.544,0,0,1,.62,0,.551.551,0,0,1,.166.3,2.418,2.418,0,0,1,.05.546v.548a2.42,2.42,0,0,1-.05.542.566.566,0,0,1-.166.31.53.53,0,0,1-.62,0,.579.579,0,0,1-.169-.31,2.3,2.3,0,0,1-.053-.542Z" transform="translate(-8.81 -4.861)"/>
    <path id="Path_932" data-name="Path 932" class="cls-1" d="M231.425,314.053v-1.225H220.782v2.335h6.336l-6.814,9.571v1.225h11.274v-2.354H224.61Z" transform="translate(-9.766 -18.855)"/>
    <path id="Path_933" data-name="Path 933" class="cls-1" d="M256.455,319.334a3.938,3.938,0,0,0-1.742-.363,4.5,4.5,0,0,0-1.34.191,3.651,3.651,0,0,0-1.1.555,3.7,3.7,0,0,0-.833.861h-.134l-.21-1.378h-2.2v10.068h2.661v-5.876a2.38,2.38,0,0,1,.268-1.148,2,2,0,0,1,.746-.785,2.046,2.046,0,0,1,1.072-.287,2.565,2.565,0,0,1,.727.1,1.256,1.256,0,0,1,.545.316,1.426,1.426,0,0,1,.335.555,2.527,2.527,0,0,1,.115.814v6.316h2.661V322.53a4.411,4.411,0,0,0-.411-2.049A2.555,2.555,0,0,0,256.455,319.334Z" transform="translate(-25.168 -22.163)"/>
  </g>
</svg>
