<svg xmlns="http://www.w3.org/2000/svg" width="40.992" height="62.755" viewBox="0 0 40.992 62.755">
  <defs>
    <style>
      .cls-1 {
        fill: #0085cd;
      }
    </style>
  </defs>
  <g id="Icon_Glucosamine_Chondroitin" data-name="Icon_Glucosamine &amp; Chondroitin" transform="translate(-1388.992 -1026.86)">
    <path id="Icon_Glucosamine_Chondroitin_" data-name="Icon_Glucosamine &amp; Chondroitin " class="cls-1" d="M241.212,698.315a1.218,1.218,0,0,0-.331-.416,10.094,10.094,0,0,0-.038-3.068,4.514,4.514,0,0,0-.462-1.622,1.238,1.238,0,0,0-1.707-.355,1.362,1.362,0,0,0-.517,1.4,6.249,6.249,0,0,1-.071,1.631,5.479,5.479,0,0,1-1.279,2.764,4.588,4.588,0,0,1-2.758,1.253,8.277,8.277,0,0,0-1.1.151,18.15,18.15,0,0,0-1.146-4.77,31.662,31.662,0,0,0-2.158-4.561,6.759,6.759,0,0,1-.952-1.749c-.175-.88.532-1.917.983-2.623a9.485,9.485,0,0,1,1.64-1.926,1.283,1.283,0,0,0,.527.607c.816.459,1.593-.252,2.335-.543a13.737,13.737,0,0,0,2.252-1.034,6.55,6.55,0,0,0,3.36-4.293,5.735,5.735,0,0,0-1.157-4.169,7.561,7.561,0,0,0-2.865-2.515c-.263-1.832-.732-3.616-2.308-4.792a4.8,4.8,0,0,0-1.14-.625,4.359,4.359,0,0,0-.466-.157,1.192,1.192,0,0,0-.122-.032c-.028-.138-.065-.277-.076-.352l-.178-1.385c-.1-.793-.142-1.63-.316-2.412a2.937,2.937,0,0,0-3.739-2.123c-.024.006-.048.006-.072.014a12.386,12.386,0,0,0-5.977,4.31,9.339,9.339,0,0,0-1.726,4.614,1.885,1.885,0,0,0,1.022,2.146c-.076.146-.157.289-.228.437a1.691,1.691,0,0,0,.483,2.166,2.99,2.99,0,0,0,1.725.408,4.744,4.744,0,0,1-1.206,3.358c-.756.68-2,.74-2.951,1.065a11.35,11.35,0,0,0-3.989,2.188,5.242,5.242,0,0,0-.624.678l-.524-.262a4.111,4.111,0,0,0-3.766-.07,10.4,10.4,0,0,0-2.757,2.649c-.9,1.011-1.825,2.009-2.713,3.034-1.832,2.111,1.393,4.026,3.364,3.4,1.316-.415,1.978-1.606,3.006-2.421a8.535,8.535,0,0,1,.8-.56l-.9,2.262q-.556,1.391-1.112,2.782c-.022.054-.053.116-.085.18-.054.052-.106.11-.154.156l-4.708,4.552-2.452,2.371a7.931,7.931,0,0,0-1.214,1.246c-.844,1.3.194,2.613.827,3.747a1.753,1.753,0,0,0,2.9.678q2.38-1.867,4.751-3.746l2.771-2.186a6.766,6.766,0,0,1,1.246-.935c.144-.044.544-.044.432-.109.044.026.079.1.113.135.175.188.333.4.5.593l1.824,2.172c1.625,1.935,3.225,3.9,4.851,5.837a1.479,1.479,0,0,0-.165.42,4.29,4.29,0,0,0,.2,1.932,28.334,28.334,0,0,0,.891,2.727l-2.574,5.773-.4.908a1.02,1.02,0,0,0,.6,1.466l2.14.832a.96.96,0,0,0,.971-.256l4.52-5.76.51-.651a17.809,17.809,0,0,0,1.76,1.857l0,0-.006.064c-.043.485,0,.995.006,1.482,0,1.053-.04,2.119.012,3.171a1.693,1.693,0,0,0,1.338,1.691,6.649,6.649,0,0,0,1.587.041,1.707,1.707,0,0,0,1.692-1.287c.064-.258.092-.531.137-.792l.615-3.568c.141-.814.3-1.627.421-2.444.192-1.248-.684-1.7-1.548-2.37a10.639,10.639,0,0,1-2-1.92,4.056,4.056,0,0,1-.78-1.616,2.956,2.956,0,0,1,.042-1.148,4.664,4.664,0,0,1,.473-1.221c.216-.427.457-.841.675-1.268a8.833,8.833,0,0,0,.446-1.045,2.439,2.439,0,0,0,.818.293,3.362,3.362,0,0,0,.913-.018c.189-.016.379.016.626,0a7.635,7.635,0,0,0,3.583-1.172c.585-.375,1.142-.905.872-1.619a6.086,6.086,0,0,0,1.936-2.667.831.831,0,0,0,.131-.4A.787.787,0,0,0,241.212,698.315Zm-7.085-23.148a12.814,12.814,0,0,1,1.378-1.346c.161.1.351.222.508.338.049.036.1.071.136.1a7.729,7.729,0,0,1,1.184,1.2,4.818,4.818,0,0,1,1.182,3.2c-.1,1.663-1.506,2.884-2.834,3.686a11.956,11.956,0,0,1-1.855.852c-.322.126-.642.259-.951.416-.073.038-.394.268-.438.247.035.016.031-.162.021-.338-.009-.144-.022-.286-.022-.322a2.739,2.739,0,0,1,.4-1.482,4.253,4.253,0,0,0,.344-.626c.116-.289-.1.314.015.025a.9.9,0,0,0,.058-.342c0-.014,0-.028,0-.042a.893.893,0,0,0-.747-.828,1.05,1.05,0,0,0-.565.076,6.5,6.5,0,0,1,.591-2.367A9.642,9.642,0,0,1,234.127,675.167Zm-2.379-7.962a.562.562,0,0,0,0-.267C231.786,666.986,231.806,667.065,231.747,667.2ZM211.43,685.577a10.116,10.116,0,0,0-2.519,1.643c-.655.572-1.228,1.644-2.158,1.788a1.332,1.332,0,0,1-.624-.065c-.087-.03-.441-.259-.619-.361.807-.739,1.5-1.687,2.224-2.5.682-.762,1.341-1.556,2.05-2.292a2.226,2.226,0,0,1,2.634-.464c.182.087.362.179.543.268-.044.1-.087.2-.128.308l-.543,1.357A5.667,5.667,0,0,0,211.43,685.577Zm-8.5,18.784c-.011.011-.036.02-.043.034a.138.138,0,0,1,.06-.048Zm.476.029c.006-.011,0-.041-.023-.078A.052.052,0,0,1,203.406,704.389Zm18.367,14.666-.267.341-.485-.189,2.315-5.193.4-.908c0-.006,0-.012.006-.018a.867.867,0,0,0,.094-.75c-.246-.659-.478-1.325-.691-2,.146.183.291.367.435.55-.184-.233.041.054.1.138.081.107.162.214.242.322q.23.309.455.621.417.576.821,1.16c.19.275.375.553.561.83Zm7.592-2.273a.455.455,0,0,0,.073.076C229.4,716.88,229.377,716.836,229.364,716.782Zm2.667,4.6a.028.028,0,0,1,.006-.043C232.033,721.36,232.027,721.379,232.032,721.385ZM230.489,704.1c-.391.914-.952,1.741-1.322,2.669-1.143,2.867.556,5.388,2.752,7.171.215.175.435.346.656.514a2.64,2.64,0,0,0,.394.292c.263.12.085.177.206.006v0c-.077.4-.139.8-.208,1.205q-.314,1.822-.628,3.644l-.236,1.367c-.007.044-.031.12-.047.193-.206-.012-.476.034-.638.034l-.037,0c-.009-.242-.047-.529-.047-.624q-.007-1.758-.014-3.517a2.392,2.392,0,0,0-.266-1.336,3.775,3.775,0,0,0-.493-.574l-4.6-4.871c-2.216-2.347-4.217-4.9-6.292-7.374l-4.117-4.9a2.528,2.528,0,0,0-1.391-1.082,3.275,3.275,0,0,0-2.973.937L205.927,702,203.5,703.91c-.078.062-.164.122-.249.184-.043-.065-.082-.125-.092-.141l-.425-.76a2.653,2.653,0,0,1-.381-.681c-.019-.15-.018-.094.09-.227a18.57,18.57,0,0,1,1.588-1.535l5.256-5.082c.468-.452.965-.887,1.409-1.362a4.267,4.267,0,0,0,.646-1.337l2.252-5.632.357-.893.374-.936q.206-.514.411-1.029l.088-.221a2.874,2.874,0,0,1,.417-.807,3.9,3.9,0,0,1,.476-.549,6.231,6.231,0,0,1,1.136-.868,12.7,12.7,0,0,1,3.256-1.33,8.767,8.767,0,0,0,1.773-.553,4.5,4.5,0,0,0,1.679-1.548,9.022,9.022,0,0,0,1.106-4.963,1,1,0,0,0-1-1,8.886,8.886,0,0,1-.945.037c-.1,0-.2-.01-.3-.016.016-.038.03-.071.04-.089l.718-1.342a1.007,1.007,0,0,0-.862-1.5c-.083.007-.428,0-.687.02.007-.11.01-.223.023-.327a7.233,7.233,0,0,1,.205-.986,7.454,7.454,0,0,1,1.663-3.018,10.531,10.531,0,0,1,4.32-2.868c.013,0,.026,0,.038-.008a.965.965,0,0,1,1.194.29c.2.293.146.279.186.578.1.745.192,1.491.288,2.236.068.526.135,1.053.2,1.579a1.73,1.73,0,0,0,1.282,1.534c.107.031.22.046.329.076.064.018.325.113.343.115,1.433.645,1.9,2.178,2.077,3.56q.061.482.124.964c-2.082,2.012-3.842,4.959-3.161,7.847a.706.706,0,0,0,.566.488c-.01.035-.016.064-.026.1a12.235,12.235,0,0,0-2.942,2.862c-1.207,1.65-2.284,3.785-1.149,5.743a26.977,26.977,0,0,1,3.653,8.725A8.652,8.652,0,0,1,230.489,704.1Zm7.035-3.18a.942.942,0,0,0-.353,1.236,5.944,5.944,0,0,1-1.584.639,4.289,4.289,0,0,1-1.128.137c-.284-.008-.569.076-.841.058a.61.61,0,0,1-.435-.965.7.7,0,0,1,.562-.234,12.265,12.265,0,0,0,1.343-.195,5.845,5.845,0,0,0,3.942-2.888.922.922,0,0,0,.266.342A4.183,4.183,0,0,1,237.523,700.918Z" transform="translate(1188.646 366.398)"/>
  </g>
</svg>
