<svg xmlns="http://www.w3.org/2000/svg" width="53.889" height="33.07" viewBox="0 0 53.889 33.07">
  <defs>
    <style>
      .cls-1 {
        fill: #007aba;
      }
    </style>
  </defs>
  <g id="ICON_2_Lutein_Zeaxanthin_and_Vitamin_A_" data-name="ICON_2_Lutein, Zeaxanthin, and Vitamin A " transform="translate(-202.045 -171.517)">
    <path id="Path_927" data-name="Path 927" class="cls-1" d="M238.632,202.465A39.228,39.228,0,0,0,250.865,194c1.235-1.242,2.407-2.525,3.648-3.884q.556-.608,1.125-1.229a1.175,1.175,0,0,0,0-1.559c-.389-.425-.772-.848-1.151-1.266-1.255-1.387-2.441-2.7-3.715-3.938a39.337,39.337,0,0,0-14.075-9.238,22.836,22.836,0,0,0-17.479.8,39.733,39.733,0,0,0-12,8.343c-1.266,1.263-2.461,2.562-3.727,3.938q-.567.616-1.143,1.24a1.17,1.17,0,0,0-.041,1.522l.38.458c.6.721,1.164,1.4,1.746,2.055,5.187,5.829,10.673,9.744,16.775,11.968a22.286,22.286,0,0,0,7.679,1.38A24.446,24.446,0,0,0,238.632,202.465Zm-19.381-3.119a44.122,44.122,0,0,1-14-11.282l.258-.307c.244-.291.482-.575.73-.849a43.448,43.448,0,0,1,12.375-9.836,21.611,21.611,0,0,1,11.608-2.684,23.03,23.03,0,0,1,9.027,2.672,45.53,45.53,0,0,1,13.308,10.873.936.936,0,0,1,.087.131l.028.046q-.437.469-.872.942c-.685.745-1.4,1.515-2.123,2.232a42.154,42.154,0,0,1-10.362,7.737,21.9,21.9,0,0,1-11.671,2.694A22.358,22.358,0,0,1,219.252,199.346Z" transform="translate(0)"/>
    <path id="Path_928" data-name="Path 928" class="cls-1" d="M245.773,186.842a1.277,1.277,0,0,0-.873-.9,1.3,1.3,0,0,0-1.253.272l-.236.207a2.588,2.588,0,0,1-1.984.63,2.908,2.908,0,0,1-2.674-2.024,2.854,2.854,0,0,1,.73-3.145c.084-.083.168-.164.255-.244a1.3,1.3,0,0,0,.387-1.2,1.291,1.291,0,0,0-.79-.964,11.476,11.476,0,1,0,2.464,19.49A11.176,11.176,0,0,0,245.773,186.842Zm-8.482.879a5.5,5.5,0,0,0,6.141,1.634c.531,3.256-1.718,6.713-4.23,8.2a8.816,8.816,0,0,1-10.3-1.112,8.73,8.73,0,0,1,5.866-15.188,9.227,9.227,0,0,1,1.726.164A5.506,5.506,0,0,0,237.291,187.721Z" transform="translate(-5.853 -1.927)"/>
  </g>
</svg>
