<svg xmlns="http://www.w3.org/2000/svg" width="58.818" height="44.97" viewBox="0 0 58.818 44.97">
  <defs>
    <style>
      .cls-1 {
        fill: #0085cd;
      }
    </style>
  </defs>
  <g id="Icon_Coenzyme_Q10_Omega-3" data-name="Icon_Coenzyme Q10 &amp; Omega-3" transform="translate(-189.235 -409.365)">
    <g id="Group_636" data-name="Group 636" transform="translate(196.67 409.364)">
      <path id="Path_941" data-name="Path 941" class="cls-1" d="M217.962,417.444c.094-.063.065-.047,0,0Z" transform="translate(-210.373 -413.199)"/>
      <path id="Path_942" data-name="Path 942" class="cls-1" d="M254.8,422.789c-.469-6.08-4.98-12.127-11.175-13.2-3.689-.642-7.356.5-10.565,2.294a24.622,24.622,0,0,0-3.972,2.734c-5.091-3.8-11.894-7.1-18.07-4.052a9.7,9.7,0,0,0-1.887,1.241,5.272,5.272,0,0,0-.429.385.607.607,0,0,0-.1.113c-.034.024-.086.064-.187.143a13.484,13.484,0,0,0-4.9,9.735,17.6,17.6,0,0,0,.68,6.579c.511,1.6,3.036.914,2.522-.7a11.987,11.987,0,0,1-.327-1.338q-.064-.326-.117-.653c-.015-.094-.029-.188-.042-.282,0-.014-.035-.275-.042-.341a18.328,18.328,0,0,1-.108-1.863,11.359,11.359,0,0,1,3.073-8.309c.484-.485,1.029-.9,1.529-1.364.066-.062.134-.121.2-.18.051-.043.115-.09.161-.123l-.1.07c.261-.174.508-.362.778-.523a9.657,9.657,0,0,1,.928-.479c.021,0,.375-.149.468-.181q.343-.118.694-.212t.711-.162c.1-.019.2-.035.3-.051.025,0,.215-.03.286-.037a11.67,11.67,0,0,1,1.869-.031,10.535,10.535,0,0,1,2.151.345,17.148,17.148,0,0,1,2.55.844,28.756,28.756,0,0,1,6.559,4.034,1.345,1.345,0,0,0,1.849,0,17.627,17.627,0,0,1,3.323-2.514,15.62,15.62,0,0,1,8.073-2.721c5.56.036,9.871,4.935,10.642,10.189.787,5.367-2.744,10.239-6.051,14.086a90.125,90.125,0,0,1-10.889,10.456q-1.367,1.134-2.763,2.231l-.567.444-.169.131-.188.145q-.512.392-1.027.779c-.445.334-.9.659-1.346.986a102.165,102.165,0,0,1-10.816-7.923c-.6-.512-1.182-1.038-1.741-1.59-.25-.247-.5-.5-.731-.76q-.144-.159-.281-.322l-.13-.156-.024-.028-.008-.01a1.348,1.348,0,0,0-1.789-.469,1.316,1.316,0,0,0-.469,1.789,33.315,33.315,0,0,0,6.671,6.08c2.321,1.772,4.714,3.451,7.139,5.076.517.346,1.034.691,1.557,1.028a1.281,1.281,0,0,0,1.32,0c2.17-1.522,4.262-3.168,6.316-4.842a93.958,93.958,0,0,0,11.447-10.8C251.359,434.183,255.264,428.843,254.8,422.789Z" transform="translate(-203.451 -409.364)"/>
    </g>
    <path id="Path_943" data-name="Path 943" class="cls-1" d="M229.778,444.561h-5.517l-1.757-4.455a1.321,1.321,0,0,0-2.522,0l-2.461,7.139q-1.2-4.4-2.4-8.809l-.5-1.851a1.322,1.322,0,0,0-2.39-.312l-4.591,8.583H190.5a1.308,1.308,0,0,0,0,2.615h17.917a1.3,1.3,0,0,0,1.129-.648l3.411-6.377,2.653,9.727.5,1.851a1.319,1.319,0,0,0,2.521,0l2.693-7.812.79,2a1.361,1.361,0,0,0,1.261.96h6.4A1.308,1.308,0,0,0,229.778,444.561Z" transform="translate(0 -12.534)"/>
  </g>
</svg>
