<svg xmlns="http://www.w3.org/2000/svg" width="62.98" height="55.864" viewBox="0 0 62.98 55.864">
  <defs>
    <style>
      .cls-1 {
        fill: #007aba;
      }
    </style>
  </defs>
  <g id="ICON_Premium_Naturally_Inspired_Ingredients_" data-name="ICON_Premium, Naturally Inspired Ingredients " transform="translate(-189.631 -33.674)">
    <path id="Path_925" data-name="Path 925" class="cls-1" d="M232.181,60.25a.732.732,0,0,0,1.389-.16,41.229,41.229,0,0,1,1.62-4.9q.206-.526.426-1.051l3.206-1.427.5-.225a.725.725,0,0,0-.543-1.345l-2.277,1.014a23.534,23.534,0,0,1,3.588-5.554c.624-.7-.515-1.6-1.136-.9a24.678,24.678,0,0,0-3.756,5.821l-.633-2.138a.731.731,0,0,0-.944-.4.741.741,0,0,0-.4.944l1.071,3.616c-.147.354-.292.71-.431,1.065-.415,1.058-.8,2.135-1.142,3.223q-.642-1.493-1.284-2.987c-.368-.855-1.715-.318-1.345.543Z" transform="translate(-16.961 -4.946)"/>
    <path id="Path_926" data-name="Path 926" class="cls-1" d="M251.6,39.435c-5.7-.6-11.623-.822-17.258.407a24.036,24.036,0,0,0-5.452,1.85q-.264-1.058-.566-2.1a45.142,45.142,0,0,0-1.822-5.245,1.111,1.111,0,0,0-1.416-.6,44.53,44.53,0,0,0-12.608,6.432,15.928,15.928,0,0,0-5.3,6.643,10.505,10.505,0,0,0-.618,2.618.851.851,0,0,0-.1.02,16.688,16.688,0,0,0-5.751,3.737,54.936,54.936,0,0,0-5.145,5.409c-1.043,1.234-2.06,2.5-3.02,3.8a10.633,10.633,0,0,0-1.128,2.257c-2.14,5.121-2.637,11.128.06,16.147a16.831,16.831,0,0,0,13.251,8.654,13.275,13.275,0,0,0,5.257-.446L220,85.984l9.934-3c2.49-.753,6.274-1.193,6.511-4.4a4.2,4.2,0,0,0-.127-1.317c-.027-.107-.059-.212-.1-.315-.018-.052-.064-.207-.091-.3a3.448,3.448,0,0,0-1.11-1.68c.5-.165,1.009-.329,1.509-.5a4,4,0,0,0,2.485-5.25c-.028-.074-.062-.142-.092-.214,0-.041-.062-.3-.068-.32a3.555,3.555,0,0,0-.485-.907,3.4,3.4,0,0,0-.256-.3l.369-.115.027-.009a18.639,18.639,0,0,0,3.344-.845c2.735-.971,4.728-3.863,6.026-6.317a41.344,41.344,0,0,0,3.846-12.126,55.979,55.979,0,0,0,.889-7.468A1.111,1.111,0,0,0,251.6,39.435Zm-42.961,10.9c.016-.225.03-.449.057-.673a11.612,11.612,0,0,1,.261-1.341,11.141,11.141,0,0,1,1.327-2.771,15.39,15.39,0,0,1,2.69-2.966,38.33,38.33,0,0,1,11.909-6.445,43.229,43.229,0,0,1,2.068,6.66,14.3,14.3,0,0,0-1.967,1.564A13.357,13.357,0,0,0,221,53.218l-6.006,3.375L212.3,58.1c-.212-.106-.425-.213-.633-.327-.049-.054-.1-.108-.147-.163a13.07,13.07,0,0,1-.808-1.033q-.258-.364-.491-.743c-.063-.1-.124-.207-.185-.312-.005-.013-.16-.292-.2-.375a12.1,12.1,0,0,1-.84-2.079c-.028-.095-.053-.189-.08-.284l-.008-.026-.011-.055c-.045-.211-.091-.422-.126-.635a9.709,9.709,0,0,1-.128-1.3c0-.108,0-.217,0-.326,0-.022,0-.035,0-.044S208.638,50.367,208.641,50.332ZM223.364,51.6v0C223.375,51.544,223.4,51.427,223.364,51.6Zm-14.2,6.524a11.813,11.813,0,0,0,.993,1.185l-2.085,1.171A6.192,6.192,0,0,1,209.16,58.126ZM240.638,63.4c-.169,1.176-1.228,1.39-2.193,1.693l-.454.142-6.038,1.892-2.981.934c-3.947,1.237-7.92,2.413-11.847,3.712-.075.025-.151.048-.227.071-1.332.417-.763,2.518.578,2.1l.136-.043,10.71-3.356,6.81-2.134a2.072,2.072,0,0,1,1.283.433,1.325,1.325,0,0,1,.383.53c.068.169.287.969.1.4a4.624,4.624,0,0,1,.2.736c-.008,0,.009.383,0,.471a2.092,2.092,0,0,1-.085.4,1.548,1.548,0,0,1-.352.52,3.345,3.345,0,0,1-.679.458c-1.068.425-2.216.694-3.314,1.038l-4.214,1.32-9.269,2.9.024.058a1.087,1.087,0,0,0,.71,2.044l8.485-2.533c1.043-.312,2.1-.593,3.135-.936.026-.009.055-.006.08-.013l-.066.018a1.065,1.065,0,0,1,.145-.017,7.3,7.3,0,0,1,.941.013,1.616,1.616,0,0,1,1.512,1.317c.028.129.082.359.1.439.006.027.009.041.013.055s0,.03,0,.056c0,.075.008.149.008.223a1.048,1.048,0,0,1-.107.559c-.305.7-1.012.831-1.7,1.038l-2.543.769-8.315,2.515L211.1,86.4c-.873.263-1.742.557-2.622.793-.092.024-.187.041-.277.066h0l.071-.009-.073.009c-.076.02-.263.032-.072.009l-.117.013c-.266.025-.531.048-.8.061A14.827,14.827,0,0,1,196.083,83.3a13.974,13.974,0,0,1-4.159-7.992,17.971,17.971,0,0,1,.736-7.7A16.068,16.068,0,0,1,194.2,63.82a4.62,4.62,0,0,1,.28-.4c.436-.583.546-.722.989-1.282,2.684-3.389,5.639-6.947,9.255-9.378a12.447,12.447,0,0,1,1.4-.821l1.659,4.424a8.069,8.069,0,0,0-2.017,6.047,1.1,1.1,0,0,0,1.637.939l5-2.81,2.515-1.413,6.081-3.417,2.108-1.185,2.188-1.23,2.382-1.338.795-.447c.085-.048.178-.092.259-.146l.014-.01a6.612,6.612,0,0,1,.985-.268c.054-.009.108-.017.163-.023a1.417,1.417,0,0,1,1.206.359c.007.007.011.015.018.022a2.288,2.288,0,0,1,.661,1.813,2.423,2.423,0,0,1-.8,1.533c-.1.1-.212.2-.323.3-.087.074-.177.144-.266.215l-.067.052-.251.19c-.195.146-.4.282-.595.426q-.708.52-1.428,1.025-1.546,1.083-3.109,2.138c-.2.132-.393.262-.589.395-.605.408-1.214.813-1.821,1.219l-.173.115q-3.752,2.511-7.536,4.977c-.993.646-.388,2.376.838,1.988l9.586-3.037,1.043-.331L229,63.6l8.252-2.615c.137-.043.28-.078.414-.131l.039-.016c.86-.046,1.821-.132,2.4.546a2.03,2.03,0,0,1,.353.8s-.005,0,0,.027a1.283,1.283,0,0,0,.066.191A2.239,2.239,0,0,1,240.638,63.4Zm9.2-17.247a45.317,45.317,0,0,1-2.983,11.159,19.057,19.057,0,0,1-2.96,4.943,13.076,13.076,0,0,1-1.1,1.145,4.348,4.348,0,0,0-.186-1.576c-.039-.127-.1-.248-.142-.374-.086-.283,0-.1.013-.048-.023-.081-.05-.161-.075-.241a3.431,3.431,0,0,0-.307-.685,3.588,3.588,0,0,0-1.826-1.5,5.544,5.544,0,0,0-3.1-.236c-.987.225-1.963.617-2.927.922l-6.964,2.206-.531.168-2.412.764-1.836.582,1.454-.97c.385-.256.77-.511,1.153-.769.233-.157.466-.317.7-.475q1.975-1.331,3.919-2.71c.375-.266.755-.524,1.125-.8a15.518,15.518,0,0,0,1.609-1.3q.184-.177.353-.367c.761-.79,1.536-1.567,2.338-2.315q.526-.49,1.065-.97l4.382.125.667.019a.741.741,0,0,0,.775-.672.733.733,0,0,0-.672-.774l-3.5-.1a29.585,29.585,0,0,1,7.306-4.546c.862-.357.207-1.652-.653-1.3a30.629,30.629,0,0,0-7.539,4.691q.25-1.552.5-3.1a.732.732,0,0,0-.672-.775.741.741,0,0,0-.775.672l-.747,4.648q-.556.5-1.1,1c-.088.082-.173.169-.261.252a4.6,4.6,0,0,0-.389-1.58,3.823,3.823,0,0,0-2.3-2.217,3.9,3.9,0,0,0-1.289-.16,5.737,5.737,0,0,0-1.916.421c-.076.03-.149.068-.224.1-.632.284-1.227.666-1.828,1l-2.677,1.5q.026-.155.055-.309c.01-.052.021-.1.034-.155.063-.26.126-.519.2-.776a12.018,12.018,0,0,1,.547-1.488c.04-.089.082-.178.124-.267.017-.031.113-.222.132-.258q.211-.391.451-.765.225-.35.475-.683.129-.171.263-.336c.055-.067.11-.133.165-.2l.012-.015.036-.039a12.674,12.674,0,0,1,1.6-1.471,13.968,13.968,0,0,1,1.977-1.284,19.155,19.155,0,0,1,4.142-1.6c5.457-1.458,11.264-1.323,16.856-.782C250.266,43.055,250.072,44.612,249.84,46.152Z"/>
  </g>
</svg>
