<svg xmlns="http://www.w3.org/2000/svg" width="76.502" height="81.224" viewBox="0 0 76.502 81.224">
  <defs>
    <style>
      .cls-1 {
        fill: #33a69f;
      }
    </style>
  </defs>
  <g id="Icon_Micellar_Technology_" data-name="Icon_Micellar Technology " transform="translate(-355.078 -167.032)">
    <path id="Path_952" data-name="Path 952" class="cls-1" d="M406.1,195.17a1.793,1.793,0,0,0-1.729.375l-.325.286a3.57,3.57,0,0,1-2.736.868,4.012,4.012,0,0,1-3.688-2.79,3.935,3.935,0,0,1,1.007-4.336c.115-.114.232-.225.351-.337a1.8,1.8,0,0,0-.555-2.981,15.823,15.823,0,1,0,3.4,26.872,15.41,15.41,0,0,0,5.483-16.718A1.76,1.76,0,0,0,406.1,195.17ZM395.6,197.62a7.585,7.585,0,0,0,8.466,2.253c.733,4.489-2.369,9.255-5.832,11.3a12.154,12.154,0,0,1-14.2-1.533,12.036,12.036,0,0,1,8.089-20.939,12.735,12.735,0,0,1,2.38.225C393.054,192.237,393.424,195.162,395.6,197.62Z"/>
    <path id="Path_953" data-name="Path 953" class="cls-1" d="M426.76,225.292a90.774,90.774,0,0,0-5.441-7.834,1.272,1.272,0,0,0-2.1.013c-3.568,4.633-7.088,9.687-9.275,15.162a11.125,11.125,0,0,0,1.1,10.788,11.385,11.385,0,0,0,11.749,4.565,11.564,11.564,0,0,0,8.783-11.172C431.5,232.727,428.848,228.644,426.76,225.292Zm-4.636,19a7.58,7.58,0,0,1-8.529-3.873c-1.6-3.006-.734-5.49.744-8.479a50.3,50.3,0,0,1,2.678-4.754c1.044-1.638,2.125-3.265,3.251-4.86,1.019,1.438,2.013,2.894,2.953,4.381a52.994,52.994,0,0,1,3.548,6.4,16.117,16.117,0,0,1,.639,1.661,6.868,6.868,0,0,1,.422,2.045A7.764,7.764,0,0,1,422.124,244.291Z"/>
    <path id="Path_954" data-name="Path 954" class="cls-1" d="M427.418,203.581c.511-.559,1.026-1.124,1.551-1.694a1.62,1.62,0,0,0,0-2.149q-.805-.879-1.587-1.746c-1.731-1.912-3.365-3.718-5.122-5.429-.633-.616-1.268-1.2-1.9-1.775l5.256-5.257a2.25,2.25,0,0,0-3.182-3.182l-5.513,5.514a53.584,53.584,0,0,0-8.318-5.474l3.962-6.862a2.25,2.25,0,1,0-3.9-2.25l-4.159,7.2c-.551-.224-1.1-.454-1.654-.655a31.573,31.573,0,0,0-7.193-1.693v-8.851a2.25,2.25,0,0,0-4.5,0v8.679a32.22,32.22,0,0,0-8.416,1.471l-4.009-6.945a2.25,2.25,0,0,0-3.9,2.25l3.645,6.313a51.92,51.92,0,0,0-8.9,5.125l-5.645-5.644a2.25,2.25,0,0,0-3.182,3.183L366,188.949q-1.943,1.635-3.792,3.477c-1.746,1.741-3.393,3.532-5.139,5.429q-.78.849-1.576,1.71a1.616,1.616,0,0,0-.055,2.1l.524.63c.825.994,1.6,1.933,2.407,2.834,7.152,8.037,14.717,13.434,23.128,16.5a30.737,30.737,0,0,0,10.588,1.9,33.689,33.689,0,0,0,13.438-2.927,54.092,54.092,0,0,0,16.866-11.668C424.092,207.224,425.708,205.455,427.418,203.581Zm-20.957,12.275c-5.613,2.866-10.879,4.082-16.092,3.714A30.844,30.844,0,0,1,378.8,216.3c-6.921-3.4-13.237-8.487-19.306-15.556l.357-.422c.337-.4.665-.793,1.005-1.172a59.921,59.921,0,0,1,17.063-13.562,29.8,29.8,0,0,1,16-3.7,31.76,31.76,0,0,1,12.445,3.684c6.421,3.31,12.423,8.213,18.349,14.991a1.29,1.29,0,0,1,.12.18l.038.063q-.6.646-1.2,1.3c-.945,1.027-1.924,2.089-2.927,3.078A58.094,58.094,0,0,1,406.461,215.856Z"/>
  </g>
</svg>
