<svg xmlns="http://www.w3.org/2000/svg" width="108.559" height="96.293" viewBox="0 0 108.559 96.293">
  <defs>
    <style>
      .cls-1 {
        fill: #33a69f;
      }
    </style>
  </defs>
  <g id="Icon_3_Premium_Naturally_Inspired_Ingredients_" data-name="Icon_3_Premium, Naturally Inspired Ingredients " transform="translate(-348.399 -33.674)">
    <path id="Path_944" data-name="Path 944" class="cls-1" d="M392.508,70.957a1.262,1.262,0,0,0,2.4-.275,71.07,71.07,0,0,1,2.793-8.438q.355-.907.734-1.812l5.527-2.46.869-.387a1.25,1.25,0,0,0-.936-2.319l-3.925,1.747a40.6,40.6,0,0,1,6.183-9.573c1.076-1.2-.887-2.75-1.958-1.555a42.565,42.565,0,0,0-6.474,10.034l-1.092-3.686A1.261,1.261,0,0,0,395,51.542a1.278,1.278,0,0,0-.691,1.627q.923,3.115,1.846,6.233c-.254.611-.5,1.223-.743,1.835-.715,1.823-1.377,3.68-1.968,5.556q-1.107-2.574-2.213-5.149c-.634-1.474-2.957-.548-2.319.936Z"/>
    <path id="Path_945" data-name="Path 945" class="cls-1" d="M455.218,43.6c-9.819-1.038-20.034-1.417-29.746.7a41.454,41.454,0,0,0-9.4,3.189q-.453-1.824-.974-3.623a77.818,77.818,0,0,0-3.141-9.041,1.915,1.915,0,0,0-2.441-1.037c-7.625,2.718-15.313,6.063-21.732,11.086-3.849,3.012-7.387,6.812-9.138,11.451a18.1,18.1,0,0,0-1.066,4.513,1.465,1.465,0,0,0-.17.035c-3.772,1.226-7.006,3.825-9.913,6.442a94.575,94.575,0,0,0-8.868,9.323c-1.8,2.127-3.551,4.3-5.205,6.543a18.329,18.329,0,0,0-1.945,3.89c-3.688,8.827-4.547,19.181.1,27.833a29.011,29.011,0,0,0,22.84,14.917,22.884,22.884,0,0,0,9.062-.769l17.253-5.217,17.124-5.179c4.292-1.3,10.815-2.057,11.223-7.592a7.266,7.266,0,0,0-.219-2.27,5.658,5.658,0,0,0-.166-.543c-.031-.089-.111-.356-.157-.512a5.935,5.935,0,0,0-1.913-2.9c.87-.284,1.74-.567,2.6-.869a6.9,6.9,0,0,0,4.284-9.049c-.048-.128-.106-.244-.158-.369,0-.07-.106-.52-.118-.551a6.1,6.1,0,0,0-.837-1.563,5.684,5.684,0,0,0-.441-.51l.636-.2.047-.015a32.15,32.15,0,0,0,5.764-1.456c4.714-1.674,8.149-6.659,10.387-10.888,3.439-6.5,5.34-13.7,6.629-20.9a96.5,96.5,0,0,0,1.532-12.872A1.916,1.916,0,0,0,455.218,43.6ZM381.167,62.388c.028-.388.051-.774.1-1.16a20,20,0,0,1,.451-2.312A19.2,19.2,0,0,1,384,54.139a26.563,26.563,0,0,1,4.638-5.113c5.924-5.1,13.229-8.417,20.527-11.109A74.508,74.508,0,0,1,412.731,49.4a24.651,24.651,0,0,0-3.391,2.7,23.029,23.029,0,0,0-6.877,15.27l-10.351,5.817-4.639,2.606c-.367-.182-.732-.368-1.091-.564-.085-.093-.171-.186-.254-.281a22.516,22.516,0,0,1-1.391-1.78q-.444-.627-.847-1.281c-.11-.177-.214-.357-.319-.537-.009-.023-.276-.5-.349-.647a20.86,20.86,0,0,1-1.448-3.583c-.048-.163-.092-.326-.138-.489l-.013-.044-.02-.094c-.076-.364-.156-.727-.217-1.094a16.907,16.907,0,0,1-.22-2.233c-.006-.187-.006-.374-.008-.562,0-.038,0-.06,0-.075C381.159,62.488,381.162,62.448,381.167,62.388Zm25.379,2.187v0C406.564,64.477,406.61,64.274,406.546,64.575ZM382.063,75.821a20.375,20.375,0,0,0,1.712,2.043l-3.594,2.019A10.674,10.674,0,0,1,382.063,75.821Zm54.258,9.09c-.292,2.027-2.116,2.4-3.78,2.918l-.782.245-10.408,3.261-5.137,1.61c-6.8,2.132-13.651,4.16-20.421,6.4-.129.043-.26.082-.391.123-2.3.719-1.315,4.34,1,3.616l.236-.074L415.1,97.224l11.738-3.678a3.574,3.574,0,0,1,2.211.746,2.294,2.294,0,0,1,.661.913c.118.292.494,1.671.178.684a7.97,7.97,0,0,1,.339,1.269c-.015.007.016.661,0,.812a3.546,3.546,0,0,1-.148.688,2.666,2.666,0,0,1-.606.9,5.794,5.794,0,0,1-1.171.79c-1.841.732-3.82,1.2-5.713,1.79l-7.263,2.276-15.977,5.007.042.1c-2,.858-1.013,4.191,1.224,3.523l14.625-4.366c1.8-.537,3.622-1.023,5.4-1.613.045-.015.1-.01.139-.022l-.114.031a1.819,1.819,0,0,1,.249-.029,12.589,12.589,0,0,1,1.623.023,2.785,2.785,0,0,1,2.607,2.27c.049.222.142.619.171.756.009.047.016.07.022.1s0,.051,0,.1c.007.129.013.256.013.385a1.817,1.817,0,0,1-.184.963c-.526,1.208-1.744,1.433-2.923,1.79l-4.384,1.325-14.332,4.335L385.4,124.561c-1.5.454-3,.96-4.52,1.367-.158.042-.322.071-.478.114l-.006,0,.123-.015-.125.015c-.132.034-.453.056-.124.015-.067.008-.134.017-.2.023-.458.043-.915.082-1.374.1a25.556,25.556,0,0,1-19.177-6.979,24.087,24.087,0,0,1-7.169-13.775,30.977,30.977,0,0,1,1.269-13.273,27.7,27.7,0,0,1,2.66-6.523,7.95,7.95,0,0,1,.483-.693c.752-1,.941-1.245,1.7-2.209,4.627-5.842,9.72-11.975,15.953-16.164a21.366,21.366,0,0,1,2.418-1.416L379.7,72.78A13.91,13.91,0,0,0,376.223,83.2a1.9,1.9,0,0,0,2.822,1.619l8.62-4.844L392,77.543l10.482-5.89,3.634-2.042,3.771-2.12,4.105-2.306,1.37-.77c.147-.083.306-.158.447-.251l.025-.018a11.416,11.416,0,0,1,1.7-.462c.094-.015.188-.029.282-.039a2.443,2.443,0,0,1,2.079.619c.012.012.019.026.031.038a3.943,3.943,0,0,1,1.139,3.125,4.178,4.178,0,0,1-1.379,2.642c-.179.179-.364.352-.557.515-.149.128-.3.248-.457.371l-.115.089q-.216.165-.432.327c-.337.252-.686.486-1.025.734q-1.221.9-2.461,1.766-2.664,1.866-5.359,3.685c-.338.228-.678.452-1.016.68-1.044.7-2.093,1.4-3.139,2.1l-.3.2q-6.468,4.329-12.989,8.579c-1.711,1.113-.669,4.1,1.445,3.427L409.8,87.307l1.8-.57,4.656-1.475,14.224-4.507c.236-.074.483-.135.713-.226l.067-.028c1.483-.08,3.139-.228,4.138.942a3.513,3.513,0,0,1,.609,1.373c-.006-.005-.009.006-.006.046a2.207,2.207,0,0,0,.113.329A3.861,3.861,0,0,1,436.321,84.911Zm15.861-29.728a78.115,78.115,0,0,1-5.142,19.234,32.825,32.825,0,0,1-5.1,8.52,22.375,22.375,0,0,1-1.887,1.973,7.515,7.515,0,0,0-.32-2.716c-.069-.219-.178-.427-.244-.645-.149-.487,0-.169.022-.083-.04-.14-.086-.277-.129-.416a5.918,5.918,0,0,0-.529-1.181,6.185,6.185,0,0,0-3.148-2.592,9.556,9.556,0,0,0-5.343-.407c-1.7.387-3.383,1.064-5.045,1.59l-12,3.8-.915.29-4.157,1.317-3.165,1L407.58,83.2c.663-.442,1.327-.881,1.988-1.326.4-.271.8-.546,1.205-.818q3.4-2.295,6.756-4.671c.645-.459,1.3-.9,1.939-1.373a26.854,26.854,0,0,0,2.774-2.239q.316-.3.607-.633c1.312-1.362,2.647-2.7,4.031-3.99q.906-.845,1.836-1.672l7.552.216,1.151.033a1.278,1.278,0,0,0,1.336-1.159,1.263,1.263,0,0,0-1.159-1.335l-6.037-.173a50.993,50.993,0,0,1,12.593-7.836c1.485-.616.356-2.847-1.126-2.233a52.776,52.776,0,0,0-12.995,8.086q.43-2.676.86-5.352a1.261,1.261,0,0,0-1.159-1.336,1.277,1.277,0,0,0-1.335,1.159q-.644,4.007-1.288,8.012-.959.854-1.892,1.722c-.152.142-.3.291-.449.434a7.936,7.936,0,0,0-.67-2.723,6.589,6.589,0,0,0-3.973-3.822A6.717,6.717,0,0,0,417.9,59.9a9.888,9.888,0,0,0-3.3.725c-.131.052-.257.118-.386.176-1.089.49-2.115,1.148-3.151,1.73l-4.615,2.594q.045-.267.094-.532c.019-.089.037-.179.059-.267.109-.448.218-.895.348-1.337a20.717,20.717,0,0,1,.943-2.564c.069-.154.141-.307.214-.46.03-.054.2-.383.228-.444q.363-.674.778-1.318.387-.6.819-1.177c.148-.2.3-.389.453-.58.094-.116.189-.23.285-.344l.021-.025.062-.068a21.845,21.845,0,0,1,2.75-2.535,24.079,24.079,0,0,1,3.407-2.213,33.016,33.016,0,0,1,7.139-2.752c9.4-2.514,19.416-2.28,29.055-1.348C452.916,49.844,452.582,52.527,452.182,55.183Z"/>
  </g>
</svg>
