<svg xmlns="http://www.w3.org/2000/svg" width="76.502" height="99.853" viewBox="0 0 76.502 99.853">
  <defs>
    <style>
      .cls-1 {
        fill: #33a69f;
      }
    </style>
  </defs>
  <g id="Icon_HA_and_Electrolyte" data-name="Icon_HA and Electrolyte" transform="translate(-368.601 -576.047)">
    <path id="Path_946" data-name="Path 946" class="cls-1" d="M442.495,597.85c-.537-.587-1.064-1.17-1.587-1.747-1.73-1.912-3.365-3.718-5.122-5.428-6.3-6.131-12.643-10.3-19.406-12.738a31.49,31.49,0,0,0-24.1,1.1,54.792,54.792,0,0,0-16.549,11.5c-1.746,1.742-3.394,3.533-5.139,5.429q-.781.851-1.576,1.71a1.616,1.616,0,0,0-.056,2.1l.525.631c.825.993,1.6,1.932,2.407,2.834,7.151,8.037,14.717,13.434,23.128,16.5a30.705,30.705,0,0,0,10.588,1.9,33.7,33.7,0,0,0,13.437-2.926,54.1,54.1,0,0,0,16.866-11.668c1.7-1.713,3.32-3.482,5.03-5.356q.765-.839,1.55-1.694A1.619,1.619,0,0,0,442.495,597.85Zm-5.3,2.371c-.945,1.027-1.923,2.09-2.926,3.078a58.146,58.146,0,0,1-14.287,10.669c-5.614,2.865-10.879,4.082-16.092,3.714a30.846,30.846,0,0,1-11.568-3.266c-6.921-3.4-13.237-8.486-19.305-15.556l.356-.422c.337-.4.665-.793,1.006-1.171a59.894,59.894,0,0,1,17.063-13.562,29.794,29.794,0,0,1,16-3.7,31.786,31.786,0,0,1,12.446,3.684c6.421,3.31,12.423,8.214,18.348,14.991a1.26,1.26,0,0,1,.12.18l.039.064C438,599.353,437.6,599.788,437.2,600.221Z"/>
    <g id="Group_637" data-name="Group 637">
      <path id="Path_947" data-name="Path 947" class="cls-1" d="M411.9,584.482a1.678,1.678,0,0,1,.515,2.775c-.118.111-.236.224-.352.338a4.039,4.039,0,0,0-1.038,4.466,4.122,4.122,0,0,0,3.794,2.874,3.669,3.669,0,0,0,2.831-.9l.326-.287a1.676,1.676,0,0,1,2.729.8,15.648,15.648,0,0,1-26.395,15.036,15.643,15.643,0,0,1,17.59-25.106Zm5.8,13.342a7.534,7.534,0,0,1-8.472-2.176c-2.3-2.588-2.419-5.6-1.016-8.7a12.169,12.169,0,0,0-10.731,20.9,12.246,12.246,0,0,0,14.352,1.549C416.337,606.727,418.357,601.49,417.693,597.824Z"/>
      <path id="Path_948" data-name="Path 948" class="cls-1" d="M405.65,614.651a15.792,15.792,0,1,1,6.294-30.285,1.8,1.8,0,0,1,.554,2.982c-.119.111-.235.223-.35.336a3.934,3.934,0,0,0-1.007,4.336,4.008,4.008,0,0,0,3.687,2.79,3.57,3.57,0,0,0,2.737-.867l.325-.287a1.8,1.8,0,0,1,1.728-.375,1.76,1.76,0,0,1,1.2,1.239,15.408,15.408,0,0,1-5.482,16.718A15.616,15.616,0,0,1,405.65,614.651Zm-.141-31.339A15.517,15.517,0,0,0,394.4,609.5a15.522,15.522,0,0,0,26.183-14.917,1.512,1.512,0,0,0-1.034-1.064,1.554,1.554,0,0,0-1.49.324l-.327.287a3.786,3.786,0,0,1-2.924.928,4.246,4.246,0,0,1-3.9-2.957,4.176,4.176,0,0,1,1.068-4.6c.117-.114.235-.228.355-.34a1.55,1.55,0,0,0,.46-1.423,1.529,1.529,0,0,0-.937-1.143h0A16.929,16.929,0,0,0,405.509,583.312Zm.234,27.834a12.3,12.3,0,1,1,2.487-24.324l.154.031-.064.143c-1.481,3.273-1.146,6.156.995,8.569a7.384,7.384,0,0,0,8.34,2.14l.135-.043.026.139c.65,3.591-1.206,8.911-5.927,11.7A12.084,12.084,0,0,1,405.743,611.146Zm-.1-24.334a12.035,12.035,0,0,0-8.089,20.939,12.155,12.155,0,0,0,14.2,1.534c3.463-2.046,6.564-6.812,5.832-11.3a7.587,7.587,0,0,1-8.467-2.254c-2.18-2.458-2.55-5.382-1.1-8.694A12.819,12.819,0,0,0,405.648,586.812Z"/>
    </g>
    <path id="Path_949" data-name="Path 949" class="cls-1" d="M440.284,623.4a90.946,90.946,0,0,0-5.441-7.835,1.273,1.273,0,0,0-2.1.014c-3.568,4.632-7.087,9.687-9.275,15.162a11.121,11.121,0,0,0,1.1,10.787,11.383,11.383,0,0,0,11.749,4.565,11.564,11.564,0,0,0,8.782-11.171C445.027,630.838,442.372,626.755,440.284,623.4Zm-4.636,19a7.582,7.582,0,0,1-8.529-3.873c-1.6-3.007-.735-5.491.744-8.48a50.287,50.287,0,0,1,2.677-4.754c1.045-1.638,2.125-3.265,3.251-4.859,1.02,1.437,2.013,2.894,2.954,4.38a52.978,52.978,0,0,1,3.547,6.4,15.826,15.826,0,0,1,.639,1.662,6.8,6.8,0,0,1,.422,2.045A7.765,7.765,0,0,1,435.648,642.4Z"/>
    <path id="Path_950" data-name="Path 950" class="cls-1" d="M420.009,644.6c-.236-3.134-2.188-6.218-3.793-8.8a70.673,70.673,0,0,0-4.646-6.631,1,1,0,0,0-1.642.014,52.442,52.442,0,0,0-7.72,12.564,9.1,9.1,0,0,0,.963,8.723A9.362,9.362,0,0,0,413,654.19a9.516,9.516,0,0,0,7.053-9.139A2.093,2.093,0,0,0,420.009,644.6ZM412,650.574a5.564,5.564,0,0,1-6.251-3.081,5.818,5.818,0,0,1-.508-1.747,7.187,7.187,0,0,1-.022-.843c0-.075.01-.151.015-.225l.018-.077a15.5,15.5,0,0,1,1.8-4.336c.872-1.572,1.8-3.112,2.8-4.606.292-.436.592-.868.892-1.3,1.027,1.475,2.02,2.974,2.948,4.5.526.869,1.005,1.768,1.449,2.681a13.737,13.737,0,0,1,.829,1.979c.1.3.173.6.253.908.009.035.042.253.055.317.007.1.016.2.018.3A5.708,5.708,0,0,1,412,650.574Z"/>
    <path id="Path_951" data-name="Path 951" class="cls-1" d="M435.58,666.048c-.236-3.135-2.189-6.219-3.794-8.8a70.363,70.363,0,0,0-4.645-6.631,1,1,0,0,0-1.642.013,52.483,52.483,0,0,0-7.72,12.564,9.1,9.1,0,0,0,.963,8.723,9.361,9.361,0,0,0,9.827,3.718,9.516,9.516,0,0,0,7.053-9.139A2.082,2.082,0,0,0,435.58,666.048Zm-8.008,5.974a5.563,5.563,0,0,1-6.251-3.08,5.827,5.827,0,0,1-.508-1.747,6.982,6.982,0,0,1-.022-.843c0-.075.009-.151.015-.226.005-.02.01-.041.018-.076a15.514,15.514,0,0,1,1.8-4.337q1.308-2.358,2.8-4.605c.292-.436.592-.868.892-1.3,1.027,1.475,2.02,2.973,2.947,4.5.527.869,1.006,1.767,1.45,2.681a13.685,13.685,0,0,1,.829,1.979c.1.3.173.6.253.908.009.034.042.252.055.316.007.1.016.2.018.3A5.708,5.708,0,0,1,427.572,672.022Z"/>
  </g>
</svg>
