<svg xmlns="http://www.w3.org/2000/svg" width="46.644" height="49.523" viewBox="0 0 46.644 49.523">
  <defs>
    <style>
      .cls-1 {
        fill: #33a69f;
      }
    </style>
  </defs>
  <g id="Icon_Micellar_Technology_" data-name="Icon_Micellar Technology " transform="translate(-355.078 -167.032)">
    <path id="Path_952" data-name="Path 952" class="cls-1" d="M394.5,191.181a1.093,1.093,0,0,0-1.054.229l-.2.174a2.177,2.177,0,0,1-1.668.529,2.446,2.446,0,0,1-2.249-1.7,2.4,2.4,0,0,1,.614-2.644c.07-.07.141-.137.214-.205a1.1,1.1,0,0,0-.338-1.818,9.648,9.648,0,1,0,2.071,16.384,9.4,9.4,0,0,0,3.343-10.193A1.073,1.073,0,0,0,394.5,191.181Zm-6.4,1.494a4.625,4.625,0,0,0,5.162,1.374c.447,2.737-1.444,5.643-3.556,6.89a7.41,7.41,0,0,1-8.66-.935,7.338,7.338,0,0,1,4.932-12.767,7.765,7.765,0,0,1,1.451.137A4.629,4.629,0,0,0,388.1,192.675Z" transform="translate(-8.315 -6.993)"/>
    <path id="Path_953" data-name="Path 953" class="cls-1" d="M419.847,222.021a55.352,55.352,0,0,0-3.317-4.776.776.776,0,0,0-1.28.008,39.88,39.88,0,0,0-5.655,9.244,6.783,6.783,0,0,0,.672,6.578,6.941,6.941,0,0,0,7.163,2.783,7.051,7.051,0,0,0,5.355-6.812C422.739,226.554,421.12,224.065,419.847,222.021ZM417.02,233.6a4.622,4.622,0,0,1-5.2-2.361c-.974-1.833-.448-3.347.454-5.17a30.654,30.654,0,0,1,1.633-2.9c.637-1,1.3-1.991,1.982-2.963.621.877,1.227,1.764,1.8,2.671a32.306,32.306,0,0,1,2.163,3.9,9.824,9.824,0,0,1,.39,1.013,4.188,4.188,0,0,1,.257,1.247A4.734,4.734,0,0,1,417.02,233.6Z" transform="translate(-21.064 -19.467)"/>
    <path id="Path_954" data-name="Path 954" class="cls-1" d="M399.184,189.316c.312-.341.626-.685.946-1.033a.988.988,0,0,0,0-1.31q-.491-.536-.968-1.065c-1.055-1.166-2.052-2.267-3.123-3.31-.386-.376-.773-.73-1.16-1.082l3.2-3.205a1.372,1.372,0,0,0-1.94-1.94l-3.361,3.362a32.671,32.671,0,0,0-5.072-3.338l2.416-4.184a1.372,1.372,0,1,0-2.375-1.372l-2.536,4.392c-.336-.137-.67-.277-1.008-.4a19.25,19.25,0,0,0-4.386-1.032v-5.4a1.372,1.372,0,0,0-2.744,0V173.7a19.645,19.645,0,0,0-5.131.9l-2.444-4.234a1.372,1.372,0,0,0-2.375,1.372l2.222,3.849a31.656,31.656,0,0,0-5.425,3.125l-3.442-3.441a1.372,1.372,0,0,0-1.94,1.941l3.192,3.192q-1.184,1-2.312,2.12c-1.065,1.062-2.069,2.153-3.133,3.31q-.476.518-.961,1.043a.985.985,0,0,0-.034,1.28l.32.384c.5.606.978,1.179,1.468,1.728a34.807,34.807,0,0,0,14.1,10.061,18.74,18.74,0,0,0,6.456,1.16,20.54,20.54,0,0,0,8.193-1.785,32.98,32.98,0,0,0,10.283-7.114C397.156,191.537,398.142,190.459,399.184,189.316ZM386.407,196.8a18.413,18.413,0,0,1-9.811,2.264,18.805,18.805,0,0,1-7.053-1.991,37.11,37.11,0,0,1-11.771-9.485l.218-.257c.205-.245.405-.483.613-.715a36.535,36.535,0,0,1,10.4-8.269,18.167,18.167,0,0,1,9.758-2.256,19.364,19.364,0,0,1,7.588,2.246,38.268,38.268,0,0,1,11.188,9.14.789.789,0,0,1,.073.11l.023.038q-.368.394-.733.792c-.576.626-1.173,1.274-1.785,1.877A35.421,35.421,0,0,1,386.407,196.8Z" transform="translate(0 0)"/>
  </g>
</svg>
