<svg xmlns="http://www.w3.org/2000/svg" width="75.41" height="61.582" viewBox="0 0 75.41 61.582">
  <defs>
    <style>
      .cls-1 {
        fill: #33a69f;
      }
    </style>
  </defs>
  <g id="Icon_1_PH_Balance" data-name="Icon_1_PH Balance" transform="translate(-333.134 -407.393)">
    <g id="Group_642" data-name="Group 642" transform="translate(333.134 407.393)">
      <g id="Group_638" data-name="Group 638" transform="translate(56.915 12.086)">
        <path id="Path_955" data-name="Path 955" class="cls-1" d="M449.635,441.987a.743.743,0,0,0-.38-.085,1,1,0,0,0-.7.289,1.025,1.025,0,0,0-.289.7v1.322a1.018,1.018,0,0,0,.289.7,1.094,1.094,0,0,0,.7.289,1,1,0,0,0,.7-.289,1.028,1.028,0,0,0,.289-.7V442.89a1.018,1.018,0,0,0-.289-.7A.741.741,0,0,0,449.635,441.987Z" transform="translate(-444.565 -435.819)"/>
        <path id="Path_956" data-name="Path 956" class="cls-1" d="M449.635,430.433a.743.743,0,0,0-.38-.085,1,1,0,0,0-.7.289,1.025,1.025,0,0,0-.289.7v1.323a1.018,1.018,0,0,0,.289.7.738.738,0,0,0,.317.2.747.747,0,0,0,.381.085,1,1,0,0,0,.7-.29,1.026,1.026,0,0,0,.289-.7v-1.323a1.018,1.018,0,0,0-.289-.7A.741.741,0,0,0,449.635,430.433Z" transform="translate(-444.565 -430.348)"/>
        <path id="Path_957" data-name="Path 957" class="cls-1" d="M443.544,437.382h-1.323a1.018,1.018,0,0,0-.7.289.738.738,0,0,0-.2.317.751.751,0,0,0-.085.381,1,1,0,0,0,.29.7,1.026,1.026,0,0,0,.7.289h1.323a1.018,1.018,0,0,0,.7-.289,1.1,1.1,0,0,0,.289-.7,1,1,0,0,0-.289-.7A1.026,1.026,0,0,0,443.544,437.382Z" transform="translate(-441.234 -433.678)"/>
        <path id="Path_958" data-name="Path 958" class="cls-1" d="M455.8,437.671a1.026,1.026,0,0,0-.7-.289h-1.323a1.018,1.018,0,0,0-.7.289.743.743,0,0,0-.2.317.752.752,0,0,0-.085.381,1,1,0,0,0,.29.7,1.026,1.026,0,0,0,.7.289H455.1a1.018,1.018,0,0,0,.7-.289,1.1,1.1,0,0,0,.289-.7A1,1,0,0,0,455.8,437.671Z" transform="translate(-446.705 -433.678)"/>
      </g>
      <g id="Group_639" data-name="Group 639" transform="translate(0 23.915)">
        <path id="Path_959" data-name="Path 959" class="cls-1" d="M341.72,465.3a1,1,0,0,0-.7.289,1.026,1.026,0,0,0-.289.7v1.428a1.019,1.019,0,0,0,.289.7.987.987,0,0,0,1.4,0,1.026,1.026,0,0,0,.29-.7v-1.428a1.019,1.019,0,0,0-.29-.7A1,1,0,0,0,341.72,465.3Z" transform="translate(-336.732 -458.724)"/>
        <path id="Path_960" data-name="Path 960" class="cls-1" d="M341.72,452.815a1,1,0,0,0-.7.289,1.026,1.026,0,0,0-.289.7v1.429a1.018,1.018,0,0,0,.289.7.986.986,0,0,0,1.4,0,1.024,1.024,0,0,0,.29-.7V453.8a1.02,1.02,0,0,0-.29-.7A1,1,0,0,0,341.72,452.815Z" transform="translate(-336.732 -452.815)"/>
        <path id="Path_961" data-name="Path 961" class="cls-1" d="M335.55,460.413h-1.428a1.018,1.018,0,0,0-.7.289.988.988,0,0,0,0,1.4,1.026,1.026,0,0,0,.7.289h1.428a1.018,1.018,0,0,0,.7-.289.988.988,0,0,0,0-1.4A1.028,1.028,0,0,0,335.55,460.413Z" transform="translate(-333.134 -456.413)"/>
        <path id="Path_962" data-name="Path 962" class="cls-1" d="M348.73,460.7a1.028,1.028,0,0,0-.7-.289H346.6a1.018,1.018,0,0,0-.7.289.988.988,0,0,0,0,1.4,1.025,1.025,0,0,0,.7.289h1.428a1.018,1.018,0,0,0,.7-.289.988.988,0,0,0,0-1.4Z" transform="translate(-339.044 -456.413)"/>
      </g>
      <g id="Group_640" data-name="Group 640" transform="translate(67.628 43.594)">
        <path id="Path_963" data-name="Path 963" class="cls-1" d="M473.276,500.578l-.891-.908-.126-.129a1.014,1.014,0,0,0-1.4,0,.991.991,0,0,0-.289.7l.035.262a.983.983,0,0,0,.254.436l.89.908.126.129a1.017,1.017,0,0,0,1.4,0,1,1,0,0,0,.289-.7l-.035-.263A.989.989,0,0,0,473.276,500.578Z" transform="translate(-465.839 -494.482)"/>
        <path id="Path_964" data-name="Path 964" class="cls-1" d="M464.388,491.519l-.89-.908-.126-.128a.742.742,0,0,0-.317-.2.891.891,0,0,0-.761,0,.741.741,0,0,0-.318.2.993.993,0,0,0-.289.7l.035.263a.986.986,0,0,0,.254.435l.891.908.126.129a1.014,1.014,0,0,0,1.4,0,.991.991,0,0,0,.289-.7l-.035-.262A.982.982,0,0,0,464.388,491.519Z" transform="translate(-461.631 -490.193)"/>
        <path id="Path_965" data-name="Path 965" class="cls-1" d="M464.3,499.473a.993.993,0,0,0-.7-.289l-.263.035a.986.986,0,0,0-.435.254l-.908.891-.129.127a1.094,1.094,0,0,0-.289.7,1.094,1.094,0,0,0,.289.7.992.992,0,0,0,.7.289l.262-.035a.983.983,0,0,0,.436-.254l.908-.891.128-.126a.74.74,0,0,0,.2-.318.889.889,0,0,0,0-.76A.741.741,0,0,0,464.3,499.473Z" transform="translate(-461.582 -494.45)"/>
        <path id="Path_966" data-name="Path 966" class="cls-1" d="M470.93,493a.993.993,0,0,0,.7.289l.262-.035a.986.986,0,0,0,.435-.254l.908-.89.129-.126a1.014,1.014,0,0,0,0-1.4.993.993,0,0,0-.7-.289l-.262.035a.983.983,0,0,0-.435.254l-.908.89-.129.126a1.015,1.015,0,0,0,0,1.4Z" transform="translate(-465.871 -490.243)"/>
      </g>
      <g id="Group_641" data-name="Group 641" transform="translate(12.666)">
        <path id="Path_967" data-name="Path 967" class="cls-1" d="M368.337,417.141l-.133-.133a1.016,1.016,0,0,0-1.4,0,.993.993,0,0,0-.289.7,1.026,1.026,0,0,0,.289.7l.935.935.133.133a1.016,1.016,0,0,0,1.4,0,.994.994,0,0,0,.29-.7,1.032,1.032,0,0,0-.29-.7Z" transform="translate(-361.608 -411.809)"/>
        <path id="Path_968" data-name="Path 968" class="cls-1" d="M359.011,407.815l-.133-.133a1.014,1.014,0,0,0-1.4,0,.994.994,0,0,0-.29.7,1.032,1.032,0,0,0,.29.7l.935.934.133.133a1.015,1.015,0,0,0,1.4,0,.994.994,0,0,0,.289-.7,1.029,1.029,0,0,0-.289-.7Z" transform="translate(-357.192 -407.393)"/>
        <path id="Path_969" data-name="Path 969" class="cls-1" d="M359.946,417.008a.993.993,0,0,0-.7-.289,1.028,1.028,0,0,0-.7.289l-.935.935-.133.133a1.015,1.015,0,0,0,0,1.4.993.993,0,0,0,.7.289,1.028,1.028,0,0,0,.7-.289l.935-.935.133-.133a1.016,1.016,0,0,0,0-1.4Z" transform="translate(-357.192 -411.808)"/>
        <path id="Path_970" data-name="Path 970" class="cls-1" d="M366.808,410.146a1,1,0,0,0,.7.289,1.028,1.028,0,0,0,.7-.289l.935-.935.133-.133a1.1,1.1,0,0,0,.29-.7.746.746,0,0,0-.085-.381.738.738,0,0,0-.2-.317.991.991,0,0,0-.7-.289,1.028,1.028,0,0,0-.7.289l-.935.935-.133.133a1.017,1.017,0,0,0,0,1.4Z" transform="translate(-361.608 -407.393)"/>
      </g>
      <path id="Path_971" data-name="Path 971" class="cls-1" d="M384.267,431.357a133.435,133.435,0,0,0-10.419-15.818,1.007,1.007,0,0,0-1.7,0,139.467,139.467,0,0,0-9.291,13.839,52.443,52.443,0,0,0-5.059,10.6,13.786,13.786,0,0,0-.73,4.638,16.513,16.513,0,0,0,1.941,7.2,16.1,16.1,0,0,0,13.263,8.407c1.269.07,1.266-1.9,0-1.974a14.038,14.038,0,0,1-11.123-6.671,14.289,14.289,0,0,1-2.082-6.5,11.124,11.124,0,0,1,.565-4.348,47.623,47.623,0,0,1,4.661-9.891c1.871-3.222,3.908-6.348,6.032-9.408q1.313-1.892,2.683-3.747a132.446,132.446,0,0,1,9.561,14.671C383.181,433.464,384.887,432.469,384.267,431.357Z" transform="translate(-344.461 -411.027)"/>
      <path id="Path_972" data-name="Path 972" class="cls-1" d="M423.817,461.416A60.751,60.751,0,0,0,420.2,454.1a141.124,141.124,0,0,0-8.1-12.474c-.617-.858-1.237-1.714-1.878-2.555a1.007,1.007,0,0,0-1.7,0c-1.777,2.333-3.457,4.745-5.089,7.181a88.51,88.51,0,0,0-8.068,14.121,21.544,21.544,0,0,0-1.9,6.468,15.611,15.611,0,0,0,2.184,8.986A15.872,15.872,0,0,0,425.1,470.22a17.941,17.941,0,0,0,.217-2.639A17.121,17.121,0,0,0,423.817,461.416ZM413.5,481.162a14.057,14.057,0,0,1-18.087-13.992,11.755,11.755,0,0,1,.471-2.518,27.2,27.2,0,0,1,1.119-3.145,83.358,83.358,0,0,1,7.553-13.4q1.759-2.662,3.618-5.257c.389-.543.811-1.075,1.216-1.616,1.415,1.912,2.775,3.867,4.1,5.84a91.042,91.042,0,0,1,8.045,13.975,27.806,27.806,0,0,1,1.3,3.544,10.488,10.488,0,0,1,.5,2.984A14.318,14.318,0,0,1,413.5,481.162Z" transform="translate(-361.678 -422.169)"/>
      <path id="Path_973" data-name="Path 973" class="cls-1" d="M415.679,485.707a4.051,4.051,0,0,0-3.523-2.1c-.781-.016-1.564,0-2.344,0a1,1,0,0,0-.987.987v10.952a.988.988,0,0,0,1.974,0v-3.952c.406,0,.812,0,1.218,0a4.1,4.1,0,0,0,3.357-1.631A4.026,4.026,0,0,0,415.679,485.707Zm-3.572,3.912c-.436.008-.872.007-1.309,0v-4.048c.436,0,.873,0,1.309,0a2.02,2.02,0,1,1,0,4.039Z" transform="translate(-368.973 -443.476)"/>
      <path id="Path_974" data-name="Path 974" class="cls-1" d="M430.048,484.758v4.489h-3.384v-4.489a.988.988,0,0,0-1.974,0V495.71a.988.988,0,0,0,1.974,0v-4.489h3.384v4.489a.988.988,0,0,0,1.974,0V484.758A.988.988,0,0,0,430.048,484.758Z" transform="translate(-376.486 -443.574)"/>
    </g>
  </g>
</svg>
