<svg xmlns="http://www.w3.org/2000/svg" width="57.536" height="51.035" viewBox="0 0 57.536 51.035">
  <defs>
    <style>
      .cls-1 {
        fill: #33a69f;
      }
    </style>
  </defs>
  <g id="Icon_3_Premium_Naturally_Inspired_Ingredients_" data-name="Icon_3_Premium, Naturally Inspired Ingredients " transform="translate(-348.399 -33.674)">
    <path id="Path_944" data-name="Path 944" class="cls-1" d="M390.764,58.971a.669.669,0,0,0,1.269-.146,37.67,37.67,0,0,1,1.48-4.472q.188-.481.389-.96l2.929-1.3.461-.205a.663.663,0,0,0-.5-1.229l-2.08.926a21.514,21.514,0,0,1,3.277-5.074c.57-.637-.47-1.458-1.038-.824A22.559,22.559,0,0,0,393.525,51l-.579-1.954a.668.668,0,0,0-.863-.366.677.677,0,0,0-.366.862l.978,3.3c-.135.324-.267.648-.394.973-.379.966-.73,1.95-1.043,2.945q-.587-1.364-1.173-2.729c-.336-.781-1.567-.29-1.229.5Z" transform="translate(-18.987 -5.537)"/>
    <path id="Path_945" data-name="Path 945" class="cls-1" d="M405.013,38.937a49.831,49.831,0,0,0-15.765.372A21.97,21.97,0,0,0,384.267,41q-.24-.967-.516-1.92a41.236,41.236,0,0,0-1.665-4.792,1.015,1.015,0,0,0-1.294-.55,40.68,40.68,0,0,0-11.518,5.876,14.547,14.547,0,0,0-4.843,6.069,9.6,9.6,0,0,0-.565,2.392.776.776,0,0,0-.09.019,15.24,15.24,0,0,0-5.254,3.414,50.124,50.124,0,0,0-4.7,4.941c-.952,1.127-1.882,2.28-2.759,3.468a9.714,9.714,0,0,0-1.031,2.062c-1.955,4.678-2.41,10.166.055,14.751a15.376,15.376,0,0,0,12.105,7.906,12.128,12.128,0,0,0,4.8-.408l9.144-2.765,9.076-2.745c2.275-.688,5.732-1.09,5.948-4.024a3.85,3.85,0,0,0-.116-1.2,3,3,0,0,0-.088-.288c-.016-.047-.059-.189-.083-.271a3.146,3.146,0,0,0-1.014-1.534c.461-.151.922-.3,1.379-.461a3.655,3.655,0,0,0,2.271-4.8c-.025-.068-.056-.129-.084-.2,0-.037-.056-.276-.063-.292a3.232,3.232,0,0,0-.444-.828,3.014,3.014,0,0,0-.234-.27l.337-.105.025-.008a17.041,17.041,0,0,0,3.055-.772c2.5-.887,4.319-3.529,5.505-5.771a37.769,37.769,0,0,0,3.513-11.078A51.142,51.142,0,0,0,405.935,40,1.015,1.015,0,0,0,405.013,38.937Zm-39.247,9.956c.015-.206.027-.41.051-.615a10.6,10.6,0,0,1,.239-1.225,10.176,10.176,0,0,1,1.212-2.532,14.077,14.077,0,0,1,2.458-2.71,35.02,35.02,0,0,1,10.879-5.888,39.492,39.492,0,0,1,1.889,6.084,13.066,13.066,0,0,0-1.8,1.429,12.205,12.205,0,0,0-3.645,8.093l-5.486,3.083-2.459,1.381c-.195-.1-.388-.2-.578-.3-.045-.049-.091-.1-.135-.149a11.94,11.94,0,0,1-.737-.943q-.235-.332-.449-.679c-.058-.094-.113-.189-.169-.285,0-.012-.146-.267-.185-.343a11.054,11.054,0,0,1-.767-1.9c-.025-.086-.049-.173-.073-.259l-.007-.023-.011-.05c-.04-.193-.083-.385-.115-.58a8.959,8.959,0,0,1-.117-1.183c0-.1,0-.2,0-.3,0-.02,0-.032,0-.04S365.764,48.924,365.766,48.892Zm13.451,1.159v0C379.227,50,379.251,49.892,379.217,50.052Zm-12.976,5.96a10.8,10.8,0,0,0,.907,1.083l-1.9,1.07A5.657,5.657,0,0,1,366.241,56.012ZM395,60.83c-.155,1.074-1.122,1.27-2,1.547l-.414.13-5.516,1.728-2.723.853c-3.606,1.13-7.235,2.2-10.823,3.391-.068.023-.138.043-.207.065-1.216.381-.7,2.3.528,1.916l.125-.039,9.784-3.066,6.221-1.949a1.894,1.894,0,0,1,1.172.4,1.216,1.216,0,0,1,.35.484c.063.155.262.886.094.363a4.227,4.227,0,0,1,.18.673c-.008,0,.008.35,0,.43a1.882,1.882,0,0,1-.078.365,1.413,1.413,0,0,1-.321.475,3.071,3.071,0,0,1-.621.419c-.976.388-2.025.634-3.028.949l-3.849,1.206L375.4,73.818l.022.053a.993.993,0,0,0,.649,1.867l7.751-2.314c.953-.285,1.92-.542,2.864-.855.024-.008.05-.005.074-.012l-.06.016a.964.964,0,0,1,.132-.015,6.674,6.674,0,0,1,.86.012,1.476,1.476,0,0,1,1.382,1.2c.026.118.075.328.091.4,0,.025.008.037.012.05s0,.027,0,.051c0,.068.007.136.007.2a.963.963,0,0,1-.1.51c-.279.64-.924.759-1.549.949l-2.324.7-7.6,2.3-9.608,2.905c-.8.241-1.591.509-2.4.725-.084.022-.171.038-.253.06h0l.065-.008-.066.008c-.07.018-.24.03-.066.008l-.107.012c-.243.023-.485.043-.728.056a13.545,13.545,0,0,1-10.164-3.7,12.766,12.766,0,0,1-3.8-7.3,16.418,16.418,0,0,1,.673-7.035,14.678,14.678,0,0,1,1.41-3.457,4.214,4.214,0,0,1,.256-.367c.4-.533.5-.66.9-1.171,2.452-3.1,5.152-6.347,8.455-8.567a11.323,11.323,0,0,1,1.282-.75l1.515,4.041a7.372,7.372,0,0,0-1.843,5.525,1.008,1.008,0,0,0,1.5.858l4.569-2.567,2.3-1.291,5.555-3.122,1.926-1.082,2-1.124,2.176-1.222.726-.408c.078-.044.162-.084.237-.133l.013-.01a6.049,6.049,0,0,1,.9-.245c.05-.008.1-.015.149-.021a1.3,1.3,0,0,1,1.1.328c.006.006.01.014.016.02a2.09,2.09,0,0,1,.6,1.656,2.214,2.214,0,0,1-.731,1.4c-.095.095-.193.187-.3.273-.079.068-.161.131-.242.2l-.061.047-.229.173c-.179.134-.364.258-.543.389q-.647.475-1.3.936-1.412.989-2.84,1.953l-.538.36c-.553.373-1.109.743-1.664,1.114l-.158.105q-3.428,2.294-6.884,4.547c-.907.59-.355,2.171.766,1.816l8.757-2.775.953-.3,2.468-.782,7.539-2.389c.125-.039.256-.072.378-.12l.036-.015c.786-.042,1.664-.121,2.193.5a1.862,1.862,0,0,1,.323.728s0,0,0,.024a1.17,1.17,0,0,0,.06.174A2.046,2.046,0,0,1,395,60.83ZM403.4,45.074a41.4,41.4,0,0,1-2.725,10.194,17.4,17.4,0,0,1-2.7,4.516,11.856,11.856,0,0,1-1,1.046,3.982,3.982,0,0,0-.17-1.439c-.037-.116-.094-.226-.129-.342-.079-.258,0-.09.012-.044-.021-.074-.046-.147-.068-.22a3.137,3.137,0,0,0-.28-.626,3.278,3.278,0,0,0-1.668-1.374,5.064,5.064,0,0,0-2.832-.216c-.9.205-1.793.564-2.674.843L382.8,59.426l-.485.154-2.2.7-1.677.532,1.328-.886c.351-.234.7-.467,1.054-.7.213-.144.426-.289.639-.434q1.8-1.216,3.581-2.476c.342-.243.69-.479,1.028-.728a14.231,14.231,0,0,0,1.47-1.187q.168-.161.322-.335c.7-.722,1.4-1.432,2.136-2.115q.48-.448.973-.886l4,.114.61.017a.677.677,0,0,0,.708-.614.669.669,0,0,0-.614-.708l-3.2-.092a27.027,27.027,0,0,1,6.674-4.153c.787-.326.189-1.509-.6-1.183a27.972,27.972,0,0,0-6.887,4.286q.228-1.418.456-2.837a.669.669,0,0,0-.614-.708.677.677,0,0,0-.708.614q-.341,2.123-.683,4.246-.508.452-1,.913c-.081.075-.158.154-.238.23a4.206,4.206,0,0,0-.355-1.443,3.492,3.492,0,0,0-2.106-2.026,3.56,3.56,0,0,0-1.177-.146,5.241,5.241,0,0,0-1.751.384c-.069.028-.136.063-.2.093-.577.26-1.121.608-1.67.917l-2.446,1.375q.024-.142.05-.282c.01-.047.02-.095.031-.142.058-.237.116-.474.184-.709a10.983,10.983,0,0,1,.5-1.359c.037-.082.075-.163.113-.244.016-.029.1-.2.121-.235q.192-.357.412-.7.205-.32.434-.624c.078-.1.158-.206.24-.307.05-.061.1-.122.151-.182l.011-.013.033-.036a11.579,11.579,0,0,1,1.457-1.344,12.762,12.762,0,0,1,1.806-1.173,17.5,17.5,0,0,1,3.784-1.459c4.985-1.332,10.29-1.208,15.4-.714C403.793,42.244,403.616,43.666,403.4,45.074Z" transform="translate(0 0)"/>
  </g>
</svg>
