<svg xmlns="http://www.w3.org/2000/svg" width="72.507" height="67.347" viewBox="0 0 72.507 67.347">
  <defs>
    <style>
      .cls-1 {
        fill: #33a69f;
      }
    </style>
  </defs>
  <path id="Icon_1_Aloe_and_Licorice" data-name="Icon_1_Aloe and Licorice" class="cls-1" d="M416.439,291.56c-1-.573-1.98.431-2.8.891-2.945,1.645-5.909,3.191-8.7,5.1a58.627,58.627,0,0,0-6.113,4.814c.006-.026.011-.054.016-.081.59-2.959,1-5.956,1.384-8.947.8-6.193,1.413-12.41,1.962-18.63.124-1.406.246-2.811.357-4.218a1.19,1.19,0,0,0-2.2-.6c-1.123,2.42-2.224,4.85-3.324,7.281l-.822-2.461-.1,4.488c-.749,1.667-1.483,3.342-2.223,5.014l-.746-2.234-.093,4.129c-.334.758-.675,1.512-1.007,2.27q-.46,1.051-.915,2.1c.078-1.084.142-2.168.185-3.251a54.268,54.268,0,0,0-.365-9.5,24.73,24.73,0,0,0-.909-4.209c-.287-.894-.644-2.6-1.7-2.894-1.848-.514-1.989,2.558-2.183,3.657-.512,2.893-1.079,5.775-1.873,8.606a41.551,41.551,0,0,1-4.33,10.418,40.491,40.491,0,0,0-4.314,9.663c-.024.081-.045.163-.069.244-.523-1.263-1.157-2.485-1.75-3.629-1.645-3.172-3.525-6.214-5.309-9.309a107.882,107.882,0,0,0-8.622-13.293,7.862,7.862,0,0,0-1.617-1.709,1.342,1.342,0,0,0-2.139.663,3.993,3.993,0,0,0,.509,2.346c.03.072.265.659.135.32.013.033.027.066.039.1.033.09.065.181.1.272.091.274.17.552.248.829,1.175,4.2,2.016,8.516,2.92,12.783.431,2.033.842,4.07,1.261,6.105q-1.71-2.3-3.427-4.588l.046-.067-.4-2.795-.384,1.872q-2.518-3.364-5.058-6.712l.063-.092-.4-2.795-.393,1.916c-.076-.1-.15-.2-.225-.3-1.491-1.96-2.937-3.992-4.567-5.842-.845-.959-2.175.088-1.975,1.15a67.708,67.708,0,0,0,2.837,9.837c2.035,5.782,4.838,11.216,6.994,16.929,2.053,5.439,3.977,10.934,6.391,16.229a50.641,50.641,0,0,0,3.858,7.162c1.39,2.08,3.114,4.311,5.457,5.358a8.827,8.827,0,0,0,7.291-.18,23.824,23.824,0,0,0,11.5-2.208,20.274,20.274,0,0,0,8.451-8.5,45.752,45.752,0,0,0,2.362-5.092c.3-.751.6-1.507.894-2.262q.218-.558.442-1.114.1-.244.2-.486l.062-.15c.029-.067.088-.2.1-.224,1.716-3.933,4.454-7.43,7.013-10.84s5.319-6.683,7.708-10.207C416.726,293.848,417.761,292.313,416.439,291.56ZM390.11,298.8l.006-.035c2.947-7.091,6.09-14.1,9.258-21.1.075-.165.152-.33.227-.5q-.209,2.251-.43,4.5c-.622,6.26-1.256,12.536-2.371,18.725-.219,1.216-.456,2.434-.78,3.627-.118.434-.258.857-.407,1.281l0,.013c-.033.067-.06.137-.1.2-.1.183-.267.384-.047.12a1.21,1.21,0,0,0-.072.107c-1.082,1.169-2.117,2.383-3.087,3.654a50.978,50.978,0,0,0-5.27,8.777c-.469.966-.983,1.909-1.535,2.828-.038-.129-.082-.256-.116-.386q-.111-.42-.192-.848a9.021,9.021,0,0,1-.143-.931c-.526-4.864.922-9.764,2.691-14.236q1.054-2.663,2.155-5.309A1.094,1.094,0,0,0,390.11,298.8Zm5.494,6.534c-.051.145-.022.056,0,0ZM359.962,281.3l-.1-.391c.6.852,1.18,1.723,1.75,2.581,1.384,2.084,2.717,4.2,3.929,6.393,1.785,3.225,3.752,6.346,5.512,9.585a45.03,45.03,0,0,1,2.246,4.589,11,11,0,0,1,.98,3.771,1.273,1.273,0,0,0,.05.325,62.29,62.29,0,0,0-1,6.734l-4.572-6.176.024-.035-.4-2.795-.372,1.816q-.786-1.06-1.57-2.121-.936-1.26-1.875-2.519a1.261,1.261,0,0,0-.014-.386C363.115,295.537,361.687,288.381,359.962,281.3Zm17.806,51.3c-.042.047-.078.1-.121.142a4.456,4.456,0,0,1-.806.667,6.324,6.324,0,0,1-5.807.356,5.25,5.25,0,0,1-.84-.468,15.882,15.882,0,0,1-4.107-4.861,58.014,58.014,0,0,1-3.573-6.946c-2.181-4.9-3.947-9.973-5.842-14.988-2.013-5.326-4.616-10.391-6.568-15.742-.668-1.831-1.318-3.694-1.889-5.579l.3.388q3.43,4.495,6.809,9.029,8.033,10.728,15.994,21.509.942,1.272,1.882,2.545a.972.972,0,0,0,.282.381q2.131,2.883,4.262,5.766a7.307,7.307,0,0,1,1.351,3.841A5.481,5.481,0,0,1,377.768,332.6ZM375.5,317.817a60.747,60.747,0,0,1,1.6-11.171,40.9,40.9,0,0,1,3.2-9.253c.8-1.576,1.814-3.023,2.638-4.585a42.807,42.807,0,0,0,2.182-4.908,61.651,61.651,0,0,0,2.633-9.435c.174-.855.311-1.726.454-2.6.09.4.173.8.245,1.2a44.446,44.446,0,0,1,.528,8.608c-.056,2.959-.285,5.916-.633,8.855-.149,1.255-.277,2.278-.512,3.633v0q-.863,2.071-1.7,4.151l-.871-2.606-.112,4.913.479-1.064a49,49,0,0,0-2.441,7.737l-1.1-2.113.655,4.818a22.7,22.7,0,0,0-.112,4.207,12.93,12.93,0,0,0,1.286,5.2,30.355,30.355,0,0,1-2.5,3.026c-.075.08-.156.153-.233.232a9.026,9.026,0,0,0-1.4-3.065Q377.642,320.709,375.5,317.817Zm32.985-16.847a100.723,100.723,0,0,0-8,11.389,34.306,34.306,0,0,0-1.965,4.32c-.6,1.523-1.193,3.07-1.8,4.416a22.156,22.156,0,0,1-6.29,8.76,18.43,18.43,0,0,1-10.315,3.542,8.131,8.131,0,0,0,1.3-3.672,31.382,31.382,0,0,0,3.612-3.863c.414-.529.81-1.071,1.194-1.62a1.1,1.1,0,0,0,.149-.211c.525-.761,1.024-1.542,1.487-2.345.9-1.558,1.61-3.207,2.452-4.794,4.905-9.247,12.949-16.137,22.047-21.072l.127-.067C411.176,297.515,409.81,299.234,408.48,300.971Z" transform="translate(-344.575 -269.319)"/>
</svg>
