<svg xmlns="http://www.w3.org/2000/svg" width="54.301" height="70.875" viewBox="0 0 54.301 70.875">
  <defs>
    <style>
      .cls-1 {
        fill: #33a69f;
      }
    </style>
  </defs>
  <g id="Icon_HA_and_Electrolyte" data-name="Icon_HA and Electrolyte" transform="translate(-368.601 -576.047)">
    <path id="Path_946" data-name="Path 946" class="cls-1" d="M421.051,591.523c-.381-.417-.755-.83-1.126-1.24-1.228-1.357-2.388-2.639-3.636-3.853a38.5,38.5,0,0,0-13.774-9.041,22.351,22.351,0,0,0-17.105.779,38.892,38.892,0,0,0-11.746,8.164c-1.239,1.237-2.409,2.508-3.648,3.854q-.555.6-1.119,1.214a1.147,1.147,0,0,0-.04,1.49l.373.448c.586.7,1.139,1.371,1.708,2.012,5.076,5.7,10.446,9.535,16.416,11.712a21.8,21.8,0,0,0,7.515,1.35,23.923,23.923,0,0,0,9.538-2.077,38.4,38.4,0,0,0,11.971-8.282c1.209-1.216,2.357-2.471,3.57-3.8q.543-.6,1.1-1.2A1.149,1.149,0,0,0,421.051,591.523Zm-3.76,1.683c-.671.729-1.365,1.483-2.077,2.185a41.27,41.27,0,0,1-10.141,7.573,21.443,21.443,0,0,1-11.422,2.636,21.9,21.9,0,0,1-8.211-2.318,43.185,43.185,0,0,1-13.7-11.042l.253-.3c.239-.285.472-.563.714-.831a42.513,42.513,0,0,1,12.111-9.626,21.147,21.147,0,0,1,11.359-2.627,22.561,22.561,0,0,1,8.834,2.615,44.548,44.548,0,0,1,13.023,10.641.9.9,0,0,1,.085.128l.028.045C417.859,592.59,417.575,592.9,417.291,593.206Z"/>
    <g id="Group_637" data-name="Group 637" transform="translate(383.723 581.026)">
      <path id="Path_947" data-name="Path 947" class="cls-1" d="M405.545,584.108a1.191,1.191,0,0,1,.366,1.97c-.084.079-.168.159-.25.24a2.867,2.867,0,0,0-.737,3.17,2.926,2.926,0,0,0,2.693,2.04,2.6,2.6,0,0,0,2.009-.637l.231-.2a1.19,1.19,0,0,1,1.937.569,11.107,11.107,0,0,1-18.735,10.672,11.1,11.1,0,0,1,12.485-17.82Zm4.114,9.47a5.49,5.49,0,0,1-6.735-7.722,8.637,8.637,0,0,0-7.617,14.833,8.692,8.692,0,0,0,10.187,1.1A8.482,8.482,0,0,0,409.659,593.578Z" transform="translate(-389.935 -583.099)"/>
      <path id="Path_948" data-name="Path 948" class="cls-1" d="M401.081,605.484a11.209,11.209,0,1,1,4.467-21.5,1.28,1.28,0,0,1,.393,2.117c-.084.079-.167.158-.248.239a2.792,2.792,0,0,0-.715,3.078,2.845,2.845,0,0,0,2.617,1.98,2.534,2.534,0,0,0,1.943-.615l.231-.2a1.275,1.275,0,0,1,1.227-.266,1.249,1.249,0,0,1,.855.88,10.936,10.936,0,0,1-3.891,11.866A11.084,11.084,0,0,1,401.081,605.484Zm-.1-22.244a11.014,11.014,0,0,0-7.887,18.589,11.017,11.017,0,0,0,18.585-10.588,1.073,1.073,0,0,0-.734-.755,1.1,1.1,0,0,0-1.058.23l-.232.2a2.688,2.688,0,0,1-2.075.659,3.014,3.014,0,0,1-2.769-2.1,2.964,2.964,0,0,1,.758-3.263c.083-.081.167-.162.252-.241a1.1,1.1,0,0,0,.327-1.01,1.086,1.086,0,0,0-.665-.811h0A12.016,12.016,0,0,0,400.981,583.239ZM401.147,603a8.728,8.728,0,1,1,1.765-17.265l.109.022-.045.1a5.4,5.4,0,0,0,6.626,7.6l.1-.031.018.1A8.577,8.577,0,0,1,401.147,603Zm-.067-17.272a8.543,8.543,0,0,0-5.742,14.862,8.628,8.628,0,0,0,10.081,1.089c2.458-1.452,4.659-4.835,4.14-8.021a5.569,5.569,0,0,1-6.79-7.771A9.1,9.1,0,0,0,401.079,585.724Z" transform="translate(-389.905 -583.061)"/>
    </g>
    <path id="Path_949" data-name="Path 949" class="cls-1" d="M435.143,620.972a64.545,64.545,0,0,0-3.862-5.561.9.9,0,0,0-1.491.01,46.438,46.438,0,0,0-6.583,10.762,7.893,7.893,0,0,0,.784,7.657,8.08,8.08,0,0,0,8.339,3.24,8.208,8.208,0,0,0,6.233-7.929C438.51,626.248,436.625,623.35,435.143,620.972Zm-3.291,13.485a5.381,5.381,0,0,1-6.054-2.749c-1.134-2.134-.522-3.9.528-6.019a35.7,35.7,0,0,1,1.9-3.374c.742-1.163,1.508-2.318,2.308-3.449.724,1.02,1.429,2.054,2.1,3.109a37.607,37.607,0,0,1,2.518,4.544,11.236,11.236,0,0,1,.454,1.18,4.828,4.828,0,0,1,.3,1.452A5.512,5.512,0,0,1,431.853,634.457Z" transform="translate(-15.662 -11.311)"/>
    <path id="Path_950" data-name="Path 950" class="cls-1" d="M414.644,640c-.168-2.224-1.553-4.414-2.692-6.244a50.158,50.158,0,0,0-3.3-4.707.711.711,0,0,0-1.165.01,37.224,37.224,0,0,0-5.48,8.918,6.456,6.456,0,0,0,.684,6.192,6.645,6.645,0,0,0,6.975,2.639,6.754,6.754,0,0,0,5.006-6.487A1.487,1.487,0,0,0,414.644,640Zm-5.684,4.241a3.949,3.949,0,0,1-4.437-2.187,4.128,4.128,0,0,1-.361-1.24,5.1,5.1,0,0,1-.016-.6c0-.053.007-.107.011-.16l.013-.055a11,11,0,0,1,1.279-3.078c.619-1.116,1.279-2.209,1.989-3.269.207-.309.42-.616.633-.923.729,1.047,1.434,2.111,2.092,3.2.373.617.713,1.255,1.029,1.9a9.754,9.754,0,0,1,.588,1.4c.07.213.123.429.18.645.006.025.03.18.039.225,0,.072.011.143.013.216A4.052,4.052,0,0,1,408.96,644.241Z" transform="translate(-9.553 -15.295)"/>
    <path id="Path_951" data-name="Path 951" class="cls-1" d="M430.215,661.448c-.167-2.225-1.554-4.414-2.693-6.244a49.936,49.936,0,0,0-3.3-4.707.711.711,0,0,0-1.165.009,37.25,37.25,0,0,0-5.48,8.918,6.456,6.456,0,0,0,.684,6.192,6.644,6.644,0,0,0,6.975,2.639,6.754,6.754,0,0,0,5.006-6.487A1.477,1.477,0,0,0,430.215,661.448Zm-5.684,4.24a3.949,3.949,0,0,1-4.437-2.186,4.136,4.136,0,0,1-.361-1.24,4.956,4.956,0,0,1-.016-.6c0-.053.006-.107.011-.16l.013-.054a11.014,11.014,0,0,1,1.279-3.078q.928-1.674,1.989-3.269c.207-.309.42-.616.633-.923.729,1.047,1.434,2.11,2.092,3.2.374.617.714,1.254,1.029,1.9a9.713,9.713,0,0,1,.588,1.4c.07.213.123.428.18.645.006.024.03.179.039.224.005.072.011.144.013.216A4.051,4.051,0,0,1,424.531,665.689Z" transform="translate(-14.072 -21.519)"/>
  </g>
</svg>
