<svg xmlns="http://www.w3.org/2000/svg" width="54.41" height="46.699" viewBox="0 0 54.41 46.699">
  <defs>
    <style>
      .cls-1 {
        fill: #80281f;
      }
    </style>
  </defs>
  <g id="ICON_Omega-3_and_Omega-6" data-name="ICON Omega-3 and Omega-6" transform="translate(-65.613 -365.962)">
    <path id="Path_919" data-name="Path 919" class="cls-1" d="M117.342,379.551h0a41.638,41.638,0,0,0-8.168-10c-2.563-2.242-6.155-4.605-8.711-3.13a3.529,3.529,0,0,0-1.32,1.407,11.8,11.8,0,0,0-12.654-.026,3.561,3.561,0,0,0-1.316-1.382c-2.548-1.473-6.142.892-8.71,3.138a41.617,41.617,0,0,0-8.168,9.993c-2.026,3.51-2.912,6.551-2.632,9.039a6.924,6.924,0,0,0,3.609,5.349,7.08,7.08,0,0,0,4.054,1.034c0,.04,0,.08,0,.121,0,11.329,6.923,17.568,19.495,17.568s19.494-6.239,19.494-17.568c0-.04,0-.082,0-.124.125.012.252.021.379.021a7.283,7.283,0,0,0,3.663-1.045,6.929,6.929,0,0,0,3.619-5.354C120.254,386.1,119.37,383.063,117.342,379.551Zm-12.185-4.042a1.182,1.182,0,0,0-.4,1.632,36.238,36.238,0,0,1,5.193,17.952c0,10.088-5.763,15.2-17.13,15.2s-17.13-5.115-17.13-15.2a36.235,36.235,0,0,1,5.19-17.955,1.183,1.183,0,0,0-.388-1.626,1.168,1.168,0,0,0-.617-.176,1.184,1.184,0,0,0-1.016.575,39.505,39.505,0,0,0-5.425,16.654,4.771,4.771,0,0,1-2.983-.681,4.5,4.5,0,0,1-2.437-3.563c-.223-1.975.561-4.53,2.328-7.59a39.152,39.152,0,0,1,7.678-9.4c3.213-2.808,5.225-3.3,5.96-2.875a1.27,1.27,0,0,1,.481.579,2.195,2.195,0,0,0,1.359,1.16,2.135,2.135,0,0,0,1.722-.241,9.352,9.352,0,0,1,10.563,0,2.135,2.135,0,0,0,1.716.235,2.2,2.2,0,0,0,1.361-1.167,1.258,1.258,0,0,1,.468-.565c.749-.432,2.759.058,5.967,2.863a39.2,39.2,0,0,1,7.678,9.4c1.767,3.066,2.551,5.621,2.329,7.592v0a4.512,4.512,0,0,1-2.451,3.57,4.754,4.754,0,0,1-2.967.672,39.51,39.51,0,0,0-5.425-16.655A1.185,1.185,0,0,0,105.157,375.508Z"/>
    <path id="Path_920" data-name="Path 920" class="cls-1" d="M110.395,408.96h-2.258a3.109,3.109,0,0,0-2.2,5.308l2.492,2.494a1.175,1.175,0,0,0,.837.346h0a1.171,1.171,0,0,0,.834-.346l2.492-2.492a3.109,3.109,0,0,0-2.2-5.309Zm.528,3.637-1.656,1.656L107.61,412.6a.745.745,0,0,1,.527-1.272H110.4a.746.746,0,0,1,.527,1.272Z" transform="translate(-16.446 -17.942)"/>
    <g id="Group_635" data-name="Group 635" transform="translate(83.927 383.308)">
      <path id="Path_921" data-name="Path 921" class="cls-1" d="M99.187,395.729h0a2.146,2.146,0,1,0,2.146,2.145A2.148,2.148,0,0,0,99.187,395.729Z" transform="translate(-97.041 -395.729)"/>
      <path id="Path_922" data-name="Path 922" class="cls-1" d="M122.342,395.729h0a2.146,2.146,0,1,0,2.146,2.146A2.148,2.148,0,0,0,122.342,395.729Z" transform="translate(-106.703 -395.729)"/>
    </g>
    <path id="Path_923" data-name="Path 923" class="cls-1" d="M115.571,419.229a1.175,1.175,0,0,0-.836-.346h0a1.183,1.183,0,0,0-1.182,1.184,4.6,4.6,0,0,1-9.2.1v-.1a1.183,1.183,0,0,0-1.181-1.184h0a1.183,1.183,0,0,0-1.181,1.185,4.6,4.6,0,0,1-9.2.1v-.105a1.182,1.182,0,0,0-2.364,0,6.958,6.958,0,0,0,6.95,6.966h.008a6.992,6.992,0,0,0,5.79-3.1,6.958,6.958,0,0,0,12.748-3.867A1.173,1.173,0,0,0,115.571,419.229Z" transform="translate(-10.352 -22.082)"/>
    <path id="Path_924" data-name="Path 924" class="cls-1" d="M113.052,428.74a1.181,1.181,0,0,0-1.419.9,3.626,3.626,0,0,1-7.139-.01,1.182,1.182,0,0,0-2.323.432,5.987,5.987,0,0,0,5.9,4.927h0a5.988,5.988,0,0,0,5.889-4.936A1.176,1.176,0,0,0,113.052,428.74Z" transform="translate(-15.25 -26.182)"/>
  </g>
</svg>
