<svg xmlns="http://www.w3.org/2000/svg" width="54.686" height="48.507" viewBox="0 0 54.686 48.507">
  <defs>
    <style>
      .cls-1 {
        fill: #80281f;
      }
    </style>
  </defs>
  <g id="Icon_1_Premium_Naturally_Inspired_Ingredients_" data-name="Icon_1_Premium, Naturally Inspired Ingredients " transform="translate(-54.806 -30.672)">
    <path id="Path_911" data-name="Path 911" class="cls-1" d="M97.074,55.3a.635.635,0,0,0,1.206-.139,35.738,35.738,0,0,1,1.407-4.25q.179-.457.369-.913l2.785-1.239.437-.195a.63.63,0,0,0-.471-1.168l-1.978.88a20.467,20.467,0,0,1,3.115-4.822c.542-.6-.447-1.385-.986-.783A21.459,21.459,0,0,0,99.7,47.724l-.55-1.857a.635.635,0,0,0-.82-.349.644.644,0,0,0-.349.82l.93,3.14q-.193.462-.375.924c-.36.918-.693,1.854-.991,2.8l-1.115-2.594a.63.63,0,0,0-1.168.472Z" transform="translate(-20.048 -5.846)"/>
    <path id="Path_912" data-name="Path 912" class="cls-1" d="M108.615,35.674a47.38,47.38,0,0,0-14.985.354A20.869,20.869,0,0,0,88.9,37.634q-.229-.919-.491-1.825a39.2,39.2,0,0,0-1.583-4.554.964.964,0,0,0-1.23-.522,38.655,38.655,0,0,0-10.947,5.584,13.83,13.83,0,0,0-4.6,5.768,9.123,9.123,0,0,0-.536,2.274.769.769,0,0,0-.086.018,14.483,14.483,0,0,0-4.993,3.245,47.64,47.64,0,0,0-4.467,4.7c-.906,1.071-1.789,2.167-2.622,3.3a9.28,9.28,0,0,0-.98,1.96c-1.858,4.447-2.29,9.662.052,14.021a14.616,14.616,0,0,0,11.506,7.514,11.524,11.524,0,0,0,4.564-.387l8.692-2.628L89.8,73.484c2.162-.654,5.448-1.036,5.653-3.824a3.649,3.649,0,0,0-.111-1.144c-.023-.092-.051-.183-.083-.274-.016-.044-.056-.179-.079-.257a2.993,2.993,0,0,0-.964-1.458c.438-.143.876-.286,1.31-.438a3.474,3.474,0,0,0,2.159-4.558c-.024-.064-.053-.123-.08-.186,0-.035-.053-.261-.059-.278a3.092,3.092,0,0,0-.422-.787,2.879,2.879,0,0,0-.223-.257l.32-.1.024-.007a16.243,16.243,0,0,0,2.9-.733c2.375-.843,4.1-3.354,5.232-5.485a35.89,35.89,0,0,0,3.34-10.529,48.527,48.527,0,0,0,.771-6.484A.965.965,0,0,0,108.615,35.674Zm-37.3,9.463c.014-.2.026-.39.049-.585a10.116,10.116,0,0,1,.227-1.165,9.677,9.677,0,0,1,1.152-2.406,13.333,13.333,0,0,1,2.336-2.576,33.291,33.291,0,0,1,10.34-5.6,37.558,37.558,0,0,1,1.8,5.783A12.383,12.383,0,0,0,85.5,39.95a11.6,11.6,0,0,0-3.464,7.692l-5.214,2.93-2.337,1.313c-.185-.092-.369-.185-.55-.285-.043-.046-.086-.093-.128-.142a11.367,11.367,0,0,1-.7-.9q-.224-.316-.427-.645c-.055-.089-.107-.18-.16-.271,0-.012-.139-.254-.176-.326a10.551,10.551,0,0,1-.729-1.805c-.025-.082-.047-.164-.07-.246,0-.012-.005-.017-.007-.022l-.01-.047c-.038-.183-.079-.366-.109-.551a8.514,8.514,0,0,1-.111-1.125c0-.094,0-.188,0-.283,0-.019,0-.03,0-.038S71.31,45.166,71.312,45.136Zm12.785,1.1v0C84.106,46.189,84.129,46.086,84.1,46.238ZM71.763,51.9a10.327,10.327,0,0,0,.862,1.029l-1.81,1.017A5.373,5.373,0,0,1,71.763,51.9ZM99.1,56.482c-.147,1.021-1.066,1.207-1.9,1.47l-.394.123-5.242,1.643-2.588.811c-3.427,1.074-6.877,2.1-10.287,3.223-.065.022-.131.041-.2.062-1.156.362-.662,2.186.5,1.822L79.1,65.6l9.3-2.914,5.913-1.853a1.8,1.8,0,0,1,1.113.376,1.153,1.153,0,0,1,.333.459c.059.148.249.842.09.345a4.068,4.068,0,0,1,.171.639c-.008,0,.008.333,0,.409a1.777,1.777,0,0,1-.074.347,1.337,1.337,0,0,1-.306.451,2.92,2.92,0,0,1-.589.4c-.927.369-1.924.6-2.878.9L88.519,66.3,80.47,68.827l.021.05a.944.944,0,0,0,.617,1.775l7.367-2.2c.906-.271,1.825-.515,2.722-.813.022-.008.047-.005.07-.012l-.058.016a1.017,1.017,0,0,1,.126-.015,6.423,6.423,0,0,1,.818.012,1.4,1.4,0,0,1,1.313,1.143c.025.112.072.312.086.381.005.023.008.035.012.048s0,.026,0,.048c0,.065.007.129.007.194a.917.917,0,0,1-.093.485c-.264.609-.879.722-1.472.9L89.8,71.51l-7.22,2.183-9.132,2.762c-.758.229-1.513.484-2.277.689-.08.022-.162.036-.241.058h0l.061-.007-.063.008c-.066.017-.228.028-.062.007-.034,0-.068.009-.1.012-.23.021-.46.041-.692.053a12.875,12.875,0,0,1-9.661-3.516A12.13,12.13,0,0,1,56.8,66.82a15.612,15.612,0,0,1,.639-6.686,13.985,13.985,0,0,1,1.34-3.286,4.047,4.047,0,0,1,.244-.349c.378-.506.474-.628.858-1.113,2.331-2.943,4.9-6.032,8.036-8.142a10.656,10.656,0,0,1,1.218-.713l1.441,3.841a7,7,0,0,0-1.752,5.251.957.957,0,0,0,1.421.816L74.585,54l2.184-1.227L82.05,49.8l1.831-1.029,1.9-1.068,2.067-1.162.691-.388c.074-.042.154-.08.225-.126l.013-.009a5.758,5.758,0,0,1,.855-.233c.047-.008.095-.015.142-.02a1.232,1.232,0,0,1,1.048.312c.006.006.009.013.015.019a1.985,1.985,0,0,1,.574,1.574,2.1,2.1,0,0,1-.694,1.331c-.09.09-.184.177-.281.259-.075.064-.154.125-.231.186l-.058.045-.218.165c-.169.127-.345.245-.516.37q-.616.451-1.24.889-1.342.941-2.7,1.856c-.17.115-.342.228-.512.343-.525.355-1.054.705-1.581,1.058l-.15.1Q79.97,56.459,76.686,58.6c-.862.561-.337,2.063.728,1.726l8.323-2.637.906-.287,2.345-.743,7.166-2.27c.118-.037.243-.068.359-.114l.034-.015c.747-.04,1.581-.114,2.084.475a1.771,1.771,0,0,1,.307.691s-.005,0,0,.024a1.084,1.084,0,0,0,.056.165A1.933,1.933,0,0,1,99.1,56.482Zm7.99-14.975A39.372,39.372,0,0,1,104.5,51.2a16.563,16.563,0,0,1-2.571,4.292,11.492,11.492,0,0,1-.951.994,3.774,3.774,0,0,0-.162-1.368c-.034-.11-.089-.215-.122-.325-.075-.246,0-.085.011-.042-.02-.071-.043-.14-.065-.21a2.952,2.952,0,0,0-.266-.595,3.118,3.118,0,0,0-1.586-1.306,4.818,4.818,0,0,0-2.691-.206c-.857.2-1.7.536-2.542.8L87.5,55.148l-.461.146-2.094.663-1.594.505,1.262-.842c.333-.223.668-.444,1-.668.2-.137.4-.275.608-.412q1.715-1.156,3.4-2.353c.325-.231.655-.455.977-.692A13.58,13.58,0,0,0,92,50.368q.159-.153.306-.319c.661-.686,1.333-1.36,2.03-2.009q.456-.425.925-.842l3.8.109.58.017a.63.63,0,0,0,.089-1.257L96.7,45.979a25.69,25.69,0,0,1,6.344-3.947c.748-.31.179-1.434-.568-1.125a26.592,26.592,0,0,0-6.546,4.073q.216-1.348.433-2.7a.635.635,0,0,0-.584-.673.644.644,0,0,0-.673.584l-.648,4.036q-.483.43-.953.867c-.077.072-.15.147-.226.218a4,4,0,0,0-.338-1.371,3.317,3.317,0,0,0-2-1.925,3.372,3.372,0,0,0-1.119-.139,4.978,4.978,0,0,0-1.663.365c-.066.026-.129.059-.194.089-.549.247-1.066.578-1.587.871l-2.325,1.307q.023-.134.047-.268c.01-.045.019-.09.03-.135.054-.225.109-.45.175-.673a10.405,10.405,0,0,1,.475-1.292c.035-.078.072-.155.108-.232.015-.027.1-.193.115-.224q.183-.339.391-.664.2-.3.413-.593c.074-.1.15-.2.228-.292.047-.058.1-.116.144-.173l.011-.013.031-.034A11,11,0,0,1,87.6,40.644a12.134,12.134,0,0,1,1.717-1.115,16.638,16.638,0,0,1,3.6-1.386c4.738-1.266,9.781-1.149,14.636-.679C107.455,38.817,107.286,40.169,107.086,41.507Z"/>
  </g>
</svg>
