<svg xmlns="http://www.w3.org/2000/svg" width="42.008" height="43.052" viewBox="0 0 42.008 43.052">
  <defs>
    <style>
      .cls-1 {
        fill: #80281f;
      }
    </style>
  </defs>
  <g id="ICON_Natural_herbs" data-name="ICON_Natural herbs" transform="translate(-70.139 -257.188)">
    <path id="Path_915" data-name="Path 915" class="cls-1" d="M97.839,280.618a29.689,29.689,0,0,0,9.261-6.407c.935-.94,1.822-1.911,2.761-2.94q.421-.46.852-.93a.89.89,0,0,0,0-1.18c-.295-.322-.584-.642-.871-.959-.95-1.05-1.848-2.042-2.813-2.981a29.788,29.788,0,0,0-10.656-6.994,17.291,17.291,0,0,0-13.233.6,30.081,30.081,0,0,0-9.088,6.316c-.959.956-1.863,1.939-2.821,2.981q-.429.466-.865.939a.887.887,0,0,0-.031,1.153l.288.346c.453.546.881,1.061,1.322,1.556a31.343,31.343,0,0,0,12.7,9.061,16.879,16.879,0,0,0,5.814,1.044A18.5,18.5,0,0,0,97.839,280.618Zm-14.673-2.361a33.421,33.421,0,0,1-10.6-8.542l.2-.232c.185-.221.365-.435.552-.644a32.894,32.894,0,0,1,9.369-7.447,16.361,16.361,0,0,1,8.788-2.032,17.444,17.444,0,0,1,6.834,2.023,34.47,34.47,0,0,1,10.075,8.232.706.706,0,0,1,.066.1l.021.035q-.331.355-.66.713c-.519.564-1.056,1.147-1.607,1.69a31.9,31.9,0,0,1-7.845,5.858,16.582,16.582,0,0,1-8.836,2.039A16.936,16.936,0,0,1,83.166,278.257Z"/>
    <path id="Path_916" data-name="Path 916" class="cls-1" d="M108.42,270.5a.967.967,0,0,0-.661-.68.984.984,0,0,0-.949.206l-.179.157a1.96,1.96,0,0,1-1.5.477,2.2,2.2,0,0,1-2.025-1.532,2.161,2.161,0,0,1,.552-2.381c.064-.063.127-.124.193-.185a.988.988,0,0,0,.293-.907.977.977,0,0,0-.6-.73,8.689,8.689,0,1,0,1.865,14.756A8.461,8.461,0,0,0,108.42,270.5ZM102,271.16a4.166,4.166,0,0,0,4.649,1.237c.4,2.465-1.3,5.082-3.2,6.2a6.674,6.674,0,0,1-7.8-.842,6.609,6.609,0,0,1,4.441-11.5,6.991,6.991,0,0,1,1.307.124A4.169,4.169,0,0,0,102,271.16Z" transform="translate(-9.606 -3.163)"/>
    <path id="Path_917" data-name="Path 917" class="cls-1" d="M133.834,300.766a49.706,49.706,0,0,0-2.987-4.3.7.7,0,0,0-1.153.007A35.935,35.935,0,0,0,124.6,304.8a6.109,6.109,0,0,0,.606,5.924,6.252,6.252,0,0,0,6.452,2.507,6.35,6.35,0,0,0,4.822-6.135C136.439,304.849,134.981,302.607,133.834,300.766ZM131.289,311.2a4.162,4.162,0,0,1-4.683-2.127c-.878-1.651-.4-3.015.408-4.656a27.741,27.741,0,0,1,1.471-2.61c.574-.9,1.167-1.793,1.785-2.669.56.79,1.105,1.589,1.622,2.406a29.02,29.02,0,0,1,1.948,3.515,8.726,8.726,0,0,1,.351.912,3.736,3.736,0,0,1,.232,1.123A4.263,4.263,0,0,1,131.289,311.2Z" transform="translate(-24.334 -17.574)"/>
    <path id="Path_918" data-name="Path 918" class="cls-1" d="M111.127,313.764a38.63,38.63,0,0,0-2.551-3.641.55.55,0,0,0-.9.007,28.817,28.817,0,0,0-4.239,6.9,4.993,4.993,0,0,0,.529,4.79,5.139,5.139,0,0,0,5.4,2.042,5.225,5.225,0,0,0,3.873-5.018,1.109,1.109,0,0,0-.024-.248A11.513,11.513,0,0,0,111.127,313.764Zm-2.314,8.111a3.055,3.055,0,0,1-3.432-1.691,3.2,3.2,0,0,1-.279-.959,3.945,3.945,0,0,1-.013-.463c0-.041.005-.083.009-.124l.01-.042a8.519,8.519,0,0,1,.989-2.381c.479-.863.989-1.708,1.539-2.529.16-.239.325-.477.49-.714.564.81,1.109,1.633,1.618,2.473.289.477.552.97.8,1.472A7.515,7.515,0,0,1,111,318c.054.165.1.331.139.5,0,.019.023.138.03.174,0,.056.008.111.01.167A3.134,3.134,0,0,1,108.813,321.875Z" transform="translate(-14.843 -23.763)"/>
  </g>
</svg>
