<svg xmlns="http://www.w3.org/2000/svg" width="53.387" height="32.762" viewBox="0 0 53.387 32.762">
  <defs>
    <style>
      .cls-1 {
        fill: #80281f;
      }
    </style>
  </defs>
  <g id="ICON_Lutein_Zeaxanthin_and_Vitamin_A" data-name="ICON_Lutein, Zeaxanthin, and Vitamin A" transform="translate(-70.139 -169.039)">
    <path id="Path_913" data-name="Path 913" class="cls-1" d="M106.385,199.7a38.862,38.862,0,0,0,12.119-8.384c1.224-1.23,2.385-2.5,3.613-3.848q.551-.6,1.114-1.217a1.164,1.164,0,0,0,0-1.544c-.386-.421-.765-.84-1.14-1.255-1.243-1.374-2.418-2.671-3.68-3.9a38.971,38.971,0,0,0-13.944-9.152,22.623,22.623,0,0,0-17.316.788,39.363,39.363,0,0,0-11.892,8.265c-1.255,1.251-2.438,2.538-3.692,3.9q-.562.61-1.132,1.229a1.159,1.159,0,0,0-.04,1.507l.377.453c.593.714,1.153,1.388,1.73,2.036,5.138,5.775,10.574,9.653,16.617,11.856a22.085,22.085,0,0,0,7.608,1.367A24.206,24.206,0,0,0,106.385,199.7Zm-19.2-3.089a43.734,43.734,0,0,1-13.872-11.177l.257-.3c.242-.288.478-.569.723-.841a43.042,43.042,0,0,1,12.26-9.745,21.409,21.409,0,0,1,11.5-2.659,22.815,22.815,0,0,1,8.943,2.647A45.105,45.105,0,0,1,120.178,185.3a.931.931,0,0,1,.086.129l.027.045q-.433.465-.864.933c-.679.738-1.382,1.5-2.1,2.212a41.761,41.761,0,0,1-10.266,7.665A21.7,21.7,0,0,1,95.5,198.955,22.162,22.162,0,0,1,87.185,196.609Z"/>
    <path id="Path_914" data-name="Path 914" class="cls-1" d="M113.658,184.288a1.265,1.265,0,0,0-.865-.89,1.287,1.287,0,0,0-1.242.269l-.234.206a2.565,2.565,0,0,1-1.966.624,2.881,2.881,0,0,1-2.649-2,2.827,2.827,0,0,1,.723-3.116c.083-.082.167-.162.252-.242a1.293,1.293,0,0,0,.384-1.187,1.279,1.279,0,0,0-.782-.955,11.369,11.369,0,1,0,2.441,19.308A11.071,11.071,0,0,0,113.658,184.288Zm-8.4.87a5.451,5.451,0,0,0,6.084,1.619c.526,3.225-1.7,6.65-4.19,8.119a8.733,8.733,0,0,1-10.205-1.1,8.648,8.648,0,0,1,5.811-15.045,9.147,9.147,0,0,1,1.71.162A5.455,5.455,0,0,0,105.255,185.158Z" transform="translate(-5.997 -1.974)"/>
  </g>
</svg>
