<svg xmlns="http://www.w3.org/2000/svg" width="88.455" height="54.282" viewBox="0 0 88.455 54.282">
  <defs>
    <style>
      .cls-1 {
        fill: #80281f;
      }
    </style>
  </defs>
  <g id="ICON_Lutein_Zeaxanthin_and_Vitamin_A_to_help_support_eye_health_" data-name="ICON_Lutein, Zeaxanthin, and Vitamin A to help support eye health " transform="translate(-70.139 -169.039)">
    <path id="Path_913" data-name="Path 913" class="cls-1" d="M130.194,219.837a64.39,64.39,0,0,0,20.079-13.891c2.027-2.038,3.951-4.145,5.987-6.375q.913-1,1.846-2.017a1.929,1.929,0,0,0,0-2.558c-.639-.7-1.267-1.392-1.889-2.079-2.06-2.276-4.006-4.426-6.1-6.463-7.5-7.3-15.052-12.259-23.1-15.163-9.385-3.389-19.037-2.949-28.69,1.306a65.219,65.219,0,0,0-19.7,13.694c-2.079,2.073-4.039,4.2-6.117,6.463q-.93,1.011-1.876,2.036a1.921,1.921,0,0,0-.067,2.5l.624.751c.982,1.183,1.911,2.3,2.867,3.374,8.513,9.568,17.519,15.993,27.533,19.644a36.592,36.592,0,0,0,12.605,2.264A40.106,40.106,0,0,0,130.194,219.837Zm-31.811-5.118c-8.239-4.044-15.759-10.1-22.984-18.519l.425-.5c.4-.477.792-.943,1.2-1.394a71.315,71.315,0,0,1,20.312-16.146c6.61-3.406,12.844-4.844,19.053-4.4a37.8,37.8,0,0,1,14.817,4.386c7.643,3.941,14.788,9.778,21.843,17.847a1.539,1.539,0,0,1,.143.214l.045.075q-.718.77-1.431,1.546c-1.125,1.223-2.291,2.487-3.485,3.664a69.194,69.194,0,0,1-17.009,12.7c-6.682,3.412-12.951,4.86-19.156,4.422A36.718,36.718,0,0,1,98.383,214.719Z" transform="translate(0 0)"/>
    <path id="Path_914" data-name="Path 914" class="cls-1" d="M128.25,189.7a2.1,2.1,0,0,0-1.433-1.475,2.133,2.133,0,0,0-2.057.446l-.388.34a4.25,4.25,0,0,1-3.257,1.033,4.774,4.774,0,0,1-4.389-3.322,4.685,4.685,0,0,1,1.2-5.162c.138-.136.276-.269.418-.4a2.142,2.142,0,0,0,.636-1.967,2.119,2.119,0,0,0-1.3-1.582,18.688,18.688,0,0,0-22.073,5.412c-6.582,8.016-4.675,18.861.97,24.717a18.864,18.864,0,0,0,13.61,5.925,18.6,18.6,0,0,0,11.537-4.063A18.343,18.343,0,0,0,128.25,189.7Zm-13.923,1.442c2.656,2.993,6.047,3.9,10.08,2.682.871,5.344-2.82,11.018-6.943,13.453a14.469,14.469,0,0,1-16.909-1.825,14.328,14.328,0,0,1,9.629-24.928,15.154,15.154,0,0,1,2.833.268C111.291,184.729,111.731,188.211,114.327,191.138Z" transform="translate(4.059 1.336)"/>
  </g>
</svg>
