<svg xmlns="http://www.w3.org/2000/svg" width="108.559" height="96.293" viewBox="0 0 108.559 96.293">
  <defs>
    <style>
      .cls-1 {
        fill: #80281f;
      }
    </style>
  </defs>
  <g id="Icon_1_Premium_Naturally_Inspired_Ingredients_" data-name="Icon_1_Premium, Naturally Inspired Ingredients " transform="translate(-54.806 -30.672)">
    <path id="Path_911" data-name="Path 911" class="cls-1" d="M98.915,67.955a1.261,1.261,0,0,0,2.394-.276,70.948,70.948,0,0,1,2.794-8.437q.355-.907.733-1.813l5.528-2.459.868-.387a1.25,1.25,0,1,0-.935-2.319l-3.926,1.747a40.63,40.63,0,0,1,6.184-9.573c1.076-1.2-.887-2.75-1.958-1.555a42.6,42.6,0,0,0-6.475,10.034l-1.092-3.686a1.261,1.261,0,0,0-1.627-.692,1.279,1.279,0,0,0-.692,1.628q.924,3.115,1.847,6.233-.382.917-.744,1.835c-.714,1.823-1.376,3.68-1.968,5.556q-1.107-2.574-2.213-5.149a1.251,1.251,0,0,0-2.319.936Q97.114,63.766,98.915,67.955Z"/>
    <path id="Path_912" data-name="Path 912" class="cls-1" d="M161.625,40.6c-9.82-1.037-20.034-1.416-29.747.7a41.429,41.429,0,0,0-9.4,3.189q-.455-1.824-.974-3.623a77.818,77.818,0,0,0-3.142-9.041,1.914,1.914,0,0,0-2.441-1.037c-7.625,2.718-15.313,6.063-21.731,11.086-3.849,3.012-7.387,6.811-9.139,11.45a18.11,18.11,0,0,0-1.065,4.514,1.527,1.527,0,0,0-.171.035c-3.772,1.226-7,3.825-9.912,6.442a94.574,94.574,0,0,0-8.868,9.323c-1.8,2.127-3.551,4.3-5.206,6.543a18.422,18.422,0,0,0-1.945,3.89c-3.688,8.827-4.546,19.18.1,27.833a29.014,29.014,0,0,0,22.841,14.917,22.877,22.877,0,0,0,9.061-.769l17.254-5.217,17.124-5.179c4.291-1.3,10.815-2.057,11.223-7.592a7.245,7.245,0,0,0-.22-2.271c-.046-.183-.1-.364-.165-.543-.032-.088-.111-.356-.157-.511a5.942,5.942,0,0,0-1.913-2.895c.869-.284,1.739-.567,2.6-.869a6.9,6.9,0,0,0,4.285-9.049c-.048-.128-.106-.244-.159-.37,0-.069-.106-.519-.117-.551a6.139,6.139,0,0,0-.837-1.562,5.713,5.713,0,0,0-.442-.51l.636-.2.047-.014a32.244,32.244,0,0,0,5.765-1.456c4.714-1.674,8.149-6.659,10.386-10.888,3.44-6.5,5.341-13.7,6.63-20.9A96.33,96.33,0,0,0,163.363,42.6,1.917,1.917,0,0,0,161.625,40.6ZM87.573,59.386c.028-.388.051-.774.1-1.161a20.086,20.086,0,0,1,.451-2.312,19.211,19.211,0,0,1,2.286-4.776,26.469,26.469,0,0,1,4.638-5.113c5.924-5.1,13.228-8.417,20.527-11.11a74.558,74.558,0,0,1,3.565,11.48,24.583,24.583,0,0,0-3.392,2.7,23.023,23.023,0,0,0-6.876,15.269L98.519,70.176,93.88,72.783c-.367-.182-.732-.368-1.091-.565-.086-.092-.171-.185-.254-.281a22.561,22.561,0,0,1-1.392-1.779q-.444-.627-.847-1.281c-.109-.177-.213-.357-.318-.537-.009-.024-.276-.5-.35-.647a20.946,20.946,0,0,1-1.447-3.584c-.049-.162-.093-.325-.139-.489-.006-.023-.01-.033-.013-.043l-.019-.094c-.076-.364-.156-.727-.217-1.094a16.9,16.9,0,0,1-.22-2.234c-.006-.187-.007-.374-.008-.561,0-.038,0-.06,0-.075C87.566,59.486,87.569,59.445,87.573,59.386Zm25.38,2.187v-.005C112.971,61.475,113.017,61.271,112.953,61.573ZM88.469,72.819a20.5,20.5,0,0,0,1.712,2.043l-3.594,2.019A10.667,10.667,0,0,1,88.469,72.819Zm54.258,9.09c-.291,2.027-2.116,2.4-3.78,2.918l-.782.245-10.407,3.261-5.137,1.61c-6.8,2.132-13.651,4.16-20.421,6.4-.13.043-.261.082-.391.123-2.295.719-1.315,4.34,1,3.616l.236-.074,18.46-5.785,11.739-3.678a3.571,3.571,0,0,1,2.21.746,2.288,2.288,0,0,1,.661.912c.118.293.495,1.671.179.685a8.078,8.078,0,0,1,.339,1.269c-.015.007.015.661,0,.812a3.527,3.527,0,0,1-.147.688,2.654,2.654,0,0,1-.607.9,5.794,5.794,0,0,1-1.17.79c-1.841.732-3.82,1.2-5.713,1.79l-7.264,2.276-15.977,5.007.042.1c-2,.858-1.013,4.191,1.225,3.523l14.625-4.366c1.8-.537,3.622-1.023,5.4-1.613.044-.015.094-.01.139-.023l-.115.032a2.018,2.018,0,0,1,.25-.03,12.75,12.75,0,0,1,1.623.024,2.784,2.784,0,0,1,2.606,2.27c.05.222.142.619.171.756.01.046.016.07.023.1s0,.051,0,.1c.006.129.013.256.013.385a1.82,1.82,0,0,1-.185.963c-.525,1.208-1.744,1.433-2.922,1.79l-4.384,1.325-14.332,4.334-18.128,5.482c-1.5.455-3,.96-4.52,1.367-.158.043-.322.072-.478.115h-.006l.122-.014-.125.015c-.131.034-.452.056-.123.014-.067.009-.134.018-.2.024-.457.042-.914.082-1.373.1a25.56,25.56,0,0,1-19.178-6.979,24.08,24.08,0,0,1-7.168-13.775,30.993,30.993,0,0,1,1.268-13.273,27.763,27.763,0,0,1,2.66-6.523,8.035,8.035,0,0,1,.484-.693c.751-1.005.941-1.246,1.7-2.209C69.5,73.891,74.6,67.758,80.829,63.569a21.155,21.155,0,0,1,2.418-1.416q1.429,3.812,2.86,7.625A13.906,13.906,0,0,0,82.63,80.2a1.9,1.9,0,0,0,2.821,1.619l8.62-4.844,4.336-2.436,10.482-5.89q1.816-1.021,3.634-2.042l3.771-2.12,4.1-2.306,1.371-.77c.147-.083.305-.158.446-.251l.025-.018a11.43,11.43,0,0,1,1.7-.462c.094-.015.188-.029.281-.039a2.445,2.445,0,0,1,2.08.619c.012.012.018.026.03.038a3.94,3.94,0,0,1,1.139,3.125,4.177,4.177,0,0,1-1.378,2.642c-.179.179-.365.352-.557.515-.149.127-.305.248-.458.37-.02.017-.068.054-.115.09q-.214.165-.432.327c-.336.252-.685.486-1.024.734q-1.222.9-2.462,1.765-2.664,1.868-5.359,3.685c-.337.229-.678.452-1.016.681-1.043.7-2.092,1.4-3.139,2.1l-.3.2q-6.47,4.329-12.989,8.579c-1.711,1.113-.669,4.1,1.445,3.427l16.523-5.235,1.8-.57,4.655-1.475,14.225-4.507c.235-.074.483-.135.713-.226.031-.012.047-.02.067-.029,1.483-.08,3.139-.227,4.138.943a3.515,3.515,0,0,1,.609,1.372c-.007,0-.01.007-.006.047a2.152,2.152,0,0,0,.112.328A3.838,3.838,0,0,1,142.727,81.909Zm15.862-29.728a78.159,78.159,0,0,1-5.142,19.234,32.88,32.88,0,0,1-5.1,8.52,22.813,22.813,0,0,1-1.887,1.973,7.491,7.491,0,0,0-.321-2.716c-.068-.219-.177-.427-.243-.645-.149-.488,0-.169.022-.083-.04-.14-.086-.277-.13-.416a5.858,5.858,0,0,0-.528-1.181,6.189,6.189,0,0,0-3.148-2.592,9.565,9.565,0,0,0-5.343-.408c-1.7.388-3.383,1.064-5.046,1.591l-12,3.8-.915.29-4.157,1.317-3.164,1,2.506-1.672c.662-.442,1.327-.882,1.987-1.327.4-.271.8-.545,1.206-.817q3.4-2.295,6.756-4.671c.645-.459,1.3-.9,1.939-1.373a26.962,26.962,0,0,0,2.774-2.239q.316-.3.607-.634c1.312-1.361,2.647-2.7,4.03-3.989q.906-.845,1.837-1.672l7.552.216,1.151.033a1.251,1.251,0,0,0,.177-2.5l-6.038-.172a51,51,0,0,1,12.594-7.836c1.485-.616.356-2.847-1.127-2.233a52.789,52.789,0,0,0-12.994,8.086q.429-2.676.86-5.352a1.261,1.261,0,0,0-1.159-1.336,1.279,1.279,0,0,0-1.336,1.159l-1.287,8.012q-.959.854-1.892,1.722c-.152.142-.3.291-.449.433a7.932,7.932,0,0,0-.671-2.722,6.585,6.585,0,0,0-3.972-3.822,6.694,6.694,0,0,0-2.222-.275,9.882,9.882,0,0,0-3.3.725c-.131.052-.257.118-.386.176-1.089.49-2.116,1.148-3.151,1.73l-4.615,2.594q.045-.267.094-.532c.019-.089.037-.179.059-.268.108-.447.217-.894.348-1.336a20.653,20.653,0,0,1,.942-2.564c.069-.154.142-.307.215-.46.029-.054.195-.383.228-.444q.363-.673.777-1.318.389-.6.82-1.178c.147-.195.3-.389.452-.579.094-.116.19-.23.286-.344l.021-.025L117.16,53a21.835,21.835,0,0,1,2.749-2.535,24.088,24.088,0,0,1,3.408-2.213,33.028,33.028,0,0,1,7.138-2.752c9.406-2.514,19.416-2.28,29.055-1.348C159.322,46.842,158.988,49.525,158.589,52.181Z"/>
  </g>
</svg>
