<svg xmlns="http://www.w3.org/2000/svg" width="76.502" height="78.404" viewBox="0 0 76.502 78.404">
  <defs>
    <style>
      .cls-1 {
        fill: #80281f;
      }
    </style>
  </defs>
  <g id="ICON_Natural_herbs" data-name="ICON_Natural herbs" transform="translate(-70.139 -257.188)">
    <path id="Path_915" data-name="Path 915" class="cls-1" d="M120.584,299.857a54.069,54.069,0,0,0,16.866-11.668c1.7-1.712,3.319-3.481,5.029-5.355q.767-.839,1.551-1.694a1.62,1.62,0,0,0,0-2.149c-.537-.586-1.064-1.169-1.587-1.746-1.73-1.912-3.365-3.718-5.122-5.429-6.3-6.13-12.643-10.3-19.406-12.737a31.489,31.489,0,0,0-24.1,1.1,54.782,54.782,0,0,0-16.55,11.5c-1.746,1.741-3.393,3.532-5.138,5.429q-.781.849-1.576,1.71a1.615,1.615,0,0,0-.056,2.1l.524.63c.825.994,1.6,1.933,2.408,2.834,7.151,8.037,14.716,13.434,23.127,16.5a30.737,30.737,0,0,0,10.588,1.9A33.688,33.688,0,0,0,120.584,299.857Zm-26.721-4.3c-6.921-3.4-13.237-8.487-19.306-15.556l.357-.422c.337-.4.665-.793,1.006-1.172a59.9,59.9,0,0,1,17.062-13.562,29.8,29.8,0,0,1,16-3.7,31.769,31.769,0,0,1,12.446,3.684c6.42,3.31,12.422,8.213,18.348,14.991a1.289,1.289,0,0,1,.12.18l.038.063q-.6.646-1.2,1.3c-.945,1.027-1.924,2.089-2.927,3.078a58.1,58.1,0,0,1-14.287,10.668c-5.613,2.866-10.879,4.082-16.091,3.714A30.843,30.843,0,0,1,93.863,295.558Z"/>
    <path id="Path_916" data-name="Path 916" class="cls-1" d="M122.36,275.662a1.76,1.76,0,0,0-1.2-1.239,1.791,1.791,0,0,0-1.728.375l-.326.286a3.57,3.57,0,0,1-2.736.868,4.01,4.01,0,0,1-3.687-2.79,3.935,3.935,0,0,1,1.006-4.336c.116-.114.232-.225.351-.337a1.8,1.8,0,0,0,.534-1.652,1.78,1.78,0,0,0-1.089-1.329,15.823,15.823,0,1,0,3.4,26.872A15.408,15.408,0,0,0,122.36,275.662Zm-11.695,1.211a7.587,7.587,0,0,0,8.467,2.253c.732,4.489-2.369,9.255-5.832,11.3a12.154,12.154,0,0,1-14.2-1.533,12.035,12.035,0,0,1,8.088-20.939,12.728,12.728,0,0,1,2.38.225C108.115,271.49,108.485,274.415,110.665,276.873Z"/>
    <path id="Path_917" data-name="Path 917" class="cls-1" d="M141.821,304.545a90.533,90.533,0,0,0-5.44-7.834,1.273,1.273,0,0,0-2.1.013c-3.568,4.633-7.087,9.687-9.275,15.162a11.125,11.125,0,0,0,1.1,10.788,11.385,11.385,0,0,0,11.75,4.565,11.564,11.564,0,0,0,8.782-11.172C146.565,311.98,143.909,307.9,141.821,304.545Zm-4.635,19a7.58,7.58,0,0,1-8.529-3.873c-1.6-3.006-.735-5.49.743-8.479a50.521,50.521,0,0,1,2.678-4.754c1.045-1.638,2.125-3.265,3.251-4.86,1.02,1.438,2.013,2.894,2.953,4.381a52.849,52.849,0,0,1,3.548,6.4,15.894,15.894,0,0,1,.639,1.661,6.806,6.806,0,0,1,.422,2.045A7.763,7.763,0,0,1,137.186,323.544Z"/>
    <path id="Path_918" data-name="Path 918" class="cls-1" d="M117.753,316.944a70.351,70.351,0,0,0-4.645-6.631,1,1,0,0,0-1.642.013,52.482,52.482,0,0,0-7.72,12.564,9.093,9.093,0,0,0,.963,8.723,9.36,9.36,0,0,0,9.826,3.718,9.516,9.516,0,0,0,7.054-9.139,2.02,2.02,0,0,0-.043-.451C121.311,322.606,119.358,319.522,117.753,316.944Zm-4.214,14.771a5.563,5.563,0,0,1-6.251-3.08,5.827,5.827,0,0,1-.508-1.747,7.187,7.187,0,0,1-.023-.843c0-.075.01-.151.016-.226,0-.02.01-.041.018-.076a15.515,15.515,0,0,1,1.8-4.337c.872-1.572,1.8-3.111,2.8-4.605.292-.436.592-.868.892-1.3,1.027,1.475,2.02,2.973,2.947,4.5.527.869,1,1.767,1.45,2.681a13.69,13.69,0,0,1,.829,1.979c.1.3.173.6.253.908.009.034.042.252.055.316.007.1.015.2.018.3A5.708,5.708,0,0,1,113.539,331.715Z"/>
  </g>
</svg>
