<svg xmlns="http://www.w3.org/2000/svg" width="93.369" height="80.137" viewBox="0 0 93.369 80.137">
  <defs>
    <style>
      .cls-1 {
        fill: #80281f;
      }
    </style>
  </defs>
  <g id="ICON_Omega-3_and_Omega-6" data-name="ICON Omega-3 and Omega-6" transform="translate(-65.613 -365.962)">
    <path id="Path_919" data-name="Path 919" class="cls-1" d="M154.383,389.281v0a71.453,71.453,0,0,0-14.016-17.159c-4.4-3.848-10.563-7.9-14.949-5.371a6.057,6.057,0,0,0-2.266,2.414c-7.047-4.224-14.538-4.238-21.715-.044a6.111,6.111,0,0,0-2.258-2.372c-4.372-2.528-10.54,1.531-14.946,5.385a71.416,71.416,0,0,0-14.016,17.149c-3.477,6.023-5,11.241-4.517,15.511a11.881,11.881,0,0,0,6.193,9.179,12.15,12.15,0,0,0,6.957,1.774c0,.069-.006.138-.006.207,0,19.441,11.881,30.147,33.454,30.147s33.453-10.706,33.453-30.147c0-.069,0-.14-.005-.212.215.021.432.036.651.036a12.5,12.5,0,0,0,6.286-1.794,11.891,11.891,0,0,0,6.211-9.187C159.38,400.527,157.863,395.309,154.383,389.281Zm-20.91-6.937a2.029,2.029,0,0,0-.687,2.8,62.186,62.186,0,0,1,8.911,30.807c0,17.311-9.89,26.088-29.4,26.088s-29.4-8.777-29.4-26.08a62.18,62.18,0,0,1,8.907-30.812,2.03,2.03,0,0,0-.666-2.791,2,2,0,0,0-1.058-.3,2.032,2.032,0,0,0-1.744.987,67.793,67.793,0,0,0-9.31,28.579,8.188,8.188,0,0,1-5.119-1.168,7.728,7.728,0,0,1-4.182-6.115c-.382-3.389.962-7.773,3.995-13.025A67.186,67.186,0,0,1,86.9,375.183c5.513-4.818,8.966-5.663,10.227-4.934a2.179,2.179,0,0,1,.826.993,3.766,3.766,0,0,0,2.332,1.99,3.664,3.664,0,0,0,2.955-.413,16.049,16.049,0,0,1,18.126.008,3.663,3.663,0,0,0,2.945.4,3.776,3.776,0,0,0,2.336-2,2.159,2.159,0,0,1,.8-.97c1.285-.741,4.735.1,10.239,4.913a67.26,67.26,0,0,1,13.175,16.137c3.033,5.262,4.378,9.646,4,13.029v0a7.743,7.743,0,0,1-4.206,6.126,8.158,8.158,0,0,1-5.092,1.153,67.8,67.8,0,0,0-9.31-28.58A2.033,2.033,0,0,0,133.473,382.344Z"/>
    <path id="Path_920" data-name="Path 920" class="cls-1" d="M114.238,408.96h-3.875a5.336,5.336,0,0,0-3.773,9.109l4.276,4.279a2.016,2.016,0,0,0,1.436.593h0a2.01,2.01,0,0,0,1.432-.594l4.276-4.277a5.336,5.336,0,0,0-3.773-9.11Zm.906,6.241-2.842,2.842L109.46,415.2a1.278,1.278,0,0,1,.9-2.183h3.875a1.279,1.279,0,0,1,.9,2.183Z"/>
    <g id="Group_635" data-name="Group 635">
      <path id="Path_921" data-name="Path 921" class="cls-1" d="M100.724,395.729h0a3.682,3.682,0,1,0,3.682,3.681A3.687,3.687,0,0,0,100.724,395.729Z"/>
      <path id="Path_922" data-name="Path 922" class="cls-1" d="M123.879,395.729h0a3.682,3.682,0,1,0,3.683,3.682A3.687,3.687,0,0,0,123.878,395.729Z"/>
    </g>
    <path id="Path_923" data-name="Path 923" class="cls-1" d="M133.579,419.478a2.016,2.016,0,0,0-1.434-.594h0a2.031,2.031,0,0,0-2.028,2.032,7.9,7.9,0,0,1-15.789.177v-.18a2.03,2.03,0,0,0-2.026-2.031h-.005a2.03,2.03,0,0,0-2.027,2.034,7.895,7.895,0,0,1-15.789.177v-.181a2.028,2.028,0,0,0-4.057,0,11.939,11.939,0,0,0,11.926,11.954h.014a12,12,0,0,0,9.936-5.318,11.94,11.94,0,0,0,21.876-6.636A2.013,2.013,0,0,0,133.579,419.478Z"/>
    <path id="Path_924" data-name="Path 924" class="cls-1" d="M120.851,428.762a2.027,2.027,0,0,0-2.435,1.541,6.222,6.222,0,0,1-12.25-.018,2.029,2.029,0,0,0-3.986.742,10.274,10.274,0,0,0,10.119,8.455h0a10.276,10.276,0,0,0,10.1-8.47A2.018,2.018,0,0,0,120.851,428.762Z"/>
  </g>
</svg>
