<svg xmlns="http://www.w3.org/2000/svg" width="164.549" height="196.978" viewBox="0 0 164.549 196.978">
  <defs>
    <style>
      .cls-1 {
        fill: #0070ba;
      }

      .cls-2 {
        fill: #0d2253;
      }

      .cls-3 {
        fill: #fff;
      }
    </style>
  </defs>
  <g id="PROJECT_WATSON_LOGO_DESKTOP" data-name="PROJECT WATSON LOGO_DESKTOP" transform="translate(-41.833 -35.623)">
    <g id="PW" transform="translate(42.478 35.623)">
      <g id="Group_595" data-name="Group 595" transform="translate(0)">
        <path id="Path_772" data-name="Path 772" class="cls-1" d="M178.031,97.839a12.217,12.217,0,0,1-9.251-9.824c-3.7-20.588,3.5-38.689,21.912-34.778,16.337,3.469,25.774,25.748,20.081,43.64a12.254,12.254,0,0,1-17.9,6.7A48.613,48.613,0,0,0,178.031,97.839Z" transform="translate(-82.211 -41.008)"/>
        <path id="Path_773" data-name="Path 773" class="cls-2" d="M170.5,148.469a.646.646,0,0,0,.636-.651c-.231-10.558-8.58-15.835-16.93-15.835s-16.7,5.277-16.93,15.835a.646.646,0,0,0,.636.651Z" transform="translate(-72.573 -66.008)"/>
        <g id="Group_593" data-name="Group 593">
          <path id="Path_774" data-name="Path 774" class="cls-2" d="M80.41,35.72a1.621,1.621,0,0,1,1.831,2.549c-24.518,28.94,1.032,67.086-27.574,73.67a2.239,2.239,0,0,1-2.75-2.39c3.158-33-34.151-46.056,22.592-71.568A54.328,54.328,0,0,1,80.41,35.72Z" transform="translate(-42.775 -35.623)"/>
          <path id="Path_775" data-name="Path 775" class="cls-2" d="M225.231,35.72a1.621,1.621,0,0,0-1.831,2.549c24.518,28.94-1.032,67.086,27.574,73.67a2.239,2.239,0,0,0,2.75-2.39c-3.158-33,34.151-46.056-22.592-71.568A54.331,54.331,0,0,0,225.231,35.72Z" transform="translate(-99.607 -35.623)"/>
        </g>
        <circle id="Ellipse_33" data-name="Ellipse 33" class="cls-3" cx="10.787" cy="10.787" r="10.787" transform="translate(96.817 31.828)"/>
        <g id="Group_594" data-name="Group 594" transform="translate(47.975 34.936)">
          <circle id="Ellipse_34" data-name="Ellipse 34" class="cls-2" cx="7.68" cy="7.68" r="7.68" transform="translate(51.95 0)"/>
          <circle id="Ellipse_35" data-name="Ellipse 35" class="cls-2" cx="7.68" cy="7.68" r="7.68" transform="translate(0 0)"/>
        </g>
        <circle id="Ellipse_36" data-name="Ellipse 36" class="cls-3" cx="2.214" cy="2.214" r="2.214" transform="translate(107.745 38.195)"/>
        <circle id="Ellipse_37" data-name="Ellipse 37" class="cls-3" cx="2.214" cy="2.214" r="2.214" transform="translate(55.795 38.195)"/>
      </g>
      <g id="Group_600" data-name="Group 600" transform="translate(10.979 99.649)">
        <g id="Group_598" data-name="Group 598">
          <g id="Group_596" data-name="Group 596" transform="translate(1.581)">
            <path id="Path_776" data-name="Path 776" class="cls-2" d="M61.12,181.679h8.375c4.889,0,7.846,2.9,7.846,7.086v.058c0,4.743-3.689,7.2-8.287,7.2H65.629v6.149H61.12ZM69.2,192.015c2.255,0,3.572-1.347,3.572-3.1v-.058c0-2.02-1.4-3.1-3.66-3.1H65.629v6.266Z" transform="translate(-61.12 -181.328)"/>
            <path id="Path_777" data-name="Path 777" class="cls-2" d="M89.309,181.679h9.37a8.169,8.169,0,0,1,5.974,2.079,6.429,6.429,0,0,1,1.757,4.684v.059a6.366,6.366,0,0,1-4.392,6.354l5.007,7.32h-5.271l-4.392-6.558H93.819v6.558h-4.51Zm9.078,9.955c2.2,0,3.454-1.171,3.454-2.9v-.059c0-1.933-1.347-2.928-3.542-2.928h-4.48v5.885Z" transform="translate(-70.009 -181.328)"/>
            <path id="Path_778" data-name="Path 778" class="cls-2" d="M118.909,191.824v-.058a10.9,10.9,0,0,1,21.785-.059v.059a10.9,10.9,0,0,1-21.785.058Zm17.069,0v-.058a6.227,6.227,0,0,0-6.207-6.443,6.13,6.13,0,0,0-6.149,6.384v.059a6.227,6.227,0,0,0,6.208,6.441A6.129,6.129,0,0,0,135.978,191.824Z" transform="translate(-79.343 -181.166)"/>
            <path id="Path_779" data-name="Path 779" class="cls-2" d="M152.744,199.394l2.841-3.162a5.053,5.053,0,0,0,3.748,2.049c1.7,0,2.752-1.024,2.752-3.4V181.679h4.627V195.09a7.438,7.438,0,0,1-1.933,5.475,7.32,7.32,0,0,1-5.328,1.9A8.383,8.383,0,0,1,152.744,199.394Z" transform="translate(-90.012 -181.328)"/>
            <path id="Path_780" data-name="Path 780" class="cls-2" d="M179.862,181.679h15.46v4.011h-10.98v4.158H194v4.011h-9.662v4.3h11.127v4.011H179.862Z" transform="translate(-98.563 -181.328)"/>
            <path id="Path_781" data-name="Path 781" class="cls-2" d="M207.069,191.824v-.058a10.416,10.416,0,0,1,10.686-10.6,10.573,10.573,0,0,1,8.082,3.162l-2.869,3.308a7.566,7.566,0,0,0-5.242-2.313,6.073,6.073,0,0,0-5.943,6.384v.059c0,3.513,2.43,6.441,5.943,6.441a7.4,7.4,0,0,0,5.389-2.4l2.869,2.9a10.478,10.478,0,0,1-8.4,3.66A10.346,10.346,0,0,1,207.069,191.824Z" transform="translate(-107.142 -181.166)"/>
            <path id="Path_782" data-name="Path 782" class="cls-2" d="M244.614,185.836h-6.237v-4.157H255.36v4.157h-6.237v16.339h-4.51Z" transform="translate(-117.015 -181.328)"/>
          </g>
          <g id="Group_597" data-name="Group 597" transform="translate(0 27.052)">
            <path id="Path_783" data-name="Path 783" class="cls-1" d="M58.811,221.162h4.831l4.246,13.88,4.6-13.938h3.866l4.6,13.938,4.245-13.88h4.715l-7,20.643H78.985l-4.626-13.411-4.627,13.411H65.808Z" transform="translate(-58.811 -220.811)"/>
            <path id="Path_784" data-name="Path 784" class="cls-1" d="M112.936,220.975h4.157l8.784,20.643h-4.713l-1.874-4.6h-8.667l-1.874,4.6h-4.6Zm4.743,12.064-2.722-6.646-2.724,6.646Z" transform="translate(-73.108 -220.771)"/>
            <path id="Path_785" data-name="Path 785" class="cls-1" d="M142.254,225.346h-6.237v-4.157H153v4.157h-6.237v16.339h-4.51Z" transform="translate(-83.157 -220.838)"/>
            <path id="Path_786" data-name="Path 786" class="cls-1" d="M164.335,238.565,167,235.373a9.4,9.4,0,0,0,6.12,2.489c1.844,0,2.958-.733,2.958-1.933v-.059c0-1.141-.7-1.727-4.129-2.6-4.128-1.055-6.793-2.2-6.793-6.266v-.059c0-3.718,2.987-6.178,7.175-6.178a11.862,11.862,0,0,1,7.612,2.6l-2.342,3.4a9.617,9.617,0,0,0-5.329-2.021c-1.729,0-2.635.791-2.635,1.786v.059c0,1.347.878,1.786,4.422,2.694,4.157,1.083,6.5,2.577,6.5,6.149v.058c0,4.07-3.1,6.354-7.525,6.354A13.04,13.04,0,0,1,164.335,238.565Z" transform="translate(-92.086 -220.704)"/>
            <path id="Path_787" data-name="Path 787" class="cls-1" d="M193.3,231.335v-.059a10.9,10.9,0,0,1,21.785-.058v.058a10.9,10.9,0,0,1-21.785.059Zm17.07,0v-.059a6.227,6.227,0,0,0-6.208-6.442,6.129,6.129,0,0,0-6.148,6.384v.058a6.226,6.226,0,0,0,6.207,6.441A6.129,6.129,0,0,0,210.366,231.335Z" transform="translate(-101.218 -220.677)"/>
            <path id="Path_788" data-name="Path 788" class="cls-1" d="M231.834,221.189h4.157l9.6,12.62v-12.62h4.451v20.5h-3.836l-9.926-13.03v13.03h-4.45Z" transform="translate(-113.371 -220.838)"/>
          </g>
        </g>
        <g id="Group_599" data-name="Group 599" transform="translate(139.674 44.686)">
          <path id="Path_789" data-name="Path 789" class="cls-1" d="M264.185,246.87v2.776H263.7V246.87h-.885v-.437h2.257v.438Z" transform="translate(-262.813 -246.432)"/>
          <path id="Path_790" data-name="Path 790" class="cls-1" d="M269.282,249.645V247.5l-.741,1.567h-.361l-.758-1.567v2.148h-.487v-3.213h.487l.939,2,.921-2h.487v3.213Z" transform="translate(-264.113 -246.432)"/>
        </g>
      </g>
    </g>
    <g id="FOR_DOGS" data-name="FOR DOGS" transform="translate(41.833 206.089)">
      <g id="Group_603" data-name="Group 603">
        <rect id="Rectangle_613" data-name="Rectangle 613" class="cls-1" width="138.999" height="26.512" rx="13.256" transform="translate(12.775)"/>
        <g id="Group_602" data-name="Group 602" transform="translate(0 12.122)">
          <line id="Line_94" data-name="Line 94" class="cls-3" x2="162.281" transform="translate(1.134 1.134)"/>
          <path id="Path_791" data-name="Path 791" class="cls-1" d="M205.248,304.572H42.967a1.134,1.134,0,0,1,0-2.268H205.248a1.134,1.134,0,0,1,0,2.268Z" transform="translate(-41.833 -302.304)"/>
        </g>
      </g>
      <g id="Group_604" data-name="Group 604" transform="translate(27.233 7.021)">
        <path id="Path_792" data-name="Path 792" class="cls-3" d="M81.608,306.76V295.33h8.769v2.711H84.809v2.139h5.225v2.646H84.809v3.935Z" transform="translate(-81.608 -295.004)"/>
        <path id="Path_793" data-name="Path 793" class="cls-3" d="M107.092,306.91c-3.74,0-6.352-2.172-6.352-5.992,0-3.756,2.613-5.993,6.352-5.993,3.755,0,6.352,2.188,6.352,5.993C113.444,304.738,110.848,306.91,107.092,306.91Zm0-9.226a3.235,3.235,0,1,0,3.119,3.234A2.98,2.98,0,0,0,107.092,297.684Z" transform="translate(-87.641 -294.876)"/>
        <path id="Path_794" data-name="Path 794" class="cls-3" d="M137.109,306.76h-3.56l-2.662-3.707h-1.126v3.707h-3.234V295.33h5.585c2.923,0,4.441,1.877,4.441,3.935a3.435,3.435,0,0,1-2.417,3.445l2.972,3.853Zm-7.348-8.849v2.742h2.383a1.2,1.2,0,0,0,1.225-1.322,1.287,1.287,0,0,0-1.257-1.42Z" transform="translate(-95.772 -295.004)"/>
        <path id="Path_795" data-name="Path 795" class="cls-3" d="M163.964,295.33c4.033,0,5.976,2.482,5.976,5.633s-1.877,5.8-5.976,5.8h-4.9V295.33Zm-1.7,8.7h1.7c2.057,0,2.776-1.535,2.776-3.1a2.612,2.612,0,0,0-2.776-2.906h-1.7Z" transform="translate(-106.033 -295.004)"/>
        <path id="Path_796" data-name="Path 796" class="cls-3" d="M187.651,306.91c-3.74,0-6.352-2.172-6.352-5.992,0-3.756,2.612-5.993,6.352-5.993,3.755,0,6.352,2.188,6.352,5.993C194,304.738,191.406,306.91,187.651,306.91Zm0-9.226a3.235,3.235,0,1,0,3.119,3.234A2.98,2.98,0,0,0,187.651,297.684Z" transform="translate(-113.044 -294.876)"/>
        <path id="Path_797" data-name="Path 797" class="cls-3" d="M215.022,298.56a3.775,3.775,0,0,0-2.612-1c-1.862,0-3.069,1.11-3.069,3.347a3,3,0,0,0,3.069,3.282,3.976,3.976,0,0,0,2.2-.587v-1.47h-2.89V299.6h5.584v5.078c-.718,1.454-2.711,2.237-4.915,2.237-4.523,0-6.237-3.021-6.237-6.009a5.859,5.859,0,0,1,6.254-6.057A5.712,5.712,0,0,1,216.9,296.7Z" transform="translate(-120.882 -294.854)"/>
        <path id="Path_798" data-name="Path 798" class="cls-3" d="M236.568,298.393a4.28,4.28,0,0,0-2.678-.783c-.784,0-1.551.244-1.551.848,0,.784.768.9,1.894,1.013,2.27.245,4.637,1.16,4.637,3.788,0,2.6-2.449,3.707-5.012,3.723a6.109,6.109,0,0,1-5.112-2.009l1.78-2.041a4.585,4.585,0,0,0,3.347,1.29c1.061,0,1.8-.375,1.8-1.013,0-.572-.654-.93-1.911-1.045-2.5-.229-4.654-.865-4.654-3.707,0-2.417,2.368-3.462,4.785-3.462a6.487,6.487,0,0,1,4.278,1.356Z" transform="translate(-128.005 -294.899)"/>
      </g>
    </g>
  </g>
</svg>
